0
SECTION
2
HEADER
9
$INSUNITS
70
4
9
$ACADVER
1
AC1014
9
$HANDSEED
5
FFFF
0
ENDSEC
0
SECTION
2
TABLES
0
TABLE
2
VPORT
5
8
100
AcDbSymbolTable
0
ENDTAB
0
TABLE
2
LTYPE
5
5
100
AcDbSymbolTable
0
LTYPE
5
14
100
AcDbSymbolTableRecord
100
AcDbLinetypeTableRecord
2
BYBLOCK
70
0
0
LTYPE
5
15
100
AcDbSymbolTableRecord
100
AcDbLinetypeTableRecord
2
BYLAYER
70
0
0
ENDTAB
0
TABLE
2
LAYER
5
2
100
AcDbSymbolTable
70
2
0
LAYER
5
50
100
AcDbSymbolTableRecord
100
AcDbLayerTableRecord
2
0
70
0
6
CONTINUOUS
0
ENDTAB
0
TABLE
2
STYLE
5
3
100
AcDbSymbolTable
70
1
0
STYLE
5
11
100
AcDbSymbolTableRecord
100
AcDbTextStyleTableRecord
2
STANDARD
70
0
0
ENDTAB
0
TABLE
2
VIEW
5
6
100
AcDbSymbolTable
70
0
0
ENDTAB
0
TABLE
2
UCS
5
7
100
AcDbSymbolTable
70
0
0
ENDTAB
0
TABLE
2
APPID
5
9
100
AcDbSymbolTable
70
2
0
APPID
5
12
100
AcDbSymbolTableRecord
100
AcDbRegAppTableRecord
2
ACAD
70
0
0
ENDTAB
0
TABLE
2
DIMSTYLE
5
A
100
AcDbSymbolTable
70
1
0
ENDTAB
0
TABLE
2
BLOCK_RECORD
5
1
100
AcDbSymbolTable
70
1
0
BLOCK_RECORD
5
1F
100
AcDbSymbolTableRecord
100
AcDbBlockTableRecord
2
*MODEL_SPACE
0
BLOCK_RECORD
5
1B
100
AcDbSymbolTableRecord
100
AcDbBlockTableRecord
2
*PAPER_SPACE
0
ENDTAB
0
ENDSEC
0
SECTION
2
BLOCKS
0
BLOCK
5
20
100
AcDbEntity
100
AcDbBlockBegin
2
*MODEL_SPACE
0
ENDBLK
5
21
100
AcDbEntity
100
AcDbBlockEnd
0
BLOCK
5
1C
100
AcDbEntity
100
AcDbBlockBegin
2
*PAPER_SPACE
0
ENDBLK
5
1D
100
AcDbEntity
100
AcDbBlockEnd
0
ENDSEC
0
SECTION
2
ENTITIES
0
LWPOLYLINE
5
100
100
AcDbEntity
8
0
100
AcDbPolyline
90
36
70
1
43
0.0
10
80.912800000000004
20
40.657600000000002
10
80.912800000000004
20
45.359499999999997
10
66.912099999999995
20
45.359499999999997
10
66.912099999999995
20
40.657600000000002
10
65.388099999999994
20
40.657600000000002
10
65.388099999999994
20
43.889099999999999
10
58.637000000000008
20
43.889099999999999
10
58.637000000000008
20
40.657600000000002
10
57.812899999999999
20
40.657600000000002
10
57.812899999999999
20
37.858699999999999
10
58.637000000000008
20
37.858699999999999
10
58.637000000000008
20
31.588799999999999
10
60.362000000000002
20
31.588799999999999
10
60.362000000000002
20
30.389900000000001
10
63.662600000000005
20
30.389900000000001
10
63.662600000000005
20
31.588799999999999
10
65.388099999999994
20
31.588799999999999
10
65.388099999999994
20
36.059199999999997
10
66.912099999999995
20
36.059199999999997
10
66.912099999999995
20
31.358600000000003
10
80.912800000000004
20
31.358600000000003
10
80.912800000000004
20
36.059199999999997
10
82.437100000000001
20
36.059199999999997
10
82.437100000000001
20
31.588799999999999
10
84.162200000000013
20
31.588799999999999
10
84.162200000000013
20
30.389900000000001
10
87.462800000000001
20
30.389900000000001
10
87.462800000000001
20
31.588799999999999
10
89.187899999999999
20
31.588799999999999
10
89.187899999999999
20
37.858699999999999
10
90.012
20
37.858699999999999
10
90.012
20
40.657600000000002
10
89.187899999999999
20
40.657600000000002
10
89.187899999999999
20
43.889099999999999
10
82.437100000000001
20
43.889099999999999
10
82.437100000000001
20
40.657600000000002
0
LWPOLYLINE
5
101
100
AcDbEntity
8
0
100
AcDbPolyline
90
4
70
1
43
0.0
10
7.3821600000000007
20
45.359499999999997
10
21.381700000000002
20
45.359499999999997
10
21.381700000000002
20
31.358600000000003
10
7.3821600000000007
20
31.358600000000003
0
LWPOLYLINE
5
102
100
AcDbEntity
8
0
100
AcDbPolyline
90
4
70
1
43
0.0
10
316.65700000000004
20
12.3086
10
302.65699999999998
20
12.3086
10
302.65699999999998
20
26.309500000000003
10
316.65700000000004
20
26.309500000000003
0
LWPOLYLINE
5
103
100
AcDbEntity
8
0
100
AcDbPolyline
90
4
70
1
43
0.0
10
283.31900000000007
20
45.359499999999997
10
283.31900000000007
20
31.358600000000003
10
269.32000000000005
20
31.358600000000003
10
269.32000000000005
20
45.359499999999997
0
LWPOLYLINE
5
104
100
AcDbEntity
8
0
100
AcDbPolyline
90
4
70
1
43
0.0
10
231.22
20
45.359499999999997
10
245.21900000000002
20
45.359499999999997
10
245.21900000000002
20
31.358600000000003
10
231.22
20
31.358600000000003
0
LWPOLYLINE
5
105
100
AcDbEntity
8
0
100
AcDbPolyline
90
4
70
1
43
0.0
10
321.70700000000005
20
45.359499999999997
10
335.70699999999999
20
45.359499999999997
10
335.70699999999999
20
31.358600000000003
10
321.70700000000005
20
31.358600000000003
0
LWPOLYLINE
5
106
100
AcDbEntity
8
0
100
AcDbPolyline
90
4
70
1
43
0.0
10
111.86900000000001
20
31.358600000000003
10
97.869699999999995
20
31.358600000000003
10
97.869699999999995
20
45.359499999999997
10
111.86900000000001
20
45.359499999999997
0
LWPOLYLINE
5
107
100
AcDbEntity
8
0
100
AcDbPolyline
90
4
70
1
43
0.0
10
354.75699999999995
20
45.359499999999997
10
354.75699999999995
20
31.358600000000003
10
340.75699999999995
20
31.358600000000003
10
340.75699999999995
20
45.359499999999997
0
LWPOLYLINE
5
108
100
AcDbEntity
8
0
100
AcDbPolyline
90
4
70
1
43
0.0
10
155.02000000000004
20
45.359499999999997
10
169.01900000000001
20
45.359499999999997
10
169.01900000000001
20
31.358600000000003
10
155.02000000000004
20
31.358600000000003
0
LWPOLYLINE
5
109
100
AcDbEntity
8
0
100
AcDbPolyline
90
4
70
1
43
0.0
10
297.60700000000003
20
26.309500000000003
10
297.60700000000003
20
12.3086
10
283.60700000000003
20
12.3086
10
283.60700000000003
20
26.309500000000003
0
LWPOLYLINE
5
110
100
AcDbEntity
8
0
100
AcDbPolyline
90
4
70
1
43
0.0
10
259.50700000000001
20
12.3086
10
245.50700000000003
20
12.3086
10
245.50700000000003
20
26.309500000000003
10
259.50700000000001
20
26.309500000000003
0
LWPOLYLINE
5
111
100
AcDbEntity
8
0
100
AcDbPolyline
90
4
70
1
43
0.0
10
321.70700000000005
20
12.3086
10
321.70700000000005
20
26.309500000000003
10
335.70699999999999
20
26.309500000000003
10
335.70699999999999
20
12.3086
0
LWPOLYLINE
5
112
100
AcDbEntity
8
0
100
AcDbPolyline
90
4
70
1
43
0.0
10
264.55700000000002
20
26.309500000000003
10
278.55700000000002
20
26.309500000000003
10
278.55700000000002
20
12.3086
10
264.55700000000002
20
12.3086
0
LWPOLYLINE
5
113
100
AcDbEntity
8
0
100
AcDbPolyline
90
4
70
1
43
0.0
10
212.16999999999999
20
31.358600000000003
10
212.16999999999999
20
45.359499999999997
10
226.16900000000001
20
45.359499999999997
10
226.16900000000001
20
31.358600000000003
0
LWPOLYLINE
5
114
100
AcDbEntity
8
0
100
AcDbPolyline
90
4
70
1
43
0.0
10
264.26900000000001
20
31.358600000000003
10
250.27000000000001
20
31.358600000000003
10
250.27000000000001
20
45.359499999999997
10
264.26900000000001
20
45.359499999999997
0
LWPOLYLINE
5
115
100
AcDbEntity
8
0
100
AcDbPolyline
90
4
70
1
43
0.0
10
135.97000000000003
20
45.359499999999997
10
149.96899999999999
20
45.359499999999997
10
149.96899999999999
20
31.358600000000003
10
135.97000000000003
20
31.358600000000003
0
LWPOLYLINE
5
116
100
AcDbEntity
8
0
100
AcDbPolyline
90
36
70
1
43
0.0
10
309.80099999999999
20
59.707599999999999
10
308.27600000000007
20
59.707599999999999
10
308.27600000000007
20
62.937700000000007
10
301.52600000000001
20
62.937700000000007
10
301.52600000000001
20
59.707599999999999
10
300.69999999999999
20
59.707599999999999
10
300.69999999999999
20
56.908700000000003
10
301.52600000000001
20
56.908700000000003
10
301.52600000000001
20
50.63880000000001
10
303.25099999999998
20
50.63880000000001
10
303.25099999999998
20
49.438600000000008
10
306.55000000000001
20
49.438600000000008
10
306.55000000000001
20
50.63880000000001
10
308.27600000000007
20
50.63880000000001
10
308.27600000000007
20
55.109200000000001
10
309.80099999999999
20
55.109200000000001
10
309.80099999999999
20
50.408800000000006
10
323.80000000000001
20
50.408800000000006
10
323.80000000000001
20
55.109200000000001
10
325.32599999999996
20
55.109200000000001
10
325.32599999999996
20
50.63880000000001
10
327.05100000000004
20
50.63880000000001
10
327.05100000000004
20
49.438600000000008
10
330.35000000000002
20
49.438600000000008
10
330.35000000000002
20
50.63880000000001
10
332.07500000000005
20
50.63880000000001
10
332.07500000000005
20
56.908700000000003
10
332.90100000000001
20
56.908700000000003
10
332.90100000000001
20
59.707599999999999
10
332.07500000000005
20
59.707599999999999
10
332.07500000000005
20
62.937700000000007
10
325.32599999999996
20
62.937700000000007
10
325.32599999999996
20
59.707599999999999
10
323.80000000000001
20
59.707599999999999
10
323.80000000000001
20
64.408100000000005
10
309.80099999999999
20
64.408100000000005
0
LWPOLYLINE
5
117
100
AcDbEntity
8
0
100
AcDbPolyline
90
4
70
1
43
0.0
10
295.512
20
45.359499999999997
10
309.51299999999998
20
45.359499999999997
10
309.51299999999998
20
31.358600000000003
10
295.512
20
31.358600000000003
0
LWPOLYLINE
5
118
100
AcDbEntity
8
0
100
AcDbPolyline
90
4
70
1
43
0.0
10
193.12
20
31.358600000000003
10
193.12
20
45.359499999999997
10
207.11900000000003
20
45.359499999999997
10
207.11900000000003
20
31.358600000000003
0
LWPOLYLINE
5
119
100
AcDbEntity
8
0
100
AcDbPolyline
90
4
70
1
43
0.0
10
130.91899999999998
20
31.358600000000003
10
116.92
20
31.358600000000003
10
116.92
20
45.359499999999997
10
130.91899999999998
20
45.359499999999997
0
LWPOLYLINE
5
120
100
AcDbEntity
8
0
100
AcDbPolyline
90
4
70
1
43
0.0
10
26.432200000000002
20
31.358600000000003
10
26.432200000000002
20
45.359499999999997
10
40.4315
20
45.359499999999997
10
40.4315
20
31.358600000000003
0
LWPOLYLINE
5
121
100
AcDbEntity
8
0
100
AcDbPolyline
90
4
70
1
43
0.0
10
188.06900000000002
20
31.358600000000003
10
174.06999999999999
20
31.358600000000003
10
174.06999999999999
20
45.359499999999997
10
188.06900000000002
20
45.359499999999997
0
LWPOLYLINE
5
122
100
AcDbEntity
8
0
100
AcDbPolyline
90
4
70
1
43
0.0
10
202.64500000000001
20
64.408100000000005
10
216.64400000000001
20
64.408100000000005
10
216.64400000000001
20
50.408800000000006
10
202.64500000000001
20
50.408800000000006
0
LWPOLYLINE
5
123
100
AcDbEntity
8
0
100
AcDbPolyline
90
4
70
1
43
0.0
10
62.151000000000003
20
50.408800000000006
10
62.151000000000003
20
64.408100000000005
10
76.150300000000016
20
64.408100000000005
10
76.150300000000016
20
50.408800000000006
0
LWPOLYLINE
5
124
100
AcDbEntity
8
0
100
AcDbPolyline
90
4
70
1
43
0.0
10
121.39400000000001
20
64.408100000000005
10
121.39400000000001
20
50.408800000000006
10
107.395
20
50.408800000000006
10
107.395
20
64.408100000000005
0
LWPOLYLINE
5
125
100
AcDbEntity
8
0
100
AcDbPolyline
90
4
70
1
43
0.0
10
40.4315
20
50.408800000000006
10
26.432200000000002
20
50.408800000000006
10
26.432200000000002
20
64.408100000000005
10
40.4315
20
64.408100000000005
0
LWPOLYLINE
5
126
100
AcDbEntity
8
0
100
AcDbPolyline
90
4
70
1
43
0.0
10
102.34400000000001
20
64.408100000000005
10
102.34400000000001
20
50.408800000000006
10
88.344700000000017
20
50.408800000000006
10
88.344700000000017
20
64.408100000000005
0
LWPOLYLINE
5
127
100
AcDbEntity
8
0
100
AcDbPolyline
90
4
70
1
43
0.0
10
21.381700000000002
20
50.408800000000006
10
7.3821599999999998
20
50.408800000000006
10
7.3821600000000007
20
64.408100000000005
10
21.381700000000002
20
64.408100000000005
0
LWPOLYLINE
5
128
100
AcDbEntity
8
0
100
AcDbPolyline
90
4
70
1
43
0.0
10
126.44500000000001
20
50.408800000000006
10
126.44500000000001
20
64.408100000000005
10
140.44399999999999
20
64.408100000000005
10
140.44399999999999
20
50.408800000000006
0
LWPOLYLINE
5
129
100
AcDbEntity
8
0
100
AcDbPolyline
90
4
70
1
43
0.0
10
145.495
20
64.408100000000005
10
159.494
20
64.408100000000005
10
159.494
20
50.408800000000006
10
145.495
20
50.408800000000006
0
LWPOLYLINE
5
130
100
AcDbEntity
8
0
100
AcDbPolyline
90
4
70
1
43
0.0
10
197.59400000000002
20
64.408100000000005
10
197.59400000000002
20
50.408800000000006
10
183.595
20
50.408800000000006
10
183.595
20
64.408100000000005
0
LWPOLYLINE
5
131
100
AcDbEntity
8
0
100
AcDbPolyline
90
4
70
1
43
0.0
10
178.54400000000001
20
50.408800000000006
10
164.54499999999999
20
50.408800000000006
10
164.54499999999999
20
64.408100000000005
10
178.54400000000001
20
64.408100000000005
0
LWPOLYLINE
5
132
100
AcDbEntity
8
0
100
AcDbPolyline
90
4
70
1
43
0.0
10
21.381700000000002
20
69.458799999999997
10
7.3821599999999998
20
69.458799999999997
10
7.3821600000000007
20
83.458100000000002
10
21.381700000000002
20
83.458100000000002
0
LWPOLYLINE
5
133
100
AcDbEntity
8
0
100
AcDbPolyline
90
4
70
1
43
0.0
10
173.78200000000004
20
69.458799999999997
10
159.78200000000001
20
69.458799999999997
10
159.78200000000001
20
83.458100000000002
10
173.78200000000004
20
83.458100000000002
0
LWPOLYLINE
5
134
100
AcDbEntity
8
0
100
AcDbPolyline
90
4
70
1
43
0.0
10
26.432200000000002
20
69.458799999999997
10
26.432200000000002
20
83.458100000000002
10
40.4315
20
83.458100000000002
10
40.4315
20
69.458799999999997
0
LWPOLYLINE
5
135
100
AcDbEntity
8
0
100
AcDbPolyline
90
4
70
1
43
0.0
10
154.732
20
69.458799999999997
10
140.732
20
69.458799999999997
10
140.732
20
83.458100000000002
10
154.732
20
83.458100000000002
0
LWPOLYLINE
5
136
100
AcDbEntity
8
0
100
AcDbPolyline
90
4
70
1
43
0.0
10
273.79400000000004
20
50.408800000000006
10
259.79500000000002
20
50.408800000000006
10
259.79500000000002
20
64.408100000000005
10
273.79400000000004
20
64.408100000000005
0
LWPOLYLINE
5
137
100
AcDbEntity
8
0
100
AcDbPolyline
90
4
70
1
43
0.0
10
121.682
20
69.458799999999997
10
121.682
20
83.458100000000002
10
135.68200000000002
20
83.458100000000002
10
135.68200000000002
20
69.458799999999997
0
LWPOLYLINE
5
138
100
AcDbEntity
8
0
100
AcDbPolyline
90
4
70
1
43
0.0
10
278.84500000000003
20
50.408800000000006
10
278.84500000000003
20
64.408100000000005
10
292.84399999999999
20
64.408100000000005
10
292.84399999999999
20
50.408800000000006
0
LWPOLYLINE
5
139
100
AcDbEntity
8
0
100
AcDbPolyline
90
4
70
1
43
0.0
10
73.768999999999991
20
83.458100000000002
10
73.768999999999991
20
69.458799999999997
10
59.769700000000007
20
69.458799999999997
10
59.769700000000007
20
83.458100000000002
0
LWPOLYLINE
5
140
100
AcDbEntity
8
0
100
AcDbPolyline
90
4
70
1
43
0.0
10
178.83199999999999
20
69.458799999999997
10
178.83199999999999
20
83.458100000000002
10
192.83199999999999
20
83.458100000000002
10
192.83199999999999
20
69.458799999999997
0
LWPOLYLINE
5
141
100
AcDbEntity
8
0
100
AcDbPolyline
90
4
70
1
43
0.0
10
254.74400000000003
20
50.408800000000006
10
240.745
20
50.408800000000006
10
240.745
20
64.408100000000005
10
254.74400000000003
20
64.408100000000005
0
LWPOLYLINE
5
142
100
AcDbEntity
8
0
100
AcDbPolyline
90
4
70
1
43
0.0
10
354.75699999999995
20
64.408100000000005
10
354.75699999999995
20
50.408800000000006
10
340.75699999999995
20
50.408800000000006
10
340.75699999999995
20
64.408100000000005
0
LWPOLYLINE
5
143
100
AcDbEntity
8
0
100
AcDbPolyline
90
4
70
1
43
0.0
10
235.69400000000002
20
50.408800000000006
10
221.69499999999999
20
50.408800000000006
10
221.69499999999999
20
64.408100000000005
10
235.69400000000002
20
64.408100000000005
0
LWPOLYLINE
5
144
100
AcDbEntity
8
0
100
AcDbPolyline
90
4
70
1
43
0.0
10
102.63200000000001
20
83.458100000000002
10
116.63200000000002
20
83.458100000000002
10
116.63200000000002
20
69.458799999999997
10
102.63200000000001
20
69.458799999999997
0
LWPOLYLINE
5
145
100
AcDbEntity
8
0
100
AcDbPolyline
90
4
70
1
43
0.0
10
83.582200000000014
20
83.458100000000002
10
97.581500000000005
20
83.458100000000002
10
97.581500000000005
20
69.458799999999997
10
83.582200000000014
20
69.458799999999997
0
LWPOLYLINE
5
146
100
AcDbEntity
8
0
100
AcDbPolyline
90
4
70
1
43
0.0
10
211.88200000000001
20
83.458100000000002
10
211.88200000000001
20
69.458799999999997
10
197.88200000000003
20
69.458799999999997
10
197.88200000000003
20
83.458100000000002
0
LWPOLYLINE
5
147
100
AcDbEntity
8
0
100
AcDbPolyline
90
4
70
1
43
0.0
10
216.93200000000004
20
83.458100000000002
10
230.93200000000002
20
83.458100000000002
10
230.93200000000002
20
69.458799999999997
10
216.93200000000004
20
69.458799999999997
0
LWPOLYLINE
5
148
100
AcDbEntity
8
0
100
AcDbPolyline
90
36
70
1
43
0.0
10
310.65699999999998
20
97.807600000000008
10
310.65699999999998
20
101.038
10
303.90699999999998
20
101.038
10
303.90699999999998
20
97.807600000000008
10
303.08199999999999
20
97.807600000000008
10
303.08199999999999
20
95.008700000000005
10
303.90699999999998
20
95.008700000000005
10
303.90699999999998
20
88.738799999999998
10
305.63099999999997
20
88.738799999999998
10
305.63099999999997
20
87.538600000000017
10
308.93099999999998
20
87.538600000000017
10
308.93099999999998
20
88.738799999999998
10
310.65699999999998
20
88.738799999999998
10
310.65699999999998
20
93.207800000000006
10
312.18200000000002
20
93.207800000000006
10
312.18200000000002
20
88.508800000000008
10
326.18200000000002
20
88.508800000000008
10
326.18200000000002
20
93.207800000000006
10
327.70699999999999
20
93.207800000000006
10
327.70699999999999
20
88.738799999999998
10
329.43100000000004
20
88.738799999999998
10
329.43100000000004
20
87.538600000000017
10
332.73199999999997
20
87.538600000000017
10
332.73199999999997
20
88.738799999999998
10
334.45699999999999
20
88.738799999999998
10
334.45699999999999
20
95.008700000000005
10
335.28100000000001
20
95.008700000000005
10
335.28100000000001
20
97.807600000000008
10
334.45699999999999
20
97.807600000000008
10
334.45699999999999
20
101.038
10
327.70699999999999
20
101.038
10
327.70699999999999
20
97.807600000000008
10
326.18200000000002
20
97.807600000000008
10
326.18200000000002
20
102.508
10
312.18200000000002
20
102.508
10
312.18200000000002
20
97.807600000000008
0
LWPOLYLINE
5
149
100
AcDbEntity
8
0
100
AcDbPolyline
90
4
70
1
43
0.0
10
288.08199999999999
20
69.458799999999997
10
274.08199999999999
20
69.458799999999997
10
274.08199999999999
20
83.458100000000002
10
288.08199999999999
20
83.458100000000002
0
LWPOLYLINE
5
150
100
AcDbEntity
8
0
100
AcDbPolyline
90
4
70
1
43
0.0
10
269.03199999999998
20
69.458799999999997
10
255.03200000000004
20
69.458799999999997
10
255.03200000000004
20
83.458100000000002
10
269.03199999999998
20
83.458100000000002
0
LWPOLYLINE
5
151
100
AcDbEntity
8
0
100
AcDbPolyline
90
4
70
1
43
0.0
10
235.98200000000003
20
69.458799999999997
10
235.98200000000003
20
83.458100000000002
10
249.982
20
83.458100000000002
10
249.982
20
69.458799999999997
0
LWPOLYLINE
5
152
100
AcDbEntity
8
0
100
AcDbPolyline
90
4
70
1
43
0.0
10
307.13200000000001
20
69.458799999999997
10
293.13200000000001
20
69.458799999999997
10
293.13200000000001
20
83.458100000000002
10
307.13200000000001
20
83.458100000000002
0
LWPOLYLINE
5
153
100
AcDbEntity
8
0
100
AcDbPolyline
90
4
70
1
43
0.0
10
7.3821600000000007
20
102.508
10
21.381700000000002
20
102.508
10
21.381700000000002
20
88.508800000000008
10
7.3821599999999998
20
88.508800000000008
0
LWPOLYLINE
5
154
100
AcDbEntity
8
0
100
AcDbPolyline
90
4
70
1
43
0.0
10
316.94499999999999
20
69.458799999999997
10
316.94499999999999
20
83.458100000000002
10
330.94400000000002
20
83.458100000000002
10
330.94400000000002
20
69.458799999999997
0
LWPOLYLINE
5
155
100
AcDbEntity
8
0
100
AcDbPolyline
90
4
70
1
43
0.0
10
340.75699999999995
20
83.458100000000002
10
354.75699999999995
20
83.458100000000002
10
354.75699999999995
20
69.458799999999997
10
340.75699999999995
20
69.458799999999997
0
LWPOLYLINE
5
156
100
AcDbEntity
8
0
100
AcDbPolyline
90
4
70
1
43
0.0
10
207.40700000000004
20
88.508800000000008
10
207.40700000000004
20
102.508
10
221.40700000000004
20
102.508
10
221.40700000000004
20
88.508800000000008
0
LWPOLYLINE
5
157
100
AcDbEntity
8
0
100
AcDbPolyline
90
4
70
1
43
0.0
10
88.0565
20
102.508
10
88.0565
20
88.508800000000008
10
74.057199999999995
20
88.508800000000008
10
74.057199999999995
20
102.508
0
LWPOLYLINE
5
158
100
AcDbEntity
8
0
100
AcDbPolyline
90
4
70
1
43
0.0
10
164.25700000000003
20
102.508
10
164.25700000000003
20
88.508800000000008
10
150.25700000000001
20
88.508800000000008
10
150.25700000000001
20
102.508
0
LWPOLYLINE
5
159
100
AcDbEntity
8
0
100
AcDbPolyline
90
4
70
1
43
0.0
10
188.357
20
102.508
10
202.35700000000003
20
102.508
10
202.35700000000003
20
88.508800000000008
10
188.357
20
88.508800000000008
0
LWPOLYLINE
5
160
100
AcDbEntity
8
0
100
AcDbPolyline
90
4
70
1
43
0.0
10
297.60700000000003
20
102.508
10
297.60700000000003
20
88.508800000000008
10
283.60700000000003
20
88.508800000000008
10
283.60700000000003
20
102.508
0
LWPOLYLINE
5
161
100
AcDbEntity
8
0
100
AcDbPolyline
90
4
70
1
43
0.0
10
183.30700000000004
20
88.508800000000008
10
169.30700000000002
20
88.508800000000008
10
169.30700000000002
20
102.508
10
183.30700000000004
20
102.508
0
LWPOLYLINE
5
162
100
AcDbEntity
8
0
100
AcDbPolyline
90
4
70
1
43
0.0
10
278.55700000000002
20
102.508
10
278.55700000000002
20
88.508800000000008
10
264.55700000000002
20
88.508800000000008
10
264.55700000000002
20
102.508
0
LWPOLYLINE
5
163
100
AcDbEntity
8
0
100
AcDbPolyline
90
4
70
1
43
0.0
10
26.432200000000002
20
102.508
10
40.4315
20
102.508
10
40.4315
20
88.508800000000008
10
26.432200000000002
20
88.508800000000008
0
LWPOLYLINE
5
164
100
AcDbEntity
8
0
100
AcDbPolyline
90
4
70
1
43
0.0
10
55.007200000000005
20
88.508800000000008
10
55.007200000000005
20
102.508
10
69.006500000000003
20
102.508
10
69.006500000000003
20
88.508800000000008
0
LWPOLYLINE
5
165
100
AcDbEntity
8
0
100
AcDbPolyline
90
4
70
1
43
0.0
10
126.15700000000002
20
88.508800000000008
10
112.15700000000001
20
88.508800000000008
10
112.15700000000001
20
102.508
10
126.15700000000002
20
102.508
0
LWPOLYLINE
5
166
100
AcDbEntity
8
0
100
AcDbPolyline
90
4
70
1
43
0.0
10
93.10720000000002
20
88.508800000000008
10
93.10720000000002
20
102.508
10
107.10700000000003
20
102.508
10
107.10700000000003
20
88.508800000000008
0
LWPOLYLINE
5
167
100
AcDbEntity
8
0
100
AcDbPolyline
90
4
70
1
43
0.0
10
131.20699999999999
20
88.508800000000008
10
131.20699999999999
20
102.508
10
145.20699999999999
20
102.508
10
145.20699999999999
20
88.508800000000008
0
LWPOLYLINE
5
168
100
AcDbEntity
8
0
100
AcDbPolyline
90
4
70
1
43
0.0
10
16.9072
20
131.083
10
30.906600000000001
20
131.083
10
30.906600000000001
20
117.084
10
16.9072
20
117.084
0
LWPOLYLINE
5
169
100
AcDbEntity
8
0
100
AcDbPolyline
90
4
70
1
43
0.0
10
183.30700000000004
20
121.84600000000002
10
169.30700000000002
20
121.84600000000002
10
169.30700000000002
20
135.846
10
183.30700000000004
20
135.846
0
LWPOLYLINE
5
170
100
AcDbEntity
8
0
100
AcDbPolyline
90
4
70
1
43
0.0
10
340.75699999999995
20
88.508800000000008
10
340.75699999999995
20
102.508
10
354.75699999999995
20
102.508
10
354.75699999999995
20
88.508800000000008
0
LWPOLYLINE
5
171
100
AcDbEntity
8
0
100
AcDbPolyline
90
4
70
1
43
0.0
10
202.35700000000003
20
135.846
10
202.35700000000003
20
121.84600000000002
10
188.357
20
121.84600000000002
10
188.357
20
135.846
0
LWPOLYLINE
5
172
100
AcDbEntity
8
0
100
AcDbPolyline
90
4
70
1
43
0.0
10
226.45700000000002
20
102.508
10
240.45699999999999
20
102.508
10
240.45699999999999
20
88.508800000000008
10
226.45700000000002
20
88.508800000000008
0
LWPOLYLINE
5
173
100
AcDbEntity
8
0
100
AcDbPolyline
90
4
70
1
43
0.0
10
245.50700000000003
20
88.508800000000008
10
245.50700000000003
20
102.508
10
259.50700000000001
20
102.508
10
259.50700000000001
20
88.508800000000008
0
LWPOLYLINE
5
174
100
AcDbEntity
8
0
100
AcDbPolyline
90
4
70
1
43
0.0
10
88.0565
20
135.846
10
88.0565
20
121.84600000000002
10
74.057199999999995
20
121.84600000000002
10
74.057199999999995
20
135.846
0
LWPOLYLINE
5
175
100
AcDbEntity
8
0
100
AcDbPolyline
90
4
70
1
43
0.0
10
107.10700000000003
20
121.84600000000002
10
93.10720000000002
20
121.84600000000002
10
93.10720000000002
20
135.846
10
107.10700000000003
20
135.846
0
LWPOLYLINE
5
176
100
AcDbEntity
8
0
100
AcDbPolyline
90
4
70
1
43
0.0
10
207.40700000000004
20
135.846
10
221.40700000000004
20
135.846
10
221.40700000000004
20
121.84600000000002
10
207.40700000000004
20
121.84600000000002
0
LWPOLYLINE
5
177
100
AcDbEntity
8
0
100
AcDbPolyline
90
4
70
1
43
0.0
10
145.20699999999999
20
121.84600000000002
10
131.20699999999999
20
121.84600000000002
10
131.20699999999999
20
135.846
10
145.20699999999999
20
135.846
0
LWPOLYLINE
5
178
100
AcDbEntity
8
0
100
AcDbPolyline
90
4
70
1
43
0.0
10
126.15700000000002
20
135.846
10
126.15700000000002
20
121.84600000000002
10
112.15700000000001
20
121.84600000000002
10
112.15700000000001
20
135.846
0
LWPOLYLINE
5
179
100
AcDbEntity
8
0
100
AcDbPolyline
90
4
70
1
43
0.0
10
321.70700000000005
20
135.846
10
335.70699999999999
20
135.846
10
335.70699999999999
20
121.84600000000002
10
321.70700000000005
20
121.84600000000002
0
LWPOLYLINE
5
180
100
AcDbEntity
8
0
100
AcDbPolyline
90
4
70
1
43
0.0
10
150.25700000000001
20
135.846
10
164.25700000000003
20
135.846
10
164.25700000000003
20
121.84600000000002
10
150.25700000000001
20
121.84600000000002
0
LWPOLYLINE
5
181
100
AcDbEntity
8
0
100
AcDbPolyline
90
4
70
1
43
0.0
10
340.75699999999995
20
135.846
10
354.75699999999995
20
135.846
10
354.75699999999995
20
121.84600000000002
10
340.75699999999995
20
121.84600000000002
0
LWPOLYLINE
5
182
100
AcDbEntity
8
0
100
AcDbPolyline
90
4
70
1
43
0.0
10
55.007200000000005
20
135.846
10
69.006500000000003
20
135.846
10
69.006500000000003
20
121.84600000000002
10
55.007200000000005
20
121.84600000000002
0
LWPOLYLINE
5
183
100
AcDbEntity
8
0
100
AcDbPolyline
90
4
70
1
43
0.0
10
297.60700000000003
20
135.846
10
297.60700000000003
20
121.84600000000002
10
283.60700000000003
20
121.84600000000002
10
283.60700000000003
20
135.846
0
LWPOLYLINE
5
184
100
AcDbEntity
8
0
100
AcDbPolyline
90
4
70
1
43
0.0
10
259.50700000000001
20
135.846
10
259.50700000000001
20
121.84600000000002
10
245.50700000000003
20
121.84600000000002
10
245.50700000000003
20
135.846
0
LWPOLYLINE
5
185
100
AcDbEntity
8
0
100
AcDbPolyline
90
4
70
1
43
0.0
10
264.55700000000002
20
121.84600000000002
10
264.55700000000002
20
135.846
10
278.55700000000002
20
135.846
10
278.55700000000002
20
121.84600000000002
0
LWPOLYLINE
5
186
100
AcDbEntity
8
0
100
AcDbPolyline
90
4
70
1
43
0.0
10
240.45699999999999
20
135.846
10
240.45699999999999
20
121.84600000000002
10
226.45700000000002
20
121.84600000000002
10
226.45700000000002
20
135.846
0
LWPOLYLINE
5
187
100
AcDbEntity
8
0
100
AcDbPolyline
90
4
70
1
43
0.0
10
302.65699999999998
20
121.84600000000002
10
302.65699999999998
20
135.846
10
316.65700000000004
20
135.846
10
316.65700000000004
20
121.84600000000002
0
LWPOLYLINE
5
188
100
AcDbEntity
8
0
100
AcDbPolyline
90
36
70
1
43
0.0
10
136.82600000000002
20
12.538800000000002
10
136.82600000000002
20
17.0077
10
176.45099999999999
20
17.0077
10
176.45099999999999
20
12.3086
10
190.44999999999999
20
12.3086
10
190.44999999999999
20
17.0077
10
230.07599999999999
20
17.0077
10
230.07599999999999
20
12.538800000000002
10
231.80000000000004
20
12.538800000000002
10
231.80000000000004
20
11.3385
10
235.10000000000002
20
11.3385
10
235.10000000000002
20
12.538800000000002
10
236.82500000000002
20
12.538800000000002
10
236.82500000000002
20
18.808800000000005
10
237.65100000000001
20
18.808800000000005
10
237.65100000000001
20
21.609000000000002
10
236.82500000000002
20
21.609000000000002
10
236.82500000000002
20
24.839200000000005
10
230.07599999999999
20
24.839200000000005
10
230.07599999999999
20
21.609000000000002
10
190.44999999999999
20
21.609000000000002
10
190.44999999999999
20
26.309500000000003
10
176.45099999999999
20
26.309500000000003
10
176.45099999999999
20
21.609000000000002
10
136.82600000000002
20
21.609000000000002
10
136.82600000000002
20
24.839200000000005
10
130.07599999999999
20
24.839200000000005
10
130.07599999999999
20
21.609000000000002
10
129.25
20
21.609000000000002
10
129.25
20
18.808800000000005
10
130.07599999999999
20
18.808800000000005
10
130.07599999999999
20
12.538800000000002
10
131.80100000000004
20
12.538800000000002
10
131.80100000000004
20
11.3385
10
135.09999999999999
20
11.3385
10
135.09999999999999
20
12.538800000000002
0
LWPOLYLINE
5
189
100
AcDbEntity
8
0
100
AcDbPolyline
90
4
70
1
43
0.0
10
71.387799999999999
20
12.3086
10
57.387100000000004
20
12.3086
10
57.387100000000004
20
26.309500000000003
10
71.387799999999999
20
26.309500000000003
0
LWPOLYLINE
5
190
100
AcDbEntity
8
0
100
AcDbPolyline
90
4
70
1
43
0.0
10
105.012
20
26.309500000000003
10
119.01299999999999
20
26.309500000000003
10
119.01299999999999
20
12.3086
10
105.012
20
12.3086
0
LWPOLYLINE
5
191
100
AcDbEntity
8
0
100
AcDbPolyline
90
4
70
1
43
0.0
10
81.201000000000008
20
12.3086
10
81.201000000000008
20
26.309500000000003
10
95.200299999999999
20
26.309500000000003
10
95.200299999999999
20
12.3086
0
LWPOLYLINE
5
192
100
AcDbEntity
8
0
100
AcDbPolyline
90
4
70
1
43
0.0
10
40.4315
20
12.3086
10
26.432200000000002
20
12.3086
10
26.432200000000002
20
26.309500000000003
10
40.4315
20
26.309500000000003
0
LWPOLYLINE
5
193
100
AcDbEntity
8
0
100
AcDbPolyline
90
4
70
1
43
0.0
10
340.75699999999995
20
26.309500000000003
10
354.75699999999995
20
26.309500000000003
10
354.75699999999995
20
12.309500000000002
10
340.75699999999995
20
12.309500000000002
0
LWPOLYLINE
5
194
100
AcDbEntity
8
0
100
AcDbPolyline
90
8
70
1
43
0.0
10
0.095084600000000019
20
145.10890699999999
10
362.04500000000002
20
145.10890699999993
42
-0.41421356237309503
10
364.04499999999996
20
143.10890699999999
10
364.04500000000007
20
0.23360000000000061
42
-0.41421356237309503
10
362.04500000000002
20
-1.7663999999999995
10
0.09508460000000013
20
-1.766400000000008
42
-0.41421356237309503
10
-1.904915400000005
20
0.2335999999999972
10
-1.904915399999993
20
143.10890699999999
42
-0.41421356237309503
0
CIRCLE
5
195
100
AcDbEntity
8
0
100
AcDbCircle
10
49.625084599999994
20
112.14890699999998
30
0
40
1.0999999999999952
210
0
220
0
230
1
0
CIRCLE
5
196
100
AcDbEntity
8
0
100
AcDbCircle
10
323.21500000000003
20
112.14890699999998
30
0
40
1.2000000000000155
210
0
220
0
230
1
0
CIRCLE
5
197
100
AcDbEntity
8
0
100
AcDbCircle
10
297.1749999999999
20
57.863600000000012
30
0
40
1.2000000000000084
210
0
220
0
230
1
0
LWPOLYLINE
5
198
100
AcDbEntity
8
0
100
AcDbPolyline
90
4
70
1
43
0.0
10
7.3821600000000007
20
26.309500000000003
10
21.382160000000002
20
26.309500000000003
10
21.382160000000002
20
12.309500000000002
10
7.3821600000000007
20
12.309500000000002
0
CIRCLE
5
199
100
AcDbEntity
8
0
100
AcDbCircle
10
55.925084599999991
20
39.963599999999992
30
0
40
1.200000000000002
210
0
220
0
230
1
0
ENDSEC
0
SECTION
2
OBJECTS
0
DICTIONARY
5
C
100
AcDbDictionary
3
ACAD_GROUP
350
D
3
ACAD_MLINESTYLE
350
17
0
DICTIONARY
5
D
100
AcDbDictionary
0
DICTIONARY
5
1A
330
C
100
AcDbDictionary
0
DICTIONARY
5
17
100
AcDbDictionary
0
ENDSEC
0
EOF
