%TF.GenerationSoftware,KiCad,Pcbnew,(6.0.11)*%
%TF.CreationDate,2023-03-01T00:12:33+07:00*%
%TF.ProjectId,Extero75,45787465-726f-4373-952e-6b696361645f,rev?*%
%TF.SameCoordinates,PX23b22f0PYc57ca40*%
%TF.FileFunction,Soldermask,Top*%
%TF.FilePolarity,Negative*%
%FSLAX46Y46*%
G04 Gerber Fmt 4.6, Leading zero omitted, Abs format (unit mm)*
G04 Created by KiCad (PCBNEW (6.0.11)) date 2023-03-01 00:12:33*
%MOMM*%
%LPD*%
G01*
G04 APERTURE LIST*
%ADD10C,3.000000*%
%ADD11C,1.750000*%
%ADD12C,3.987800*%
%ADD13C,3.048000*%
%ADD14C,2.200000*%
%ADD15R,2.000000X2.000000*%
%ADD16C,2.000000*%
%ADD17R,3.200000X2.000000*%
%ADD18C,0.650000*%
%ADD19O,1.000000X1.800000*%
%ADD20O,1.000000X2.100000*%
G04 APERTURE END LIST*
D10*
%TO.C,Num3*%
X115255000Y97775000D03*
D11*
X124145000Y95235000D03*
D10*
X121605000Y100315000D03*
D11*
X113985000Y95235000D03*
D12*
X119065000Y95235000D03*
%TD*%
D11*
%TO.C,FNKEY1*%
X276545000Y19035000D03*
D12*
X271465000Y19035000D03*
D10*
X274005000Y24115000D03*
X267655000Y21575000D03*
D11*
X266385000Y19035000D03*
%TD*%
D12*
%TO.C,F2*%
X100015000Y128572500D03*
D10*
X102555000Y133652500D03*
X96205000Y131112500D03*
D11*
X105095000Y128572500D03*
X94935000Y128572500D03*
%TD*%
%TO.C,F5*%
X162245000Y128572500D03*
D10*
X153355000Y131112500D03*
X159705000Y133652500D03*
D11*
X152085000Y128572500D03*
D12*
X157165000Y128572500D03*
%TD*%
D10*
%TO.C,G1*%
X173992500Y62215000D03*
X167642500Y59675000D03*
D12*
X171452500Y57135000D03*
D11*
X176532500Y57135000D03*
X166372500Y57135000D03*
%TD*%
%TO.C,EXTRA6*%
X28260000Y95235000D03*
X38420000Y95235000D03*
D10*
X29530000Y97775000D03*
X35880000Y100315000D03*
D12*
X33340000Y95235000D03*
%TD*%
D10*
%TO.C,L1*%
X243842500Y59675000D03*
D11*
X242572500Y57135000D03*
D12*
X247652500Y57135000D03*
D10*
X250192500Y62215000D03*
D11*
X252732500Y57135000D03*
%TD*%
D12*
%TO.C,Num7*%
X195265000Y95235000D03*
D11*
X190185000Y95235000D03*
D10*
X197805000Y100315000D03*
D11*
X200345000Y95235000D03*
D10*
X191455000Y97775000D03*
%TD*%
%TO.C,MinusSign1*%
X274005000Y100315000D03*
X267655000Y97775000D03*
D12*
X271465000Y95235000D03*
D11*
X276545000Y95235000D03*
X266385000Y95235000D03*
%TD*%
%TO.C,EXTRA8*%
X38420000Y57135000D03*
X28260000Y57135000D03*
D10*
X35880000Y62215000D03*
D12*
X33340000Y57135000D03*
D10*
X29530000Y59675000D03*
%TD*%
D11*
%TO.C,K1*%
X223522500Y57135000D03*
X233682500Y57135000D03*
D12*
X228602500Y57135000D03*
D10*
X231142500Y62215000D03*
X224792500Y59675000D03*
%TD*%
D11*
%TO.C,EXTRA9*%
X38420000Y38085000D03*
X28260000Y38085000D03*
D12*
X33340000Y38085000D03*
D10*
X35880000Y43165000D03*
X29530000Y40625000D03*
%TD*%
D11*
%TO.C,I1*%
X218760000Y76185000D03*
D10*
X226380000Y81265000D03*
D12*
X223840000Y76185000D03*
D10*
X220030000Y78725000D03*
D11*
X228920000Y76185000D03*
%TD*%
%TO.C,WINDOWSKEY1*%
X83010000Y19035000D03*
X93170000Y19035000D03*
D10*
X90630000Y24115000D03*
D12*
X88090000Y19035000D03*
D10*
X84280000Y21575000D03*
%TD*%
%TO.C,Num8*%
X216855000Y100315000D03*
X210505000Y97775000D03*
D11*
X209235000Y95235000D03*
X219395000Y95235000D03*
D12*
X214315000Y95235000D03*
%TD*%
D11*
%TO.C,E1*%
X123510000Y76185000D03*
D10*
X131130000Y81265000D03*
X124780000Y78725000D03*
D12*
X128590000Y76185000D03*
D11*
X133670000Y76185000D03*
%TD*%
D10*
%TO.C,Num2*%
X102555000Y100315000D03*
X96205000Y97775000D03*
D12*
X100015000Y95235000D03*
D11*
X94935000Y95235000D03*
X105095000Y95235000D03*
%TD*%
%TO.C,Q1*%
X85410000Y76185000D03*
D12*
X90490000Y76185000D03*
D11*
X95570000Y76185000D03*
D10*
X86680000Y78725000D03*
X93030000Y81265000D03*
%TD*%
D11*
%TO.C,Jkey1*%
X204472500Y57135000D03*
D10*
X212092500Y62215000D03*
D11*
X214632500Y57135000D03*
D10*
X205742500Y59675000D03*
D12*
X209552500Y57135000D03*
%TD*%
D10*
%TO.C,EXTRA5*%
X10480000Y21575000D03*
D11*
X9210000Y19035000D03*
D10*
X16830000Y24115000D03*
D11*
X19370000Y19035000D03*
D12*
X14290000Y19035000D03*
%TD*%
D11*
%TO.C,U2*%
X209870000Y76185000D03*
D10*
X200980000Y78725000D03*
D11*
X199710000Y76185000D03*
D10*
X207330000Y81265000D03*
D12*
X204790000Y76185000D03*
%TD*%
D11*
%TO.C,T1*%
X161610000Y76185000D03*
D10*
X169230000Y81265000D03*
D12*
X166690000Y76185000D03*
D10*
X162880000Y78725000D03*
D11*
X171770000Y76185000D03*
%TD*%
%TO.C,ESC1*%
X66995000Y128572500D03*
D10*
X58105000Y131112500D03*
D11*
X56835000Y128572500D03*
D10*
X64455000Y133652500D03*
D12*
X61915000Y128572500D03*
%TD*%
D10*
%TO.C,F4*%
X134305000Y131112500D03*
D11*
X133035000Y128572500D03*
X143195000Y128572500D03*
D10*
X140655000Y133652500D03*
D12*
X138115000Y128572500D03*
%TD*%
%TO.C,EXTRA3*%
X14290000Y57135000D03*
D10*
X16830000Y62215000D03*
D11*
X9210000Y57135000D03*
D10*
X10480000Y59675000D03*
D11*
X19370000Y57135000D03*
%TD*%
D10*
%TO.C,PRTSC1*%
X331155000Y133652500D03*
X324805000Y131112500D03*
D12*
X328615000Y128572500D03*
D11*
X333695000Y128572500D03*
X323535000Y128572500D03*
%TD*%
D10*
%TO.C,F6*%
X172405000Y131112500D03*
D11*
X171135000Y128572500D03*
D10*
X178755000Y133652500D03*
D12*
X176215000Y128572500D03*
D11*
X181295000Y128572500D03*
%TD*%
D12*
%TO.C,Num1*%
X80965000Y95235000D03*
D10*
X77155000Y97775000D03*
D11*
X75885000Y95235000D03*
D10*
X83505000Y100315000D03*
D11*
X86045000Y95235000D03*
%TD*%
%TO.C,F8*%
X209235000Y128572500D03*
D10*
X216855000Y133652500D03*
D11*
X219395000Y128572500D03*
D12*
X214315000Y128572500D03*
D10*
X210505000Y131112500D03*
%TD*%
%TO.C,RIGHTALT1*%
X248605000Y21575000D03*
D11*
X247335000Y19035000D03*
X257495000Y19035000D03*
D12*
X252415000Y19035000D03*
D10*
X254955000Y24115000D03*
%TD*%
%TO.C,EqualSign1*%
X293055000Y100315000D03*
X286705000Y97775000D03*
D11*
X295595000Y95235000D03*
X285435000Y95235000D03*
D12*
X290515000Y95235000D03*
%TD*%
D11*
%TO.C,M1*%
X213997500Y38085000D03*
D10*
X215267500Y40625000D03*
D11*
X224157500Y38085000D03*
D10*
X221617500Y43165000D03*
D12*
X219077500Y38085000D03*
%TD*%
D10*
%TO.C,Dkey1*%
X135892500Y62215000D03*
D12*
X133352500Y57135000D03*
D10*
X129542500Y59675000D03*
D11*
X128272500Y57135000D03*
X138432500Y57135000D03*
%TD*%
%TO.C,F7*%
X200345000Y128572500D03*
X190185000Y128572500D03*
D10*
X191455000Y131112500D03*
X197805000Y133652500D03*
D12*
X195265000Y128572500D03*
%TD*%
D11*
%TO.C,A1*%
X90172500Y57135000D03*
D10*
X91442500Y59675000D03*
D11*
X100332500Y57135000D03*
D12*
X95252500Y57135000D03*
D10*
X97792500Y62215000D03*
%TD*%
%TO.C,O1*%
X245430000Y81265000D03*
X239080000Y78725000D03*
D11*
X237810000Y76185000D03*
D12*
X242890000Y76185000D03*
D11*
X247970000Y76185000D03*
%TD*%
D10*
%TO.C,LEFTCTRL1*%
X66817500Y24115000D03*
D11*
X59197500Y19035000D03*
D10*
X60467500Y21575000D03*
D11*
X69357500Y19035000D03*
D12*
X64277500Y19035000D03*
%TD*%
%TO.C,SPACEBAR1*%
X183340000Y19035000D03*
X233339900Y10780000D03*
D10*
X179530000Y21575000D03*
D11*
X188420000Y19035000D03*
X178260000Y19035000D03*
D13*
X233339900Y26020000D03*
X133340100Y26020000D03*
D10*
X185880000Y24115000D03*
D12*
X133340100Y10780000D03*
%TD*%
D14*
%TO.C,H3*%
X55830000Y39720000D03*
%TD*%
D12*
%TO.C,P1*%
X261940000Y76185000D03*
D11*
X267020000Y76185000D03*
X256860000Y76185000D03*
D10*
X258130000Y78725000D03*
X264480000Y81265000D03*
%TD*%
%TO.C,Quote1*%
X281942500Y59675000D03*
D11*
X290832500Y57135000D03*
D10*
X288292500Y62215000D03*
D12*
X285752500Y57135000D03*
D11*
X280672500Y57135000D03*
%TD*%
D10*
%TO.C,Fkey1*%
X154942500Y62215000D03*
D11*
X147322500Y57135000D03*
X157482500Y57135000D03*
D12*
X152402500Y57135000D03*
D10*
X148592500Y59675000D03*
%TD*%
%TO.C,RIGHTCONTROL1*%
X286705000Y21575000D03*
D11*
X285435000Y19035000D03*
D10*
X293055000Y24115000D03*
D12*
X290515000Y19035000D03*
D11*
X295595000Y19035000D03*
%TD*%
D12*
%TO.C,F10*%
X252415000Y128572500D03*
D10*
X248605000Y131112500D03*
D11*
X257495000Y128572500D03*
D10*
X254955000Y133652500D03*
D11*
X247335000Y128572500D03*
%TD*%
%TO.C,Ckey1*%
X137797500Y38085000D03*
D12*
X142877500Y38085000D03*
D10*
X139067500Y40625000D03*
X145417500Y43165000D03*
D11*
X147957500Y38085000D03*
%TD*%
D10*
%TO.C,Ins1*%
X312105000Y133652500D03*
X305755000Y131112500D03*
D12*
X309565000Y128572500D03*
D11*
X304485000Y128572500D03*
X314645000Y128572500D03*
%TD*%
D10*
%TO.C,N1*%
X202567500Y43165000D03*
D12*
X200027500Y38085000D03*
D10*
X196217500Y40625000D03*
D11*
X194947500Y38085000D03*
X205107500Y38085000D03*
%TD*%
%TO.C,EXTRA2*%
X9210000Y76185000D03*
D12*
X14290000Y76185000D03*
D11*
X19370000Y76185000D03*
D10*
X16830000Y81265000D03*
X10480000Y78725000D03*
%TD*%
%TO.C,EXTRA4*%
X16830000Y43165000D03*
D12*
X14290000Y38085000D03*
D10*
X10480000Y40625000D03*
D11*
X9210000Y38085000D03*
X19370000Y38085000D03*
%TD*%
D12*
%TO.C,LEFTALT1*%
X111902500Y19035000D03*
D10*
X114442500Y24115000D03*
D11*
X106822500Y19035000D03*
D10*
X108092500Y21575000D03*
D11*
X116982500Y19035000D03*
%TD*%
D10*
%TO.C,LEFTARROW1*%
X312105000Y24115000D03*
D11*
X314645000Y19035000D03*
D12*
X309565000Y19035000D03*
D11*
X304485000Y19035000D03*
D10*
X305755000Y21575000D03*
%TD*%
D11*
%TO.C,CloseBracket1*%
X294960000Y76185000D03*
D10*
X296230000Y78725000D03*
D12*
X300040000Y76185000D03*
D10*
X302580000Y81265000D03*
D11*
X305120000Y76185000D03*
%TD*%
D10*
%TO.C,Num9*%
X235905000Y100315000D03*
D11*
X228285000Y95235000D03*
D10*
X229555000Y97775000D03*
D12*
X233365000Y95235000D03*
D11*
X238445000Y95235000D03*
%TD*%
D12*
%TO.C,F9*%
X233365000Y128572500D03*
D11*
X228285000Y128572500D03*
D10*
X235905000Y133652500D03*
X229555000Y131112500D03*
D11*
X238445000Y128572500D03*
%TD*%
D10*
%TO.C,X1*%
X126367500Y43165000D03*
D11*
X128907500Y38085000D03*
X118747500Y38085000D03*
D10*
X120017500Y40625000D03*
D12*
X123827500Y38085000D03*
%TD*%
D10*
%TO.C,Num6*%
X172405000Y97775000D03*
D12*
X176215000Y95235000D03*
D10*
X178755000Y100315000D03*
D11*
X171135000Y95235000D03*
X181295000Y95235000D03*
%TD*%
%TO.C,Num5*%
X152085000Y95235000D03*
D12*
X157165000Y95235000D03*
D11*
X162245000Y95235000D03*
D10*
X159705000Y100315000D03*
X153355000Y97775000D03*
%TD*%
%TO.C,Slash1*%
X326392500Y81265000D03*
D12*
X323852500Y76185000D03*
D11*
X318772500Y76185000D03*
D10*
X320042500Y78725000D03*
D11*
X328932500Y76185000D03*
%TD*%
D10*
%TO.C,Num0*%
X248605000Y97775000D03*
D11*
X257495000Y95235000D03*
D12*
X252415000Y95235000D03*
D11*
X247335000Y95235000D03*
D10*
X254955000Y100315000D03*
%TD*%
D14*
%TO.C,H2*%
X49540000Y111900000D03*
%TD*%
D12*
%TO.C,B1*%
X180977500Y38085000D03*
D10*
X177167500Y40625000D03*
D11*
X175897500Y38085000D03*
D10*
X183517500Y43165000D03*
D11*
X186057500Y38085000D03*
%TD*%
D10*
%TO.C,Z1*%
X100967500Y40625000D03*
D11*
X109857500Y38085000D03*
X99697500Y38085000D03*
D12*
X104777500Y38085000D03*
D10*
X107317500Y43165000D03*
%TD*%
%TO.C,DOWNARROW1*%
X324805000Y21575000D03*
X331155000Y24115000D03*
D11*
X323535000Y19035000D03*
D12*
X328615000Y19035000D03*
D11*
X333695000Y19035000D03*
%TD*%
%TO.C,PgUp1*%
X342585000Y57135000D03*
D10*
X343855000Y59675000D03*
D12*
X347665000Y57135000D03*
D11*
X352745000Y57135000D03*
D10*
X350205000Y62215000D03*
%TD*%
D11*
%TO.C,Backspace1*%
X314010000Y95235000D03*
D13*
X331028000Y102220000D03*
D10*
X315280000Y97775000D03*
D12*
X319090000Y95235000D03*
D10*
X321630000Y100315000D03*
D11*
X324170000Y95235000D03*
D12*
X331028000Y86980000D03*
X307152000Y86980000D03*
D13*
X307152000Y102220000D03*
%TD*%
D10*
%TO.C,QuestionMark1*%
X272417500Y40625000D03*
D12*
X276227500Y38085000D03*
D10*
X278767500Y43165000D03*
D11*
X271147500Y38085000D03*
X281307500Y38085000D03*
%TD*%
%TO.C,RIGHTARROW1*%
X342585000Y19035000D03*
X352745000Y19035000D03*
D10*
X343855000Y21575000D03*
X350205000Y24115000D03*
D12*
X347665000Y19035000D03*
%TD*%
D15*
%TO.C,SW3*%
X16565000Y126310000D03*
D16*
X16565000Y121310000D03*
X16565000Y123810000D03*
D17*
X24065000Y129410000D03*
X24065000Y118210000D03*
D16*
X31065000Y121310000D03*
X31065000Y126310000D03*
%TD*%
D12*
%TO.C,Tab1*%
X66677500Y76185000D03*
D10*
X69217500Y81265000D03*
X62867500Y78725000D03*
D11*
X71757500Y76185000D03*
X61597500Y76185000D03*
%TD*%
D12*
%TO.C,Semicolon1*%
X266702500Y57135000D03*
D11*
X261622500Y57135000D03*
D10*
X262892500Y59675000D03*
X269242500Y62215000D03*
D11*
X271782500Y57135000D03*
%TD*%
%TO.C,V1*%
X167007500Y38085000D03*
D10*
X158117500Y40625000D03*
D12*
X161927500Y38085000D03*
D10*
X164467500Y43165000D03*
D11*
X156847500Y38085000D03*
%TD*%
D12*
%TO.C,End1*%
X347665000Y76185000D03*
D11*
X342585000Y76185000D03*
D10*
X343855000Y78725000D03*
D11*
X352745000Y76185000D03*
D10*
X350205000Y81265000D03*
%TD*%
D11*
%TO.C,Matilda1*%
X66995000Y95235000D03*
D10*
X64455000Y100315000D03*
D11*
X56835000Y95235000D03*
D10*
X58105000Y97775000D03*
D12*
X61915000Y95235000D03*
%TD*%
%TO.C,PgDn1*%
X347665000Y38085000D03*
D10*
X350205000Y43165000D03*
D11*
X352745000Y38085000D03*
X342585000Y38085000D03*
D10*
X343855000Y40625000D03*
%TD*%
%TO.C,ENTER1*%
X319230000Y62215000D03*
X312880000Y59675000D03*
D11*
X311610000Y57135000D03*
X321770000Y57135000D03*
D12*
X328628000Y48880000D03*
D13*
X304752000Y64120000D03*
D12*
X304752000Y48880000D03*
D13*
X328628000Y64120000D03*
D12*
X316690000Y57135000D03*
%TD*%
D11*
%TO.C,F12*%
X295595000Y128572500D03*
D12*
X290515000Y128572500D03*
D10*
X286705000Y131112500D03*
D11*
X285435000Y128572500D03*
D10*
X293055000Y133652500D03*
%TD*%
D11*
%TO.C,OpenBracket1*%
X275910000Y76185000D03*
X286070000Y76185000D03*
D10*
X277180000Y78725000D03*
X283530000Y81265000D03*
D12*
X280990000Y76185000D03*
%TD*%
D10*
%TO.C,EXTRA7*%
X35929994Y81265000D03*
X29579994Y78725000D03*
D12*
X33389994Y76185000D03*
D11*
X38469994Y76185000D03*
X28309994Y76185000D03*
%TD*%
D13*
%TO.C,LEFTSHIFT1*%
X85740500Y45070000D03*
D10*
X76342500Y43165000D03*
D11*
X68722500Y38085000D03*
D12*
X73802500Y38085000D03*
D10*
X69992500Y40625000D03*
D11*
X78882500Y38085000D03*
D12*
X85740500Y29830000D03*
D13*
X61864500Y45070000D03*
D12*
X61864500Y29830000D03*
%TD*%
D10*
%TO.C,R1*%
X150180000Y81265000D03*
D11*
X152720000Y76185000D03*
D10*
X143830000Y78725000D03*
D12*
X147640000Y76185000D03*
D11*
X142560000Y76185000D03*
%TD*%
D12*
%TO.C,Hkey1*%
X190502500Y57135000D03*
D10*
X186692500Y59675000D03*
D11*
X185422500Y57135000D03*
D10*
X193042500Y62215000D03*
D11*
X195582500Y57135000D03*
%TD*%
D10*
%TO.C,CAPSLOCK1*%
X65230000Y59675000D03*
X71580000Y62215000D03*
D11*
X63960000Y57135000D03*
X74120000Y57135000D03*
D12*
X69040000Y57135000D03*
%TD*%
D11*
%TO.C,S1*%
X109222500Y57135000D03*
D10*
X110492500Y59675000D03*
X116842500Y62215000D03*
D12*
X114302500Y57135000D03*
D11*
X119382500Y57135000D03*
%TD*%
%TO.C,Y1*%
X190820000Y76185000D03*
D12*
X185740000Y76185000D03*
D10*
X181930000Y78725000D03*
X188280000Y81265000D03*
D11*
X180660000Y76185000D03*
%TD*%
%TO.C,F3*%
X113985000Y128572500D03*
D10*
X115255000Y131112500D03*
D12*
X119065000Y128572500D03*
D10*
X121605000Y133652500D03*
D11*
X124145000Y128572500D03*
%TD*%
%TO.C,CommaSign1*%
X243207500Y38085000D03*
D10*
X234317500Y40625000D03*
D11*
X233047500Y38085000D03*
D10*
X240667500Y43165000D03*
D12*
X238127500Y38085000D03*
%TD*%
D11*
%TO.C,W1*%
X104460000Y76185000D03*
D10*
X112080000Y81265000D03*
D12*
X109540000Y76185000D03*
D10*
X105730000Y78725000D03*
D11*
X114620000Y76185000D03*
%TD*%
D10*
%TO.C,DELETE1*%
X343855000Y131112500D03*
D11*
X352745000Y128572500D03*
X342585000Y128572500D03*
D10*
X350205000Y133652500D03*
D12*
X347665000Y128572500D03*
%TD*%
D10*
%TO.C,Num4*%
X140655000Y100315000D03*
D11*
X133035000Y95235000D03*
D10*
X134305000Y97775000D03*
D12*
X138115000Y95235000D03*
D11*
X143195000Y95235000D03*
%TD*%
D10*
%TO.C,UPARROW1*%
X331155000Y43165000D03*
D11*
X323535000Y38085000D03*
X333695000Y38085000D03*
D10*
X324805000Y40625000D03*
D12*
X328615000Y38085000D03*
%TD*%
D10*
%TO.C,EXTRA10*%
X35929994Y24115000D03*
X29579994Y21575000D03*
D12*
X33389994Y19035000D03*
D11*
X38469994Y19035000D03*
X28309994Y19035000D03*
%TD*%
D10*
%TO.C,DotSign1*%
X259717500Y43165000D03*
D11*
X252097500Y38085000D03*
X262257500Y38085000D03*
D10*
X253367500Y40625000D03*
D12*
X257177500Y38085000D03*
%TD*%
%TO.C,RIGHTSHIFT1*%
X302402500Y38085000D03*
D10*
X304942500Y43165000D03*
D11*
X307482500Y38085000D03*
X297322500Y38085000D03*
D10*
X298592500Y40625000D03*
%TD*%
D14*
%TO.C,H4*%
X297080000Y57620000D03*
%TD*%
%TO.C,H1*%
X323120000Y111900000D03*
%TD*%
D12*
%TO.C,F1*%
X80965000Y128572500D03*
D11*
X86045000Y128572500D03*
X75885000Y128572500D03*
D10*
X77155000Y131112500D03*
X83505000Y133652500D03*
%TD*%
D12*
%TO.C,F11*%
X271465000Y128572500D03*
D11*
X266385000Y128572500D03*
D10*
X267655000Y131112500D03*
D11*
X276545000Y128572500D03*
D10*
X274005000Y133652500D03*
%TD*%
%TO.C,Home1*%
X343855000Y97775000D03*
X350205000Y100315000D03*
D12*
X347665000Y95235000D03*
D11*
X342585000Y95235000D03*
X352745000Y95235000D03*
%TD*%
D10*
%TO.C,EXTRA1*%
X16830000Y100315000D03*
D11*
X9210000Y95235000D03*
D10*
X10480000Y97775000D03*
D12*
X14290000Y95235000D03*
D11*
X19370000Y95235000D03*
%TD*%
D18*
%TO.C,J1*%
X37800000Y140175000D03*
X43580000Y140175000D03*
D19*
X45010000Y143855000D03*
D20*
X45010000Y139675000D03*
X36370000Y139675000D03*
D19*
X36370000Y143855000D03*
%TD*%
M02*
