M48
; DRILL file {KiCad (6.0.11)} date Wed Mar  1 00:12:36 2023
; FORMAT={-:-/ absolute / inch / decimal}
; #@! TF.CreationDate,2023-03-01T00:12:36+07:00
; #@! TF.GenerationSoftware,Kicad,Pcbnew,(6.0.11)
; #@! TF.FileFunction,Plated,1,2,PTH
FMAT,2
INCH
; #@! TA.AperFunction,Plated,PTH,ViaDrill
T1C0.0157
; #@! TA.AperFunction,Plated,PTH,ComponentDrill
T2C0.0236
; #@! TA.AperFunction,Plated,PTH,ComponentDrill
T3C0.0394
; #@! TA.AperFunction,Plated,PTH,ComponentDrill
T4C0.0591
%
G90
G05
T1
X0.3844Y4.6301
X0.3923Y2.6411
X0.3943Y1.8931
X0.412Y3.4246
X0.412Y1.147
X0.5453Y4.8622
X0.5545Y4.7734
X0.7309Y0.2632
X0.8073Y2.0569
X0.8096Y0.5573
X0.8124Y1.3085
X0.8226Y2.8179
X0.8242Y3.5585
X0.8941Y0.6929
X1.0301Y4.0427
X1.0774Y0.2622
X1.1285Y2.6411
X1.164Y3.4246
X1.1955Y1.8931
X1.1994Y4.149
X1.223Y1.147
X1.3539Y5.5276
X1.3665Y5.4508
X1.4199Y4.9364
X1.4346Y5.2728
X1.4913Y5.2443
X1.552Y5.4118
X1.5577Y5.3262
X1.5585Y1.3057
X1.5663Y0.5411
X1.5762Y2.8171
X1.5852Y2.0624
X1.597Y3.5663
X1.661Y0.7134
X1.8057Y5.3262
X1.8292Y4.1843
X1.8563Y5.4803
X1.8915Y0.3864
X1.922Y0.4165
X1.9409Y0.2024
X1.9593Y4.901
X2.0123Y0.2926
X2.2073Y4.9364
X2.353Y0.2956
X2.3766Y4.153
X2.3963Y1.0742
X2.4396Y5.4561
X2.4514Y3.4246
X2.4907Y4.9443
X2.6561Y2.6411
X2.6636Y3.5719
X2.6896Y4.8793
X2.7667Y0.5467
X2.8978Y2.8053
X2.9061Y1.8931
X2.9295Y0.7079
X2.9352Y1.1801
X2.9555Y0.2827
X3.0821Y2.0596
X3.1679Y5.4561
X3.2506Y0.2986
X3.2545Y4.153
X3.4073Y1.0742
X3.4203Y3.5742
X3.4443Y4.8663
X3.5104Y3.4246
X3.59Y1.3163
X3.6768Y0.2878
X3.7447Y2.6411
X3.7663Y0.5573
X3.836Y2.8242
X3.902Y0.7189
X3.9041Y4.153
X3.9159Y5.4561
X4.0073Y2.0624
X4.1325Y1.8931
X4.1758Y0.3262
X4.1848Y3.5636
X4.1963Y4.8734
X4.2094Y0.4165
X4.238Y0.388
X4.2437Y0.2986
X4.2506Y3.4246
X4.3876Y1.31
X4.4199Y1.1352
X4.4986Y2.6411
X4.5872Y2.8136
X4.6006Y0.5624
X4.6719Y4.153
X4.6915Y5.4561
X4.7376Y0.3679
X4.7457Y0.7543
X4.7478Y2.0675
X4.7978Y1.1018
X4.8963Y1.8931
X4.936Y3.5663
X4.938Y4.8734
X4.9506Y0.3407
X5.0222Y3.4246
X5.2348Y2.6411
X5.2943Y0.7341
X5.3175Y1.1352
X5.3467Y2.8215
X5.349Y1.4404
X5.4199Y5.4561
X5.4199Y4.153
X5.4407Y0.7348
X5.4533Y0.5262
X5.4537Y0.5656
X5.4868Y1.1352
X5.4935Y0.3876
X5.499Y2.0624
X5.6423Y1.8931
X5.6642Y0.463
X5.699Y4.8754
X5.6998Y3.56
X5.7624Y3.4246
X5.9407Y0.4888
X5.9829Y1.3301
X5.9986Y2.6411
X6.0844Y2.8163
X6.1443Y5.4561
X6.1522Y4.153
X6.2396Y2.0624
X6.3963Y1.8931
X6.4482Y3.5585
X6.449Y4.8699
X6.4638Y0.7531
X6.4831Y0.9862
X6.511Y0.5657
X6.5459Y3.4246
X6.5791Y0.7409
X6.5813Y4.0585
X6.6207Y1.2939
X6.6551Y0.4343
X6.7406Y0.7413
X6.7536Y1.0917
X6.7565Y2.6411
X6.7821Y1.0624
X6.8463Y2.8053
X6.8602Y0.5803
X6.8608Y4.153
X6.9278Y5.4561
X6.9418Y3.277
X6.9931Y2.0648
X7.1404Y1.8931
X7.1852Y4.877
X7.1915Y3.4246
X7.2073Y3.5585
X7.2132Y1.1352
X7.3844Y1.3077
X7.4799Y0.65
X7.5006Y2.6411
X7.5608Y0.4211
X7.5687Y0.9711
X7.5785Y2.8242
X7.6443Y4.153
X7.6522Y5.4561
X7.7526Y2.0596
X7.7533Y0.5659
X7.7955Y0.9683
X7.8884Y1.8931
X7.9425Y0.3906
X7.9427Y4.8719
X7.9428Y0.3512
X7.9683Y3.5478
X7.9827Y0.4587
X8.0262Y3.4246
X8.0559Y0.476
X8.1307Y0.0803
X8.1516Y1.1732
X8.1744Y0.7181
X8.1955Y0.5929
X8.2014Y2.6411
X8.223Y1.464
X8.2874Y0.2898
X8.2972Y0.6606
X8.2976Y1.0181
X8.3008Y0.7669
X8.3175Y1.4679
X8.328Y0.8799
X8.3435Y0.362
X8.3439Y0.412
X8.3486Y2.8053
X8.3563Y0.4882
X8.3657Y0.8461
X8.3844Y1.1067
X8.3899Y0.5087
X8.4002Y4.153
X8.4041Y5.4561
X8.4057Y0.2533
X8.4087Y0.8134
X8.4848Y0.2011
X8.4947Y0.025
X8.4947Y0.1441
X8.4994Y0.0856
X8.5037Y2.0648
X8.5218Y0.1726
X8.5225Y0.0535
X8.5262Y0.1156
X8.5363Y1.0004
X8.5398Y0.6689
X8.5405Y0.9415
X8.5514Y0.2235
X8.5656Y0.9719
X8.5854Y0.5843
X8.599Y1.8931
X8.633Y2.5373
X8.6427Y1.1746
X8.6434Y0.1775
X8.6551Y0.9367
X8.6848Y3.5514
X8.686Y4.8734
X8.6915Y0.9541
X8.7211Y0.9837
X8.7603Y0.981
X8.7939Y3.4246
X8.7992Y0.975
X8.8766Y1.1067
X8.8868Y1.2994
X8.9195Y0.3199
X8.9597Y1.1052
X8.9768Y1.022
X8.9789Y2.6411
X8.9791Y0.8406
X8.9809Y1.7533
X9.0374Y0.4173
X9.0596Y2.8081
X9.0701Y0.7004
X9.164Y4.153
X9.2073Y5.4561
X9.2656Y2.0758
X9.3844Y0.3656
X9.3904Y1.8931
X9.4248Y0.3616
X9.4323Y0.4002
X9.4325Y4.8734
X9.4671Y3.5565
X9.4755Y0.3975
X9.4892Y1.1726
X9.5017Y0.3656
X9.5104Y3.4246
X9.5411Y0.3656
X9.6128Y0.3075
X9.6352Y1.3077
X9.6915Y2.6411
X9.7844Y2.8002
X9.9278Y4.153
X9.9396Y5.4561
X9.9435Y1.1352
X10.001Y2.0703
X10.1443Y1.8931
X10.1829Y4.8754
X10.1872Y3.5549
X10.2545Y3.4246
X10.3333Y0.2897
X10.3868Y1.3128
X10.4159Y2.6411
X10.5541Y2.8108
X10.6679Y4.153
X10.6837Y5.4561
X10.7093Y1.1352
X10.7573Y2.0648
X10.8923Y1.8931
X10.9388Y4.8754
X10.9482Y3.56
X11.0262Y3.4246
X11.0537Y0.272
X11.225Y2.6411
X11.2715Y1.3049
X11.3108Y2.8081
X11.3333Y4.153
X11.4199Y5.4561
X11.5163Y1.1352
X11.6453Y1.8311
X11.7156Y4.8841
X11.7467Y3.4246
X11.7742Y0.2543
X11.8053Y2.0648
X11.9089Y3.5652
X12.0486Y2.8187
X12.1049Y5.4561
X12.223Y1.3128
X12.2663Y1.1352
X12.4356Y4.153
X12.449Y4.8829
X12.5144Y0.2366
X12.5459Y2.6411
X12.7242Y3.4167
X12.7969Y1.8311
X12.912Y5.4561
X12.9553Y1.1352
X13.2663Y0.2081
X13.4868Y4.9443
X13.5695Y5.4561
X13.5774Y3.3931
X13.5801Y4.4537
X13.6364Y4.153
X13.6719Y2.6411
X13.6758Y1.3774
X13.6876Y1.8321
X13.6915Y1.1352
X13.9234Y3.4711
X13.9537Y2.1415
X13.9557Y1.3876
X13.975Y0.8191
T3
X0.6522Y4.9728
X0.6522Y4.8744
X0.6522Y4.776
X1.223Y4.9728
X1.223Y4.776
T2
G00X1.4319Y5.6793
M15
G01X1.4319Y5.6478
M16
G05
G00X1.4319Y5.5207
M15
G01X1.4319Y5.4774
M16
G05
G00X1.772Y5.6793
M15
G01X1.772Y5.6478
M16
G05
G00X1.772Y5.5207
M15
G01X1.772Y5.4774
M16
G05
T4
G00X0.9219Y5.0949
M15
G01X0.973Y5.0949
M16
G05
G00X0.9219Y4.6539
M15
G01X0.973Y4.6539
M16
G05
T0
M30
