%TF.GenerationSoftware,KiCad,Pcbnew,(6.0.11)*%
%TF.CreationDate,2023-03-27T15:54:22+07:00*%
%TF.ProjectId,Extero75,45787465-726f-4373-952e-6b696361645f,rev?*%
%TF.SameCoordinates,PX28c3da5PYc3ffc7f*%
%TF.FileFunction,Soldermask,Top*%
%TF.FilePolarity,Negative*%
%FSLAX46Y46*%
G04 Gerber Fmt 4.6, Leading zero omitted, Abs format (unit mm)*
G04 Created by KiCad (PCBNEW (6.0.11)) date 2023-03-27 15:54:22*
%MOMM*%
%LPD*%
G01*
G04 APERTURE LIST*
%ADD10C,3.987800*%
%ADD11C,2.200000*%
%ADD12R,2.000000X2.000000*%
%ADD13C,2.000000*%
%ADD14R,3.200000X2.000000*%
%ADD15C,1.750000*%
%ADD16C,3.300000*%
%ADD17C,0.650000*%
%ADD18O,1.000000X1.800000*%
%ADD19O,1.000000X2.100000*%
G04 APERTURE END LIST*
D10*
%TO.C,BackspaceStab1*%
X325680997Y85419999D03*
X301868497Y85419999D03*
%TD*%
D11*
%TO.C,H3*%
X50514747Y38159999D03*
%TD*%
%TO.C,H2*%
X44224747Y110339999D03*
%TD*%
D12*
%TO.C,SW3*%
X11249747Y124749999D03*
D13*
X11249747Y119749999D03*
X11249747Y122249999D03*
D14*
X18749747Y127849999D03*
X18749747Y116649999D03*
D13*
X25749747Y119749999D03*
X25749747Y124749999D03*
%TD*%
D10*
%TO.C,SpacebarStab1*%
X228030997Y9219999D03*
X128018497Y9219999D03*
%TD*%
%TO.C,ShiftStab1*%
X80393497Y28269999D03*
X56580997Y28269999D03*
%TD*%
%TO.C,EnterStab1*%
X299468497Y47319999D03*
X323280997Y47319999D03*
%TD*%
D11*
%TO.C,H4*%
X291764747Y56059999D03*
%TD*%
%TO.C,H1*%
X317804747Y110339999D03*
%TD*%
D10*
%TO.C,Num3*%
X113749747Y93674999D03*
D15*
X118829747Y93674999D03*
X108669747Y93674999D03*
D16*
X109939747Y96214999D03*
X116289747Y98754999D03*
%TD*%
D15*
%TO.C,FNKEY1*%
X271229747Y17474999D03*
X261069747Y17474999D03*
D10*
X266149747Y17474999D03*
D16*
X262339747Y20014999D03*
X268689747Y22554999D03*
%TD*%
D15*
%TO.C,F2*%
X89619747Y127012499D03*
D10*
X94699747Y127012499D03*
D15*
X99779747Y127012499D03*
D16*
X90889747Y129552499D03*
X97239747Y132092499D03*
%TD*%
D15*
%TO.C,F5*%
X146769747Y127012499D03*
X156929747Y127012499D03*
D10*
X151849747Y127012499D03*
D16*
X148039747Y129552499D03*
X154389747Y132092499D03*
%TD*%
D10*
%TO.C,G1*%
X166137247Y55574999D03*
D15*
X161057247Y55574999D03*
X171217247Y55574999D03*
D16*
X162327247Y58114999D03*
X168677247Y60654999D03*
%TD*%
D15*
%TO.C,EXTRA6*%
X22944747Y93674999D03*
D10*
X28024747Y93674999D03*
D15*
X33104747Y93674999D03*
D16*
X24214747Y96214999D03*
X30564747Y98754999D03*
%TD*%
D10*
%TO.C,L1*%
X242337247Y55574999D03*
D15*
X237257247Y55574999D03*
X247417247Y55574999D03*
D16*
X238527247Y58114999D03*
X244877247Y60654999D03*
%TD*%
D10*
%TO.C,Num7*%
X189949747Y93674999D03*
D15*
X195029747Y93674999D03*
X184869747Y93674999D03*
D16*
X186139747Y96214999D03*
X192489747Y98754999D03*
%TD*%
D15*
%TO.C,MinusSign1*%
X261069747Y93674999D03*
X271229747Y93674999D03*
D10*
X266149747Y93674999D03*
D16*
X262339747Y96214999D03*
X268689747Y98754999D03*
%TD*%
D15*
%TO.C,EXTRA8*%
X22944747Y55574999D03*
D10*
X28024747Y55574999D03*
D15*
X33104747Y55574999D03*
D16*
X24214747Y58114999D03*
X30564747Y60654999D03*
%TD*%
D15*
%TO.C,K1*%
X228367247Y55574999D03*
X218207247Y55574999D03*
D10*
X223287247Y55574999D03*
D16*
X219477247Y58114999D03*
X225827247Y60654999D03*
%TD*%
D15*
%TO.C,EXTRA9*%
X22944747Y36524999D03*
X33104747Y36524999D03*
D10*
X28024747Y36524999D03*
D16*
X24214747Y39064999D03*
X30564747Y41604999D03*
%TD*%
D15*
%TO.C,I1*%
X213444747Y74624999D03*
X223604747Y74624999D03*
D10*
X218524747Y74624999D03*
D16*
X214714747Y77164999D03*
X221064747Y79704999D03*
%TD*%
D10*
%TO.C,WINDOWSKEY1*%
X82774747Y17474999D03*
D15*
X87854747Y17474999D03*
X77694747Y17474999D03*
D16*
X78964747Y20014999D03*
X85314747Y22554999D03*
%TD*%
D10*
%TO.C,Num8*%
X208999747Y93674999D03*
D15*
X214079747Y93674999D03*
X203919747Y93674999D03*
D16*
X205189747Y96214999D03*
X211539747Y98754999D03*
%TD*%
D15*
%TO.C,E1*%
X118194747Y74624999D03*
X128354747Y74624999D03*
D10*
X123274747Y74624999D03*
D16*
X119464747Y77164999D03*
X125814747Y79704999D03*
%TD*%
D15*
%TO.C,Num2*%
X99779747Y93674999D03*
D10*
X94699747Y93674999D03*
D15*
X89619747Y93674999D03*
D16*
X90889747Y96214999D03*
X97239747Y98754999D03*
%TD*%
D10*
%TO.C,Q1*%
X85174747Y74624999D03*
D15*
X90254747Y74624999D03*
X80094747Y74624999D03*
D16*
X81364747Y77164999D03*
X87714747Y79704999D03*
%TD*%
D15*
%TO.C,Jkey1*%
X209317247Y55574999D03*
D10*
X204237247Y55574999D03*
D15*
X199157247Y55574999D03*
D16*
X200427247Y58114999D03*
X206777247Y60654999D03*
%TD*%
D15*
%TO.C,EXTRA5*%
X14054747Y17474999D03*
D10*
X8974747Y17474999D03*
D15*
X3894747Y17474999D03*
D16*
X5164747Y20014999D03*
X11514747Y22554999D03*
%TD*%
D15*
%TO.C,U2*%
X194394747Y74624999D03*
X204554747Y74624999D03*
D10*
X199474747Y74624999D03*
D16*
X195664747Y77164999D03*
X202014747Y79704999D03*
%TD*%
D17*
%TO.C,J1*%
X32484747Y138614999D03*
X38264747Y138614999D03*
D18*
X39694747Y142294999D03*
D19*
X39694747Y138114999D03*
X31054747Y138114999D03*
D18*
X31054747Y142294999D03*
%TD*%
D15*
%TO.C,T1*%
X166454747Y74624999D03*
D10*
X161374747Y74624999D03*
D15*
X156294747Y74624999D03*
D16*
X157564747Y77164999D03*
X163914747Y79704999D03*
%TD*%
D15*
%TO.C,ESC1*%
X61679747Y127012499D03*
X51519747Y127012499D03*
D10*
X56599747Y127012499D03*
D16*
X52789747Y129552499D03*
X59139747Y132092499D03*
%TD*%
D10*
%TO.C,F4*%
X132799747Y127012499D03*
D15*
X137879747Y127012499D03*
X127719747Y127012499D03*
D16*
X128989747Y129552499D03*
X135339747Y132092499D03*
%TD*%
D15*
%TO.C,EXTRA3*%
X3894747Y55574999D03*
X14054747Y55574999D03*
D10*
X8974747Y55574999D03*
D16*
X5164747Y58114999D03*
X11514747Y60654999D03*
%TD*%
D15*
%TO.C,PRTSC1*%
X318219747Y127012499D03*
X328379747Y127012499D03*
D10*
X323299747Y127012499D03*
D16*
X319489747Y129552499D03*
X325839747Y132092499D03*
%TD*%
D10*
%TO.C,F6*%
X170899747Y127012499D03*
D15*
X165819747Y127012499D03*
X175979747Y127012499D03*
D16*
X167089747Y129552499D03*
X173439747Y132092499D03*
%TD*%
D15*
%TO.C,Num1*%
X80729747Y93674999D03*
D10*
X75649747Y93674999D03*
D15*
X70569747Y93674999D03*
D16*
X71839747Y96214999D03*
X78189747Y98754999D03*
%TD*%
D15*
%TO.C,F8*%
X214079747Y127012499D03*
X203919747Y127012499D03*
D10*
X208999747Y127012499D03*
D16*
X205189747Y129552499D03*
X211539747Y132092499D03*
%TD*%
D15*
%TO.C,RIGHTALT1*%
X242019747Y17474999D03*
X252179747Y17474999D03*
D10*
X247099747Y17474999D03*
D16*
X243289747Y20014999D03*
X249639747Y22554999D03*
%TD*%
D10*
%TO.C,EqualSign1*%
X285199747Y93674999D03*
D15*
X280119747Y93674999D03*
X290279747Y93674999D03*
D16*
X281389747Y96214999D03*
X287739747Y98754999D03*
%TD*%
D10*
%TO.C,M1*%
X213762247Y36524999D03*
D15*
X208682247Y36524999D03*
X218842247Y36524999D03*
D16*
X209952247Y39064999D03*
X216302247Y41604999D03*
%TD*%
D10*
%TO.C,Dkey1*%
X128037247Y55574999D03*
D15*
X122957247Y55574999D03*
X133117247Y55574999D03*
D16*
X124227247Y58114999D03*
X130577247Y60654999D03*
%TD*%
D15*
%TO.C,F7*%
X195029747Y127012499D03*
X184869747Y127012499D03*
D10*
X189949747Y127012499D03*
D16*
X186139747Y129552499D03*
X192489747Y132092499D03*
%TD*%
D10*
%TO.C,A1*%
X89937247Y55574999D03*
D15*
X95017247Y55574999D03*
X84857247Y55574999D03*
D16*
X86127247Y58114999D03*
X92477247Y60654999D03*
%TD*%
D15*
%TO.C,O1*%
X232494747Y74624999D03*
X242654747Y74624999D03*
D10*
X237574747Y74624999D03*
D16*
X233764747Y77164999D03*
X240114747Y79704999D03*
%TD*%
D15*
%TO.C,LEFTCTRL1*%
X64042247Y17474999D03*
X53882247Y17474999D03*
D10*
X58962247Y17474999D03*
D16*
X55152247Y20014999D03*
X61502247Y22554999D03*
%TD*%
D15*
%TO.C,SPACEBAR1*%
X183104747Y17474999D03*
X172944747Y17474999D03*
D10*
X178024747Y17474999D03*
D16*
X174214747Y20014999D03*
X180564747Y22554999D03*
%TD*%
D10*
%TO.C,P1*%
X256624747Y74624999D03*
D15*
X261704747Y74624999D03*
X251544747Y74624999D03*
D16*
X252814747Y77164999D03*
X259164747Y79704999D03*
%TD*%
D15*
%TO.C,Quote1*%
X275357247Y55574999D03*
X285517247Y55574999D03*
D10*
X280437247Y55574999D03*
D16*
X276627247Y58114999D03*
X282977247Y60654999D03*
%TD*%
D15*
%TO.C,Fkey1*%
X142007247Y55574999D03*
D10*
X147087247Y55574999D03*
D15*
X152167247Y55574999D03*
D16*
X143277247Y58114999D03*
X149627247Y60654999D03*
%TD*%
D10*
%TO.C,RIGHTCONTROL1*%
X285199747Y17474999D03*
D15*
X290279747Y17474999D03*
X280119747Y17474999D03*
D16*
X281389747Y20014999D03*
X287739747Y22554999D03*
%TD*%
D10*
%TO.C,F10*%
X247099747Y127012499D03*
D15*
X242019747Y127012499D03*
X252179747Y127012499D03*
D16*
X243289747Y129552499D03*
X249639747Y132092499D03*
%TD*%
D15*
%TO.C,Ckey1*%
X142642247Y36524999D03*
D10*
X137562247Y36524999D03*
D15*
X132482247Y36524999D03*
D16*
X133752247Y39064999D03*
X140102247Y41604999D03*
%TD*%
D15*
%TO.C,Ins1*%
X309329747Y127012499D03*
X299169747Y127012499D03*
D10*
X304249747Y127012499D03*
D16*
X300439747Y129552499D03*
X306789747Y132092499D03*
%TD*%
D15*
%TO.C,N1*%
X199792247Y36524999D03*
X189632247Y36524999D03*
D10*
X194712247Y36524999D03*
D16*
X190902247Y39064999D03*
X197252247Y41604999D03*
%TD*%
D15*
%TO.C,EXTRA2*%
X3894747Y74624999D03*
X14054747Y74624999D03*
D10*
X8974747Y74624999D03*
D16*
X5164747Y77164999D03*
X11514747Y79704999D03*
%TD*%
D15*
%TO.C,EXTRA4*%
X3894747Y36524999D03*
D10*
X8974747Y36524999D03*
D15*
X14054747Y36524999D03*
D16*
X5164747Y39064999D03*
X11514747Y41604999D03*
%TD*%
D10*
%TO.C,LEFTALT1*%
X106587247Y17474999D03*
D15*
X111667247Y17474999D03*
X101507247Y17474999D03*
D16*
X102777247Y20014999D03*
X109127247Y22554999D03*
%TD*%
D15*
%TO.C,LEFTARROW1*%
X309329747Y17474999D03*
D10*
X304249747Y17474999D03*
D15*
X299169747Y17474999D03*
D16*
X300439747Y20014999D03*
X306789747Y22554999D03*
%TD*%
D10*
%TO.C,CloseBracket1*%
X294724747Y74624999D03*
D15*
X289644747Y74624999D03*
X299804747Y74624999D03*
D16*
X290914747Y77164999D03*
X297264747Y79704999D03*
%TD*%
D10*
%TO.C,Num9*%
X228049747Y93674999D03*
D15*
X233129747Y93674999D03*
X222969747Y93674999D03*
D16*
X224239747Y96214999D03*
X230589747Y98754999D03*
%TD*%
D15*
%TO.C,F9*%
X233129747Y127012499D03*
D10*
X228049747Y127012499D03*
D15*
X222969747Y127012499D03*
D16*
X224239747Y129552499D03*
X230589747Y132092499D03*
%TD*%
D15*
%TO.C,X1*%
X113432247Y36524999D03*
X123592247Y36524999D03*
D10*
X118512247Y36524999D03*
D16*
X114702247Y39064999D03*
X121052247Y41604999D03*
%TD*%
D10*
%TO.C,Num6*%
X170899747Y93674999D03*
D15*
X175979747Y93674999D03*
X165819747Y93674999D03*
D16*
X167089747Y96214999D03*
X173439747Y98754999D03*
%TD*%
D10*
%TO.C,Num5*%
X151849747Y93674999D03*
D15*
X146769747Y93674999D03*
X156929747Y93674999D03*
D16*
X148039747Y96214999D03*
X154389747Y98754999D03*
%TD*%
D10*
%TO.C,Slash1*%
X318537247Y74624999D03*
D15*
X313457247Y74624999D03*
X323617247Y74624999D03*
D16*
X314727247Y77164999D03*
X321077247Y79704999D03*
%TD*%
D15*
%TO.C,Num0*%
X252179747Y93674999D03*
D10*
X247099747Y93674999D03*
D15*
X242019747Y93674999D03*
D16*
X243289747Y96214999D03*
X249639747Y98754999D03*
%TD*%
D15*
%TO.C,B1*%
X180742247Y36524999D03*
X170582247Y36524999D03*
D10*
X175662247Y36524999D03*
D16*
X171852247Y39064999D03*
X178202247Y41604999D03*
%TD*%
D15*
%TO.C,Z1*%
X104542247Y36524999D03*
X94382247Y36524999D03*
D10*
X99462247Y36524999D03*
D16*
X95652247Y39064999D03*
X102002247Y41604999D03*
%TD*%
D15*
%TO.C,DOWNARROW1*%
X318219747Y17474999D03*
D10*
X323299747Y17474999D03*
D15*
X328379747Y17474999D03*
D16*
X319489747Y20014999D03*
X325839747Y22554999D03*
%TD*%
D10*
%TO.C,PgUp1*%
X342349747Y55574999D03*
D15*
X337269747Y55574999D03*
X347429747Y55574999D03*
D16*
X338539747Y58114999D03*
X344889747Y60654999D03*
%TD*%
D10*
%TO.C,Backspace1*%
X313774747Y93674999D03*
D15*
X318854747Y93674999D03*
X308694747Y93674999D03*
D16*
X309964747Y96214999D03*
X316314747Y98754999D03*
%TD*%
D15*
%TO.C,QuestionMark1*%
X275992247Y36524999D03*
X265832247Y36524999D03*
D10*
X270912247Y36524999D03*
D16*
X267102247Y39064999D03*
X273452247Y41604999D03*
%TD*%
D15*
%TO.C,RIGHTARROW1*%
X337269747Y17474999D03*
D10*
X342349747Y17474999D03*
D15*
X347429747Y17474999D03*
D16*
X338539747Y20014999D03*
X344889747Y22554999D03*
%TD*%
D15*
%TO.C,Tab1*%
X56282247Y74624999D03*
D10*
X61362247Y74624999D03*
D15*
X66442247Y74624999D03*
D16*
X57552247Y77164999D03*
X63902247Y79704999D03*
%TD*%
D15*
%TO.C,Semicolon1*%
X266467247Y55574999D03*
X256307247Y55574999D03*
D10*
X261387247Y55574999D03*
D16*
X257577247Y58114999D03*
X263927247Y60654999D03*
%TD*%
D15*
%TO.C,V1*%
X161692247Y36524999D03*
D10*
X156612247Y36524999D03*
D15*
X151532247Y36524999D03*
D16*
X152802247Y39064999D03*
X159152247Y41604999D03*
%TD*%
D15*
%TO.C,End1*%
X347429747Y74624999D03*
X337269747Y74624999D03*
D10*
X342349747Y74624999D03*
D16*
X338539747Y77164999D03*
X344889747Y79704999D03*
%TD*%
D10*
%TO.C,Matilda1*%
X56599747Y93674999D03*
D15*
X51519747Y93674999D03*
X61679747Y93674999D03*
D16*
X52789747Y96214999D03*
X59139747Y98754999D03*
%TD*%
D15*
%TO.C,PgDn1*%
X337269747Y36524999D03*
D10*
X342349747Y36524999D03*
D15*
X347429747Y36524999D03*
D16*
X338539747Y39064999D03*
X344889747Y41604999D03*
%TD*%
D10*
%TO.C,ENTER1*%
X311374747Y55574999D03*
D15*
X316454747Y55574999D03*
X306294747Y55574999D03*
D16*
X307564747Y58114999D03*
X313914747Y60654999D03*
%TD*%
D10*
%TO.C,F12*%
X285199747Y127012499D03*
D15*
X280119747Y127012499D03*
X290279747Y127012499D03*
D16*
X281389747Y129552499D03*
X287739747Y132092499D03*
%TD*%
D15*
%TO.C,OpenBracket1*%
X280754747Y74624999D03*
X270594747Y74624999D03*
D10*
X275674747Y74624999D03*
D16*
X271864747Y77164999D03*
X278214747Y79704999D03*
%TD*%
D15*
%TO.C,EXTRA7*%
X33154741Y74624999D03*
D10*
X28074741Y74624999D03*
D15*
X22994741Y74624999D03*
D16*
X24264741Y77164999D03*
X30614741Y79704999D03*
%TD*%
D15*
%TO.C,LEFTSHIFT1*%
X63407247Y36524999D03*
D10*
X68487247Y36524999D03*
D15*
X73567247Y36524999D03*
D16*
X64677247Y39064999D03*
X71027247Y41604999D03*
%TD*%
D10*
%TO.C,R1*%
X142324747Y74624999D03*
D15*
X137244747Y74624999D03*
X147404747Y74624999D03*
D16*
X138514747Y77164999D03*
X144864747Y79704999D03*
%TD*%
D15*
%TO.C,Hkey1*%
X190267247Y55574999D03*
X180107247Y55574999D03*
D10*
X185187247Y55574999D03*
D16*
X181377247Y58114999D03*
X187727247Y60654999D03*
%TD*%
D10*
%TO.C,CAPSLOCK1*%
X63724747Y55574999D03*
D15*
X68804747Y55574999D03*
X58644747Y55574999D03*
D16*
X59914747Y58114999D03*
X66264747Y60654999D03*
%TD*%
D15*
%TO.C,S1*%
X114067247Y55574999D03*
D10*
X108987247Y55574999D03*
D15*
X103907247Y55574999D03*
D16*
X105177247Y58114999D03*
X111527247Y60654999D03*
%TD*%
D15*
%TO.C,Y1*%
X185504747Y74624999D03*
X175344747Y74624999D03*
D10*
X180424747Y74624999D03*
D16*
X176614747Y77164999D03*
X182964747Y79704999D03*
%TD*%
D10*
%TO.C,F3*%
X113749747Y127012499D03*
D15*
X118829747Y127012499D03*
X108669747Y127012499D03*
D16*
X109939747Y129552499D03*
X116289747Y132092499D03*
%TD*%
D15*
%TO.C,CommaSign1*%
X227732247Y36524999D03*
X237892247Y36524999D03*
D10*
X232812247Y36524999D03*
D16*
X229002247Y39064999D03*
X235352247Y41604999D03*
%TD*%
D10*
%TO.C,W1*%
X104224747Y74624999D03*
D15*
X99144747Y74624999D03*
X109304747Y74624999D03*
D16*
X100414747Y77164999D03*
X106764747Y79704999D03*
%TD*%
D15*
%TO.C,DELETE1*%
X347429747Y127012499D03*
X337269747Y127012499D03*
D10*
X342349747Y127012499D03*
D16*
X338539747Y129552499D03*
X344889747Y132092499D03*
%TD*%
D10*
%TO.C,Num4*%
X132799747Y93674999D03*
D15*
X127719747Y93674999D03*
X137879747Y93674999D03*
D16*
X128989747Y96214999D03*
X135339747Y98754999D03*
%TD*%
D15*
%TO.C,UPARROW1*%
X318219747Y36524999D03*
D10*
X323299747Y36524999D03*
D15*
X328379747Y36524999D03*
D16*
X319489747Y39064999D03*
X325839747Y41604999D03*
%TD*%
D15*
%TO.C,EXTRA10*%
X22994741Y17474999D03*
X33154741Y17474999D03*
D10*
X28074741Y17474999D03*
D16*
X24264741Y20014999D03*
X30614741Y22554999D03*
%TD*%
D10*
%TO.C,DotSign1*%
X251862247Y36524999D03*
D15*
X256942247Y36524999D03*
X246782247Y36524999D03*
D16*
X248052247Y39064999D03*
X254402247Y41604999D03*
%TD*%
D10*
%TO.C,RIGHTSHIFT1*%
X297087247Y36524999D03*
D15*
X292007247Y36524999D03*
X302167247Y36524999D03*
D16*
X293277247Y39064999D03*
X299627247Y41604999D03*
%TD*%
D15*
%TO.C,F1*%
X80729747Y127012499D03*
D10*
X75649747Y127012499D03*
D15*
X70569747Y127012499D03*
D16*
X71839747Y129552499D03*
X78189747Y132092499D03*
%TD*%
D15*
%TO.C,F11*%
X261069747Y127012499D03*
X271229747Y127012499D03*
D10*
X266149747Y127012499D03*
D16*
X262339747Y129552499D03*
X268689747Y132092499D03*
%TD*%
D15*
%TO.C,Home1*%
X347429747Y93674999D03*
X337269747Y93674999D03*
D10*
X342349747Y93674999D03*
D16*
X338539747Y96214999D03*
X344889747Y98754999D03*
%TD*%
D10*
%TO.C,EXTRA1*%
X8974747Y93674999D03*
D15*
X3894747Y93674999D03*
X14054747Y93674999D03*
D16*
X5164747Y96214999D03*
X11514747Y98754999D03*
%TD*%
M02*
