%TF.GenerationSoftware,KiCad,Pcbnew,(6.0.11)*%
%TF.CreationDate,2023-03-01T01:08:00+07:00*%
%TF.ProjectId,Extero75,45787465-726f-4373-952e-6b696361645f,rev?*%
%TF.SameCoordinates,PX23b22f0PYc57ca40*%
%TF.FileFunction,Legend,Top*%
%TF.FilePolarity,Positive*%
%FSLAX46Y46*%
G04 Gerber Fmt 4.6, Leading zero omitted, Abs format (unit mm)*
G04 Created by KiCad (PCBNEW (6.0.11)) date 2023-03-01 01:08:00*
%MOMM*%
%LPD*%
G01*
G04 APERTURE LIST*
%ADD10C,0.150000*%
%ADD11C,0.120000*%
%ADD12C,3.300000*%
%ADD13C,1.750000*%
%ADD14C,3.987800*%
%ADD15C,3.000000*%
%ADD16C,3.048000*%
%ADD17C,2.200000*%
%ADD18R,2.000000X2.000000*%
%ADD19C,2.000000*%
%ADD20R,3.200000X2.000000*%
%ADD21C,0.650000*%
%ADD22O,1.000000X1.800000*%
%ADD23O,1.000000X2.100000*%
G04 APERTURE END LIST*
D10*
%TO.C,H3*%
X55068095Y42467620D02*
X55068095Y43467620D01*
X55068095Y42991429D02*
X55639523Y42991429D01*
X55639523Y42467620D02*
X55639523Y43467620D01*
X56020476Y43467620D02*
X56639523Y43467620D01*
X56306190Y43086667D01*
X56449047Y43086667D01*
X56544285Y43039048D01*
X56591904Y42991429D01*
X56639523Y42896191D01*
X56639523Y42658096D01*
X56591904Y42562858D01*
X56544285Y42515239D01*
X56449047Y42467620D01*
X56163333Y42467620D01*
X56068095Y42515239D01*
X56020476Y42562858D01*
%TO.C,H2*%
X48778095Y114647620D02*
X48778095Y115647620D01*
X48778095Y115171429D02*
X49349523Y115171429D01*
X49349523Y114647620D02*
X49349523Y115647620D01*
X49778095Y115552381D02*
X49825714Y115600000D01*
X49920952Y115647620D01*
X50159047Y115647620D01*
X50254285Y115600000D01*
X50301904Y115552381D01*
X50349523Y115457143D01*
X50349523Y115361905D01*
X50301904Y115219048D01*
X49730476Y114647620D01*
X50349523Y114647620D01*
%TO.C,SW3*%
X18031666Y130605239D02*
X18174523Y130557620D01*
X18412619Y130557620D01*
X18507857Y130605239D01*
X18555476Y130652858D01*
X18603095Y130748096D01*
X18603095Y130843334D01*
X18555476Y130938572D01*
X18507857Y130986191D01*
X18412619Y131033810D01*
X18222142Y131081429D01*
X18126904Y131129048D01*
X18079285Y131176667D01*
X18031666Y131271905D01*
X18031666Y131367143D01*
X18079285Y131462381D01*
X18126904Y131510000D01*
X18222142Y131557620D01*
X18460238Y131557620D01*
X18603095Y131510000D01*
X18936428Y131557620D02*
X19174523Y130557620D01*
X19365000Y131271905D01*
X19555476Y130557620D01*
X19793571Y131557620D01*
X20079285Y131557620D02*
X20698333Y131557620D01*
X20365000Y131176667D01*
X20507857Y131176667D01*
X20603095Y131129048D01*
X20650714Y131081429D01*
X20698333Y130986191D01*
X20698333Y130748096D01*
X20650714Y130652858D01*
X20603095Y130605239D01*
X20507857Y130557620D01*
X20222142Y130557620D01*
X20126904Y130605239D01*
X20079285Y130652858D01*
%TO.C,H4*%
X296318095Y60367620D02*
X296318095Y61367620D01*
X296318095Y60891429D02*
X296889523Y60891429D01*
X296889523Y60367620D02*
X296889523Y61367620D01*
X297794285Y61034286D02*
X297794285Y60367620D01*
X297556190Y61415239D02*
X297318095Y60700953D01*
X297937142Y60700953D01*
%TO.C,H1*%
X322358095Y114647620D02*
X322358095Y115647620D01*
X322358095Y115171429D02*
X322929523Y115171429D01*
X322929523Y114647620D02*
X322929523Y115647620D01*
X323929523Y114647620D02*
X323358095Y114647620D01*
X323643809Y114647620D02*
X323643809Y115647620D01*
X323548571Y115504762D01*
X323453333Y115409524D01*
X323358095Y115361905D01*
D11*
%TO.C,SW3*%
X23565000Y123810000D02*
X24565000Y123810000D01*
X30165000Y120310000D02*
X30165000Y117910000D01*
X17965000Y129710000D02*
X17965000Y117910000D01*
X30165000Y125110000D02*
X30165000Y122510000D01*
X24065000Y124310000D02*
X24065000Y123310000D01*
X16265000Y127910000D02*
X16865000Y127910000D01*
X16865000Y127910000D02*
X16565000Y127610000D01*
X22065000Y117910000D02*
X17965000Y117910000D01*
X30165000Y117910000D02*
X26065000Y117910000D01*
X30165000Y129710000D02*
X30165000Y127310000D01*
X22065000Y129710000D02*
X17965000Y129710000D01*
X16565000Y127610000D02*
X16265000Y127910000D01*
X26065000Y129710000D02*
X30165000Y129710000D01*
X27065000Y123810000D02*
G75*
G03*
X27065000Y123810000I-3000000J0D01*
G01*
%TD*%
%LPC*%
D12*
%TO.C,EXTRA1*%
X16830000Y100315000D03*
X10480000Y97775000D03*
D13*
X19370000Y95235000D03*
D14*
X14290000Y95235000D03*
D13*
X9210000Y95235000D03*
%TD*%
D15*
%TO.C,Num3*%
X115255000Y97775000D03*
D13*
X124145000Y95235000D03*
D15*
X121605000Y100315000D03*
D13*
X113985000Y95235000D03*
D14*
X119065000Y95235000D03*
%TD*%
D13*
%TO.C,FNKEY1*%
X276545000Y19035000D03*
D14*
X271465000Y19035000D03*
D15*
X274005000Y24115000D03*
X267655000Y21575000D03*
D13*
X266385000Y19035000D03*
%TD*%
D14*
%TO.C,F2*%
X100015000Y128572500D03*
D15*
X102555000Y133652500D03*
X96205000Y131112500D03*
D13*
X105095000Y128572500D03*
X94935000Y128572500D03*
%TD*%
%TO.C,F5*%
X162245000Y128572500D03*
D15*
X153355000Y131112500D03*
X159705000Y133652500D03*
D13*
X152085000Y128572500D03*
D14*
X157165000Y128572500D03*
%TD*%
D15*
%TO.C,G1*%
X173992500Y62215000D03*
X167642500Y59675000D03*
D14*
X171452500Y57135000D03*
D13*
X176532500Y57135000D03*
X166372500Y57135000D03*
%TD*%
%TO.C,EXTRA6*%
X28260000Y95235000D03*
X38420000Y95235000D03*
D15*
X29530000Y97775000D03*
X35880000Y100315000D03*
D14*
X33340000Y95235000D03*
%TD*%
D15*
%TO.C,L1*%
X243842500Y59675000D03*
D13*
X242572500Y57135000D03*
D14*
X247652500Y57135000D03*
D15*
X250192500Y62215000D03*
D13*
X252732500Y57135000D03*
%TD*%
D14*
%TO.C,Num7*%
X195265000Y95235000D03*
D13*
X190185000Y95235000D03*
D15*
X197805000Y100315000D03*
D13*
X200345000Y95235000D03*
D15*
X191455000Y97775000D03*
%TD*%
%TO.C,MinusSign1*%
X274005000Y100315000D03*
X267655000Y97775000D03*
D14*
X271465000Y95235000D03*
D13*
X276545000Y95235000D03*
X266385000Y95235000D03*
%TD*%
%TO.C,EXTRA8*%
X38420000Y57135000D03*
X28260000Y57135000D03*
D15*
X35880000Y62215000D03*
D14*
X33340000Y57135000D03*
D15*
X29530000Y59675000D03*
%TD*%
D13*
%TO.C,K1*%
X223522500Y57135000D03*
X233682500Y57135000D03*
D14*
X228602500Y57135000D03*
D15*
X231142500Y62215000D03*
X224792500Y59675000D03*
%TD*%
D13*
%TO.C,EXTRA9*%
X38420000Y38085000D03*
X28260000Y38085000D03*
D14*
X33340000Y38085000D03*
D15*
X35880000Y43165000D03*
X29530000Y40625000D03*
%TD*%
D13*
%TO.C,I1*%
X218760000Y76185000D03*
D15*
X226380000Y81265000D03*
D14*
X223840000Y76185000D03*
D15*
X220030000Y78725000D03*
D13*
X228920000Y76185000D03*
%TD*%
%TO.C,WINDOWSKEY1*%
X83010000Y19035000D03*
X93170000Y19035000D03*
D15*
X90630000Y24115000D03*
D14*
X88090000Y19035000D03*
D15*
X84280000Y21575000D03*
%TD*%
%TO.C,Num8*%
X216855000Y100315000D03*
X210505000Y97775000D03*
D13*
X209235000Y95235000D03*
X219395000Y95235000D03*
D14*
X214315000Y95235000D03*
%TD*%
D13*
%TO.C,E1*%
X123510000Y76185000D03*
D15*
X131130000Y81265000D03*
X124780000Y78725000D03*
D14*
X128590000Y76185000D03*
D13*
X133670000Y76185000D03*
%TD*%
D15*
%TO.C,Num2*%
X102555000Y100315000D03*
X96205000Y97775000D03*
D14*
X100015000Y95235000D03*
D13*
X94935000Y95235000D03*
X105095000Y95235000D03*
%TD*%
%TO.C,Q1*%
X85410000Y76185000D03*
D14*
X90490000Y76185000D03*
D13*
X95570000Y76185000D03*
D15*
X86680000Y78725000D03*
X93030000Y81265000D03*
%TD*%
D13*
%TO.C,Jkey1*%
X204472500Y57135000D03*
D15*
X212092500Y62215000D03*
D13*
X214632500Y57135000D03*
D15*
X205742500Y59675000D03*
D14*
X209552500Y57135000D03*
%TD*%
D15*
%TO.C,EXTRA5*%
X10480000Y21575000D03*
D13*
X9210000Y19035000D03*
D15*
X16830000Y24115000D03*
D13*
X19370000Y19035000D03*
D14*
X14290000Y19035000D03*
%TD*%
D13*
%TO.C,U2*%
X209870000Y76185000D03*
D15*
X200980000Y78725000D03*
D13*
X199710000Y76185000D03*
D15*
X207330000Y81265000D03*
D14*
X204790000Y76185000D03*
%TD*%
D13*
%TO.C,T1*%
X161610000Y76185000D03*
D15*
X169230000Y81265000D03*
D14*
X166690000Y76185000D03*
D15*
X162880000Y78725000D03*
D13*
X171770000Y76185000D03*
%TD*%
%TO.C,ESC1*%
X66995000Y128572500D03*
D15*
X58105000Y131112500D03*
D13*
X56835000Y128572500D03*
D15*
X64455000Y133652500D03*
D14*
X61915000Y128572500D03*
%TD*%
D15*
%TO.C,F4*%
X134305000Y131112500D03*
D13*
X133035000Y128572500D03*
X143195000Y128572500D03*
D15*
X140655000Y133652500D03*
D14*
X138115000Y128572500D03*
%TD*%
%TO.C,EXTRA3*%
X14290000Y57135000D03*
D15*
X16830000Y62215000D03*
D13*
X9210000Y57135000D03*
D15*
X10480000Y59675000D03*
D13*
X19370000Y57135000D03*
%TD*%
D15*
%TO.C,PRTSC1*%
X331155000Y133652500D03*
X324805000Y131112500D03*
D14*
X328615000Y128572500D03*
D13*
X333695000Y128572500D03*
X323535000Y128572500D03*
%TD*%
D15*
%TO.C,F6*%
X172405000Y131112500D03*
D13*
X171135000Y128572500D03*
D15*
X178755000Y133652500D03*
D14*
X176215000Y128572500D03*
D13*
X181295000Y128572500D03*
%TD*%
D14*
%TO.C,Num1*%
X80965000Y95235000D03*
D15*
X77155000Y97775000D03*
D13*
X75885000Y95235000D03*
D15*
X83505000Y100315000D03*
D13*
X86045000Y95235000D03*
%TD*%
%TO.C,F8*%
X209235000Y128572500D03*
D15*
X216855000Y133652500D03*
D13*
X219395000Y128572500D03*
D14*
X214315000Y128572500D03*
D15*
X210505000Y131112500D03*
%TD*%
%TO.C,RIGHTALT1*%
X248605000Y21575000D03*
D13*
X247335000Y19035000D03*
X257495000Y19035000D03*
D14*
X252415000Y19035000D03*
D15*
X254955000Y24115000D03*
%TD*%
%TO.C,EqualSign1*%
X293055000Y100315000D03*
X286705000Y97775000D03*
D13*
X295595000Y95235000D03*
X285435000Y95235000D03*
D14*
X290515000Y95235000D03*
%TD*%
D13*
%TO.C,M1*%
X213997500Y38085000D03*
D15*
X215267500Y40625000D03*
D13*
X224157500Y38085000D03*
D15*
X221617500Y43165000D03*
D14*
X219077500Y38085000D03*
%TD*%
D15*
%TO.C,Dkey1*%
X135892500Y62215000D03*
D14*
X133352500Y57135000D03*
D15*
X129542500Y59675000D03*
D13*
X128272500Y57135000D03*
X138432500Y57135000D03*
%TD*%
%TO.C,F7*%
X200345000Y128572500D03*
X190185000Y128572500D03*
D15*
X191455000Y131112500D03*
X197805000Y133652500D03*
D14*
X195265000Y128572500D03*
%TD*%
D13*
%TO.C,A1*%
X90172500Y57135000D03*
D15*
X91442500Y59675000D03*
D13*
X100332500Y57135000D03*
D14*
X95252500Y57135000D03*
D15*
X97792500Y62215000D03*
%TD*%
%TO.C,O1*%
X245430000Y81265000D03*
X239080000Y78725000D03*
D13*
X237810000Y76185000D03*
D14*
X242890000Y76185000D03*
D13*
X247970000Y76185000D03*
%TD*%
D15*
%TO.C,LEFTCTRL1*%
X66817500Y24115000D03*
D13*
X59197500Y19035000D03*
D15*
X60467500Y21575000D03*
D13*
X69357500Y19035000D03*
D14*
X64277500Y19035000D03*
%TD*%
%TO.C,SPACEBAR1*%
X183340000Y19035000D03*
X233339900Y10780000D03*
D15*
X179530000Y21575000D03*
D13*
X188420000Y19035000D03*
X178260000Y19035000D03*
D16*
X233339900Y26020000D03*
X133340100Y26020000D03*
D15*
X185880000Y24115000D03*
D14*
X133340100Y10780000D03*
%TD*%
D17*
%TO.C,H3*%
X55830000Y39720000D03*
%TD*%
D14*
%TO.C,P1*%
X261940000Y76185000D03*
D13*
X267020000Y76185000D03*
X256860000Y76185000D03*
D15*
X258130000Y78725000D03*
X264480000Y81265000D03*
%TD*%
%TO.C,Quote1*%
X281942500Y59675000D03*
D13*
X290832500Y57135000D03*
D15*
X288292500Y62215000D03*
D14*
X285752500Y57135000D03*
D13*
X280672500Y57135000D03*
%TD*%
D15*
%TO.C,Fkey1*%
X154942500Y62215000D03*
D13*
X147322500Y57135000D03*
X157482500Y57135000D03*
D14*
X152402500Y57135000D03*
D15*
X148592500Y59675000D03*
%TD*%
%TO.C,RIGHTCONTROL1*%
X286705000Y21575000D03*
D13*
X285435000Y19035000D03*
D15*
X293055000Y24115000D03*
D14*
X290515000Y19035000D03*
D13*
X295595000Y19035000D03*
%TD*%
D14*
%TO.C,F10*%
X252415000Y128572500D03*
D15*
X248605000Y131112500D03*
D13*
X257495000Y128572500D03*
D15*
X254955000Y133652500D03*
D13*
X247335000Y128572500D03*
%TD*%
%TO.C,Ckey1*%
X137797500Y38085000D03*
D14*
X142877500Y38085000D03*
D15*
X139067500Y40625000D03*
X145417500Y43165000D03*
D13*
X147957500Y38085000D03*
%TD*%
D15*
%TO.C,Ins1*%
X312105000Y133652500D03*
X305755000Y131112500D03*
D14*
X309565000Y128572500D03*
D13*
X304485000Y128572500D03*
X314645000Y128572500D03*
%TD*%
D15*
%TO.C,N1*%
X202567500Y43165000D03*
D14*
X200027500Y38085000D03*
D15*
X196217500Y40625000D03*
D13*
X194947500Y38085000D03*
X205107500Y38085000D03*
%TD*%
%TO.C,EXTRA2*%
X9210000Y76185000D03*
D14*
X14290000Y76185000D03*
D13*
X19370000Y76185000D03*
D15*
X16830000Y81265000D03*
X10480000Y78725000D03*
%TD*%
%TO.C,EXTRA4*%
X16830000Y43165000D03*
D14*
X14290000Y38085000D03*
D15*
X10480000Y40625000D03*
D13*
X9210000Y38085000D03*
X19370000Y38085000D03*
%TD*%
D14*
%TO.C,LEFTALT1*%
X111902500Y19035000D03*
D15*
X114442500Y24115000D03*
D13*
X106822500Y19035000D03*
D15*
X108092500Y21575000D03*
D13*
X116982500Y19035000D03*
%TD*%
D15*
%TO.C,LEFTARROW1*%
X312105000Y24115000D03*
D13*
X314645000Y19035000D03*
D14*
X309565000Y19035000D03*
D13*
X304485000Y19035000D03*
D15*
X305755000Y21575000D03*
%TD*%
D13*
%TO.C,CloseBracket1*%
X294960000Y76185000D03*
D15*
X296230000Y78725000D03*
D14*
X300040000Y76185000D03*
D15*
X302580000Y81265000D03*
D13*
X305120000Y76185000D03*
%TD*%
D15*
%TO.C,Num9*%
X235905000Y100315000D03*
D13*
X228285000Y95235000D03*
D15*
X229555000Y97775000D03*
D14*
X233365000Y95235000D03*
D13*
X238445000Y95235000D03*
%TD*%
D14*
%TO.C,F9*%
X233365000Y128572500D03*
D13*
X228285000Y128572500D03*
D15*
X235905000Y133652500D03*
X229555000Y131112500D03*
D13*
X238445000Y128572500D03*
%TD*%
D15*
%TO.C,X1*%
X126367500Y43165000D03*
D13*
X128907500Y38085000D03*
X118747500Y38085000D03*
D15*
X120017500Y40625000D03*
D14*
X123827500Y38085000D03*
%TD*%
D15*
%TO.C,Num6*%
X172405000Y97775000D03*
D14*
X176215000Y95235000D03*
D15*
X178755000Y100315000D03*
D13*
X171135000Y95235000D03*
X181295000Y95235000D03*
%TD*%
%TO.C,Num5*%
X152085000Y95235000D03*
D14*
X157165000Y95235000D03*
D13*
X162245000Y95235000D03*
D15*
X159705000Y100315000D03*
X153355000Y97775000D03*
%TD*%
%TO.C,Slash1*%
X326392500Y81265000D03*
D14*
X323852500Y76185000D03*
D13*
X318772500Y76185000D03*
D15*
X320042500Y78725000D03*
D13*
X328932500Y76185000D03*
%TD*%
D15*
%TO.C,Num0*%
X248605000Y97775000D03*
D13*
X257495000Y95235000D03*
D14*
X252415000Y95235000D03*
D13*
X247335000Y95235000D03*
D15*
X254955000Y100315000D03*
%TD*%
D17*
%TO.C,H2*%
X49540000Y111900000D03*
%TD*%
D14*
%TO.C,B1*%
X180977500Y38085000D03*
D15*
X177167500Y40625000D03*
D13*
X175897500Y38085000D03*
D15*
X183517500Y43165000D03*
D13*
X186057500Y38085000D03*
%TD*%
D15*
%TO.C,Z1*%
X100967500Y40625000D03*
D13*
X109857500Y38085000D03*
X99697500Y38085000D03*
D14*
X104777500Y38085000D03*
D15*
X107317500Y43165000D03*
%TD*%
%TO.C,DOWNARROW1*%
X324805000Y21575000D03*
X331155000Y24115000D03*
D13*
X323535000Y19035000D03*
D14*
X328615000Y19035000D03*
D13*
X333695000Y19035000D03*
%TD*%
%TO.C,PgUp1*%
X342585000Y57135000D03*
D15*
X343855000Y59675000D03*
D14*
X347665000Y57135000D03*
D13*
X352745000Y57135000D03*
D15*
X350205000Y62215000D03*
%TD*%
D13*
%TO.C,Backspace1*%
X314010000Y95235000D03*
D16*
X331028000Y102220000D03*
D15*
X315280000Y97775000D03*
D14*
X319090000Y95235000D03*
D15*
X321630000Y100315000D03*
D13*
X324170000Y95235000D03*
D14*
X331028000Y86980000D03*
X307152000Y86980000D03*
D16*
X307152000Y102220000D03*
%TD*%
D15*
%TO.C,QuestionMark1*%
X272417500Y40625000D03*
D14*
X276227500Y38085000D03*
D15*
X278767500Y43165000D03*
D13*
X271147500Y38085000D03*
X281307500Y38085000D03*
%TD*%
%TO.C,RIGHTARROW1*%
X342585000Y19035000D03*
X352745000Y19035000D03*
D15*
X343855000Y21575000D03*
X350205000Y24115000D03*
D14*
X347665000Y19035000D03*
%TD*%
D18*
%TO.C,SW3*%
X16565000Y126310000D03*
D19*
X16565000Y121310000D03*
X16565000Y123810000D03*
D20*
X24065000Y129410000D03*
X24065000Y118210000D03*
D19*
X31065000Y121310000D03*
X31065000Y126310000D03*
%TD*%
D14*
%TO.C,Tab1*%
X66677500Y76185000D03*
D15*
X69217500Y81265000D03*
X62867500Y78725000D03*
D13*
X71757500Y76185000D03*
X61597500Y76185000D03*
%TD*%
D14*
%TO.C,Semicolon1*%
X266702500Y57135000D03*
D13*
X261622500Y57135000D03*
D15*
X262892500Y59675000D03*
X269242500Y62215000D03*
D13*
X271782500Y57135000D03*
%TD*%
%TO.C,V1*%
X167007500Y38085000D03*
D15*
X158117500Y40625000D03*
D14*
X161927500Y38085000D03*
D15*
X164467500Y43165000D03*
D13*
X156847500Y38085000D03*
%TD*%
D14*
%TO.C,End1*%
X347665000Y76185000D03*
D13*
X342585000Y76185000D03*
D15*
X343855000Y78725000D03*
D13*
X352745000Y76185000D03*
D15*
X350205000Y81265000D03*
%TD*%
D13*
%TO.C,Matilda1*%
X66995000Y95235000D03*
D15*
X64455000Y100315000D03*
D13*
X56835000Y95235000D03*
D15*
X58105000Y97775000D03*
D14*
X61915000Y95235000D03*
%TD*%
%TO.C,PgDn1*%
X347665000Y38085000D03*
D15*
X350205000Y43165000D03*
D13*
X352745000Y38085000D03*
X342585000Y38085000D03*
D15*
X343855000Y40625000D03*
%TD*%
%TO.C,ENTER1*%
X319230000Y62215000D03*
X312880000Y59675000D03*
D13*
X311610000Y57135000D03*
X321770000Y57135000D03*
D14*
X328628000Y48880000D03*
D16*
X304752000Y64120000D03*
D14*
X304752000Y48880000D03*
D16*
X328628000Y64120000D03*
D14*
X316690000Y57135000D03*
%TD*%
D13*
%TO.C,F12*%
X295595000Y128572500D03*
D14*
X290515000Y128572500D03*
D15*
X286705000Y131112500D03*
D13*
X285435000Y128572500D03*
D15*
X293055000Y133652500D03*
%TD*%
D13*
%TO.C,OpenBracket1*%
X275910000Y76185000D03*
X286070000Y76185000D03*
D15*
X277180000Y78725000D03*
X283530000Y81265000D03*
D14*
X280990000Y76185000D03*
%TD*%
D15*
%TO.C,EXTRA7*%
X35929994Y81265000D03*
X29579994Y78725000D03*
D14*
X33389994Y76185000D03*
D13*
X38469994Y76185000D03*
X28309994Y76185000D03*
%TD*%
D16*
%TO.C,LEFTSHIFT1*%
X85740500Y45070000D03*
D15*
X76342500Y43165000D03*
D13*
X68722500Y38085000D03*
D14*
X73802500Y38085000D03*
D15*
X69992500Y40625000D03*
D13*
X78882500Y38085000D03*
D14*
X85740500Y29830000D03*
D16*
X61864500Y45070000D03*
D14*
X61864500Y29830000D03*
%TD*%
D15*
%TO.C,R1*%
X150180000Y81265000D03*
D13*
X152720000Y76185000D03*
D15*
X143830000Y78725000D03*
D14*
X147640000Y76185000D03*
D13*
X142560000Y76185000D03*
%TD*%
D14*
%TO.C,Hkey1*%
X190502500Y57135000D03*
D15*
X186692500Y59675000D03*
D13*
X185422500Y57135000D03*
D15*
X193042500Y62215000D03*
D13*
X195582500Y57135000D03*
%TD*%
D15*
%TO.C,CAPSLOCK1*%
X65230000Y59675000D03*
X71580000Y62215000D03*
D13*
X63960000Y57135000D03*
X74120000Y57135000D03*
D14*
X69040000Y57135000D03*
%TD*%
D13*
%TO.C,S1*%
X109222500Y57135000D03*
D15*
X110492500Y59675000D03*
X116842500Y62215000D03*
D14*
X114302500Y57135000D03*
D13*
X119382500Y57135000D03*
%TD*%
%TO.C,Y1*%
X190820000Y76185000D03*
D14*
X185740000Y76185000D03*
D15*
X181930000Y78725000D03*
X188280000Y81265000D03*
D13*
X180660000Y76185000D03*
%TD*%
%TO.C,F3*%
X113985000Y128572500D03*
D15*
X115255000Y131112500D03*
D14*
X119065000Y128572500D03*
D15*
X121605000Y133652500D03*
D13*
X124145000Y128572500D03*
%TD*%
%TO.C,CommaSign1*%
X243207500Y38085000D03*
D15*
X234317500Y40625000D03*
D13*
X233047500Y38085000D03*
D15*
X240667500Y43165000D03*
D14*
X238127500Y38085000D03*
%TD*%
D13*
%TO.C,W1*%
X104460000Y76185000D03*
D15*
X112080000Y81265000D03*
D14*
X109540000Y76185000D03*
D15*
X105730000Y78725000D03*
D13*
X114620000Y76185000D03*
%TD*%
D15*
%TO.C,DELETE1*%
X343855000Y131112500D03*
D13*
X352745000Y128572500D03*
X342585000Y128572500D03*
D15*
X350205000Y133652500D03*
D14*
X347665000Y128572500D03*
%TD*%
D15*
%TO.C,Num4*%
X140655000Y100315000D03*
D13*
X133035000Y95235000D03*
D15*
X134305000Y97775000D03*
D14*
X138115000Y95235000D03*
D13*
X143195000Y95235000D03*
%TD*%
D15*
%TO.C,UPARROW1*%
X331155000Y43165000D03*
D13*
X323535000Y38085000D03*
X333695000Y38085000D03*
D15*
X324805000Y40625000D03*
D14*
X328615000Y38085000D03*
%TD*%
D15*
%TO.C,EXTRA10*%
X35929994Y24115000D03*
X29579994Y21575000D03*
D14*
X33389994Y19035000D03*
D13*
X38469994Y19035000D03*
X28309994Y19035000D03*
%TD*%
D15*
%TO.C,DotSign1*%
X259717500Y43165000D03*
D13*
X252097500Y38085000D03*
X262257500Y38085000D03*
D15*
X253367500Y40625000D03*
D14*
X257177500Y38085000D03*
%TD*%
%TO.C,RIGHTSHIFT1*%
X302402500Y38085000D03*
D15*
X304942500Y43165000D03*
D13*
X307482500Y38085000D03*
X297322500Y38085000D03*
D15*
X298592500Y40625000D03*
%TD*%
D17*
%TO.C,H4*%
X297080000Y57620000D03*
%TD*%
%TO.C,H1*%
X323120000Y111900000D03*
%TD*%
D14*
%TO.C,F1*%
X80965000Y128572500D03*
D13*
X86045000Y128572500D03*
X75885000Y128572500D03*
D15*
X77155000Y131112500D03*
X83505000Y133652500D03*
%TD*%
D14*
%TO.C,F11*%
X271465000Y128572500D03*
D13*
X266385000Y128572500D03*
D15*
X267655000Y131112500D03*
D13*
X276545000Y128572500D03*
D15*
X274005000Y133652500D03*
%TD*%
%TO.C,Home1*%
X343855000Y97775000D03*
X350205000Y100315000D03*
D14*
X347665000Y95235000D03*
D13*
X342585000Y95235000D03*
X352745000Y95235000D03*
%TD*%
D21*
%TO.C,J1*%
X37800000Y140175000D03*
X43580000Y140175000D03*
D22*
X45010000Y143855000D03*
D23*
X45010000Y139675000D03*
X36370000Y139675000D03*
D22*
X36370000Y143855000D03*
%TD*%
M02*
