%TF.GenerationSoftware,KiCad,Pcbnew,(6.0.11)*%
%TF.CreationDate,2023-03-01T20:51:25+07:00*%
%TF.ProjectId,Extero75,45787465-726f-4373-952e-6b696361645f,rev?*%
%TF.SameCoordinates,PX265be64PYc2d7328*%
%TF.FileFunction,Legend,Top*%
%TF.FilePolarity,Positive*%
%FSLAX46Y46*%
G04 Gerber Fmt 4.6, Leading zero omitted, Abs format (unit mm)*
G04 Created by KiCad (PCBNEW (6.0.11)) date 2023-03-01 20:51:25*
%MOMM*%
%LPD*%
G01*
G04 APERTURE LIST*
%ADD10C,0.150000*%
%ADD11C,0.120000*%
%ADD12C,3.987800*%
%ADD13C,2.200000*%
%ADD14C,2.000000*%
%ADD15R,3.200000X2.000000*%
%ADD16R,2.000000X2.000000*%
%ADD17C,3.300000*%
%ADD18C,1.750000*%
%ADD19O,1.000000X1.800000*%
%ADD20O,1.000000X2.100000*%
%ADD21C,0.650000*%
G04 APERTURE END LIST*
D10*
%TO.C,H3*%
X52275787Y39692812D02*
X52275787Y40692812D01*
X52275787Y40216621D02*
X52847215Y40216621D01*
X52847215Y39692812D02*
X52847215Y40692812D01*
X53228168Y40692812D02*
X53847215Y40692812D01*
X53513882Y40311859D01*
X53656739Y40311859D01*
X53751977Y40264240D01*
X53799596Y40216621D01*
X53847215Y40121383D01*
X53847215Y39883288D01*
X53799596Y39788050D01*
X53751977Y39740431D01*
X53656739Y39692812D01*
X53371025Y39692812D01*
X53275787Y39740431D01*
X53228168Y39788050D01*
%TO.C,H2*%
X45985787Y111872812D02*
X45985787Y112872812D01*
X45985787Y112396621D02*
X46557215Y112396621D01*
X46557215Y111872812D02*
X46557215Y112872812D01*
X46985787Y112777573D02*
X47033406Y112825192D01*
X47128644Y112872812D01*
X47366739Y112872812D01*
X47461977Y112825192D01*
X47509596Y112777573D01*
X47557215Y112682335D01*
X47557215Y112587097D01*
X47509596Y112444240D01*
X46938168Y111872812D01*
X47557215Y111872812D01*
%TO.C,SW3*%
X15239358Y127830431D02*
X15382215Y127782812D01*
X15620311Y127782812D01*
X15715549Y127830431D01*
X15763168Y127878050D01*
X15810787Y127973288D01*
X15810787Y128068526D01*
X15763168Y128163764D01*
X15715549Y128211383D01*
X15620311Y128259002D01*
X15429834Y128306621D01*
X15334596Y128354240D01*
X15286977Y128401859D01*
X15239358Y128497097D01*
X15239358Y128592335D01*
X15286977Y128687573D01*
X15334596Y128735192D01*
X15429834Y128782812D01*
X15667930Y128782812D01*
X15810787Y128735192D01*
X16144120Y128782812D02*
X16382215Y127782812D01*
X16572692Y128497097D01*
X16763168Y127782812D01*
X17001263Y128782812D01*
X17286977Y128782812D02*
X17906025Y128782812D01*
X17572692Y128401859D01*
X17715549Y128401859D01*
X17810787Y128354240D01*
X17858406Y128306621D01*
X17906025Y128211383D01*
X17906025Y127973288D01*
X17858406Y127878050D01*
X17810787Y127830431D01*
X17715549Y127782812D01*
X17429834Y127782812D01*
X17334596Y127830431D01*
X17286977Y127878050D01*
%TO.C,H4*%
X293525787Y57592812D02*
X293525787Y58592812D01*
X293525787Y58116621D02*
X294097215Y58116621D01*
X294097215Y57592812D02*
X294097215Y58592812D01*
X295001977Y58259478D02*
X295001977Y57592812D01*
X294763882Y58640431D02*
X294525787Y57926145D01*
X295144834Y57926145D01*
%TO.C,H1*%
X319565787Y111872812D02*
X319565787Y112872812D01*
X319565787Y112396621D02*
X320137215Y112396621D01*
X320137215Y111872812D02*
X320137215Y112872812D01*
X321137215Y111872812D02*
X320565787Y111872812D01*
X320851501Y111872812D02*
X320851501Y112872812D01*
X320756263Y112729954D01*
X320661025Y112634716D01*
X320565787Y112587097D01*
D11*
%TO.C,SW3*%
X24272692Y121035192D02*
G75*
G03*
X24272692Y121035192I-3000000J0D01*
G01*
X23272692Y126935192D02*
X27372692Y126935192D01*
X13772692Y124835192D02*
X13472692Y125135192D01*
X19272692Y126935192D02*
X15172692Y126935192D01*
X27372692Y126935192D02*
X27372692Y124535192D01*
X27372692Y115135192D02*
X23272692Y115135192D01*
X19272692Y115135192D02*
X15172692Y115135192D01*
X14072692Y125135192D02*
X13772692Y124835192D01*
X13472692Y125135192D02*
X14072692Y125135192D01*
X21272692Y121535192D02*
X21272692Y120535192D01*
X27372692Y122335192D02*
X27372692Y119735192D01*
X15172692Y126935192D02*
X15172692Y115135192D01*
X27372692Y117535192D02*
X27372692Y115135192D01*
X20772692Y121035192D02*
X21772692Y121035192D01*
%TD*%
%LPC*%
D12*
%TO.C,BackspaceStab1*%
X304391442Y84205192D03*
X328203942Y84205192D03*
%TD*%
D13*
%TO.C,H3*%
X53037692Y36945192D03*
%TD*%
%TO.C,H2*%
X46747692Y109125192D03*
%TD*%
D14*
%TO.C,SW3*%
X28272692Y123535192D03*
X28272692Y118535192D03*
D15*
X21272692Y115435192D03*
X21272692Y126635192D03*
D14*
X13772692Y121035192D03*
X13772692Y118535192D03*
D16*
X13772692Y123535192D03*
%TD*%
D12*
%TO.C,SpacebarStab1*%
X130541442Y8005192D03*
X230553942Y8005192D03*
%TD*%
%TO.C,ShiftStab1*%
X59103942Y27055192D03*
X82916442Y27055192D03*
%TD*%
%TO.C,EnterStab1*%
X325803942Y46105192D03*
X301991442Y46105192D03*
%TD*%
D13*
%TO.C,H4*%
X294287692Y54845192D03*
%TD*%
%TO.C,H1*%
X320327692Y109125192D03*
%TD*%
D17*
%TO.C,Num3*%
X118812692Y97540192D03*
X112462692Y95000192D03*
D18*
X111192692Y92460192D03*
X121352692Y92460192D03*
D12*
X116272692Y92460192D03*
%TD*%
D17*
%TO.C,FNKEY1*%
X271212692Y21340192D03*
X264862692Y18800192D03*
D12*
X268672692Y16260192D03*
D18*
X263592692Y16260192D03*
X273752692Y16260192D03*
%TD*%
D17*
%TO.C,F2*%
X99762692Y130877692D03*
X93412692Y128337692D03*
D18*
X102302692Y125797692D03*
D12*
X97222692Y125797692D03*
D18*
X92142692Y125797692D03*
%TD*%
D17*
%TO.C,F5*%
X156912692Y130877692D03*
X150562692Y128337692D03*
D12*
X154372692Y125797692D03*
D18*
X159452692Y125797692D03*
X149292692Y125797692D03*
%TD*%
D17*
%TO.C,G1*%
X171200192Y59440192D03*
X164850192Y56900192D03*
D18*
X173740192Y54360192D03*
X163580192Y54360192D03*
D12*
X168660192Y54360192D03*
%TD*%
D17*
%TO.C,EXTRA6*%
X33087692Y97540192D03*
X26737692Y95000192D03*
D18*
X35627692Y92460192D03*
D12*
X30547692Y92460192D03*
D18*
X25467692Y92460192D03*
%TD*%
D17*
%TO.C,L1*%
X247400192Y59440192D03*
X241050192Y56900192D03*
D18*
X249940192Y54360192D03*
X239780192Y54360192D03*
D12*
X244860192Y54360192D03*
%TD*%
D17*
%TO.C,Num7*%
X195012692Y97540192D03*
X188662692Y95000192D03*
D18*
X187392692Y92460192D03*
X197552692Y92460192D03*
D12*
X192472692Y92460192D03*
%TD*%
D17*
%TO.C,MinusSign1*%
X271212692Y97540192D03*
X264862692Y95000192D03*
D12*
X268672692Y92460192D03*
D18*
X273752692Y92460192D03*
X263592692Y92460192D03*
%TD*%
D17*
%TO.C,EXTRA8*%
X33087692Y59440192D03*
X26737692Y56900192D03*
D18*
X35627692Y54360192D03*
D12*
X30547692Y54360192D03*
D18*
X25467692Y54360192D03*
%TD*%
D17*
%TO.C,K1*%
X228350192Y59440192D03*
X222000192Y56900192D03*
D12*
X225810192Y54360192D03*
D18*
X220730192Y54360192D03*
X230890192Y54360192D03*
%TD*%
D17*
%TO.C,EXTRA9*%
X33087692Y40390192D03*
X26737692Y37850192D03*
D12*
X30547692Y35310192D03*
D18*
X35627692Y35310192D03*
X25467692Y35310192D03*
%TD*%
D17*
%TO.C,I1*%
X223587692Y78490192D03*
X217237692Y75950192D03*
D12*
X221047692Y73410192D03*
D18*
X226127692Y73410192D03*
X215967692Y73410192D03*
%TD*%
D17*
%TO.C,WINDOWSKEY1*%
X87837692Y21340192D03*
X81487692Y18800192D03*
D18*
X80217692Y16260192D03*
X90377692Y16260192D03*
D12*
X85297692Y16260192D03*
%TD*%
D17*
%TO.C,Num8*%
X214062692Y97540192D03*
X207712692Y95000192D03*
D18*
X206442692Y92460192D03*
X216602692Y92460192D03*
D12*
X211522692Y92460192D03*
%TD*%
D17*
%TO.C,E1*%
X128337692Y78490192D03*
X121987692Y75950192D03*
D12*
X125797692Y73410192D03*
D18*
X130877692Y73410192D03*
X120717692Y73410192D03*
%TD*%
D17*
%TO.C,Num2*%
X99762692Y97540192D03*
X93412692Y95000192D03*
D18*
X92142692Y92460192D03*
D12*
X97222692Y92460192D03*
D18*
X102302692Y92460192D03*
%TD*%
D17*
%TO.C,Q1*%
X90237692Y78490192D03*
X83887692Y75950192D03*
D18*
X82617692Y73410192D03*
X92777692Y73410192D03*
D12*
X87697692Y73410192D03*
%TD*%
D17*
%TO.C,Jkey1*%
X209300192Y59440192D03*
X202950192Y56900192D03*
D18*
X201680192Y54360192D03*
D12*
X206760192Y54360192D03*
D18*
X211840192Y54360192D03*
%TD*%
D17*
%TO.C,EXTRA5*%
X14037692Y21340192D03*
X7687692Y18800192D03*
D18*
X6417692Y16260192D03*
D12*
X11497692Y16260192D03*
D18*
X16577692Y16260192D03*
%TD*%
D17*
%TO.C,U2*%
X204537692Y78490192D03*
X198187692Y75950192D03*
D12*
X201997692Y73410192D03*
D18*
X207077692Y73410192D03*
X196917692Y73410192D03*
%TD*%
D19*
%TO.C,J1*%
X33577692Y141080192D03*
D20*
X33577692Y136900192D03*
X42217692Y136900192D03*
D19*
X42217692Y141080192D03*
D21*
X40787692Y137400192D03*
X35007692Y137400192D03*
%TD*%
D17*
%TO.C,T1*%
X166437692Y78490192D03*
X160087692Y75950192D03*
D18*
X158817692Y73410192D03*
D12*
X163897692Y73410192D03*
D18*
X168977692Y73410192D03*
%TD*%
D17*
%TO.C,ESC1*%
X61662692Y130877692D03*
X55312692Y128337692D03*
D12*
X59122692Y125797692D03*
D18*
X54042692Y125797692D03*
X64202692Y125797692D03*
%TD*%
D17*
%TO.C,F4*%
X137862692Y130877692D03*
X131512692Y128337692D03*
D18*
X130242692Y125797692D03*
X140402692Y125797692D03*
D12*
X135322692Y125797692D03*
%TD*%
D17*
%TO.C,EXTRA3*%
X14037692Y59440192D03*
X7687692Y56900192D03*
D12*
X11497692Y54360192D03*
D18*
X16577692Y54360192D03*
X6417692Y54360192D03*
%TD*%
D17*
%TO.C,PRTSC1*%
X328362692Y130877692D03*
X322012692Y128337692D03*
D12*
X325822692Y125797692D03*
D18*
X330902692Y125797692D03*
X320742692Y125797692D03*
%TD*%
D17*
%TO.C,F6*%
X175962692Y130877692D03*
X169612692Y128337692D03*
D18*
X178502692Y125797692D03*
X168342692Y125797692D03*
D12*
X173422692Y125797692D03*
%TD*%
D17*
%TO.C,Num1*%
X80712692Y97540192D03*
X74362692Y95000192D03*
D18*
X73092692Y92460192D03*
D12*
X78172692Y92460192D03*
D18*
X83252692Y92460192D03*
%TD*%
D17*
%TO.C,F8*%
X214062692Y130877692D03*
X207712692Y128337692D03*
D12*
X211522692Y125797692D03*
D18*
X206442692Y125797692D03*
X216602692Y125797692D03*
%TD*%
D17*
%TO.C,RIGHTALT1*%
X252162692Y21340192D03*
X245812692Y18800192D03*
D12*
X249622692Y16260192D03*
D18*
X254702692Y16260192D03*
X244542692Y16260192D03*
%TD*%
D17*
%TO.C,EqualSign1*%
X290262692Y97540192D03*
X283912692Y95000192D03*
D18*
X292802692Y92460192D03*
X282642692Y92460192D03*
D12*
X287722692Y92460192D03*
%TD*%
D17*
%TO.C,M1*%
X218825192Y40390192D03*
X212475192Y37850192D03*
D18*
X221365192Y35310192D03*
X211205192Y35310192D03*
D12*
X216285192Y35310192D03*
%TD*%
D17*
%TO.C,Dkey1*%
X133100192Y59440192D03*
X126750192Y56900192D03*
D18*
X135640192Y54360192D03*
X125480192Y54360192D03*
D12*
X130560192Y54360192D03*
%TD*%
D17*
%TO.C,F7*%
X195012692Y130877692D03*
X188662692Y128337692D03*
D12*
X192472692Y125797692D03*
D18*
X187392692Y125797692D03*
X197552692Y125797692D03*
%TD*%
D17*
%TO.C,A1*%
X95000192Y59440192D03*
X88650192Y56900192D03*
D18*
X87380192Y54360192D03*
X97540192Y54360192D03*
D12*
X92460192Y54360192D03*
%TD*%
D17*
%TO.C,O1*%
X242637692Y78490192D03*
X236287692Y75950192D03*
D12*
X240097692Y73410192D03*
D18*
X245177692Y73410192D03*
X235017692Y73410192D03*
%TD*%
D17*
%TO.C,LEFTCTRL1*%
X64025192Y21340192D03*
X57675192Y18800192D03*
D12*
X61485192Y16260192D03*
D18*
X56405192Y16260192D03*
X66565192Y16260192D03*
%TD*%
D17*
%TO.C,SPACEBAR1*%
X183087692Y21340192D03*
X176737692Y18800192D03*
D12*
X180547692Y16260192D03*
D18*
X175467692Y16260192D03*
X185627692Y16260192D03*
%TD*%
D17*
%TO.C,P1*%
X261687692Y78490192D03*
X255337692Y75950192D03*
D18*
X254067692Y73410192D03*
X264227692Y73410192D03*
D12*
X259147692Y73410192D03*
%TD*%
D17*
%TO.C,Quote1*%
X285500192Y59440192D03*
X279150192Y56900192D03*
D12*
X282960192Y54360192D03*
D18*
X288040192Y54360192D03*
X277880192Y54360192D03*
%TD*%
D17*
%TO.C,Fkey1*%
X152150192Y59440192D03*
X145800192Y56900192D03*
D18*
X154690192Y54360192D03*
D12*
X149610192Y54360192D03*
D18*
X144530192Y54360192D03*
%TD*%
D17*
%TO.C,RIGHTCONTROL1*%
X290262692Y21340192D03*
X283912692Y18800192D03*
D18*
X282642692Y16260192D03*
X292802692Y16260192D03*
D12*
X287722692Y16260192D03*
%TD*%
D17*
%TO.C,F10*%
X252162692Y130877692D03*
X245812692Y128337692D03*
D18*
X254702692Y125797692D03*
X244542692Y125797692D03*
D12*
X249622692Y125797692D03*
%TD*%
D17*
%TO.C,Ckey1*%
X142625192Y40390192D03*
X136275192Y37850192D03*
D18*
X135005192Y35310192D03*
D12*
X140085192Y35310192D03*
D18*
X145165192Y35310192D03*
%TD*%
D17*
%TO.C,Ins1*%
X309312692Y130877692D03*
X302962692Y128337692D03*
D12*
X306772692Y125797692D03*
D18*
X301692692Y125797692D03*
X311852692Y125797692D03*
%TD*%
D17*
%TO.C,N1*%
X199775192Y40390192D03*
X193425192Y37850192D03*
D12*
X197235192Y35310192D03*
D18*
X192155192Y35310192D03*
X202315192Y35310192D03*
%TD*%
D17*
%TO.C,EXTRA2*%
X14037692Y78490192D03*
X7687692Y75950192D03*
D12*
X11497692Y73410192D03*
D18*
X16577692Y73410192D03*
X6417692Y73410192D03*
%TD*%
D17*
%TO.C,EXTRA4*%
X14037692Y40390192D03*
X7687692Y37850192D03*
D18*
X16577692Y35310192D03*
D12*
X11497692Y35310192D03*
D18*
X6417692Y35310192D03*
%TD*%
D17*
%TO.C,LEFTALT1*%
X111650192Y21340192D03*
X105300192Y18800192D03*
D18*
X104030192Y16260192D03*
X114190192Y16260192D03*
D12*
X109110192Y16260192D03*
%TD*%
D17*
%TO.C,LEFTARROW1*%
X309312692Y21340192D03*
X302962692Y18800192D03*
D18*
X301692692Y16260192D03*
D12*
X306772692Y16260192D03*
D18*
X311852692Y16260192D03*
%TD*%
D17*
%TO.C,CloseBracket1*%
X299787692Y78490192D03*
X293437692Y75950192D03*
D18*
X302327692Y73410192D03*
X292167692Y73410192D03*
D12*
X297247692Y73410192D03*
%TD*%
D17*
%TO.C,Num9*%
X233112692Y97540192D03*
X226762692Y95000192D03*
D18*
X225492692Y92460192D03*
X235652692Y92460192D03*
D12*
X230572692Y92460192D03*
%TD*%
D17*
%TO.C,F9*%
X233112692Y130877692D03*
X226762692Y128337692D03*
D18*
X225492692Y125797692D03*
D12*
X230572692Y125797692D03*
D18*
X235652692Y125797692D03*
%TD*%
D17*
%TO.C,X1*%
X123575192Y40390192D03*
X117225192Y37850192D03*
D12*
X121035192Y35310192D03*
D18*
X126115192Y35310192D03*
X115955192Y35310192D03*
%TD*%
D17*
%TO.C,Num6*%
X175962692Y97540192D03*
X169612692Y95000192D03*
D18*
X168342692Y92460192D03*
X178502692Y92460192D03*
D12*
X173422692Y92460192D03*
%TD*%
D17*
%TO.C,Num5*%
X156912692Y97540192D03*
X150562692Y95000192D03*
D18*
X159452692Y92460192D03*
X149292692Y92460192D03*
D12*
X154372692Y92460192D03*
%TD*%
D17*
%TO.C,Slash1*%
X323600192Y78490192D03*
X317250192Y75950192D03*
D18*
X326140192Y73410192D03*
X315980192Y73410192D03*
D12*
X321060192Y73410192D03*
%TD*%
D17*
%TO.C,Num0*%
X252162692Y97540192D03*
X245812692Y95000192D03*
D18*
X244542692Y92460192D03*
D12*
X249622692Y92460192D03*
D18*
X254702692Y92460192D03*
%TD*%
D17*
%TO.C,B1*%
X180725192Y40390192D03*
X174375192Y37850192D03*
D12*
X178185192Y35310192D03*
D18*
X173105192Y35310192D03*
X183265192Y35310192D03*
%TD*%
D17*
%TO.C,Z1*%
X104525192Y40390192D03*
X98175192Y37850192D03*
D12*
X101985192Y35310192D03*
D18*
X96905192Y35310192D03*
X107065192Y35310192D03*
%TD*%
D17*
%TO.C,DOWNARROW1*%
X328362692Y21340192D03*
X322012692Y18800192D03*
D18*
X330902692Y16260192D03*
D12*
X325822692Y16260192D03*
D18*
X320742692Y16260192D03*
%TD*%
D17*
%TO.C,PgUp1*%
X347412692Y59440192D03*
X341062692Y56900192D03*
D18*
X349952692Y54360192D03*
X339792692Y54360192D03*
D12*
X344872692Y54360192D03*
%TD*%
D17*
%TO.C,Backspace1*%
X318837692Y97540192D03*
X312487692Y95000192D03*
D18*
X311217692Y92460192D03*
X321377692Y92460192D03*
D12*
X316297692Y92460192D03*
%TD*%
D17*
%TO.C,QuestionMark1*%
X275975192Y40390192D03*
X269625192Y37850192D03*
D12*
X273435192Y35310192D03*
D18*
X268355192Y35310192D03*
X278515192Y35310192D03*
%TD*%
D17*
%TO.C,RIGHTARROW1*%
X347412692Y21340192D03*
X341062692Y18800192D03*
D18*
X349952692Y16260192D03*
D12*
X344872692Y16260192D03*
D18*
X339792692Y16260192D03*
%TD*%
D17*
%TO.C,Tab1*%
X66425192Y78490192D03*
X60075192Y75950192D03*
D18*
X68965192Y73410192D03*
D12*
X63885192Y73410192D03*
D18*
X58805192Y73410192D03*
%TD*%
D17*
%TO.C,Semicolon1*%
X266450192Y59440192D03*
X260100192Y56900192D03*
D12*
X263910192Y54360192D03*
D18*
X258830192Y54360192D03*
X268990192Y54360192D03*
%TD*%
D17*
%TO.C,V1*%
X161675192Y40390192D03*
X155325192Y37850192D03*
D18*
X154055192Y35310192D03*
D12*
X159135192Y35310192D03*
D18*
X164215192Y35310192D03*
%TD*%
D17*
%TO.C,End1*%
X347412692Y78490192D03*
X341062692Y75950192D03*
D12*
X344872692Y73410192D03*
D18*
X339792692Y73410192D03*
X349952692Y73410192D03*
%TD*%
D17*
%TO.C,Matilda1*%
X61662692Y97540192D03*
X55312692Y95000192D03*
D18*
X64202692Y92460192D03*
X54042692Y92460192D03*
D12*
X59122692Y92460192D03*
%TD*%
D17*
%TO.C,PgDn1*%
X347412692Y40390192D03*
X341062692Y37850192D03*
D18*
X349952692Y35310192D03*
D12*
X344872692Y35310192D03*
D18*
X339792692Y35310192D03*
%TD*%
D17*
%TO.C,ENTER1*%
X316437692Y59440192D03*
X310087692Y56900192D03*
D18*
X308817692Y54360192D03*
X318977692Y54360192D03*
D12*
X313897692Y54360192D03*
%TD*%
D17*
%TO.C,F12*%
X290262692Y130877692D03*
X283912692Y128337692D03*
D18*
X292802692Y125797692D03*
X282642692Y125797692D03*
D12*
X287722692Y125797692D03*
%TD*%
D17*
%TO.C,OpenBracket1*%
X280737692Y78490192D03*
X274387692Y75950192D03*
D12*
X278197692Y73410192D03*
D18*
X273117692Y73410192D03*
X283277692Y73410192D03*
%TD*%
D17*
%TO.C,EXTRA7*%
X33137686Y78490192D03*
X26787686Y75950192D03*
D18*
X25517686Y73410192D03*
D12*
X30597686Y73410192D03*
D18*
X35677686Y73410192D03*
%TD*%
D17*
%TO.C,LEFTSHIFT1*%
X73550192Y40390192D03*
X67200192Y37850192D03*
D18*
X76090192Y35310192D03*
D12*
X71010192Y35310192D03*
D18*
X65930192Y35310192D03*
%TD*%
D17*
%TO.C,R1*%
X147387692Y78490192D03*
X141037692Y75950192D03*
D18*
X149927692Y73410192D03*
X139767692Y73410192D03*
D12*
X144847692Y73410192D03*
%TD*%
D17*
%TO.C,Hkey1*%
X190250192Y59440192D03*
X183900192Y56900192D03*
D12*
X187710192Y54360192D03*
D18*
X182630192Y54360192D03*
X192790192Y54360192D03*
%TD*%
D17*
%TO.C,CAPSLOCK1*%
X68787692Y59440192D03*
X62437692Y56900192D03*
D18*
X61167692Y54360192D03*
X71327692Y54360192D03*
D12*
X66247692Y54360192D03*
%TD*%
D17*
%TO.C,S1*%
X114050192Y59440192D03*
X107700192Y56900192D03*
D18*
X106430192Y54360192D03*
D12*
X111510192Y54360192D03*
D18*
X116590192Y54360192D03*
%TD*%
D17*
%TO.C,Y1*%
X185487692Y78490192D03*
X179137692Y75950192D03*
D12*
X182947692Y73410192D03*
D18*
X177867692Y73410192D03*
X188027692Y73410192D03*
%TD*%
D17*
%TO.C,F3*%
X118812692Y130877692D03*
X112462692Y128337692D03*
D18*
X111192692Y125797692D03*
X121352692Y125797692D03*
D12*
X116272692Y125797692D03*
%TD*%
D17*
%TO.C,CommaSign1*%
X237875192Y40390192D03*
X231525192Y37850192D03*
D12*
X235335192Y35310192D03*
D18*
X240415192Y35310192D03*
X230255192Y35310192D03*
%TD*%
D17*
%TO.C,W1*%
X109287692Y78490192D03*
X102937692Y75950192D03*
D18*
X111827692Y73410192D03*
X101667692Y73410192D03*
D12*
X106747692Y73410192D03*
%TD*%
D17*
%TO.C,DELETE1*%
X347412692Y130877692D03*
X341062692Y128337692D03*
D12*
X344872692Y125797692D03*
D18*
X339792692Y125797692D03*
X349952692Y125797692D03*
%TD*%
D17*
%TO.C,Num4*%
X137862692Y97540192D03*
X131512692Y95000192D03*
D18*
X140402692Y92460192D03*
X130242692Y92460192D03*
D12*
X135322692Y92460192D03*
%TD*%
D17*
%TO.C,UPARROW1*%
X328362692Y40390192D03*
X322012692Y37850192D03*
D18*
X330902692Y35310192D03*
D12*
X325822692Y35310192D03*
D18*
X320742692Y35310192D03*
%TD*%
D17*
%TO.C,EXTRA10*%
X33137686Y21340192D03*
X26787686Y18800192D03*
D12*
X30597686Y16260192D03*
D18*
X35677686Y16260192D03*
X25517686Y16260192D03*
%TD*%
D17*
%TO.C,DotSign1*%
X256925192Y40390192D03*
X250575192Y37850192D03*
D18*
X249305192Y35310192D03*
X259465192Y35310192D03*
D12*
X254385192Y35310192D03*
%TD*%
D17*
%TO.C,RIGHTSHIFT1*%
X302150192Y40390192D03*
X295800192Y37850192D03*
D18*
X304690192Y35310192D03*
X294530192Y35310192D03*
D12*
X299610192Y35310192D03*
%TD*%
D17*
%TO.C,F1*%
X80712692Y130877692D03*
X74362692Y128337692D03*
D18*
X73092692Y125797692D03*
D12*
X78172692Y125797692D03*
D18*
X83252692Y125797692D03*
%TD*%
D17*
%TO.C,F11*%
X271212692Y130877692D03*
X264862692Y128337692D03*
D12*
X268672692Y125797692D03*
D18*
X273752692Y125797692D03*
X263592692Y125797692D03*
%TD*%
D17*
%TO.C,Home1*%
X347412692Y97540192D03*
X341062692Y95000192D03*
D12*
X344872692Y92460192D03*
D18*
X339792692Y92460192D03*
X349952692Y92460192D03*
%TD*%
D17*
%TO.C,EXTRA1*%
X14037692Y97540192D03*
X7687692Y95000192D03*
D18*
X16577692Y92460192D03*
X6417692Y92460192D03*
D12*
X11497692Y92460192D03*
%TD*%
M02*
