%TF.GenerationSoftware,KiCad,Pcbnew,(6.0.11)*%
%TF.CreationDate,2023-03-01T20:51:25+07:00*%
%TF.ProjectId,Extero75,45787465-726f-4373-952e-6b696361645f,rev?*%
%TF.SameCoordinates,PX265be64PYc2d7328*%
%TF.FileFunction,Soldermask,Bot*%
%TF.FilePolarity,Negative*%
%FSLAX46Y46*%
G04 Gerber Fmt 4.6, Leading zero omitted, Abs format (unit mm)*
G04 Created by KiCad (PCBNEW (6.0.11)) date 2023-03-01 20:51:25*
%MOMM*%
%LPD*%
G01*
G04 APERTURE LIST*
G04 Aperture macros list*
%AMRoundRect*
0 Rectangle with rounded corners*
0 $1 Rounding radius*
0 $2 $3 $4 $5 $6 $7 $8 $9 X,Y pos of 4 corners*
0 Add a 4 corners polygon primitive as box body*
4,1,4,$2,$3,$4,$5,$6,$7,$8,$9,$2,$3,0*
0 Add four circle primitives for the rounded corners*
1,1,$1+$1,$2,$3*
1,1,$1+$1,$4,$5*
1,1,$1+$1,$6,$7*
1,1,$1+$1,$8,$9*
0 Add four rect primitives between the rounded corners*
20,1,$1+$1,$2,$3,$4,$5,0*
20,1,$1+$1,$4,$5,$6,$7,0*
20,1,$1+$1,$6,$7,$8,$9,0*
20,1,$1+$1,$8,$9,$2,$3,0*%
G04 Aperture macros list end*
%ADD10C,3.987800*%
%ADD11C,4.000000*%
%ADD12C,2.200000*%
%ADD13C,2.000000*%
%ADD14R,3.200000X2.000000*%
%ADD15R,2.000000X2.000000*%
%ADD16RoundRect,0.250000X1.025000X1.000000X-1.025000X1.000000X-1.025000X-1.000000X1.025000X-1.000000X0*%
%ADD17C,3.300000*%
%ADD18C,1.750000*%
%ADD19R,0.900000X1.200000*%
%ADD20RoundRect,0.225000X-0.250000X0.225000X-0.250000X-0.225000X0.250000X-0.225000X0.250000X0.225000X0*%
%ADD21RoundRect,0.225000X0.250000X-0.225000X0.250000X0.225000X-0.250000X0.225000X-0.250000X-0.225000X0*%
%ADD22RoundRect,0.200000X-0.275000X0.200000X-0.275000X-0.200000X0.275000X-0.200000X0.275000X0.200000X0*%
%ADD23O,1.000000X1.800000*%
%ADD24O,1.000000X2.100000*%
%ADD25R,0.600000X1.150000*%
%ADD26R,0.300000X1.150000*%
%ADD27C,0.650000*%
%ADD28RoundRect,0.225000X0.225000X0.250000X-0.225000X0.250000X-0.225000X-0.250000X0.225000X-0.250000X0*%
%ADD29R,1.800000X1.100000*%
%ADD30RoundRect,0.150000X0.587500X0.150000X-0.587500X0.150000X-0.587500X-0.150000X0.587500X-0.150000X0*%
%ADD31RoundRect,0.075000X-0.700000X0.075000X-0.700000X-0.075000X0.700000X-0.075000X0.700000X0.075000X0*%
%ADD32RoundRect,0.075000X-0.075000X0.700000X-0.075000X-0.700000X0.075000X-0.700000X0.075000X0.700000X0*%
%ADD33RoundRect,0.200000X0.275000X-0.200000X0.275000X0.200000X-0.275000X0.200000X-0.275000X-0.200000X0*%
G04 APERTURE END LIST*
D10*
%TO.C,BackspaceStab1*%
X304391442Y84205192D03*
D11*
X304391442Y99445192D03*
D10*
X328203942Y84205192D03*
D11*
X328203942Y99445192D03*
%TD*%
D12*
%TO.C,H3*%
X53037692Y36945192D03*
%TD*%
%TO.C,H2*%
X46747692Y109125192D03*
%TD*%
D13*
%TO.C,SW3*%
X28272692Y123535192D03*
X28272692Y118535192D03*
D14*
X21272692Y115435192D03*
X21272692Y126635192D03*
D13*
X13772692Y121035192D03*
X13772692Y118535192D03*
D15*
X13772692Y123535192D03*
%TD*%
D10*
%TO.C,SpacebarStab1*%
X130541442Y8005192D03*
X230553942Y8005192D03*
D11*
X130541442Y23245192D03*
X230553942Y23245192D03*
%TD*%
D10*
%TO.C,ShiftStab1*%
X59103942Y27055192D03*
X82916442Y27055192D03*
D11*
X82916442Y42295192D03*
X59103942Y42295192D03*
%TD*%
D10*
%TO.C,EnterStab1*%
X325803942Y46105192D03*
X301991442Y46105192D03*
D11*
X301991442Y61345192D03*
X325803942Y61345192D03*
%TD*%
D12*
%TO.C,H4*%
X294287692Y54845192D03*
%TD*%
%TO.C,H1*%
X320327692Y109125192D03*
%TD*%
D16*
%TO.C,Num3*%
X122362692Y97540192D03*
D17*
X118812692Y97540192D03*
D16*
X108912692Y95000192D03*
D17*
X112462692Y95000192D03*
D18*
X111192692Y92460192D03*
X121352692Y92460192D03*
D10*
X116272692Y92460192D03*
%TD*%
D17*
%TO.C,FNKEY1*%
X271212692Y21340192D03*
D16*
X274762692Y21340192D03*
D17*
X264862692Y18800192D03*
D16*
X261312692Y18800192D03*
D10*
X268672692Y16260192D03*
D18*
X263592692Y16260192D03*
X273752692Y16260192D03*
%TD*%
D16*
%TO.C,F2*%
X103312692Y130877692D03*
D17*
X99762692Y130877692D03*
D16*
X89862692Y128337692D03*
D17*
X93412692Y128337692D03*
D18*
X102302692Y125797692D03*
D10*
X97222692Y125797692D03*
D18*
X92142692Y125797692D03*
%TD*%
D17*
%TO.C,F5*%
X156912692Y130877692D03*
D16*
X160462692Y130877692D03*
X147012692Y128337692D03*
D17*
X150562692Y128337692D03*
D10*
X154372692Y125797692D03*
D18*
X159452692Y125797692D03*
X149292692Y125797692D03*
%TD*%
D17*
%TO.C,G1*%
X171200192Y59440192D03*
D16*
X174750192Y59440192D03*
X161300192Y56900192D03*
D17*
X164850192Y56900192D03*
D18*
X173740192Y54360192D03*
X163580192Y54360192D03*
D10*
X168660192Y54360192D03*
%TD*%
D19*
%TO.C,D7*%
X31822692Y101210192D03*
X28522692Y101210192D03*
%TD*%
D16*
%TO.C,EXTRA6*%
X36637692Y97540192D03*
D17*
X33087692Y97540192D03*
D16*
X23187692Y95000192D03*
D17*
X26737692Y95000192D03*
D18*
X35627692Y92460192D03*
D10*
X30547692Y92460192D03*
D18*
X25467692Y92460192D03*
%TD*%
D19*
%TO.C,D93*%
X350272692Y43760192D03*
X346972692Y43760192D03*
%TD*%
D17*
%TO.C,L1*%
X247400192Y59440192D03*
D16*
X250950192Y59440192D03*
X237500192Y56900192D03*
D17*
X241050192Y56900192D03*
D18*
X249940192Y54360192D03*
X239780192Y54360192D03*
D10*
X244860192Y54360192D03*
%TD*%
D19*
%TO.C,D61*%
X235922692Y100810192D03*
X232622692Y100810192D03*
%TD*%
%TO.C,D5*%
X13222692Y25010192D03*
X9922692Y25010192D03*
%TD*%
D16*
%TO.C,Num7*%
X198562692Y97540192D03*
D17*
X195012692Y97540192D03*
D16*
X185112692Y95000192D03*
D17*
X188662692Y95000192D03*
D18*
X187392692Y92460192D03*
X197552692Y92460192D03*
D10*
X192472692Y92460192D03*
%TD*%
D16*
%TO.C,MinusSign1*%
X274762692Y97540192D03*
D17*
X271212692Y97540192D03*
D16*
X261312692Y95000192D03*
D17*
X264862692Y95000192D03*
D10*
X268672692Y92460192D03*
D18*
X273752692Y92460192D03*
X263592692Y92460192D03*
%TD*%
D20*
%TO.C,C13*%
X206597692Y16090192D03*
X206597692Y17640192D03*
%TD*%
D19*
%TO.C,D55*%
X216622692Y134010192D03*
X213322692Y134010192D03*
%TD*%
D17*
%TO.C,EXTRA8*%
X33087692Y59440192D03*
D16*
X36637692Y59440192D03*
D17*
X26737692Y56900192D03*
D16*
X23187692Y56900192D03*
D18*
X35627692Y54360192D03*
D10*
X30547692Y54360192D03*
D18*
X25467692Y54360192D03*
%TD*%
D20*
%TO.C,C14*%
X212497692Y18470192D03*
X212497692Y20020192D03*
%TD*%
D17*
%TO.C,K1*%
X228350192Y59440192D03*
D16*
X231900192Y59440192D03*
X218450192Y56900192D03*
D17*
X222000192Y56900192D03*
D10*
X225810192Y54360192D03*
D18*
X220730192Y54360192D03*
X230890192Y54360192D03*
%TD*%
D21*
%TO.C,C4*%
X225517692Y15780192D03*
X225517692Y14230192D03*
%TD*%
D17*
%TO.C,EXTRA9*%
X33087692Y40390192D03*
D16*
X36637692Y40390192D03*
D17*
X26737692Y37850192D03*
D16*
X23187692Y37850192D03*
D10*
X30547692Y35310192D03*
D18*
X35627692Y35310192D03*
X25467692Y35310192D03*
%TD*%
D16*
%TO.C,I1*%
X227137692Y78490192D03*
D17*
X223587692Y78490192D03*
D16*
X213687692Y75950192D03*
D17*
X217237692Y75950192D03*
D10*
X221047692Y73410192D03*
D18*
X226127692Y73410192D03*
X215967692Y73410192D03*
%TD*%
D19*
%TO.C,D56*%
X216922692Y100810192D03*
X213622692Y100810192D03*
%TD*%
%TO.C,D36*%
X145472692Y43710192D03*
X142172692Y43710192D03*
%TD*%
D16*
%TO.C,WINDOWSKEY1*%
X91387692Y21340192D03*
D17*
X87837692Y21340192D03*
D16*
X77937692Y18800192D03*
D17*
X81487692Y18800192D03*
D18*
X80217692Y16260192D03*
X90377692Y16260192D03*
D10*
X85297692Y16260192D03*
%TD*%
D20*
%TO.C,C11*%
X205797692Y6530192D03*
X205797692Y8080192D03*
%TD*%
D19*
%TO.C,D9*%
X31822692Y63010192D03*
X28522692Y63010192D03*
%TD*%
%TO.C,D64*%
X250222692Y62760192D03*
X246922692Y62760192D03*
%TD*%
%TO.C,D15*%
X65722692Y81910192D03*
X62422692Y81910192D03*
%TD*%
D16*
%TO.C,Num8*%
X217612692Y97540192D03*
D17*
X214062692Y97540192D03*
D16*
X204162692Y95000192D03*
D17*
X207712692Y95000192D03*
D18*
X206442692Y92460192D03*
X216602692Y92460192D03*
D10*
X211522692Y92460192D03*
%TD*%
D16*
%TO.C,E1*%
X131887692Y78490192D03*
D17*
X128337692Y78490192D03*
D16*
X118437692Y75950192D03*
D17*
X121987692Y75950192D03*
D10*
X125797692Y73410192D03*
D18*
X130877692Y73410192D03*
X120717692Y73410192D03*
%TD*%
D17*
%TO.C,Num2*%
X99762692Y97540192D03*
D16*
X103312692Y97540192D03*
D17*
X93412692Y95000192D03*
D16*
X89862692Y95000192D03*
D18*
X92142692Y92460192D03*
D10*
X97222692Y92460192D03*
D18*
X102302692Y92460192D03*
%TD*%
D19*
%TO.C,D30*%
X121622692Y100910192D03*
X118322692Y100910192D03*
%TD*%
D22*
%TO.C,R5*%
X36872692Y129485192D03*
X36872692Y131135192D03*
%TD*%
D19*
%TO.C,D39*%
X159522692Y134110192D03*
X156222692Y134110192D03*
%TD*%
D16*
%TO.C,Q1*%
X93787692Y78490192D03*
D17*
X90237692Y78490192D03*
X83887692Y75950192D03*
D16*
X80337692Y75950192D03*
D18*
X82617692Y73410192D03*
X92777692Y73410192D03*
D10*
X87697692Y73410192D03*
%TD*%
D21*
%TO.C,C1*%
X162707692Y14990192D03*
X162707692Y13440192D03*
%TD*%
D17*
%TO.C,Jkey1*%
X209300192Y59440192D03*
D16*
X212850192Y59440192D03*
X199400192Y56900192D03*
D17*
X202950192Y56900192D03*
D18*
X201680192Y54360192D03*
D10*
X206760192Y54360192D03*
D18*
X211840192Y54360192D03*
%TD*%
D17*
%TO.C,EXTRA5*%
X14037692Y21340192D03*
D16*
X17587692Y21340192D03*
D17*
X7687692Y18800192D03*
D16*
X4137692Y18800192D03*
D18*
X6417692Y16260192D03*
D10*
X11497692Y16260192D03*
D18*
X16577692Y16260192D03*
%TD*%
D19*
%TO.C,D12*%
X64222692Y134110192D03*
X60922692Y134110192D03*
%TD*%
%TO.C,D10*%
X32922692Y43910192D03*
X29622692Y43910192D03*
%TD*%
D17*
%TO.C,U2*%
X204537692Y78490192D03*
D16*
X208087692Y78490192D03*
X194637692Y75950192D03*
D17*
X198187692Y75950192D03*
D10*
X201997692Y73410192D03*
D18*
X207077692Y73410192D03*
X196917692Y73410192D03*
%TD*%
D19*
%TO.C,D33*%
X135972692Y62760192D03*
X132672692Y62760192D03*
%TD*%
D23*
%TO.C,J1*%
X33577692Y141080192D03*
D24*
X33577692Y136900192D03*
X42217692Y136900192D03*
D23*
X42217692Y141080192D03*
D25*
X34697692Y136325192D03*
X35497692Y136325192D03*
D26*
X36147692Y136325192D03*
X37147692Y136325192D03*
X38647692Y136325192D03*
X39647692Y136325192D03*
D25*
X40297692Y136325192D03*
X41097692Y136325192D03*
X41097692Y136325192D03*
X40297692Y136325192D03*
D26*
X39147692Y136325192D03*
X38147692Y136325192D03*
X37647692Y136325192D03*
X36647692Y136325192D03*
D25*
X35497692Y136325192D03*
X34697692Y136325192D03*
D27*
X40787692Y137400192D03*
X35007692Y137400192D03*
%TD*%
D16*
%TO.C,T1*%
X169987692Y78490192D03*
D17*
X166437692Y78490192D03*
X160087692Y75950192D03*
D16*
X156537692Y75950192D03*
D18*
X158817692Y73410192D03*
D10*
X163897692Y73410192D03*
D18*
X168977692Y73410192D03*
%TD*%
D19*
%TO.C,D35*%
X140722692Y100710192D03*
X137422692Y100710192D03*
%TD*%
D16*
%TO.C,ESC1*%
X65212692Y130877692D03*
D17*
X61662692Y130877692D03*
D16*
X51762692Y128337692D03*
D17*
X55312692Y128337692D03*
D10*
X59122692Y125797692D03*
D18*
X54042692Y125797692D03*
X64202692Y125797692D03*
%TD*%
D16*
%TO.C,F4*%
X141412692Y130877692D03*
D17*
X137862692Y130877692D03*
D16*
X127962692Y128337692D03*
D17*
X131512692Y128337692D03*
D18*
X130242692Y125797692D03*
X140402692Y125797692D03*
D10*
X135322692Y125797692D03*
%TD*%
D19*
%TO.C,D41*%
X164522692Y43710192D03*
X161222692Y43710192D03*
%TD*%
D20*
%TO.C,C2*%
X210107692Y20500192D03*
X210107692Y22050192D03*
%TD*%
D19*
%TO.C,D34*%
X140622692Y134110192D03*
X137322692Y134110192D03*
%TD*%
D16*
%TO.C,EXTRA3*%
X17587692Y59440192D03*
D17*
X14037692Y59440192D03*
D16*
X4137692Y56900192D03*
D17*
X7687692Y56900192D03*
D10*
X11497692Y54360192D03*
D18*
X16577692Y54360192D03*
X6417692Y54360192D03*
%TD*%
D16*
%TO.C,PRTSC1*%
X331912692Y130877692D03*
D17*
X328362692Y130877692D03*
D16*
X318462692Y128337692D03*
D17*
X322012692Y128337692D03*
D10*
X325822692Y125797692D03*
D18*
X330902692Y125797692D03*
X320742692Y125797692D03*
%TD*%
D17*
%TO.C,F6*%
X175962692Y130877692D03*
D16*
X179512692Y130877692D03*
X166062692Y128337692D03*
D17*
X169612692Y128337692D03*
D18*
X178502692Y125797692D03*
X168342692Y125797692D03*
D10*
X173422692Y125797692D03*
%TD*%
D16*
%TO.C,Num1*%
X84262692Y97540192D03*
D17*
X80712692Y97540192D03*
X74362692Y95000192D03*
D16*
X70812692Y95000192D03*
D18*
X73092692Y92460192D03*
D10*
X78172692Y92460192D03*
D18*
X83252692Y92460192D03*
%TD*%
D17*
%TO.C,F8*%
X214062692Y130877692D03*
D16*
X217612692Y130877692D03*
D17*
X207712692Y128337692D03*
D16*
X204162692Y128337692D03*
D10*
X211522692Y125797692D03*
D18*
X206442692Y125797692D03*
X216602692Y125797692D03*
%TD*%
D16*
%TO.C,RIGHTALT1*%
X255712692Y21340192D03*
D17*
X252162692Y21340192D03*
X245812692Y18800192D03*
D16*
X242262692Y18800192D03*
D10*
X249622692Y16260192D03*
D18*
X254702692Y16260192D03*
X244542692Y16260192D03*
%TD*%
D19*
%TO.C,D79*%
X293122692Y24660192D03*
X289822692Y24660192D03*
%TD*%
D16*
%TO.C,EqualSign1*%
X293812692Y97540192D03*
D17*
X290262692Y97540192D03*
D16*
X280362692Y95000192D03*
D17*
X283912692Y95000192D03*
D18*
X292802692Y92460192D03*
X282642692Y92460192D03*
D10*
X287722692Y92460192D03*
%TD*%
D21*
%TO.C,C9*%
X225307692Y7700192D03*
X225307692Y6150192D03*
%TD*%
D22*
%TO.C,R6*%
X203347692Y7190192D03*
X203347692Y8840192D03*
%TD*%
D19*
%TO.C,D90*%
X347622692Y101110192D03*
X344322692Y101110192D03*
%TD*%
D16*
%TO.C,M1*%
X222375192Y40390192D03*
D17*
X218825192Y40390192D03*
D16*
X208925192Y37850192D03*
D17*
X212475192Y37850192D03*
D18*
X221365192Y35310192D03*
X211205192Y35310192D03*
D10*
X216285192Y35310192D03*
%TD*%
D19*
%TO.C,D48*%
X188322692Y81910192D03*
X185022692Y81910192D03*
%TD*%
%TO.C,D63*%
X245422692Y81610192D03*
X242122692Y81610192D03*
%TD*%
%TO.C,D25*%
X107322692Y43710192D03*
X104022692Y43710192D03*
%TD*%
%TO.C,D53*%
X207322692Y81810192D03*
X204022692Y81810192D03*
%TD*%
%TO.C,D14*%
X65722692Y24810192D03*
X62422692Y24810192D03*
%TD*%
D17*
%TO.C,Dkey1*%
X133100192Y59440192D03*
D16*
X136650192Y59440192D03*
X123200192Y56900192D03*
D17*
X126750192Y56900192D03*
D18*
X135640192Y54360192D03*
X125480192Y54360192D03*
D10*
X130560192Y54360192D03*
%TD*%
D19*
%TO.C,D50*%
X197222692Y134210192D03*
X193922692Y134210192D03*
%TD*%
%TO.C,D47*%
X185922692Y24560192D03*
X182622692Y24560192D03*
%TD*%
%TO.C,D6*%
X30522692Y116510192D03*
X33822692Y116510192D03*
%TD*%
D16*
%TO.C,F7*%
X198562692Y130877692D03*
D17*
X195012692Y130877692D03*
X188662692Y128337692D03*
D16*
X185112692Y128337692D03*
D10*
X192472692Y125797692D03*
D18*
X187392692Y125797692D03*
X197552692Y125797692D03*
%TD*%
D19*
%TO.C,D45*%
X178822692Y100810192D03*
X175522692Y100810192D03*
%TD*%
D16*
%TO.C,A1*%
X98550192Y59440192D03*
D17*
X95000192Y59440192D03*
D16*
X85100192Y56900192D03*
D17*
X88650192Y56900192D03*
D18*
X87380192Y54360192D03*
X97540192Y54360192D03*
D10*
X92460192Y54360192D03*
%TD*%
D17*
%TO.C,O1*%
X242637692Y78490192D03*
D16*
X246187692Y78490192D03*
X232737692Y75950192D03*
D17*
X236287692Y75950192D03*
D10*
X240097692Y73410192D03*
D18*
X245177692Y73410192D03*
X235017692Y73410192D03*
%TD*%
D17*
%TO.C,LEFTCTRL1*%
X64025192Y21340192D03*
D16*
X67575192Y21340192D03*
D17*
X57675192Y18800192D03*
D16*
X54125192Y18800192D03*
D10*
X61485192Y16260192D03*
D18*
X56405192Y16260192D03*
X66565192Y16260192D03*
%TD*%
D19*
%TO.C,D28*%
X116872692Y62810192D03*
X113572692Y62810192D03*
%TD*%
D21*
%TO.C,C5*%
X198857692Y21610192D03*
X198857692Y20060192D03*
%TD*%
D19*
%TO.C,D26*%
X111222692Y81710192D03*
X107922692Y81710192D03*
%TD*%
%TO.C,D42*%
X169322692Y81910192D03*
X166022692Y81910192D03*
%TD*%
%TO.C,D62*%
X240722692Y43810192D03*
X237422692Y43810192D03*
%TD*%
D16*
%TO.C,SPACEBAR1*%
X186637692Y21340192D03*
D17*
X183087692Y21340192D03*
X176737692Y18800192D03*
D16*
X173187692Y18800192D03*
D10*
X180547692Y16260192D03*
D18*
X175467692Y16260192D03*
X185627692Y16260192D03*
%TD*%
D19*
%TO.C,D94*%
X346522692Y134410192D03*
X343222692Y134410192D03*
%TD*%
%TO.C,D83*%
X312172692Y24610192D03*
X308872692Y24610192D03*
%TD*%
D17*
%TO.C,P1*%
X261687692Y78490192D03*
D16*
X265237692Y78490192D03*
X251787692Y75950192D03*
D17*
X255337692Y75950192D03*
D18*
X254067692Y73410192D03*
X264227692Y73410192D03*
D10*
X259147692Y73410192D03*
%TD*%
D16*
%TO.C,Quote1*%
X289050192Y59440192D03*
D17*
X285500192Y59440192D03*
D16*
X275600192Y56900192D03*
D17*
X279150192Y56900192D03*
D10*
X282960192Y54360192D03*
D18*
X288040192Y54360192D03*
X277880192Y54360192D03*
%TD*%
D17*
%TO.C,Fkey1*%
X152150192Y59440192D03*
D16*
X155700192Y59440192D03*
D17*
X145800192Y56900192D03*
D16*
X142250192Y56900192D03*
D18*
X154690192Y54360192D03*
D10*
X149610192Y54360192D03*
D18*
X144530192Y54360192D03*
%TD*%
D16*
%TO.C,RIGHTCONTROL1*%
X293812692Y21340192D03*
D17*
X290262692Y21340192D03*
D16*
X280362692Y18800192D03*
D17*
X283912692Y18800192D03*
D18*
X282642692Y16260192D03*
X292802692Y16260192D03*
D10*
X287722692Y16260192D03*
%TD*%
D16*
%TO.C,F10*%
X255712692Y130877692D03*
D17*
X252162692Y130877692D03*
D16*
X242262692Y128337692D03*
D17*
X245812692Y128337692D03*
D18*
X254702692Y125797692D03*
X244542692Y125797692D03*
D10*
X249622692Y125797692D03*
%TD*%
D17*
%TO.C,Ckey1*%
X142625192Y40390192D03*
D16*
X146175192Y40390192D03*
X132725192Y37850192D03*
D17*
X136275192Y37850192D03*
D18*
X135005192Y35310192D03*
D10*
X140085192Y35310192D03*
D18*
X145165192Y35310192D03*
%TD*%
D17*
%TO.C,Ins1*%
X309312692Y130877692D03*
D16*
X312862692Y130877692D03*
X299412692Y128337692D03*
D17*
X302962692Y128337692D03*
D10*
X306772692Y125797692D03*
D18*
X301692692Y125797692D03*
X311852692Y125797692D03*
%TD*%
D19*
%TO.C,D92*%
X350222692Y62810192D03*
X346922692Y62810192D03*
%TD*%
%TO.C,D11*%
X34022692Y24810192D03*
X30722692Y24810192D03*
%TD*%
D17*
%TO.C,N1*%
X199775192Y40390192D03*
D16*
X203325192Y40390192D03*
X189875192Y37850192D03*
D17*
X193425192Y37850192D03*
D10*
X197235192Y35310192D03*
D18*
X192155192Y35310192D03*
X202315192Y35310192D03*
%TD*%
D17*
%TO.C,EXTRA2*%
X14037692Y78490192D03*
D16*
X17587692Y78490192D03*
X4137692Y75950192D03*
D17*
X7687692Y75950192D03*
D10*
X11497692Y73410192D03*
D18*
X16577692Y73410192D03*
X6417692Y73410192D03*
%TD*%
D19*
%TO.C,D22*%
X97872692Y62760192D03*
X94572692Y62760192D03*
%TD*%
D20*
%TO.C,C10*%
X201507692Y5860192D03*
X201507692Y7410192D03*
%TD*%
D17*
%TO.C,EXTRA4*%
X14037692Y40390192D03*
D16*
X17587692Y40390192D03*
D17*
X7687692Y37850192D03*
D16*
X4137692Y37850192D03*
D18*
X16577692Y35310192D03*
D10*
X11497692Y35310192D03*
D18*
X6417692Y35310192D03*
%TD*%
D17*
%TO.C,LEFTALT1*%
X111650192Y21340192D03*
D16*
X115200192Y21340192D03*
X101750192Y18800192D03*
D17*
X105300192Y18800192D03*
D18*
X104030192Y16260192D03*
X114190192Y16260192D03*
D10*
X109110192Y16260192D03*
%TD*%
D19*
%TO.C,D19*%
X83522692Y100910192D03*
X80222692Y100910192D03*
%TD*%
%TO.C,D54*%
X212122692Y62760192D03*
X208822692Y62760192D03*
%TD*%
%TO.C,D91*%
X346922692Y81610192D03*
X343622692Y81610192D03*
%TD*%
D17*
%TO.C,LEFTARROW1*%
X309312692Y21340192D03*
D16*
X312862692Y21340192D03*
X299412692Y18800192D03*
D17*
X302962692Y18800192D03*
D18*
X301692692Y16260192D03*
D10*
X306772692Y16260192D03*
D18*
X311852692Y16260192D03*
%TD*%
D16*
%TO.C,CloseBracket1*%
X303337692Y78490192D03*
D17*
X299787692Y78490192D03*
X293437692Y75950192D03*
D16*
X289887692Y75950192D03*
D18*
X302327692Y73410192D03*
X292167692Y73410192D03*
D10*
X297247692Y73410192D03*
%TD*%
D17*
%TO.C,Num9*%
X233112692Y97540192D03*
D16*
X236662692Y97540192D03*
X223212692Y95000192D03*
D17*
X226762692Y95000192D03*
D18*
X225492692Y92460192D03*
X235652692Y92460192D03*
D10*
X230572692Y92460192D03*
%TD*%
D17*
%TO.C,F9*%
X233112692Y130877692D03*
D16*
X236662692Y130877692D03*
X223212692Y128337692D03*
D17*
X226762692Y128337692D03*
D18*
X225492692Y125797692D03*
D10*
X230572692Y125797692D03*
D18*
X235652692Y125797692D03*
%TD*%
D19*
%TO.C,D71*%
X274022692Y134010192D03*
X270722692Y134010192D03*
%TD*%
D17*
%TO.C,X1*%
X123575192Y40390192D03*
D16*
X127125192Y40390192D03*
D17*
X117225192Y37850192D03*
D16*
X113675192Y37850192D03*
D10*
X121035192Y35310192D03*
D18*
X126115192Y35310192D03*
X115955192Y35310192D03*
%TD*%
D17*
%TO.C,Num6*%
X175962692Y97540192D03*
D16*
X179512692Y97540192D03*
X166062692Y95000192D03*
D17*
X169612692Y95000192D03*
D18*
X168342692Y92460192D03*
X178502692Y92460192D03*
D10*
X173422692Y92460192D03*
%TD*%
D17*
%TO.C,Num5*%
X156912692Y97540192D03*
D16*
X160462692Y97540192D03*
X147012692Y95000192D03*
D17*
X150562692Y95000192D03*
D18*
X159452692Y92460192D03*
X149292692Y92460192D03*
D10*
X154372692Y92460192D03*
%TD*%
D19*
%TO.C,D76*%
X288372692Y62860192D03*
X285072692Y62860192D03*
%TD*%
D16*
%TO.C,Slash1*%
X327150192Y78490192D03*
D17*
X323600192Y78490192D03*
D16*
X313700192Y75950192D03*
D17*
X317250192Y75950192D03*
D18*
X326140192Y73410192D03*
X315980192Y73410192D03*
D10*
X321060192Y73410192D03*
%TD*%
D19*
%TO.C,D72*%
X274022692Y100810192D03*
X270722692Y100810192D03*
%TD*%
%TO.C,D73*%
X274072692Y24660192D03*
X270772692Y24660192D03*
%TD*%
D20*
%TO.C,C6*%
X209737692Y14880192D03*
X209737692Y16430192D03*
%TD*%
D16*
%TO.C,Num0*%
X255712692Y97540192D03*
D17*
X252162692Y97540192D03*
D16*
X242262692Y95000192D03*
D17*
X245812692Y95000192D03*
D18*
X244542692Y92460192D03*
D10*
X249622692Y92460192D03*
D18*
X254702692Y92460192D03*
%TD*%
D17*
%TO.C,B1*%
X180725192Y40390192D03*
D16*
X184275192Y40390192D03*
X170825192Y37850192D03*
D17*
X174375192Y37850192D03*
D10*
X178185192Y35310192D03*
D18*
X173105192Y35310192D03*
X183265192Y35310192D03*
%TD*%
D19*
%TO.C,D13*%
X62522692Y101110192D03*
X59222692Y101110192D03*
%TD*%
%TO.C,D16*%
X70122692Y62710192D03*
X66822692Y62710192D03*
%TD*%
%TO.C,D31*%
X126422692Y43660192D03*
X123122692Y43660192D03*
%TD*%
%TO.C,D21*%
X92522692Y81510192D03*
X89222692Y81510192D03*
%TD*%
%TO.C,D95*%
X350272692Y24510192D03*
X346972692Y24510192D03*
%TD*%
D16*
%TO.C,Z1*%
X108075192Y40390192D03*
D17*
X104525192Y40390192D03*
D16*
X94625192Y37850192D03*
D17*
X98175192Y37850192D03*
D10*
X101985192Y35310192D03*
D18*
X96905192Y35310192D03*
X107065192Y35310192D03*
%TD*%
D17*
%TO.C,DOWNARROW1*%
X328362692Y21340192D03*
D16*
X331912692Y21340192D03*
D17*
X322012692Y18800192D03*
D16*
X318462692Y18800192D03*
D18*
X330902692Y16260192D03*
D10*
X325822692Y16260192D03*
D18*
X320742692Y16260192D03*
%TD*%
D16*
%TO.C,PgUp1*%
X350962692Y59440192D03*
D17*
X347412692Y59440192D03*
D16*
X337512692Y56900192D03*
D17*
X341062692Y56900192D03*
D18*
X349952692Y54360192D03*
X339792692Y54360192D03*
D10*
X344872692Y54360192D03*
%TD*%
D17*
%TO.C,Backspace1*%
X318837692Y97540192D03*
D16*
X322387692Y97540192D03*
X308937692Y95000192D03*
D17*
X312487692Y95000192D03*
D18*
X311217692Y92460192D03*
X321377692Y92460192D03*
D10*
X316297692Y92460192D03*
%TD*%
D17*
%TO.C,QuestionMark1*%
X275975192Y40390192D03*
D16*
X279525192Y40390192D03*
D17*
X269625192Y37850192D03*
D16*
X266075192Y37850192D03*
D10*
X273435192Y35310192D03*
D18*
X268355192Y35310192D03*
X278515192Y35310192D03*
%TD*%
D28*
%TO.C,C7*%
X219927692Y19495192D03*
X221477692Y19495192D03*
%TD*%
D19*
%TO.C,D82*%
X311722692Y134010192D03*
X308422692Y134010192D03*
%TD*%
D16*
%TO.C,RIGHTARROW1*%
X350962692Y21340192D03*
D17*
X347412692Y21340192D03*
D16*
X337512692Y18800192D03*
D17*
X341062692Y18800192D03*
D18*
X349952692Y16260192D03*
D10*
X344872692Y16260192D03*
D18*
X339792692Y16260192D03*
%TD*%
D19*
%TO.C,D88*%
X331222692Y24610192D03*
X327922692Y24610192D03*
%TD*%
%TO.C,D66*%
X255022692Y100710192D03*
X251722692Y100710192D03*
%TD*%
%TO.C,D23*%
X102522692Y134110192D03*
X99222692Y134110192D03*
%TD*%
%TO.C,D75*%
X283622692Y81810192D03*
X280322692Y81810192D03*
%TD*%
%TO.C,D77*%
X292822692Y134010192D03*
X289522692Y134010192D03*
%TD*%
D29*
%TO.C,SW2*%
X158372692Y18960192D03*
X152172692Y18960192D03*
X152172692Y22660192D03*
X158372692Y22660192D03*
%TD*%
D19*
%TO.C,D43*%
X174022692Y62710192D03*
X170722692Y62710192D03*
%TD*%
D17*
%TO.C,Tab1*%
X66425192Y78490192D03*
D16*
X69975192Y78490192D03*
D17*
X60075192Y75950192D03*
D16*
X56525192Y75950192D03*
D18*
X68965192Y73410192D03*
D10*
X63885192Y73410192D03*
D18*
X58805192Y73410192D03*
%TD*%
D17*
%TO.C,Semicolon1*%
X266450192Y59440192D03*
D16*
X270000192Y59440192D03*
X256550192Y56900192D03*
D17*
X260100192Y56900192D03*
D10*
X263910192Y54360192D03*
D18*
X258830192Y54360192D03*
X268990192Y54360192D03*
%TD*%
D17*
%TO.C,V1*%
X161675192Y40390192D03*
D16*
X165225192Y40390192D03*
X151775192Y37850192D03*
D17*
X155325192Y37850192D03*
D18*
X154055192Y35310192D03*
D10*
X159135192Y35310192D03*
D18*
X164215192Y35310192D03*
%TD*%
D29*
%TO.C,SW1*%
X158372692Y12560192D03*
X152172692Y12560192D03*
X152172692Y16260192D03*
X158372692Y16260192D03*
%TD*%
D30*
%TO.C,U3*%
X201135192Y20110192D03*
X203010192Y19160192D03*
X203010192Y21060192D03*
%TD*%
D22*
%TO.C,R4*%
X35087692Y127455192D03*
X35087692Y129105192D03*
%TD*%
D16*
%TO.C,End1*%
X350962692Y78490192D03*
D17*
X347412692Y78490192D03*
X341062692Y75950192D03*
D16*
X337512692Y75950192D03*
D10*
X344872692Y73410192D03*
D18*
X339792692Y73410192D03*
X349952692Y73410192D03*
%TD*%
D19*
%TO.C,D89*%
X330922692Y134110192D03*
X327622692Y134110192D03*
%TD*%
D17*
%TO.C,Matilda1*%
X61662692Y97540192D03*
D16*
X65212692Y97540192D03*
D17*
X55312692Y95000192D03*
D16*
X51762692Y95000192D03*
D18*
X64202692Y92460192D03*
X54042692Y92460192D03*
D10*
X59122692Y92460192D03*
%TD*%
D19*
%TO.C,D29*%
X121622692Y134010192D03*
X118322692Y134010192D03*
%TD*%
D16*
%TO.C,PgDn1*%
X350962692Y40390192D03*
D17*
X347412692Y40390192D03*
X341062692Y37850192D03*
D16*
X337512692Y37850192D03*
D18*
X349952692Y35310192D03*
D10*
X344872692Y35310192D03*
D18*
X339792692Y35310192D03*
%TD*%
D19*
%TO.C,D2*%
X13222692Y82010192D03*
X9922692Y82010192D03*
%TD*%
%TO.C,D17*%
X76372692Y43710192D03*
X73072692Y43710192D03*
%TD*%
D16*
%TO.C,ENTER1*%
X319987692Y59440192D03*
D17*
X316437692Y59440192D03*
D16*
X306537692Y56900192D03*
D17*
X310087692Y56900192D03*
D18*
X308817692Y54360192D03*
X318977692Y54360192D03*
D10*
X313897692Y54360192D03*
%TD*%
D19*
%TO.C,D37*%
X150122692Y81810192D03*
X146822692Y81810192D03*
%TD*%
D28*
%TO.C,C12*%
X222482692Y21175192D03*
X224032692Y21175192D03*
%TD*%
D19*
%TO.C,D84*%
X318622692Y101110192D03*
X315322692Y101110192D03*
%TD*%
%TO.C,D80*%
X300847692Y81725192D03*
X297547692Y81725192D03*
%TD*%
D16*
%TO.C,F12*%
X293812692Y130877692D03*
D17*
X290262692Y130877692D03*
D16*
X280362692Y128337692D03*
D17*
X283912692Y128337692D03*
D18*
X292802692Y125797692D03*
X282642692Y125797692D03*
D10*
X287722692Y125797692D03*
%TD*%
D19*
%TO.C,D20*%
X90672692Y24610192D03*
X87372692Y24610192D03*
%TD*%
%TO.C,D32*%
X131222692Y81810192D03*
X127922692Y81810192D03*
%TD*%
%TO.C,D69*%
X263822692Y81710192D03*
X260522692Y81710192D03*
%TD*%
D16*
%TO.C,OpenBracket1*%
X284287692Y78490192D03*
D17*
X280737692Y78490192D03*
X274387692Y75950192D03*
D16*
X270837692Y75950192D03*
D10*
X278197692Y73410192D03*
D18*
X273117692Y73410192D03*
X283277692Y73410192D03*
%TD*%
D22*
%TO.C,R7*%
X207612692Y6745192D03*
X207612692Y8395192D03*
%TD*%
D17*
%TO.C,EXTRA7*%
X33137686Y78490192D03*
D16*
X36687686Y78490192D03*
X23237686Y75950192D03*
D17*
X26787686Y75950192D03*
D18*
X25517686Y73410192D03*
D10*
X30597686Y73410192D03*
D18*
X35677686Y73410192D03*
%TD*%
D19*
%TO.C,D18*%
X83122692Y134010192D03*
X79822692Y134010192D03*
%TD*%
%TO.C,D74*%
X278822692Y43710192D03*
X275522692Y43710192D03*
%TD*%
%TO.C,D57*%
X221672692Y43610192D03*
X218372692Y43610192D03*
%TD*%
%TO.C,D70*%
X269272692Y62710192D03*
X265972692Y62710192D03*
%TD*%
D17*
%TO.C,LEFTSHIFT1*%
X73550192Y40390192D03*
D16*
X77100192Y40390192D03*
X63650192Y37850192D03*
D17*
X67200192Y37850192D03*
D18*
X76090192Y35310192D03*
D10*
X71010192Y35310192D03*
D18*
X65930192Y35310192D03*
%TD*%
D19*
%TO.C,D85*%
X319272692Y62710192D03*
X315972692Y62710192D03*
%TD*%
D16*
%TO.C,R1*%
X150937692Y78490192D03*
D17*
X147387692Y78490192D03*
X141037692Y75950192D03*
D16*
X137487692Y75950192D03*
D18*
X149927692Y73410192D03*
X139767692Y73410192D03*
D10*
X144847692Y73410192D03*
%TD*%
D19*
%TO.C,D1*%
X12922692Y101210192D03*
X9622692Y101210192D03*
%TD*%
D17*
%TO.C,Hkey1*%
X190250192Y59440192D03*
D16*
X193800192Y59440192D03*
D17*
X183900192Y56900192D03*
D16*
X180350192Y56900192D03*
D10*
X187710192Y54360192D03*
D18*
X182630192Y54360192D03*
X192790192Y54360192D03*
%TD*%
D19*
%TO.C,D78*%
X289622692Y100910192D03*
X286322692Y100910192D03*
%TD*%
D16*
%TO.C,CAPSLOCK1*%
X72337692Y59440192D03*
D17*
X68787692Y59440192D03*
X62437692Y56900192D03*
D16*
X58887692Y56900192D03*
D18*
X61167692Y54360192D03*
X71327692Y54360192D03*
D10*
X66247692Y54360192D03*
%TD*%
D19*
%TO.C,D60*%
X235922692Y134110192D03*
X232622692Y134110192D03*
%TD*%
%TO.C,D3*%
X13222692Y62985192D03*
X9922692Y62985192D03*
%TD*%
%TO.C,D49*%
X193072692Y62760192D03*
X189772692Y62760192D03*
%TD*%
D31*
%TO.C,U1*%
X211897692Y15635192D03*
X211897692Y15135192D03*
X211897692Y14635192D03*
X211897692Y14135192D03*
X211897692Y13635192D03*
X211897692Y13135192D03*
X211897692Y12635192D03*
X211897692Y12135192D03*
X211897692Y11635192D03*
X211897692Y11135192D03*
X211897692Y10635192D03*
X211897692Y10135192D03*
X211897692Y9635192D03*
X211897692Y9135192D03*
X211897692Y8635192D03*
X211897692Y8135192D03*
D32*
X213822692Y6210192D03*
X214322692Y6210192D03*
X214822692Y6210192D03*
X215322692Y6210192D03*
X215822692Y6210192D03*
X216322692Y6210192D03*
X216822692Y6210192D03*
X217322692Y6210192D03*
X217822692Y6210192D03*
X218322692Y6210192D03*
X218822692Y6210192D03*
X219322692Y6210192D03*
X219822692Y6210192D03*
X220322692Y6210192D03*
X220822692Y6210192D03*
X221322692Y6210192D03*
D31*
X223247692Y8135192D03*
X223247692Y8635192D03*
X223247692Y9135192D03*
X223247692Y9635192D03*
X223247692Y10135192D03*
X223247692Y10635192D03*
X223247692Y11135192D03*
X223247692Y11635192D03*
X223247692Y12135192D03*
X223247692Y12635192D03*
X223247692Y13135192D03*
X223247692Y13635192D03*
X223247692Y14135192D03*
X223247692Y14635192D03*
X223247692Y15135192D03*
X223247692Y15635192D03*
D32*
X221322692Y17560192D03*
X220822692Y17560192D03*
X220322692Y17560192D03*
X219822692Y17560192D03*
X219322692Y17560192D03*
X218822692Y17560192D03*
X218322692Y17560192D03*
X217822692Y17560192D03*
X217322692Y17560192D03*
X216822692Y17560192D03*
X216322692Y17560192D03*
X215822692Y17560192D03*
X215322692Y17560192D03*
X214822692Y17560192D03*
X214322692Y17560192D03*
X213822692Y17560192D03*
%TD*%
D21*
%TO.C,C8*%
X204997692Y20510192D03*
X204997692Y18960192D03*
%TD*%
D19*
%TO.C,D44*%
X177522692Y134110192D03*
X174222692Y134110192D03*
%TD*%
D16*
%TO.C,S1*%
X117600192Y59440192D03*
D17*
X114050192Y59440192D03*
D16*
X104150192Y56900192D03*
D17*
X107700192Y56900192D03*
D18*
X106430192Y54360192D03*
D10*
X111510192Y54360192D03*
D18*
X116590192Y54360192D03*
%TD*%
D33*
%TO.C,R3*%
X161072692Y15035192D03*
X161072692Y13385192D03*
%TD*%
D19*
%TO.C,D51*%
X197822692Y100910192D03*
X194522692Y100910192D03*
%TD*%
D16*
%TO.C,Y1*%
X189037692Y78490192D03*
D17*
X185487692Y78490192D03*
X179137692Y75950192D03*
D16*
X175587692Y75950192D03*
D10*
X182947692Y73410192D03*
D18*
X177867692Y73410192D03*
X188027692Y73410192D03*
%TD*%
D19*
%TO.C,D58*%
X226422692Y81810192D03*
X223122692Y81810192D03*
%TD*%
D16*
%TO.C,F3*%
X122362692Y130877692D03*
D17*
X118812692Y130877692D03*
D16*
X108912692Y128337692D03*
D17*
X112462692Y128337692D03*
D18*
X111192692Y125797692D03*
X121352692Y125797692D03*
D10*
X116272692Y125797692D03*
%TD*%
D19*
%TO.C,D38*%
X154972692Y62810192D03*
X151672692Y62810192D03*
%TD*%
%TO.C,D65*%
X254822692Y134110192D03*
X251522692Y134110192D03*
%TD*%
D20*
%TO.C,C3*%
X211297692Y5050192D03*
X211297692Y6600192D03*
%TD*%
D17*
%TO.C,CommaSign1*%
X237875192Y40390192D03*
D16*
X241425192Y40390192D03*
D17*
X231525192Y37850192D03*
D16*
X227975192Y37850192D03*
D10*
X235335192Y35310192D03*
D18*
X240415192Y35310192D03*
X230255192Y35310192D03*
%TD*%
D19*
%TO.C,D67*%
X255022692Y24660192D03*
X251722692Y24660192D03*
%TD*%
%TO.C,D81*%
X297977692Y43725192D03*
X294677692Y43725192D03*
%TD*%
%TO.C,D8*%
X32522692Y82110192D03*
X29222692Y82110192D03*
%TD*%
D17*
%TO.C,W1*%
X109287692Y78490192D03*
D16*
X112837692Y78490192D03*
D17*
X102937692Y75950192D03*
D16*
X99387692Y75950192D03*
D18*
X111827692Y73410192D03*
X101667692Y73410192D03*
D10*
X106747692Y73410192D03*
%TD*%
D19*
%TO.C,D86*%
X324987692Y81835192D03*
X321687692Y81835192D03*
%TD*%
D16*
%TO.C,DELETE1*%
X350962692Y130877692D03*
D17*
X347412692Y130877692D03*
D16*
X337512692Y128337692D03*
D17*
X341062692Y128337692D03*
D10*
X344872692Y125797692D03*
D18*
X339792692Y125797692D03*
X349952692Y125797692D03*
%TD*%
D17*
%TO.C,Num4*%
X137862692Y97540192D03*
D16*
X141412692Y97540192D03*
X127962692Y95000192D03*
D17*
X131512692Y95000192D03*
D18*
X140402692Y92460192D03*
X130242692Y92460192D03*
D10*
X135322692Y92460192D03*
%TD*%
D17*
%TO.C,UPARROW1*%
X328362692Y40390192D03*
D16*
X331912692Y40390192D03*
X318462692Y37850192D03*
D17*
X322012692Y37850192D03*
D18*
X330902692Y35310192D03*
D10*
X325822692Y35310192D03*
D18*
X320742692Y35310192D03*
%TD*%
D19*
%TO.C,D87*%
X333487692Y43615192D03*
X330187692Y43615192D03*
%TD*%
%TO.C,D68*%
X259772692Y43710192D03*
X256472692Y43710192D03*
%TD*%
%TO.C,D4*%
X13622692Y43810192D03*
X10322692Y43810192D03*
%TD*%
D16*
%TO.C,EXTRA10*%
X36687686Y21340192D03*
D17*
X33137686Y21340192D03*
D16*
X23237686Y18800192D03*
D17*
X26787686Y18800192D03*
D10*
X30597686Y16260192D03*
D18*
X35677686Y16260192D03*
X25517686Y16260192D03*
%TD*%
D17*
%TO.C,DotSign1*%
X256925192Y40390192D03*
D16*
X260475192Y40390192D03*
D17*
X250575192Y37850192D03*
D16*
X247025192Y37850192D03*
D18*
X249305192Y35310192D03*
X259465192Y35310192D03*
D10*
X254385192Y35310192D03*
%TD*%
D17*
%TO.C,RIGHTSHIFT1*%
X302150192Y40390192D03*
D16*
X305700192Y40390192D03*
D17*
X295800192Y37850192D03*
D16*
X292250192Y37850192D03*
D18*
X304690192Y35310192D03*
X294530192Y35310192D03*
D10*
X299610192Y35310192D03*
%TD*%
D19*
%TO.C,D40*%
X159722692Y100710192D03*
X156422692Y100710192D03*
%TD*%
%TO.C,D27*%
X114522692Y24660192D03*
X111222692Y24660192D03*
%TD*%
D17*
%TO.C,F1*%
X80712692Y130877692D03*
D16*
X84262692Y130877692D03*
D17*
X74362692Y128337692D03*
D16*
X70812692Y128337692D03*
D18*
X73092692Y125797692D03*
D10*
X78172692Y125797692D03*
D18*
X83252692Y125797692D03*
%TD*%
D19*
%TO.C,D52*%
X202622692Y43660192D03*
X199322692Y43660192D03*
%TD*%
D16*
%TO.C,F11*%
X274762692Y130877692D03*
D17*
X271212692Y130877692D03*
X264862692Y128337692D03*
D16*
X261312692Y128337692D03*
D10*
X268672692Y125797692D03*
D18*
X273752692Y125797692D03*
X263592692Y125797692D03*
%TD*%
D19*
%TO.C,D59*%
X231172692Y62760192D03*
X227872692Y62760192D03*
%TD*%
D17*
%TO.C,Home1*%
X347412692Y97540192D03*
D16*
X350962692Y97540192D03*
X337512692Y95000192D03*
D17*
X341062692Y95000192D03*
D10*
X344872692Y92460192D03*
D18*
X339792692Y92460192D03*
X349952692Y92460192D03*
%TD*%
D19*
%TO.C,D46*%
X183522692Y43760192D03*
X180222692Y43760192D03*
%TD*%
D16*
%TO.C,EXTRA1*%
X17587692Y97540192D03*
D17*
X14037692Y97540192D03*
D16*
X4137692Y95000192D03*
D17*
X7687692Y95000192D03*
D18*
X16577692Y92460192D03*
X6417692Y92460192D03*
D10*
X11497692Y92460192D03*
%TD*%
D19*
%TO.C,D24*%
X102522692Y100710192D03*
X99222692Y100710192D03*
%TD*%
M02*
