%TF.GenerationSoftware,KiCad,Pcbnew,(6.0.11)*%
%TF.CreationDate,2023-03-01T01:08:00+07:00*%
%TF.ProjectId,Extero75,45787465-726f-4373-952e-6b696361645f,rev?*%
%TF.SameCoordinates,PX23b22f0PYc57ca40*%
%TF.FileFunction,Legend,Bot*%
%TF.FilePolarity,Positive*%
%FSLAX46Y46*%
G04 Gerber Fmt 4.6, Leading zero omitted, Abs format (unit mm)*
G04 Created by KiCad (PCBNEW (6.0.11)) date 2023-03-01 01:08:00*
%MOMM*%
%LPD*%
G01*
G04 APERTURE LIST*
G04 Aperture macros list*
%AMRoundRect*
0 Rectangle with rounded corners*
0 $1 Rounding radius*
0 $2 $3 $4 $5 $6 $7 $8 $9 X,Y pos of 4 corners*
0 Add a 4 corners polygon primitive as box body*
4,1,4,$2,$3,$4,$5,$6,$7,$8,$9,$2,$3,0*
0 Add four circle primitives for the rounded corners*
1,1,$1+$1,$2,$3*
1,1,$1+$1,$4,$5*
1,1,$1+$1,$6,$7*
1,1,$1+$1,$8,$9*
0 Add four rect primitives between the rounded corners*
20,1,$1+$1,$2,$3,$4,$5,0*
20,1,$1+$1,$4,$5,$6,$7,0*
20,1,$1+$1,$6,$7,$8,$9,0*
20,1,$1+$1,$8,$9,$2,$3,0*%
G04 Aperture macros list end*
%ADD10C,0.150000*%
%ADD11C,0.120000*%
%ADD12RoundRect,0.250000X1.025000X1.000000X-1.025000X1.000000X-1.025000X-1.000000X1.025000X-1.000000X0*%
%ADD13C,3.300000*%
%ADD14C,1.750000*%
%ADD15C,3.987800*%
%ADD16C,3.000000*%
%ADD17R,2.550000X2.500000*%
%ADD18C,3.048000*%
%ADD19C,2.200000*%
%ADD20R,2.000000X2.000000*%
%ADD21C,2.000000*%
%ADD22R,3.200000X2.000000*%
%ADD23R,0.900000X1.200000*%
%ADD24RoundRect,0.225000X-0.250000X0.225000X-0.250000X-0.225000X0.250000X-0.225000X0.250000X0.225000X0*%
%ADD25RoundRect,0.225000X0.250000X-0.225000X0.250000X0.225000X-0.250000X0.225000X-0.250000X-0.225000X0*%
%ADD26RoundRect,0.200000X-0.275000X0.200000X-0.275000X-0.200000X0.275000X-0.200000X0.275000X0.200000X0*%
%ADD27C,0.650000*%
%ADD28R,0.600000X1.150000*%
%ADD29R,0.300000X1.150000*%
%ADD30O,1.000000X1.800000*%
%ADD31O,1.000000X2.100000*%
%ADD32RoundRect,0.225000X0.225000X0.250000X-0.225000X0.250000X-0.225000X-0.250000X0.225000X-0.250000X0*%
%ADD33R,1.800000X1.100000*%
%ADD34RoundRect,0.150000X0.587500X0.150000X-0.587500X0.150000X-0.587500X-0.150000X0.587500X-0.150000X0*%
%ADD35RoundRect,0.075000X-0.075000X0.700000X-0.075000X-0.700000X0.075000X-0.700000X0.075000X0.700000X0*%
%ADD36RoundRect,0.075000X-0.700000X0.075000X-0.700000X-0.075000X0.700000X-0.075000X0.700000X0.075000X0*%
%ADD37RoundRect,0.200000X0.275000X-0.200000X0.275000X0.200000X-0.275000X0.200000X-0.275000X-0.200000X0*%
G04 APERTURE END LIST*
D10*
%TO.C,EXTRA1*%
X16666190Y91901429D02*
X16332857Y91901429D01*
X16190000Y91377620D02*
X16666190Y91377620D01*
X16666190Y92377620D01*
X16190000Y92377620D01*
X15856666Y92377620D02*
X15190000Y91377620D01*
X15190000Y92377620D02*
X15856666Y91377620D01*
X14951904Y92377620D02*
X14380476Y92377620D01*
X14666190Y91377620D02*
X14666190Y92377620D01*
X13475714Y91377620D02*
X13809047Y91853810D01*
X14047142Y91377620D02*
X14047142Y92377620D01*
X13666190Y92377620D01*
X13570952Y92330000D01*
X13523333Y92282381D01*
X13475714Y92187143D01*
X13475714Y92044286D01*
X13523333Y91949048D01*
X13570952Y91901429D01*
X13666190Y91853810D01*
X14047142Y91853810D01*
X13094761Y91663334D02*
X12618571Y91663334D01*
X13190000Y91377620D02*
X12856666Y92377620D01*
X12523333Y91377620D01*
X11666190Y91377620D02*
X12237619Y91377620D01*
X11951904Y91377620D02*
X11951904Y92377620D01*
X12047142Y92234762D01*
X12142380Y92139524D01*
X12237619Y92091905D01*
%TO.C,D7*%
X35228095Y105297620D02*
X35228095Y106297620D01*
X34990000Y106297620D01*
X34847142Y106250000D01*
X34751904Y106154762D01*
X34704285Y106059524D01*
X34656666Y105869048D01*
X34656666Y105726191D01*
X34704285Y105535715D01*
X34751904Y105440477D01*
X34847142Y105345239D01*
X34990000Y105297620D01*
X35228095Y105297620D01*
X34323333Y106297620D02*
X33656666Y106297620D01*
X34085238Y105297620D01*
%TO.C,D93*%
X353584285Y47897620D02*
X353584285Y48897620D01*
X353346190Y48897620D01*
X353203333Y48850000D01*
X353108095Y48754762D01*
X353060476Y48659524D01*
X353012857Y48469048D01*
X353012857Y48326191D01*
X353060476Y48135715D01*
X353108095Y48040477D01*
X353203333Y47945239D01*
X353346190Y47897620D01*
X353584285Y47897620D01*
X352536666Y47897620D02*
X352346190Y47897620D01*
X352250952Y47945239D01*
X352203333Y47992858D01*
X352108095Y48135715D01*
X352060476Y48326191D01*
X352060476Y48707143D01*
X352108095Y48802381D01*
X352155714Y48850000D01*
X352250952Y48897620D01*
X352441428Y48897620D01*
X352536666Y48850000D01*
X352584285Y48802381D01*
X352631904Y48707143D01*
X352631904Y48469048D01*
X352584285Y48373810D01*
X352536666Y48326191D01*
X352441428Y48278572D01*
X352250952Y48278572D01*
X352155714Y48326191D01*
X352108095Y48373810D01*
X352060476Y48469048D01*
X351727142Y48897620D02*
X351108095Y48897620D01*
X351441428Y48516667D01*
X351298571Y48516667D01*
X351203333Y48469048D01*
X351155714Y48421429D01*
X351108095Y48326191D01*
X351108095Y48088096D01*
X351155714Y47992858D01*
X351203333Y47945239D01*
X351298571Y47897620D01*
X351584285Y47897620D01*
X351679523Y47945239D01*
X351727142Y47992858D01*
%TO.C,D61*%
X239804285Y104897620D02*
X239804285Y105897620D01*
X239566190Y105897620D01*
X239423333Y105850000D01*
X239328095Y105754762D01*
X239280476Y105659524D01*
X239232857Y105469048D01*
X239232857Y105326191D01*
X239280476Y105135715D01*
X239328095Y105040477D01*
X239423333Y104945239D01*
X239566190Y104897620D01*
X239804285Y104897620D01*
X238375714Y105897620D02*
X238566190Y105897620D01*
X238661428Y105850000D01*
X238709047Y105802381D01*
X238804285Y105659524D01*
X238851904Y105469048D01*
X238851904Y105088096D01*
X238804285Y104992858D01*
X238756666Y104945239D01*
X238661428Y104897620D01*
X238470952Y104897620D01*
X238375714Y104945239D01*
X238328095Y104992858D01*
X238280476Y105088096D01*
X238280476Y105326191D01*
X238328095Y105421429D01*
X238375714Y105469048D01*
X238470952Y105516667D01*
X238661428Y105516667D01*
X238756666Y105469048D01*
X238804285Y105421429D01*
X238851904Y105326191D01*
X237328095Y104897620D02*
X237899523Y104897620D01*
X237613809Y104897620D02*
X237613809Y105897620D01*
X237709047Y105754762D01*
X237804285Y105659524D01*
X237899523Y105611905D01*
%TO.C,D5*%
X16648095Y29117620D02*
X16648095Y30117620D01*
X16410000Y30117620D01*
X16267142Y30070000D01*
X16171904Y29974762D01*
X16124285Y29879524D01*
X16076666Y29689048D01*
X16076666Y29546191D01*
X16124285Y29355715D01*
X16171904Y29260477D01*
X16267142Y29165239D01*
X16410000Y29117620D01*
X16648095Y29117620D01*
X15171904Y30117620D02*
X15648095Y30117620D01*
X15695714Y29641429D01*
X15648095Y29689048D01*
X15552857Y29736667D01*
X15314761Y29736667D01*
X15219523Y29689048D01*
X15171904Y29641429D01*
X15124285Y29546191D01*
X15124285Y29308096D01*
X15171904Y29212858D01*
X15219523Y29165239D01*
X15314761Y29117620D01*
X15552857Y29117620D01*
X15648095Y29165239D01*
X15695714Y29212858D01*
%TO.C,C13*%
X208317142Y20282858D02*
X208364761Y20330477D01*
X208412380Y20473334D01*
X208412380Y20568572D01*
X208364761Y20711429D01*
X208269523Y20806667D01*
X208174285Y20854286D01*
X207983809Y20901905D01*
X207840952Y20901905D01*
X207650476Y20854286D01*
X207555238Y20806667D01*
X207460000Y20711429D01*
X207412380Y20568572D01*
X207412380Y20473334D01*
X207460000Y20330477D01*
X207507619Y20282858D01*
X208412380Y19330477D02*
X208412380Y19901905D01*
X208412380Y19616191D02*
X207412380Y19616191D01*
X207555238Y19711429D01*
X207650476Y19806667D01*
X207698095Y19901905D01*
X207412380Y18997143D02*
X207412380Y18378096D01*
X207793333Y18711429D01*
X207793333Y18568572D01*
X207840952Y18473334D01*
X207888571Y18425715D01*
X207983809Y18378096D01*
X208221904Y18378096D01*
X208317142Y18425715D01*
X208364761Y18473334D01*
X208412380Y18568572D01*
X208412380Y18854286D01*
X208364761Y18949524D01*
X208317142Y18997143D01*
%TO.C,D55*%
X219904285Y138157620D02*
X219904285Y139157620D01*
X219666190Y139157620D01*
X219523333Y139110000D01*
X219428095Y139014762D01*
X219380476Y138919524D01*
X219332857Y138729048D01*
X219332857Y138586191D01*
X219380476Y138395715D01*
X219428095Y138300477D01*
X219523333Y138205239D01*
X219666190Y138157620D01*
X219904285Y138157620D01*
X218428095Y139157620D02*
X218904285Y139157620D01*
X218951904Y138681429D01*
X218904285Y138729048D01*
X218809047Y138776667D01*
X218570952Y138776667D01*
X218475714Y138729048D01*
X218428095Y138681429D01*
X218380476Y138586191D01*
X218380476Y138348096D01*
X218428095Y138252858D01*
X218475714Y138205239D01*
X218570952Y138157620D01*
X218809047Y138157620D01*
X218904285Y138205239D01*
X218951904Y138252858D01*
X217475714Y139157620D02*
X217951904Y139157620D01*
X217999523Y138681429D01*
X217951904Y138729048D01*
X217856666Y138776667D01*
X217618571Y138776667D01*
X217523333Y138729048D01*
X217475714Y138681429D01*
X217428095Y138586191D01*
X217428095Y138348096D01*
X217475714Y138252858D01*
X217523333Y138205239D01*
X217618571Y138157620D01*
X217856666Y138157620D01*
X217951904Y138205239D01*
X217999523Y138252858D01*
%TO.C,C14*%
X215757142Y25682858D02*
X215804761Y25730477D01*
X215852380Y25873334D01*
X215852380Y25968572D01*
X215804761Y26111429D01*
X215709523Y26206667D01*
X215614285Y26254286D01*
X215423809Y26301905D01*
X215280952Y26301905D01*
X215090476Y26254286D01*
X214995238Y26206667D01*
X214900000Y26111429D01*
X214852380Y25968572D01*
X214852380Y25873334D01*
X214900000Y25730477D01*
X214947619Y25682858D01*
X215852380Y24730477D02*
X215852380Y25301905D01*
X215852380Y25016191D02*
X214852380Y25016191D01*
X214995238Y25111429D01*
X215090476Y25206667D01*
X215138095Y25301905D01*
X215185714Y23873334D02*
X215852380Y23873334D01*
X214804761Y24111429D02*
X215519047Y24349524D01*
X215519047Y23730477D01*
%TO.C,C4*%
X230097142Y17946667D02*
X230144761Y17994286D01*
X230192380Y18137143D01*
X230192380Y18232381D01*
X230144761Y18375239D01*
X230049523Y18470477D01*
X229954285Y18518096D01*
X229763809Y18565715D01*
X229620952Y18565715D01*
X229430476Y18518096D01*
X229335238Y18470477D01*
X229240000Y18375239D01*
X229192380Y18232381D01*
X229192380Y18137143D01*
X229240000Y17994286D01*
X229287619Y17946667D01*
X229525714Y17089524D02*
X230192380Y17089524D01*
X229144761Y17327620D02*
X229859047Y17565715D01*
X229859047Y16946667D01*
%TO.C,D56*%
X220804285Y104897620D02*
X220804285Y105897620D01*
X220566190Y105897620D01*
X220423333Y105850000D01*
X220328095Y105754762D01*
X220280476Y105659524D01*
X220232857Y105469048D01*
X220232857Y105326191D01*
X220280476Y105135715D01*
X220328095Y105040477D01*
X220423333Y104945239D01*
X220566190Y104897620D01*
X220804285Y104897620D01*
X219328095Y105897620D02*
X219804285Y105897620D01*
X219851904Y105421429D01*
X219804285Y105469048D01*
X219709047Y105516667D01*
X219470952Y105516667D01*
X219375714Y105469048D01*
X219328095Y105421429D01*
X219280476Y105326191D01*
X219280476Y105088096D01*
X219328095Y104992858D01*
X219375714Y104945239D01*
X219470952Y104897620D01*
X219709047Y104897620D01*
X219804285Y104945239D01*
X219851904Y104992858D01*
X218423333Y105897620D02*
X218613809Y105897620D01*
X218709047Y105850000D01*
X218756666Y105802381D01*
X218851904Y105659524D01*
X218899523Y105469048D01*
X218899523Y105088096D01*
X218851904Y104992858D01*
X218804285Y104945239D01*
X218709047Y104897620D01*
X218518571Y104897620D01*
X218423333Y104945239D01*
X218375714Y104992858D01*
X218328095Y105088096D01*
X218328095Y105326191D01*
X218375714Y105421429D01*
X218423333Y105469048D01*
X218518571Y105516667D01*
X218709047Y105516667D01*
X218804285Y105469048D01*
X218851904Y105421429D01*
X218899523Y105326191D01*
%TO.C,D36*%
X148784285Y47847620D02*
X148784285Y48847620D01*
X148546190Y48847620D01*
X148403333Y48800000D01*
X148308095Y48704762D01*
X148260476Y48609524D01*
X148212857Y48419048D01*
X148212857Y48276191D01*
X148260476Y48085715D01*
X148308095Y47990477D01*
X148403333Y47895239D01*
X148546190Y47847620D01*
X148784285Y47847620D01*
X147879523Y48847620D02*
X147260476Y48847620D01*
X147593809Y48466667D01*
X147450952Y48466667D01*
X147355714Y48419048D01*
X147308095Y48371429D01*
X147260476Y48276191D01*
X147260476Y48038096D01*
X147308095Y47942858D01*
X147355714Y47895239D01*
X147450952Y47847620D01*
X147736666Y47847620D01*
X147831904Y47895239D01*
X147879523Y47942858D01*
X146403333Y48847620D02*
X146593809Y48847620D01*
X146689047Y48800000D01*
X146736666Y48752381D01*
X146831904Y48609524D01*
X146879523Y48419048D01*
X146879523Y48038096D01*
X146831904Y47942858D01*
X146784285Y47895239D01*
X146689047Y47847620D01*
X146498571Y47847620D01*
X146403333Y47895239D01*
X146355714Y47942858D01*
X146308095Y48038096D01*
X146308095Y48276191D01*
X146355714Y48371429D01*
X146403333Y48419048D01*
X146498571Y48466667D01*
X146689047Y48466667D01*
X146784285Y48419048D01*
X146831904Y48371429D01*
X146879523Y48276191D01*
%TO.C,C11*%
X208867142Y7762858D02*
X208914761Y7810477D01*
X208962380Y7953334D01*
X208962380Y8048572D01*
X208914761Y8191429D01*
X208819523Y8286667D01*
X208724285Y8334286D01*
X208533809Y8381905D01*
X208390952Y8381905D01*
X208200476Y8334286D01*
X208105238Y8286667D01*
X208010000Y8191429D01*
X207962380Y8048572D01*
X207962380Y7953334D01*
X208010000Y7810477D01*
X208057619Y7762858D01*
X208962380Y6810477D02*
X208962380Y7381905D01*
X208962380Y7096191D02*
X207962380Y7096191D01*
X208105238Y7191429D01*
X208200476Y7286667D01*
X208248095Y7381905D01*
X208962380Y5858096D02*
X208962380Y6429524D01*
X208962380Y6143810D02*
X207962380Y6143810D01*
X208105238Y6239048D01*
X208200476Y6334286D01*
X208248095Y6429524D01*
%TO.C,D9*%
X33598095Y67087620D02*
X33598095Y68087620D01*
X33360000Y68087620D01*
X33217142Y68040000D01*
X33121904Y67944762D01*
X33074285Y67849524D01*
X33026666Y67659048D01*
X33026666Y67516191D01*
X33074285Y67325715D01*
X33121904Y67230477D01*
X33217142Y67135239D01*
X33360000Y67087620D01*
X33598095Y67087620D01*
X32550476Y67087620D02*
X32360000Y67087620D01*
X32264761Y67135239D01*
X32217142Y67182858D01*
X32121904Y67325715D01*
X32074285Y67516191D01*
X32074285Y67897143D01*
X32121904Y67992381D01*
X32169523Y68040000D01*
X32264761Y68087620D01*
X32455238Y68087620D01*
X32550476Y68040000D01*
X32598095Y67992381D01*
X32645714Y67897143D01*
X32645714Y67659048D01*
X32598095Y67563810D01*
X32550476Y67516191D01*
X32455238Y67468572D01*
X32264761Y67468572D01*
X32169523Y67516191D01*
X32121904Y67563810D01*
X32074285Y67659048D01*
%TO.C,D64*%
X252474285Y66837620D02*
X252474285Y67837620D01*
X252236190Y67837620D01*
X252093333Y67790000D01*
X251998095Y67694762D01*
X251950476Y67599524D01*
X251902857Y67409048D01*
X251902857Y67266191D01*
X251950476Y67075715D01*
X251998095Y66980477D01*
X252093333Y66885239D01*
X252236190Y66837620D01*
X252474285Y66837620D01*
X251045714Y67837620D02*
X251236190Y67837620D01*
X251331428Y67790000D01*
X251379047Y67742381D01*
X251474285Y67599524D01*
X251521904Y67409048D01*
X251521904Y67028096D01*
X251474285Y66932858D01*
X251426666Y66885239D01*
X251331428Y66837620D01*
X251140952Y66837620D01*
X251045714Y66885239D01*
X250998095Y66932858D01*
X250950476Y67028096D01*
X250950476Y67266191D01*
X250998095Y67361429D01*
X251045714Y67409048D01*
X251140952Y67456667D01*
X251331428Y67456667D01*
X251426666Y67409048D01*
X251474285Y67361429D01*
X251521904Y67266191D01*
X250093333Y67504286D02*
X250093333Y66837620D01*
X250331428Y67885239D02*
X250569523Y67170953D01*
X249950476Y67170953D01*
%TO.C,D15*%
X69654285Y86087620D02*
X69654285Y87087620D01*
X69416190Y87087620D01*
X69273333Y87040000D01*
X69178095Y86944762D01*
X69130476Y86849524D01*
X69082857Y86659048D01*
X69082857Y86516191D01*
X69130476Y86325715D01*
X69178095Y86230477D01*
X69273333Y86135239D01*
X69416190Y86087620D01*
X69654285Y86087620D01*
X68130476Y86087620D02*
X68701904Y86087620D01*
X68416190Y86087620D02*
X68416190Y87087620D01*
X68511428Y86944762D01*
X68606666Y86849524D01*
X68701904Y86801905D01*
X67225714Y87087620D02*
X67701904Y87087620D01*
X67749523Y86611429D01*
X67701904Y86659048D01*
X67606666Y86706667D01*
X67368571Y86706667D01*
X67273333Y86659048D01*
X67225714Y86611429D01*
X67178095Y86516191D01*
X67178095Y86278096D01*
X67225714Y86182858D01*
X67273333Y86135239D01*
X67368571Y86087620D01*
X67606666Y86087620D01*
X67701904Y86135239D01*
X67749523Y86182858D01*
%TO.C,D30*%
X125504285Y104997620D02*
X125504285Y105997620D01*
X125266190Y105997620D01*
X125123333Y105950000D01*
X125028095Y105854762D01*
X124980476Y105759524D01*
X124932857Y105569048D01*
X124932857Y105426191D01*
X124980476Y105235715D01*
X125028095Y105140477D01*
X125123333Y105045239D01*
X125266190Y104997620D01*
X125504285Y104997620D01*
X124599523Y105997620D02*
X123980476Y105997620D01*
X124313809Y105616667D01*
X124170952Y105616667D01*
X124075714Y105569048D01*
X124028095Y105521429D01*
X123980476Y105426191D01*
X123980476Y105188096D01*
X124028095Y105092858D01*
X124075714Y105045239D01*
X124170952Y104997620D01*
X124456666Y104997620D01*
X124551904Y105045239D01*
X124599523Y105092858D01*
X123361428Y105997620D02*
X123266190Y105997620D01*
X123170952Y105950000D01*
X123123333Y105902381D01*
X123075714Y105807143D01*
X123028095Y105616667D01*
X123028095Y105378572D01*
X123075714Y105188096D01*
X123123333Y105092858D01*
X123170952Y105045239D01*
X123266190Y104997620D01*
X123361428Y104997620D01*
X123456666Y105045239D01*
X123504285Y105092858D01*
X123551904Y105188096D01*
X123599523Y105378572D01*
X123599523Y105616667D01*
X123551904Y105807143D01*
X123504285Y105902381D01*
X123456666Y105950000D01*
X123361428Y105997620D01*
%TO.C,R5*%
X40132380Y130806667D02*
X39656190Y131140000D01*
X40132380Y131378096D02*
X39132380Y131378096D01*
X39132380Y130997143D01*
X39180000Y130901905D01*
X39227619Y130854286D01*
X39322857Y130806667D01*
X39465714Y130806667D01*
X39560952Y130854286D01*
X39608571Y130901905D01*
X39656190Y130997143D01*
X39656190Y131378096D01*
X39132380Y129901905D02*
X39132380Y130378096D01*
X39608571Y130425715D01*
X39560952Y130378096D01*
X39513333Y130282858D01*
X39513333Y130044762D01*
X39560952Y129949524D01*
X39608571Y129901905D01*
X39703809Y129854286D01*
X39941904Y129854286D01*
X40037142Y129901905D01*
X40084761Y129949524D01*
X40132380Y130044762D01*
X40132380Y130282858D01*
X40084761Y130378096D01*
X40037142Y130425715D01*
%TO.C,D39*%
X162804285Y138257620D02*
X162804285Y139257620D01*
X162566190Y139257620D01*
X162423333Y139210000D01*
X162328095Y139114762D01*
X162280476Y139019524D01*
X162232857Y138829048D01*
X162232857Y138686191D01*
X162280476Y138495715D01*
X162328095Y138400477D01*
X162423333Y138305239D01*
X162566190Y138257620D01*
X162804285Y138257620D01*
X161899523Y139257620D02*
X161280476Y139257620D01*
X161613809Y138876667D01*
X161470952Y138876667D01*
X161375714Y138829048D01*
X161328095Y138781429D01*
X161280476Y138686191D01*
X161280476Y138448096D01*
X161328095Y138352858D01*
X161375714Y138305239D01*
X161470952Y138257620D01*
X161756666Y138257620D01*
X161851904Y138305239D01*
X161899523Y138352858D01*
X160804285Y138257620D02*
X160613809Y138257620D01*
X160518571Y138305239D01*
X160470952Y138352858D01*
X160375714Y138495715D01*
X160328095Y138686191D01*
X160328095Y139067143D01*
X160375714Y139162381D01*
X160423333Y139210000D01*
X160518571Y139257620D01*
X160709047Y139257620D01*
X160804285Y139210000D01*
X160851904Y139162381D01*
X160899523Y139067143D01*
X160899523Y138829048D01*
X160851904Y138733810D01*
X160804285Y138686191D01*
X160709047Y138638572D01*
X160518571Y138638572D01*
X160423333Y138686191D01*
X160375714Y138733810D01*
X160328095Y138829048D01*
%TO.C,C1*%
X167292142Y17381667D02*
X167339761Y17429286D01*
X167387380Y17572143D01*
X167387380Y17667381D01*
X167339761Y17810239D01*
X167244523Y17905477D01*
X167149285Y17953096D01*
X166958809Y18000715D01*
X166815952Y18000715D01*
X166625476Y17953096D01*
X166530238Y17905477D01*
X166435000Y17810239D01*
X166387380Y17667381D01*
X166387380Y17572143D01*
X166435000Y17429286D01*
X166482619Y17381667D01*
X167387380Y16429286D02*
X167387380Y17000715D01*
X167387380Y16715000D02*
X166387380Y16715000D01*
X166530238Y16810239D01*
X166625476Y16905477D01*
X166673095Y17000715D01*
%TO.C,D12*%
X67504285Y138257620D02*
X67504285Y139257620D01*
X67266190Y139257620D01*
X67123333Y139210000D01*
X67028095Y139114762D01*
X66980476Y139019524D01*
X66932857Y138829048D01*
X66932857Y138686191D01*
X66980476Y138495715D01*
X67028095Y138400477D01*
X67123333Y138305239D01*
X67266190Y138257620D01*
X67504285Y138257620D01*
X65980476Y138257620D02*
X66551904Y138257620D01*
X66266190Y138257620D02*
X66266190Y139257620D01*
X66361428Y139114762D01*
X66456666Y139019524D01*
X66551904Y138971905D01*
X65599523Y139162381D02*
X65551904Y139210000D01*
X65456666Y139257620D01*
X65218571Y139257620D01*
X65123333Y139210000D01*
X65075714Y139162381D01*
X65028095Y139067143D01*
X65028095Y138971905D01*
X65075714Y138829048D01*
X65647142Y138257620D01*
X65028095Y138257620D01*
%TO.C,D10*%
X36234285Y48047620D02*
X36234285Y49047620D01*
X35996190Y49047620D01*
X35853333Y49000000D01*
X35758095Y48904762D01*
X35710476Y48809524D01*
X35662857Y48619048D01*
X35662857Y48476191D01*
X35710476Y48285715D01*
X35758095Y48190477D01*
X35853333Y48095239D01*
X35996190Y48047620D01*
X36234285Y48047620D01*
X34710476Y48047620D02*
X35281904Y48047620D01*
X34996190Y48047620D02*
X34996190Y49047620D01*
X35091428Y48904762D01*
X35186666Y48809524D01*
X35281904Y48761905D01*
X34091428Y49047620D02*
X33996190Y49047620D01*
X33900952Y49000000D01*
X33853333Y48952381D01*
X33805714Y48857143D01*
X33758095Y48666667D01*
X33758095Y48428572D01*
X33805714Y48238096D01*
X33853333Y48142858D01*
X33900952Y48095239D01*
X33996190Y48047620D01*
X34091428Y48047620D01*
X34186666Y48095239D01*
X34234285Y48142858D01*
X34281904Y48238096D01*
X34329523Y48428572D01*
X34329523Y48666667D01*
X34281904Y48857143D01*
X34234285Y48952381D01*
X34186666Y49000000D01*
X34091428Y49047620D01*
%TO.C,D33*%
X138224285Y66837620D02*
X138224285Y67837620D01*
X137986190Y67837620D01*
X137843333Y67790000D01*
X137748095Y67694762D01*
X137700476Y67599524D01*
X137652857Y67409048D01*
X137652857Y67266191D01*
X137700476Y67075715D01*
X137748095Y66980477D01*
X137843333Y66885239D01*
X137986190Y66837620D01*
X138224285Y66837620D01*
X137319523Y67837620D02*
X136700476Y67837620D01*
X137033809Y67456667D01*
X136890952Y67456667D01*
X136795714Y67409048D01*
X136748095Y67361429D01*
X136700476Y67266191D01*
X136700476Y67028096D01*
X136748095Y66932858D01*
X136795714Y66885239D01*
X136890952Y66837620D01*
X137176666Y66837620D01*
X137271904Y66885239D01*
X137319523Y66932858D01*
X136367142Y67837620D02*
X135748095Y67837620D01*
X136081428Y67456667D01*
X135938571Y67456667D01*
X135843333Y67409048D01*
X135795714Y67361429D01*
X135748095Y67266191D01*
X135748095Y67028096D01*
X135795714Y66932858D01*
X135843333Y66885239D01*
X135938571Y66837620D01*
X136224285Y66837620D01*
X136319523Y66885239D01*
X136367142Y66932858D01*
%TO.C,J1*%
X40356666Y136732381D02*
X40356666Y137446667D01*
X40309047Y137589524D01*
X40213809Y137684762D01*
X40070952Y137732381D01*
X39975714Y137732381D01*
X41356666Y137732381D02*
X40785238Y137732381D01*
X41070952Y137732381D02*
X41070952Y136732381D01*
X40975714Y136875239D01*
X40880476Y136970477D01*
X40785238Y137018096D01*
%TO.C,D35*%
X144604285Y104797620D02*
X144604285Y105797620D01*
X144366190Y105797620D01*
X144223333Y105750000D01*
X144128095Y105654762D01*
X144080476Y105559524D01*
X144032857Y105369048D01*
X144032857Y105226191D01*
X144080476Y105035715D01*
X144128095Y104940477D01*
X144223333Y104845239D01*
X144366190Y104797620D01*
X144604285Y104797620D01*
X143699523Y105797620D02*
X143080476Y105797620D01*
X143413809Y105416667D01*
X143270952Y105416667D01*
X143175714Y105369048D01*
X143128095Y105321429D01*
X143080476Y105226191D01*
X143080476Y104988096D01*
X143128095Y104892858D01*
X143175714Y104845239D01*
X143270952Y104797620D01*
X143556666Y104797620D01*
X143651904Y104845239D01*
X143699523Y104892858D01*
X142175714Y105797620D02*
X142651904Y105797620D01*
X142699523Y105321429D01*
X142651904Y105369048D01*
X142556666Y105416667D01*
X142318571Y105416667D01*
X142223333Y105369048D01*
X142175714Y105321429D01*
X142128095Y105226191D01*
X142128095Y104988096D01*
X142175714Y104892858D01*
X142223333Y104845239D01*
X142318571Y104797620D01*
X142556666Y104797620D01*
X142651904Y104845239D01*
X142699523Y104892858D01*
%TO.C,D41*%
X167834285Y47847620D02*
X167834285Y48847620D01*
X167596190Y48847620D01*
X167453333Y48800000D01*
X167358095Y48704762D01*
X167310476Y48609524D01*
X167262857Y48419048D01*
X167262857Y48276191D01*
X167310476Y48085715D01*
X167358095Y47990477D01*
X167453333Y47895239D01*
X167596190Y47847620D01*
X167834285Y47847620D01*
X166405714Y48514286D02*
X166405714Y47847620D01*
X166643809Y48895239D02*
X166881904Y48180953D01*
X166262857Y48180953D01*
X165358095Y47847620D02*
X165929523Y47847620D01*
X165643809Y47847620D02*
X165643809Y48847620D01*
X165739047Y48704762D01*
X165834285Y48609524D01*
X165929523Y48561905D01*
%TO.C,C2*%
X211827142Y24216667D02*
X211874761Y24264286D01*
X211922380Y24407143D01*
X211922380Y24502381D01*
X211874761Y24645239D01*
X211779523Y24740477D01*
X211684285Y24788096D01*
X211493809Y24835715D01*
X211350952Y24835715D01*
X211160476Y24788096D01*
X211065238Y24740477D01*
X210970000Y24645239D01*
X210922380Y24502381D01*
X210922380Y24407143D01*
X210970000Y24264286D01*
X211017619Y24216667D01*
X211017619Y23835715D02*
X210970000Y23788096D01*
X210922380Y23692858D01*
X210922380Y23454762D01*
X210970000Y23359524D01*
X211017619Y23311905D01*
X211112857Y23264286D01*
X211208095Y23264286D01*
X211350952Y23311905D01*
X211922380Y23883334D01*
X211922380Y23264286D01*
%TO.C,D34*%
X143904285Y138257620D02*
X143904285Y139257620D01*
X143666190Y139257620D01*
X143523333Y139210000D01*
X143428095Y139114762D01*
X143380476Y139019524D01*
X143332857Y138829048D01*
X143332857Y138686191D01*
X143380476Y138495715D01*
X143428095Y138400477D01*
X143523333Y138305239D01*
X143666190Y138257620D01*
X143904285Y138257620D01*
X142999523Y139257620D02*
X142380476Y139257620D01*
X142713809Y138876667D01*
X142570952Y138876667D01*
X142475714Y138829048D01*
X142428095Y138781429D01*
X142380476Y138686191D01*
X142380476Y138448096D01*
X142428095Y138352858D01*
X142475714Y138305239D01*
X142570952Y138257620D01*
X142856666Y138257620D01*
X142951904Y138305239D01*
X142999523Y138352858D01*
X141523333Y138924286D02*
X141523333Y138257620D01*
X141761428Y139305239D02*
X141999523Y138590953D01*
X141380476Y138590953D01*
%TO.C,D79*%
X297024285Y28767620D02*
X297024285Y29767620D01*
X296786190Y29767620D01*
X296643333Y29720000D01*
X296548095Y29624762D01*
X296500476Y29529524D01*
X296452857Y29339048D01*
X296452857Y29196191D01*
X296500476Y29005715D01*
X296548095Y28910477D01*
X296643333Y28815239D01*
X296786190Y28767620D01*
X297024285Y28767620D01*
X296119523Y29767620D02*
X295452857Y29767620D01*
X295881428Y28767620D01*
X295024285Y28767620D02*
X294833809Y28767620D01*
X294738571Y28815239D01*
X294690952Y28862858D01*
X294595714Y29005715D01*
X294548095Y29196191D01*
X294548095Y29577143D01*
X294595714Y29672381D01*
X294643333Y29720000D01*
X294738571Y29767620D01*
X294929047Y29767620D01*
X295024285Y29720000D01*
X295071904Y29672381D01*
X295119523Y29577143D01*
X295119523Y29339048D01*
X295071904Y29243810D01*
X295024285Y29196191D01*
X294929047Y29148572D01*
X294738571Y29148572D01*
X294643333Y29196191D01*
X294595714Y29243810D01*
X294548095Y29339048D01*
%TO.C,C9*%
X229887142Y9866667D02*
X229934761Y9914286D01*
X229982380Y10057143D01*
X229982380Y10152381D01*
X229934761Y10295239D01*
X229839523Y10390477D01*
X229744285Y10438096D01*
X229553809Y10485715D01*
X229410952Y10485715D01*
X229220476Y10438096D01*
X229125238Y10390477D01*
X229030000Y10295239D01*
X228982380Y10152381D01*
X228982380Y10057143D01*
X229030000Y9914286D01*
X229077619Y9866667D01*
X229982380Y9390477D02*
X229982380Y9200000D01*
X229934761Y9104762D01*
X229887142Y9057143D01*
X229744285Y8961905D01*
X229553809Y8914286D01*
X229172857Y8914286D01*
X229077619Y8961905D01*
X229030000Y9009524D01*
X228982380Y9104762D01*
X228982380Y9295239D01*
X229030000Y9390477D01*
X229077619Y9438096D01*
X229172857Y9485715D01*
X229410952Y9485715D01*
X229506190Y9438096D01*
X229553809Y9390477D01*
X229601428Y9295239D01*
X229601428Y9104762D01*
X229553809Y9009524D01*
X229506190Y8961905D01*
X229410952Y8914286D01*
%TO.C,R6*%
X206582380Y8426667D02*
X206106190Y8760000D01*
X206582380Y8998096D02*
X205582380Y8998096D01*
X205582380Y8617143D01*
X205630000Y8521905D01*
X205677619Y8474286D01*
X205772857Y8426667D01*
X205915714Y8426667D01*
X206010952Y8474286D01*
X206058571Y8521905D01*
X206106190Y8617143D01*
X206106190Y8998096D01*
X205582380Y7569524D02*
X205582380Y7760000D01*
X205630000Y7855239D01*
X205677619Y7902858D01*
X205820476Y7998096D01*
X206010952Y8045715D01*
X206391904Y8045715D01*
X206487142Y7998096D01*
X206534761Y7950477D01*
X206582380Y7855239D01*
X206582380Y7664762D01*
X206534761Y7569524D01*
X206487142Y7521905D01*
X206391904Y7474286D01*
X206153809Y7474286D01*
X206058571Y7521905D01*
X206010952Y7569524D01*
X205963333Y7664762D01*
X205963333Y7855239D01*
X206010952Y7950477D01*
X206058571Y7998096D01*
X206153809Y8045715D01*
%TO.C,D90*%
X351504285Y105197620D02*
X351504285Y106197620D01*
X351266190Y106197620D01*
X351123333Y106150000D01*
X351028095Y106054762D01*
X350980476Y105959524D01*
X350932857Y105769048D01*
X350932857Y105626191D01*
X350980476Y105435715D01*
X351028095Y105340477D01*
X351123333Y105245239D01*
X351266190Y105197620D01*
X351504285Y105197620D01*
X350456666Y105197620D02*
X350266190Y105197620D01*
X350170952Y105245239D01*
X350123333Y105292858D01*
X350028095Y105435715D01*
X349980476Y105626191D01*
X349980476Y106007143D01*
X350028095Y106102381D01*
X350075714Y106150000D01*
X350170952Y106197620D01*
X350361428Y106197620D01*
X350456666Y106150000D01*
X350504285Y106102381D01*
X350551904Y106007143D01*
X350551904Y105769048D01*
X350504285Y105673810D01*
X350456666Y105626191D01*
X350361428Y105578572D01*
X350170952Y105578572D01*
X350075714Y105626191D01*
X350028095Y105673810D01*
X349980476Y105769048D01*
X349361428Y106197620D02*
X349266190Y106197620D01*
X349170952Y106150000D01*
X349123333Y106102381D01*
X349075714Y106007143D01*
X349028095Y105816667D01*
X349028095Y105578572D01*
X349075714Y105388096D01*
X349123333Y105292858D01*
X349170952Y105245239D01*
X349266190Y105197620D01*
X349361428Y105197620D01*
X349456666Y105245239D01*
X349504285Y105292858D01*
X349551904Y105388096D01*
X349599523Y105578572D01*
X349599523Y105816667D01*
X349551904Y106007143D01*
X349504285Y106102381D01*
X349456666Y106150000D01*
X349361428Y106197620D01*
%TO.C,D48*%
X192254285Y86087620D02*
X192254285Y87087620D01*
X192016190Y87087620D01*
X191873333Y87040000D01*
X191778095Y86944762D01*
X191730476Y86849524D01*
X191682857Y86659048D01*
X191682857Y86516191D01*
X191730476Y86325715D01*
X191778095Y86230477D01*
X191873333Y86135239D01*
X192016190Y86087620D01*
X192254285Y86087620D01*
X190825714Y86754286D02*
X190825714Y86087620D01*
X191063809Y87135239D02*
X191301904Y86420953D01*
X190682857Y86420953D01*
X190159047Y86659048D02*
X190254285Y86706667D01*
X190301904Y86754286D01*
X190349523Y86849524D01*
X190349523Y86897143D01*
X190301904Y86992381D01*
X190254285Y87040000D01*
X190159047Y87087620D01*
X189968571Y87087620D01*
X189873333Y87040000D01*
X189825714Y86992381D01*
X189778095Y86897143D01*
X189778095Y86849524D01*
X189825714Y86754286D01*
X189873333Y86706667D01*
X189968571Y86659048D01*
X190159047Y86659048D01*
X190254285Y86611429D01*
X190301904Y86563810D01*
X190349523Y86468572D01*
X190349523Y86278096D01*
X190301904Y86182858D01*
X190254285Y86135239D01*
X190159047Y86087620D01*
X189968571Y86087620D01*
X189873333Y86135239D01*
X189825714Y86182858D01*
X189778095Y86278096D01*
X189778095Y86468572D01*
X189825714Y86563810D01*
X189873333Y86611429D01*
X189968571Y86659048D01*
%TO.C,D63*%
X249354285Y85787620D02*
X249354285Y86787620D01*
X249116190Y86787620D01*
X248973333Y86740000D01*
X248878095Y86644762D01*
X248830476Y86549524D01*
X248782857Y86359048D01*
X248782857Y86216191D01*
X248830476Y86025715D01*
X248878095Y85930477D01*
X248973333Y85835239D01*
X249116190Y85787620D01*
X249354285Y85787620D01*
X247925714Y86787620D02*
X248116190Y86787620D01*
X248211428Y86740000D01*
X248259047Y86692381D01*
X248354285Y86549524D01*
X248401904Y86359048D01*
X248401904Y85978096D01*
X248354285Y85882858D01*
X248306666Y85835239D01*
X248211428Y85787620D01*
X248020952Y85787620D01*
X247925714Y85835239D01*
X247878095Y85882858D01*
X247830476Y85978096D01*
X247830476Y86216191D01*
X247878095Y86311429D01*
X247925714Y86359048D01*
X248020952Y86406667D01*
X248211428Y86406667D01*
X248306666Y86359048D01*
X248354285Y86311429D01*
X248401904Y86216191D01*
X247497142Y86787620D02*
X246878095Y86787620D01*
X247211428Y86406667D01*
X247068571Y86406667D01*
X246973333Y86359048D01*
X246925714Y86311429D01*
X246878095Y86216191D01*
X246878095Y85978096D01*
X246925714Y85882858D01*
X246973333Y85835239D01*
X247068571Y85787620D01*
X247354285Y85787620D01*
X247449523Y85835239D01*
X247497142Y85882858D01*
%TO.C,D25*%
X110634285Y47847620D02*
X110634285Y48847620D01*
X110396190Y48847620D01*
X110253333Y48800000D01*
X110158095Y48704762D01*
X110110476Y48609524D01*
X110062857Y48419048D01*
X110062857Y48276191D01*
X110110476Y48085715D01*
X110158095Y47990477D01*
X110253333Y47895239D01*
X110396190Y47847620D01*
X110634285Y47847620D01*
X109681904Y48752381D02*
X109634285Y48800000D01*
X109539047Y48847620D01*
X109300952Y48847620D01*
X109205714Y48800000D01*
X109158095Y48752381D01*
X109110476Y48657143D01*
X109110476Y48561905D01*
X109158095Y48419048D01*
X109729523Y47847620D01*
X109110476Y47847620D01*
X108205714Y48847620D02*
X108681904Y48847620D01*
X108729523Y48371429D01*
X108681904Y48419048D01*
X108586666Y48466667D01*
X108348571Y48466667D01*
X108253333Y48419048D01*
X108205714Y48371429D01*
X108158095Y48276191D01*
X108158095Y48038096D01*
X108205714Y47942858D01*
X108253333Y47895239D01*
X108348571Y47847620D01*
X108586666Y47847620D01*
X108681904Y47895239D01*
X108729523Y47942858D01*
%TO.C,D53*%
X211254285Y85987620D02*
X211254285Y86987620D01*
X211016190Y86987620D01*
X210873333Y86940000D01*
X210778095Y86844762D01*
X210730476Y86749524D01*
X210682857Y86559048D01*
X210682857Y86416191D01*
X210730476Y86225715D01*
X210778095Y86130477D01*
X210873333Y86035239D01*
X211016190Y85987620D01*
X211254285Y85987620D01*
X209778095Y86987620D02*
X210254285Y86987620D01*
X210301904Y86511429D01*
X210254285Y86559048D01*
X210159047Y86606667D01*
X209920952Y86606667D01*
X209825714Y86559048D01*
X209778095Y86511429D01*
X209730476Y86416191D01*
X209730476Y86178096D01*
X209778095Y86082858D01*
X209825714Y86035239D01*
X209920952Y85987620D01*
X210159047Y85987620D01*
X210254285Y86035239D01*
X210301904Y86082858D01*
X209397142Y86987620D02*
X208778095Y86987620D01*
X209111428Y86606667D01*
X208968571Y86606667D01*
X208873333Y86559048D01*
X208825714Y86511429D01*
X208778095Y86416191D01*
X208778095Y86178096D01*
X208825714Y86082858D01*
X208873333Y86035239D01*
X208968571Y85987620D01*
X209254285Y85987620D01*
X209349523Y86035239D01*
X209397142Y86082858D01*
%TO.C,D14*%
X69624285Y28917620D02*
X69624285Y29917620D01*
X69386190Y29917620D01*
X69243333Y29870000D01*
X69148095Y29774762D01*
X69100476Y29679524D01*
X69052857Y29489048D01*
X69052857Y29346191D01*
X69100476Y29155715D01*
X69148095Y29060477D01*
X69243333Y28965239D01*
X69386190Y28917620D01*
X69624285Y28917620D01*
X68100476Y28917620D02*
X68671904Y28917620D01*
X68386190Y28917620D02*
X68386190Y29917620D01*
X68481428Y29774762D01*
X68576666Y29679524D01*
X68671904Y29631905D01*
X67243333Y29584286D02*
X67243333Y28917620D01*
X67481428Y29965239D02*
X67719523Y29250953D01*
X67100476Y29250953D01*
%TO.C,D50*%
X200504285Y138357620D02*
X200504285Y139357620D01*
X200266190Y139357620D01*
X200123333Y139310000D01*
X200028095Y139214762D01*
X199980476Y139119524D01*
X199932857Y138929048D01*
X199932857Y138786191D01*
X199980476Y138595715D01*
X200028095Y138500477D01*
X200123333Y138405239D01*
X200266190Y138357620D01*
X200504285Y138357620D01*
X199028095Y139357620D02*
X199504285Y139357620D01*
X199551904Y138881429D01*
X199504285Y138929048D01*
X199409047Y138976667D01*
X199170952Y138976667D01*
X199075714Y138929048D01*
X199028095Y138881429D01*
X198980476Y138786191D01*
X198980476Y138548096D01*
X199028095Y138452858D01*
X199075714Y138405239D01*
X199170952Y138357620D01*
X199409047Y138357620D01*
X199504285Y138405239D01*
X199551904Y138452858D01*
X198361428Y139357620D02*
X198266190Y139357620D01*
X198170952Y139310000D01*
X198123333Y139262381D01*
X198075714Y139167143D01*
X198028095Y138976667D01*
X198028095Y138738572D01*
X198075714Y138548096D01*
X198123333Y138452858D01*
X198170952Y138405239D01*
X198266190Y138357620D01*
X198361428Y138357620D01*
X198456666Y138405239D01*
X198504285Y138452858D01*
X198551904Y138548096D01*
X198599523Y138738572D01*
X198599523Y138976667D01*
X198551904Y139167143D01*
X198504285Y139262381D01*
X198456666Y139310000D01*
X198361428Y139357620D01*
%TO.C,D47*%
X189824285Y28667620D02*
X189824285Y29667620D01*
X189586190Y29667620D01*
X189443333Y29620000D01*
X189348095Y29524762D01*
X189300476Y29429524D01*
X189252857Y29239048D01*
X189252857Y29096191D01*
X189300476Y28905715D01*
X189348095Y28810477D01*
X189443333Y28715239D01*
X189586190Y28667620D01*
X189824285Y28667620D01*
X188395714Y29334286D02*
X188395714Y28667620D01*
X188633809Y29715239D02*
X188871904Y29000953D01*
X188252857Y29000953D01*
X187967142Y29667620D02*
X187300476Y29667620D01*
X187729047Y28667620D01*
%TO.C,D6*%
X35703095Y120832620D02*
X35703095Y121832620D01*
X35465000Y121832620D01*
X35322142Y121785000D01*
X35226904Y121689762D01*
X35179285Y121594524D01*
X35131666Y121404048D01*
X35131666Y121261191D01*
X35179285Y121070715D01*
X35226904Y120975477D01*
X35322142Y120880239D01*
X35465000Y120832620D01*
X35703095Y120832620D01*
X34274523Y121832620D02*
X34465000Y121832620D01*
X34560238Y121785000D01*
X34607857Y121737381D01*
X34703095Y121594524D01*
X34750714Y121404048D01*
X34750714Y121023096D01*
X34703095Y120927858D01*
X34655476Y120880239D01*
X34560238Y120832620D01*
X34369761Y120832620D01*
X34274523Y120880239D01*
X34226904Y120927858D01*
X34179285Y121023096D01*
X34179285Y121261191D01*
X34226904Y121356429D01*
X34274523Y121404048D01*
X34369761Y121451667D01*
X34560238Y121451667D01*
X34655476Y121404048D01*
X34703095Y121356429D01*
X34750714Y121261191D01*
%TO.C,D45*%
X182704285Y104897620D02*
X182704285Y105897620D01*
X182466190Y105897620D01*
X182323333Y105850000D01*
X182228095Y105754762D01*
X182180476Y105659524D01*
X182132857Y105469048D01*
X182132857Y105326191D01*
X182180476Y105135715D01*
X182228095Y105040477D01*
X182323333Y104945239D01*
X182466190Y104897620D01*
X182704285Y104897620D01*
X181275714Y105564286D02*
X181275714Y104897620D01*
X181513809Y105945239D02*
X181751904Y105230953D01*
X181132857Y105230953D01*
X180275714Y105897620D02*
X180751904Y105897620D01*
X180799523Y105421429D01*
X180751904Y105469048D01*
X180656666Y105516667D01*
X180418571Y105516667D01*
X180323333Y105469048D01*
X180275714Y105421429D01*
X180228095Y105326191D01*
X180228095Y105088096D01*
X180275714Y104992858D01*
X180323333Y104945239D01*
X180418571Y104897620D01*
X180656666Y104897620D01*
X180751904Y104945239D01*
X180799523Y104992858D01*
%TO.C,D28*%
X119124285Y66887620D02*
X119124285Y67887620D01*
X118886190Y67887620D01*
X118743333Y67840000D01*
X118648095Y67744762D01*
X118600476Y67649524D01*
X118552857Y67459048D01*
X118552857Y67316191D01*
X118600476Y67125715D01*
X118648095Y67030477D01*
X118743333Y66935239D01*
X118886190Y66887620D01*
X119124285Y66887620D01*
X118171904Y67792381D02*
X118124285Y67840000D01*
X118029047Y67887620D01*
X117790952Y67887620D01*
X117695714Y67840000D01*
X117648095Y67792381D01*
X117600476Y67697143D01*
X117600476Y67601905D01*
X117648095Y67459048D01*
X118219523Y66887620D01*
X117600476Y66887620D01*
X117029047Y67459048D02*
X117124285Y67506667D01*
X117171904Y67554286D01*
X117219523Y67649524D01*
X117219523Y67697143D01*
X117171904Y67792381D01*
X117124285Y67840000D01*
X117029047Y67887620D01*
X116838571Y67887620D01*
X116743333Y67840000D01*
X116695714Y67792381D01*
X116648095Y67697143D01*
X116648095Y67649524D01*
X116695714Y67554286D01*
X116743333Y67506667D01*
X116838571Y67459048D01*
X117029047Y67459048D01*
X117124285Y67411429D01*
X117171904Y67363810D01*
X117219523Y67268572D01*
X117219523Y67078096D01*
X117171904Y66982858D01*
X117124285Y66935239D01*
X117029047Y66887620D01*
X116838571Y66887620D01*
X116743333Y66935239D01*
X116695714Y66982858D01*
X116648095Y67078096D01*
X116648095Y67268572D01*
X116695714Y67363810D01*
X116743333Y67411429D01*
X116838571Y67459048D01*
%TO.C,C5*%
X202407142Y21296667D02*
X202454761Y21344286D01*
X202502380Y21487143D01*
X202502380Y21582381D01*
X202454761Y21725239D01*
X202359523Y21820477D01*
X202264285Y21868096D01*
X202073809Y21915715D01*
X201930952Y21915715D01*
X201740476Y21868096D01*
X201645238Y21820477D01*
X201550000Y21725239D01*
X201502380Y21582381D01*
X201502380Y21487143D01*
X201550000Y21344286D01*
X201597619Y21296667D01*
X201502380Y20391905D02*
X201502380Y20868096D01*
X201978571Y20915715D01*
X201930952Y20868096D01*
X201883333Y20772858D01*
X201883333Y20534762D01*
X201930952Y20439524D01*
X201978571Y20391905D01*
X202073809Y20344286D01*
X202311904Y20344286D01*
X202407142Y20391905D01*
X202454761Y20439524D01*
X202502380Y20534762D01*
X202502380Y20772858D01*
X202454761Y20868096D01*
X202407142Y20915715D01*
%TO.C,D26*%
X115154285Y85887620D02*
X115154285Y86887620D01*
X114916190Y86887620D01*
X114773333Y86840000D01*
X114678095Y86744762D01*
X114630476Y86649524D01*
X114582857Y86459048D01*
X114582857Y86316191D01*
X114630476Y86125715D01*
X114678095Y86030477D01*
X114773333Y85935239D01*
X114916190Y85887620D01*
X115154285Y85887620D01*
X114201904Y86792381D02*
X114154285Y86840000D01*
X114059047Y86887620D01*
X113820952Y86887620D01*
X113725714Y86840000D01*
X113678095Y86792381D01*
X113630476Y86697143D01*
X113630476Y86601905D01*
X113678095Y86459048D01*
X114249523Y85887620D01*
X113630476Y85887620D01*
X112773333Y86887620D02*
X112963809Y86887620D01*
X113059047Y86840000D01*
X113106666Y86792381D01*
X113201904Y86649524D01*
X113249523Y86459048D01*
X113249523Y86078096D01*
X113201904Y85982858D01*
X113154285Y85935239D01*
X113059047Y85887620D01*
X112868571Y85887620D01*
X112773333Y85935239D01*
X112725714Y85982858D01*
X112678095Y86078096D01*
X112678095Y86316191D01*
X112725714Y86411429D01*
X112773333Y86459048D01*
X112868571Y86506667D01*
X113059047Y86506667D01*
X113154285Y86459048D01*
X113201904Y86411429D01*
X113249523Y86316191D01*
%TO.C,D42*%
X173254285Y86087620D02*
X173254285Y87087620D01*
X173016190Y87087620D01*
X172873333Y87040000D01*
X172778095Y86944762D01*
X172730476Y86849524D01*
X172682857Y86659048D01*
X172682857Y86516191D01*
X172730476Y86325715D01*
X172778095Y86230477D01*
X172873333Y86135239D01*
X173016190Y86087620D01*
X173254285Y86087620D01*
X171825714Y86754286D02*
X171825714Y86087620D01*
X172063809Y87135239D02*
X172301904Y86420953D01*
X171682857Y86420953D01*
X171349523Y86992381D02*
X171301904Y87040000D01*
X171206666Y87087620D01*
X170968571Y87087620D01*
X170873333Y87040000D01*
X170825714Y86992381D01*
X170778095Y86897143D01*
X170778095Y86801905D01*
X170825714Y86659048D01*
X171397142Y86087620D01*
X170778095Y86087620D01*
%TO.C,D62*%
X244034285Y47947620D02*
X244034285Y48947620D01*
X243796190Y48947620D01*
X243653333Y48900000D01*
X243558095Y48804762D01*
X243510476Y48709524D01*
X243462857Y48519048D01*
X243462857Y48376191D01*
X243510476Y48185715D01*
X243558095Y48090477D01*
X243653333Y47995239D01*
X243796190Y47947620D01*
X244034285Y47947620D01*
X242605714Y48947620D02*
X242796190Y48947620D01*
X242891428Y48900000D01*
X242939047Y48852381D01*
X243034285Y48709524D01*
X243081904Y48519048D01*
X243081904Y48138096D01*
X243034285Y48042858D01*
X242986666Y47995239D01*
X242891428Y47947620D01*
X242700952Y47947620D01*
X242605714Y47995239D01*
X242558095Y48042858D01*
X242510476Y48138096D01*
X242510476Y48376191D01*
X242558095Y48471429D01*
X242605714Y48519048D01*
X242700952Y48566667D01*
X242891428Y48566667D01*
X242986666Y48519048D01*
X243034285Y48471429D01*
X243081904Y48376191D01*
X242129523Y48852381D02*
X242081904Y48900000D01*
X241986666Y48947620D01*
X241748571Y48947620D01*
X241653333Y48900000D01*
X241605714Y48852381D01*
X241558095Y48757143D01*
X241558095Y48661905D01*
X241605714Y48519048D01*
X242177142Y47947620D01*
X241558095Y47947620D01*
%TO.C,D94*%
X349804285Y138557620D02*
X349804285Y139557620D01*
X349566190Y139557620D01*
X349423333Y139510000D01*
X349328095Y139414762D01*
X349280476Y139319524D01*
X349232857Y139129048D01*
X349232857Y138986191D01*
X349280476Y138795715D01*
X349328095Y138700477D01*
X349423333Y138605239D01*
X349566190Y138557620D01*
X349804285Y138557620D01*
X348756666Y138557620D02*
X348566190Y138557620D01*
X348470952Y138605239D01*
X348423333Y138652858D01*
X348328095Y138795715D01*
X348280476Y138986191D01*
X348280476Y139367143D01*
X348328095Y139462381D01*
X348375714Y139510000D01*
X348470952Y139557620D01*
X348661428Y139557620D01*
X348756666Y139510000D01*
X348804285Y139462381D01*
X348851904Y139367143D01*
X348851904Y139129048D01*
X348804285Y139033810D01*
X348756666Y138986191D01*
X348661428Y138938572D01*
X348470952Y138938572D01*
X348375714Y138986191D01*
X348328095Y139033810D01*
X348280476Y139129048D01*
X347423333Y139224286D02*
X347423333Y138557620D01*
X347661428Y139605239D02*
X347899523Y138890953D01*
X347280476Y138890953D01*
%TO.C,D83*%
X316074285Y28717620D02*
X316074285Y29717620D01*
X315836190Y29717620D01*
X315693333Y29670000D01*
X315598095Y29574762D01*
X315550476Y29479524D01*
X315502857Y29289048D01*
X315502857Y29146191D01*
X315550476Y28955715D01*
X315598095Y28860477D01*
X315693333Y28765239D01*
X315836190Y28717620D01*
X316074285Y28717620D01*
X314931428Y29289048D02*
X315026666Y29336667D01*
X315074285Y29384286D01*
X315121904Y29479524D01*
X315121904Y29527143D01*
X315074285Y29622381D01*
X315026666Y29670000D01*
X314931428Y29717620D01*
X314740952Y29717620D01*
X314645714Y29670000D01*
X314598095Y29622381D01*
X314550476Y29527143D01*
X314550476Y29479524D01*
X314598095Y29384286D01*
X314645714Y29336667D01*
X314740952Y29289048D01*
X314931428Y29289048D01*
X315026666Y29241429D01*
X315074285Y29193810D01*
X315121904Y29098572D01*
X315121904Y28908096D01*
X315074285Y28812858D01*
X315026666Y28765239D01*
X314931428Y28717620D01*
X314740952Y28717620D01*
X314645714Y28765239D01*
X314598095Y28812858D01*
X314550476Y28908096D01*
X314550476Y29098572D01*
X314598095Y29193810D01*
X314645714Y29241429D01*
X314740952Y29289048D01*
X314217142Y29717620D02*
X313598095Y29717620D01*
X313931428Y29336667D01*
X313788571Y29336667D01*
X313693333Y29289048D01*
X313645714Y29241429D01*
X313598095Y29146191D01*
X313598095Y28908096D01*
X313645714Y28812858D01*
X313693333Y28765239D01*
X313788571Y28717620D01*
X314074285Y28717620D01*
X314169523Y28765239D01*
X314217142Y28812858D01*
%TO.C,D92*%
X352474285Y66887620D02*
X352474285Y67887620D01*
X352236190Y67887620D01*
X352093333Y67840000D01*
X351998095Y67744762D01*
X351950476Y67649524D01*
X351902857Y67459048D01*
X351902857Y67316191D01*
X351950476Y67125715D01*
X351998095Y67030477D01*
X352093333Y66935239D01*
X352236190Y66887620D01*
X352474285Y66887620D01*
X351426666Y66887620D02*
X351236190Y66887620D01*
X351140952Y66935239D01*
X351093333Y66982858D01*
X350998095Y67125715D01*
X350950476Y67316191D01*
X350950476Y67697143D01*
X350998095Y67792381D01*
X351045714Y67840000D01*
X351140952Y67887620D01*
X351331428Y67887620D01*
X351426666Y67840000D01*
X351474285Y67792381D01*
X351521904Y67697143D01*
X351521904Y67459048D01*
X351474285Y67363810D01*
X351426666Y67316191D01*
X351331428Y67268572D01*
X351140952Y67268572D01*
X351045714Y67316191D01*
X350998095Y67363810D01*
X350950476Y67459048D01*
X350569523Y67792381D02*
X350521904Y67840000D01*
X350426666Y67887620D01*
X350188571Y67887620D01*
X350093333Y67840000D01*
X350045714Y67792381D01*
X349998095Y67697143D01*
X349998095Y67601905D01*
X350045714Y67459048D01*
X350617142Y66887620D01*
X349998095Y66887620D01*
%TO.C,D11*%
X37924285Y28917620D02*
X37924285Y29917620D01*
X37686190Y29917620D01*
X37543333Y29870000D01*
X37448095Y29774762D01*
X37400476Y29679524D01*
X37352857Y29489048D01*
X37352857Y29346191D01*
X37400476Y29155715D01*
X37448095Y29060477D01*
X37543333Y28965239D01*
X37686190Y28917620D01*
X37924285Y28917620D01*
X36400476Y28917620D02*
X36971904Y28917620D01*
X36686190Y28917620D02*
X36686190Y29917620D01*
X36781428Y29774762D01*
X36876666Y29679524D01*
X36971904Y29631905D01*
X35448095Y28917620D02*
X36019523Y28917620D01*
X35733809Y28917620D02*
X35733809Y29917620D01*
X35829047Y29774762D01*
X35924285Y29679524D01*
X36019523Y29631905D01*
%TO.C,D22*%
X100124285Y66837620D02*
X100124285Y67837620D01*
X99886190Y67837620D01*
X99743333Y67790000D01*
X99648095Y67694762D01*
X99600476Y67599524D01*
X99552857Y67409048D01*
X99552857Y67266191D01*
X99600476Y67075715D01*
X99648095Y66980477D01*
X99743333Y66885239D01*
X99886190Y66837620D01*
X100124285Y66837620D01*
X99171904Y67742381D02*
X99124285Y67790000D01*
X99029047Y67837620D01*
X98790952Y67837620D01*
X98695714Y67790000D01*
X98648095Y67742381D01*
X98600476Y67647143D01*
X98600476Y67551905D01*
X98648095Y67409048D01*
X99219523Y66837620D01*
X98600476Y66837620D01*
X98219523Y67742381D02*
X98171904Y67790000D01*
X98076666Y67837620D01*
X97838571Y67837620D01*
X97743333Y67790000D01*
X97695714Y67742381D01*
X97648095Y67647143D01*
X97648095Y67551905D01*
X97695714Y67409048D01*
X98267142Y66837620D01*
X97648095Y66837620D01*
%TO.C,C10*%
X204647142Y7052858D02*
X204694761Y7100477D01*
X204742380Y7243334D01*
X204742380Y7338572D01*
X204694761Y7481429D01*
X204599523Y7576667D01*
X204504285Y7624286D01*
X204313809Y7671905D01*
X204170952Y7671905D01*
X203980476Y7624286D01*
X203885238Y7576667D01*
X203790000Y7481429D01*
X203742380Y7338572D01*
X203742380Y7243334D01*
X203790000Y7100477D01*
X203837619Y7052858D01*
X204742380Y6100477D02*
X204742380Y6671905D01*
X204742380Y6386191D02*
X203742380Y6386191D01*
X203885238Y6481429D01*
X203980476Y6576667D01*
X204028095Y6671905D01*
X203742380Y5481429D02*
X203742380Y5386191D01*
X203790000Y5290953D01*
X203837619Y5243334D01*
X203932857Y5195715D01*
X204123333Y5148096D01*
X204361428Y5148096D01*
X204551904Y5195715D01*
X204647142Y5243334D01*
X204694761Y5290953D01*
X204742380Y5386191D01*
X204742380Y5481429D01*
X204694761Y5576667D01*
X204647142Y5624286D01*
X204551904Y5671905D01*
X204361428Y5719524D01*
X204123333Y5719524D01*
X203932857Y5671905D01*
X203837619Y5624286D01*
X203790000Y5576667D01*
X203742380Y5481429D01*
%TO.C,D19*%
X87404285Y104997620D02*
X87404285Y105997620D01*
X87166190Y105997620D01*
X87023333Y105950000D01*
X86928095Y105854762D01*
X86880476Y105759524D01*
X86832857Y105569048D01*
X86832857Y105426191D01*
X86880476Y105235715D01*
X86928095Y105140477D01*
X87023333Y105045239D01*
X87166190Y104997620D01*
X87404285Y104997620D01*
X85880476Y104997620D02*
X86451904Y104997620D01*
X86166190Y104997620D02*
X86166190Y105997620D01*
X86261428Y105854762D01*
X86356666Y105759524D01*
X86451904Y105711905D01*
X85404285Y104997620D02*
X85213809Y104997620D01*
X85118571Y105045239D01*
X85070952Y105092858D01*
X84975714Y105235715D01*
X84928095Y105426191D01*
X84928095Y105807143D01*
X84975714Y105902381D01*
X85023333Y105950000D01*
X85118571Y105997620D01*
X85309047Y105997620D01*
X85404285Y105950000D01*
X85451904Y105902381D01*
X85499523Y105807143D01*
X85499523Y105569048D01*
X85451904Y105473810D01*
X85404285Y105426191D01*
X85309047Y105378572D01*
X85118571Y105378572D01*
X85023333Y105426191D01*
X84975714Y105473810D01*
X84928095Y105569048D01*
%TO.C,D54*%
X214374285Y66837620D02*
X214374285Y67837620D01*
X214136190Y67837620D01*
X213993333Y67790000D01*
X213898095Y67694762D01*
X213850476Y67599524D01*
X213802857Y67409048D01*
X213802857Y67266191D01*
X213850476Y67075715D01*
X213898095Y66980477D01*
X213993333Y66885239D01*
X214136190Y66837620D01*
X214374285Y66837620D01*
X212898095Y67837620D02*
X213374285Y67837620D01*
X213421904Y67361429D01*
X213374285Y67409048D01*
X213279047Y67456667D01*
X213040952Y67456667D01*
X212945714Y67409048D01*
X212898095Y67361429D01*
X212850476Y67266191D01*
X212850476Y67028096D01*
X212898095Y66932858D01*
X212945714Y66885239D01*
X213040952Y66837620D01*
X213279047Y66837620D01*
X213374285Y66885239D01*
X213421904Y66932858D01*
X211993333Y67504286D02*
X211993333Y66837620D01*
X212231428Y67885239D02*
X212469523Y67170953D01*
X211850476Y67170953D01*
%TO.C,D91*%
X350854285Y85787620D02*
X350854285Y86787620D01*
X350616190Y86787620D01*
X350473333Y86740000D01*
X350378095Y86644762D01*
X350330476Y86549524D01*
X350282857Y86359048D01*
X350282857Y86216191D01*
X350330476Y86025715D01*
X350378095Y85930477D01*
X350473333Y85835239D01*
X350616190Y85787620D01*
X350854285Y85787620D01*
X349806666Y85787620D02*
X349616190Y85787620D01*
X349520952Y85835239D01*
X349473333Y85882858D01*
X349378095Y86025715D01*
X349330476Y86216191D01*
X349330476Y86597143D01*
X349378095Y86692381D01*
X349425714Y86740000D01*
X349520952Y86787620D01*
X349711428Y86787620D01*
X349806666Y86740000D01*
X349854285Y86692381D01*
X349901904Y86597143D01*
X349901904Y86359048D01*
X349854285Y86263810D01*
X349806666Y86216191D01*
X349711428Y86168572D01*
X349520952Y86168572D01*
X349425714Y86216191D01*
X349378095Y86263810D01*
X349330476Y86359048D01*
X348378095Y85787620D02*
X348949523Y85787620D01*
X348663809Y85787620D02*
X348663809Y86787620D01*
X348759047Y86644762D01*
X348854285Y86549524D01*
X348949523Y86501905D01*
%TO.C,D71*%
X277304285Y138157620D02*
X277304285Y139157620D01*
X277066190Y139157620D01*
X276923333Y139110000D01*
X276828095Y139014762D01*
X276780476Y138919524D01*
X276732857Y138729048D01*
X276732857Y138586191D01*
X276780476Y138395715D01*
X276828095Y138300477D01*
X276923333Y138205239D01*
X277066190Y138157620D01*
X277304285Y138157620D01*
X276399523Y139157620D02*
X275732857Y139157620D01*
X276161428Y138157620D01*
X274828095Y138157620D02*
X275399523Y138157620D01*
X275113809Y138157620D02*
X275113809Y139157620D01*
X275209047Y139014762D01*
X275304285Y138919524D01*
X275399523Y138871905D01*
%TO.C,D76*%
X290624285Y66937620D02*
X290624285Y67937620D01*
X290386190Y67937620D01*
X290243333Y67890000D01*
X290148095Y67794762D01*
X290100476Y67699524D01*
X290052857Y67509048D01*
X290052857Y67366191D01*
X290100476Y67175715D01*
X290148095Y67080477D01*
X290243333Y66985239D01*
X290386190Y66937620D01*
X290624285Y66937620D01*
X289719523Y67937620D02*
X289052857Y67937620D01*
X289481428Y66937620D01*
X288243333Y67937620D02*
X288433809Y67937620D01*
X288529047Y67890000D01*
X288576666Y67842381D01*
X288671904Y67699524D01*
X288719523Y67509048D01*
X288719523Y67128096D01*
X288671904Y67032858D01*
X288624285Y66985239D01*
X288529047Y66937620D01*
X288338571Y66937620D01*
X288243333Y66985239D01*
X288195714Y67032858D01*
X288148095Y67128096D01*
X288148095Y67366191D01*
X288195714Y67461429D01*
X288243333Y67509048D01*
X288338571Y67556667D01*
X288529047Y67556667D01*
X288624285Y67509048D01*
X288671904Y67461429D01*
X288719523Y67366191D01*
%TO.C,D72*%
X277904285Y104897620D02*
X277904285Y105897620D01*
X277666190Y105897620D01*
X277523333Y105850000D01*
X277428095Y105754762D01*
X277380476Y105659524D01*
X277332857Y105469048D01*
X277332857Y105326191D01*
X277380476Y105135715D01*
X277428095Y105040477D01*
X277523333Y104945239D01*
X277666190Y104897620D01*
X277904285Y104897620D01*
X276999523Y105897620D02*
X276332857Y105897620D01*
X276761428Y104897620D01*
X275999523Y105802381D02*
X275951904Y105850000D01*
X275856666Y105897620D01*
X275618571Y105897620D01*
X275523333Y105850000D01*
X275475714Y105802381D01*
X275428095Y105707143D01*
X275428095Y105611905D01*
X275475714Y105469048D01*
X276047142Y104897620D01*
X275428095Y104897620D01*
%TO.C,D73*%
X277974285Y28767620D02*
X277974285Y29767620D01*
X277736190Y29767620D01*
X277593333Y29720000D01*
X277498095Y29624762D01*
X277450476Y29529524D01*
X277402857Y29339048D01*
X277402857Y29196191D01*
X277450476Y29005715D01*
X277498095Y28910477D01*
X277593333Y28815239D01*
X277736190Y28767620D01*
X277974285Y28767620D01*
X277069523Y29767620D02*
X276402857Y29767620D01*
X276831428Y28767620D01*
X276117142Y29767620D02*
X275498095Y29767620D01*
X275831428Y29386667D01*
X275688571Y29386667D01*
X275593333Y29339048D01*
X275545714Y29291429D01*
X275498095Y29196191D01*
X275498095Y28958096D01*
X275545714Y28862858D01*
X275593333Y28815239D01*
X275688571Y28767620D01*
X275974285Y28767620D01*
X276069523Y28815239D01*
X276117142Y28862858D01*
%TO.C,C6*%
X211457142Y18596667D02*
X211504761Y18644286D01*
X211552380Y18787143D01*
X211552380Y18882381D01*
X211504761Y19025239D01*
X211409523Y19120477D01*
X211314285Y19168096D01*
X211123809Y19215715D01*
X210980952Y19215715D01*
X210790476Y19168096D01*
X210695238Y19120477D01*
X210600000Y19025239D01*
X210552380Y18882381D01*
X210552380Y18787143D01*
X210600000Y18644286D01*
X210647619Y18596667D01*
X210552380Y17739524D02*
X210552380Y17930000D01*
X210600000Y18025239D01*
X210647619Y18072858D01*
X210790476Y18168096D01*
X210980952Y18215715D01*
X211361904Y18215715D01*
X211457142Y18168096D01*
X211504761Y18120477D01*
X211552380Y18025239D01*
X211552380Y17834762D01*
X211504761Y17739524D01*
X211457142Y17691905D01*
X211361904Y17644286D01*
X211123809Y17644286D01*
X211028571Y17691905D01*
X210980952Y17739524D01*
X210933333Y17834762D01*
X210933333Y18025239D01*
X210980952Y18120477D01*
X211028571Y18168096D01*
X211123809Y18215715D01*
%TO.C,D13*%
X66404285Y105197620D02*
X66404285Y106197620D01*
X66166190Y106197620D01*
X66023333Y106150000D01*
X65928095Y106054762D01*
X65880476Y105959524D01*
X65832857Y105769048D01*
X65832857Y105626191D01*
X65880476Y105435715D01*
X65928095Y105340477D01*
X66023333Y105245239D01*
X66166190Y105197620D01*
X66404285Y105197620D01*
X64880476Y105197620D02*
X65451904Y105197620D01*
X65166190Y105197620D02*
X65166190Y106197620D01*
X65261428Y106054762D01*
X65356666Y105959524D01*
X65451904Y105911905D01*
X64547142Y106197620D02*
X63928095Y106197620D01*
X64261428Y105816667D01*
X64118571Y105816667D01*
X64023333Y105769048D01*
X63975714Y105721429D01*
X63928095Y105626191D01*
X63928095Y105388096D01*
X63975714Y105292858D01*
X64023333Y105245239D01*
X64118571Y105197620D01*
X64404285Y105197620D01*
X64499523Y105245239D01*
X64547142Y105292858D01*
%TO.C,D16*%
X72374285Y66787620D02*
X72374285Y67787620D01*
X72136190Y67787620D01*
X71993333Y67740000D01*
X71898095Y67644762D01*
X71850476Y67549524D01*
X71802857Y67359048D01*
X71802857Y67216191D01*
X71850476Y67025715D01*
X71898095Y66930477D01*
X71993333Y66835239D01*
X72136190Y66787620D01*
X72374285Y66787620D01*
X70850476Y66787620D02*
X71421904Y66787620D01*
X71136190Y66787620D02*
X71136190Y67787620D01*
X71231428Y67644762D01*
X71326666Y67549524D01*
X71421904Y67501905D01*
X69993333Y67787620D02*
X70183809Y67787620D01*
X70279047Y67740000D01*
X70326666Y67692381D01*
X70421904Y67549524D01*
X70469523Y67359048D01*
X70469523Y66978096D01*
X70421904Y66882858D01*
X70374285Y66835239D01*
X70279047Y66787620D01*
X70088571Y66787620D01*
X69993333Y66835239D01*
X69945714Y66882858D01*
X69898095Y66978096D01*
X69898095Y67216191D01*
X69945714Y67311429D01*
X69993333Y67359048D01*
X70088571Y67406667D01*
X70279047Y67406667D01*
X70374285Y67359048D01*
X70421904Y67311429D01*
X70469523Y67216191D01*
%TO.C,D31*%
X129734285Y47797620D02*
X129734285Y48797620D01*
X129496190Y48797620D01*
X129353333Y48750000D01*
X129258095Y48654762D01*
X129210476Y48559524D01*
X129162857Y48369048D01*
X129162857Y48226191D01*
X129210476Y48035715D01*
X129258095Y47940477D01*
X129353333Y47845239D01*
X129496190Y47797620D01*
X129734285Y47797620D01*
X128829523Y48797620D02*
X128210476Y48797620D01*
X128543809Y48416667D01*
X128400952Y48416667D01*
X128305714Y48369048D01*
X128258095Y48321429D01*
X128210476Y48226191D01*
X128210476Y47988096D01*
X128258095Y47892858D01*
X128305714Y47845239D01*
X128400952Y47797620D01*
X128686666Y47797620D01*
X128781904Y47845239D01*
X128829523Y47892858D01*
X127258095Y47797620D02*
X127829523Y47797620D01*
X127543809Y47797620D02*
X127543809Y48797620D01*
X127639047Y48654762D01*
X127734285Y48559524D01*
X127829523Y48511905D01*
%TO.C,D21*%
X96454285Y85687620D02*
X96454285Y86687620D01*
X96216190Y86687620D01*
X96073333Y86640000D01*
X95978095Y86544762D01*
X95930476Y86449524D01*
X95882857Y86259048D01*
X95882857Y86116191D01*
X95930476Y85925715D01*
X95978095Y85830477D01*
X96073333Y85735239D01*
X96216190Y85687620D01*
X96454285Y85687620D01*
X95501904Y86592381D02*
X95454285Y86640000D01*
X95359047Y86687620D01*
X95120952Y86687620D01*
X95025714Y86640000D01*
X94978095Y86592381D01*
X94930476Y86497143D01*
X94930476Y86401905D01*
X94978095Y86259048D01*
X95549523Y85687620D01*
X94930476Y85687620D01*
X93978095Y85687620D02*
X94549523Y85687620D01*
X94263809Y85687620D02*
X94263809Y86687620D01*
X94359047Y86544762D01*
X94454285Y86449524D01*
X94549523Y86401905D01*
%TO.C,D95*%
X354174285Y28617620D02*
X354174285Y29617620D01*
X353936190Y29617620D01*
X353793333Y29570000D01*
X353698095Y29474762D01*
X353650476Y29379524D01*
X353602857Y29189048D01*
X353602857Y29046191D01*
X353650476Y28855715D01*
X353698095Y28760477D01*
X353793333Y28665239D01*
X353936190Y28617620D01*
X354174285Y28617620D01*
X353126666Y28617620D02*
X352936190Y28617620D01*
X352840952Y28665239D01*
X352793333Y28712858D01*
X352698095Y28855715D01*
X352650476Y29046191D01*
X352650476Y29427143D01*
X352698095Y29522381D01*
X352745714Y29570000D01*
X352840952Y29617620D01*
X353031428Y29617620D01*
X353126666Y29570000D01*
X353174285Y29522381D01*
X353221904Y29427143D01*
X353221904Y29189048D01*
X353174285Y29093810D01*
X353126666Y29046191D01*
X353031428Y28998572D01*
X352840952Y28998572D01*
X352745714Y29046191D01*
X352698095Y29093810D01*
X352650476Y29189048D01*
X351745714Y29617620D02*
X352221904Y29617620D01*
X352269523Y29141429D01*
X352221904Y29189048D01*
X352126666Y29236667D01*
X351888571Y29236667D01*
X351793333Y29189048D01*
X351745714Y29141429D01*
X351698095Y29046191D01*
X351698095Y28808096D01*
X351745714Y28712858D01*
X351793333Y28665239D01*
X351888571Y28617620D01*
X352126666Y28617620D01*
X352221904Y28665239D01*
X352269523Y28712858D01*
%TO.C,C7*%
X223661666Y23342858D02*
X223709285Y23295239D01*
X223852142Y23247620D01*
X223947380Y23247620D01*
X224090238Y23295239D01*
X224185476Y23390477D01*
X224233095Y23485715D01*
X224280714Y23676191D01*
X224280714Y23819048D01*
X224233095Y24009524D01*
X224185476Y24104762D01*
X224090238Y24200000D01*
X223947380Y24247620D01*
X223852142Y24247620D01*
X223709285Y24200000D01*
X223661666Y24152381D01*
X223328333Y24247620D02*
X222661666Y24247620D01*
X223090238Y23247620D01*
%TO.C,D82*%
X315004285Y138157620D02*
X315004285Y139157620D01*
X314766190Y139157620D01*
X314623333Y139110000D01*
X314528095Y139014762D01*
X314480476Y138919524D01*
X314432857Y138729048D01*
X314432857Y138586191D01*
X314480476Y138395715D01*
X314528095Y138300477D01*
X314623333Y138205239D01*
X314766190Y138157620D01*
X315004285Y138157620D01*
X313861428Y138729048D02*
X313956666Y138776667D01*
X314004285Y138824286D01*
X314051904Y138919524D01*
X314051904Y138967143D01*
X314004285Y139062381D01*
X313956666Y139110000D01*
X313861428Y139157620D01*
X313670952Y139157620D01*
X313575714Y139110000D01*
X313528095Y139062381D01*
X313480476Y138967143D01*
X313480476Y138919524D01*
X313528095Y138824286D01*
X313575714Y138776667D01*
X313670952Y138729048D01*
X313861428Y138729048D01*
X313956666Y138681429D01*
X314004285Y138633810D01*
X314051904Y138538572D01*
X314051904Y138348096D01*
X314004285Y138252858D01*
X313956666Y138205239D01*
X313861428Y138157620D01*
X313670952Y138157620D01*
X313575714Y138205239D01*
X313528095Y138252858D01*
X313480476Y138348096D01*
X313480476Y138538572D01*
X313528095Y138633810D01*
X313575714Y138681429D01*
X313670952Y138729048D01*
X313099523Y139062381D02*
X313051904Y139110000D01*
X312956666Y139157620D01*
X312718571Y139157620D01*
X312623333Y139110000D01*
X312575714Y139062381D01*
X312528095Y138967143D01*
X312528095Y138871905D01*
X312575714Y138729048D01*
X313147142Y138157620D01*
X312528095Y138157620D01*
%TO.C,D88*%
X335124285Y28717620D02*
X335124285Y29717620D01*
X334886190Y29717620D01*
X334743333Y29670000D01*
X334648095Y29574762D01*
X334600476Y29479524D01*
X334552857Y29289048D01*
X334552857Y29146191D01*
X334600476Y28955715D01*
X334648095Y28860477D01*
X334743333Y28765239D01*
X334886190Y28717620D01*
X335124285Y28717620D01*
X333981428Y29289048D02*
X334076666Y29336667D01*
X334124285Y29384286D01*
X334171904Y29479524D01*
X334171904Y29527143D01*
X334124285Y29622381D01*
X334076666Y29670000D01*
X333981428Y29717620D01*
X333790952Y29717620D01*
X333695714Y29670000D01*
X333648095Y29622381D01*
X333600476Y29527143D01*
X333600476Y29479524D01*
X333648095Y29384286D01*
X333695714Y29336667D01*
X333790952Y29289048D01*
X333981428Y29289048D01*
X334076666Y29241429D01*
X334124285Y29193810D01*
X334171904Y29098572D01*
X334171904Y28908096D01*
X334124285Y28812858D01*
X334076666Y28765239D01*
X333981428Y28717620D01*
X333790952Y28717620D01*
X333695714Y28765239D01*
X333648095Y28812858D01*
X333600476Y28908096D01*
X333600476Y29098572D01*
X333648095Y29193810D01*
X333695714Y29241429D01*
X333790952Y29289048D01*
X333029047Y29289048D02*
X333124285Y29336667D01*
X333171904Y29384286D01*
X333219523Y29479524D01*
X333219523Y29527143D01*
X333171904Y29622381D01*
X333124285Y29670000D01*
X333029047Y29717620D01*
X332838571Y29717620D01*
X332743333Y29670000D01*
X332695714Y29622381D01*
X332648095Y29527143D01*
X332648095Y29479524D01*
X332695714Y29384286D01*
X332743333Y29336667D01*
X332838571Y29289048D01*
X333029047Y29289048D01*
X333124285Y29241429D01*
X333171904Y29193810D01*
X333219523Y29098572D01*
X333219523Y28908096D01*
X333171904Y28812858D01*
X333124285Y28765239D01*
X333029047Y28717620D01*
X332838571Y28717620D01*
X332743333Y28765239D01*
X332695714Y28812858D01*
X332648095Y28908096D01*
X332648095Y29098572D01*
X332695714Y29193810D01*
X332743333Y29241429D01*
X332838571Y29289048D01*
%TO.C,D66*%
X258904285Y104797620D02*
X258904285Y105797620D01*
X258666190Y105797620D01*
X258523333Y105750000D01*
X258428095Y105654762D01*
X258380476Y105559524D01*
X258332857Y105369048D01*
X258332857Y105226191D01*
X258380476Y105035715D01*
X258428095Y104940477D01*
X258523333Y104845239D01*
X258666190Y104797620D01*
X258904285Y104797620D01*
X257475714Y105797620D02*
X257666190Y105797620D01*
X257761428Y105750000D01*
X257809047Y105702381D01*
X257904285Y105559524D01*
X257951904Y105369048D01*
X257951904Y104988096D01*
X257904285Y104892858D01*
X257856666Y104845239D01*
X257761428Y104797620D01*
X257570952Y104797620D01*
X257475714Y104845239D01*
X257428095Y104892858D01*
X257380476Y104988096D01*
X257380476Y105226191D01*
X257428095Y105321429D01*
X257475714Y105369048D01*
X257570952Y105416667D01*
X257761428Y105416667D01*
X257856666Y105369048D01*
X257904285Y105321429D01*
X257951904Y105226191D01*
X256523333Y105797620D02*
X256713809Y105797620D01*
X256809047Y105750000D01*
X256856666Y105702381D01*
X256951904Y105559524D01*
X256999523Y105369048D01*
X256999523Y104988096D01*
X256951904Y104892858D01*
X256904285Y104845239D01*
X256809047Y104797620D01*
X256618571Y104797620D01*
X256523333Y104845239D01*
X256475714Y104892858D01*
X256428095Y104988096D01*
X256428095Y105226191D01*
X256475714Y105321429D01*
X256523333Y105369048D01*
X256618571Y105416667D01*
X256809047Y105416667D01*
X256904285Y105369048D01*
X256951904Y105321429D01*
X256999523Y105226191D01*
%TO.C,D23*%
X105804285Y138257620D02*
X105804285Y139257620D01*
X105566190Y139257620D01*
X105423333Y139210000D01*
X105328095Y139114762D01*
X105280476Y139019524D01*
X105232857Y138829048D01*
X105232857Y138686191D01*
X105280476Y138495715D01*
X105328095Y138400477D01*
X105423333Y138305239D01*
X105566190Y138257620D01*
X105804285Y138257620D01*
X104851904Y139162381D02*
X104804285Y139210000D01*
X104709047Y139257620D01*
X104470952Y139257620D01*
X104375714Y139210000D01*
X104328095Y139162381D01*
X104280476Y139067143D01*
X104280476Y138971905D01*
X104328095Y138829048D01*
X104899523Y138257620D01*
X104280476Y138257620D01*
X103947142Y139257620D02*
X103328095Y139257620D01*
X103661428Y138876667D01*
X103518571Y138876667D01*
X103423333Y138829048D01*
X103375714Y138781429D01*
X103328095Y138686191D01*
X103328095Y138448096D01*
X103375714Y138352858D01*
X103423333Y138305239D01*
X103518571Y138257620D01*
X103804285Y138257620D01*
X103899523Y138305239D01*
X103947142Y138352858D01*
%TO.C,D75*%
X287554285Y85987620D02*
X287554285Y86987620D01*
X287316190Y86987620D01*
X287173333Y86940000D01*
X287078095Y86844762D01*
X287030476Y86749524D01*
X286982857Y86559048D01*
X286982857Y86416191D01*
X287030476Y86225715D01*
X287078095Y86130477D01*
X287173333Y86035239D01*
X287316190Y85987620D01*
X287554285Y85987620D01*
X286649523Y86987620D02*
X285982857Y86987620D01*
X286411428Y85987620D01*
X285125714Y86987620D02*
X285601904Y86987620D01*
X285649523Y86511429D01*
X285601904Y86559048D01*
X285506666Y86606667D01*
X285268571Y86606667D01*
X285173333Y86559048D01*
X285125714Y86511429D01*
X285078095Y86416191D01*
X285078095Y86178096D01*
X285125714Y86082858D01*
X285173333Y86035239D01*
X285268571Y85987620D01*
X285506666Y85987620D01*
X285601904Y86035239D01*
X285649523Y86082858D01*
%TO.C,D77*%
X296104285Y138157620D02*
X296104285Y139157620D01*
X295866190Y139157620D01*
X295723333Y139110000D01*
X295628095Y139014762D01*
X295580476Y138919524D01*
X295532857Y138729048D01*
X295532857Y138586191D01*
X295580476Y138395715D01*
X295628095Y138300477D01*
X295723333Y138205239D01*
X295866190Y138157620D01*
X296104285Y138157620D01*
X295199523Y139157620D02*
X294532857Y139157620D01*
X294961428Y138157620D01*
X294247142Y139157620D02*
X293580476Y139157620D01*
X294009047Y138157620D01*
%TO.C,SW2*%
X153598333Y23180239D02*
X153455476Y23132620D01*
X153217380Y23132620D01*
X153122142Y23180239D01*
X153074523Y23227858D01*
X153026904Y23323096D01*
X153026904Y23418334D01*
X153074523Y23513572D01*
X153122142Y23561191D01*
X153217380Y23608810D01*
X153407857Y23656429D01*
X153503095Y23704048D01*
X153550714Y23751667D01*
X153598333Y23846905D01*
X153598333Y23942143D01*
X153550714Y24037381D01*
X153503095Y24085000D01*
X153407857Y24132620D01*
X153169761Y24132620D01*
X153026904Y24085000D01*
X152693571Y24132620D02*
X152455476Y23132620D01*
X152265000Y23846905D01*
X152074523Y23132620D01*
X151836428Y24132620D01*
X151503095Y24037381D02*
X151455476Y24085000D01*
X151360238Y24132620D01*
X151122142Y24132620D01*
X151026904Y24085000D01*
X150979285Y24037381D01*
X150931666Y23942143D01*
X150931666Y23846905D01*
X150979285Y23704048D01*
X151550714Y23132620D01*
X150931666Y23132620D01*
%TO.C,D43*%
X176274285Y66787620D02*
X176274285Y67787620D01*
X176036190Y67787620D01*
X175893333Y67740000D01*
X175798095Y67644762D01*
X175750476Y67549524D01*
X175702857Y67359048D01*
X175702857Y67216191D01*
X175750476Y67025715D01*
X175798095Y66930477D01*
X175893333Y66835239D01*
X176036190Y66787620D01*
X176274285Y66787620D01*
X174845714Y67454286D02*
X174845714Y66787620D01*
X175083809Y67835239D02*
X175321904Y67120953D01*
X174702857Y67120953D01*
X174417142Y67787620D02*
X173798095Y67787620D01*
X174131428Y67406667D01*
X173988571Y67406667D01*
X173893333Y67359048D01*
X173845714Y67311429D01*
X173798095Y67216191D01*
X173798095Y66978096D01*
X173845714Y66882858D01*
X173893333Y66835239D01*
X173988571Y66787620D01*
X174274285Y66787620D01*
X174369523Y66835239D01*
X174417142Y66882858D01*
%TO.C,SW1*%
X153498333Y16480239D02*
X153355476Y16432620D01*
X153117380Y16432620D01*
X153022142Y16480239D01*
X152974523Y16527858D01*
X152926904Y16623096D01*
X152926904Y16718334D01*
X152974523Y16813572D01*
X153022142Y16861191D01*
X153117380Y16908810D01*
X153307857Y16956429D01*
X153403095Y17004048D01*
X153450714Y17051667D01*
X153498333Y17146905D01*
X153498333Y17242143D01*
X153450714Y17337381D01*
X153403095Y17385000D01*
X153307857Y17432620D01*
X153069761Y17432620D01*
X152926904Y17385000D01*
X152593571Y17432620D02*
X152355476Y16432620D01*
X152165000Y17146905D01*
X151974523Y16432620D01*
X151736428Y17432620D01*
X150831666Y16432620D02*
X151403095Y16432620D01*
X151117380Y16432620D02*
X151117380Y17432620D01*
X151212619Y17289762D01*
X151307857Y17194524D01*
X151403095Y17146905D01*
%TO.C,U3*%
X205626904Y25832620D02*
X205626904Y25023096D01*
X205579285Y24927858D01*
X205531666Y24880239D01*
X205436428Y24832620D01*
X205245952Y24832620D01*
X205150714Y24880239D01*
X205103095Y24927858D01*
X205055476Y25023096D01*
X205055476Y25832620D01*
X204674523Y25832620D02*
X204055476Y25832620D01*
X204388809Y25451667D01*
X204245952Y25451667D01*
X204150714Y25404048D01*
X204103095Y25356429D01*
X204055476Y25261191D01*
X204055476Y25023096D01*
X204103095Y24927858D01*
X204150714Y24880239D01*
X204245952Y24832620D01*
X204531666Y24832620D01*
X204626904Y24880239D01*
X204674523Y24927858D01*
%TO.C,R4*%
X36902380Y131221667D02*
X36426190Y131555000D01*
X36902380Y131793096D02*
X35902380Y131793096D01*
X35902380Y131412143D01*
X35950000Y131316905D01*
X35997619Y131269286D01*
X36092857Y131221667D01*
X36235714Y131221667D01*
X36330952Y131269286D01*
X36378571Y131316905D01*
X36426190Y131412143D01*
X36426190Y131793096D01*
X36235714Y130364524D02*
X36902380Y130364524D01*
X35854761Y130602620D02*
X36569047Y130840715D01*
X36569047Y130221667D01*
%TO.C,D89*%
X334204285Y138257620D02*
X334204285Y139257620D01*
X333966190Y139257620D01*
X333823333Y139210000D01*
X333728095Y139114762D01*
X333680476Y139019524D01*
X333632857Y138829048D01*
X333632857Y138686191D01*
X333680476Y138495715D01*
X333728095Y138400477D01*
X333823333Y138305239D01*
X333966190Y138257620D01*
X334204285Y138257620D01*
X333061428Y138829048D02*
X333156666Y138876667D01*
X333204285Y138924286D01*
X333251904Y139019524D01*
X333251904Y139067143D01*
X333204285Y139162381D01*
X333156666Y139210000D01*
X333061428Y139257620D01*
X332870952Y139257620D01*
X332775714Y139210000D01*
X332728095Y139162381D01*
X332680476Y139067143D01*
X332680476Y139019524D01*
X332728095Y138924286D01*
X332775714Y138876667D01*
X332870952Y138829048D01*
X333061428Y138829048D01*
X333156666Y138781429D01*
X333204285Y138733810D01*
X333251904Y138638572D01*
X333251904Y138448096D01*
X333204285Y138352858D01*
X333156666Y138305239D01*
X333061428Y138257620D01*
X332870952Y138257620D01*
X332775714Y138305239D01*
X332728095Y138352858D01*
X332680476Y138448096D01*
X332680476Y138638572D01*
X332728095Y138733810D01*
X332775714Y138781429D01*
X332870952Y138829048D01*
X332204285Y138257620D02*
X332013809Y138257620D01*
X331918571Y138305239D01*
X331870952Y138352858D01*
X331775714Y138495715D01*
X331728095Y138686191D01*
X331728095Y139067143D01*
X331775714Y139162381D01*
X331823333Y139210000D01*
X331918571Y139257620D01*
X332109047Y139257620D01*
X332204285Y139210000D01*
X332251904Y139162381D01*
X332299523Y139067143D01*
X332299523Y138829048D01*
X332251904Y138733810D01*
X332204285Y138686191D01*
X332109047Y138638572D01*
X331918571Y138638572D01*
X331823333Y138686191D01*
X331775714Y138733810D01*
X331728095Y138829048D01*
%TO.C,D29*%
X124904285Y138157620D02*
X124904285Y139157620D01*
X124666190Y139157620D01*
X124523333Y139110000D01*
X124428095Y139014762D01*
X124380476Y138919524D01*
X124332857Y138729048D01*
X124332857Y138586191D01*
X124380476Y138395715D01*
X124428095Y138300477D01*
X124523333Y138205239D01*
X124666190Y138157620D01*
X124904285Y138157620D01*
X123951904Y139062381D02*
X123904285Y139110000D01*
X123809047Y139157620D01*
X123570952Y139157620D01*
X123475714Y139110000D01*
X123428095Y139062381D01*
X123380476Y138967143D01*
X123380476Y138871905D01*
X123428095Y138729048D01*
X123999523Y138157620D01*
X123380476Y138157620D01*
X122904285Y138157620D02*
X122713809Y138157620D01*
X122618571Y138205239D01*
X122570952Y138252858D01*
X122475714Y138395715D01*
X122428095Y138586191D01*
X122428095Y138967143D01*
X122475714Y139062381D01*
X122523333Y139110000D01*
X122618571Y139157620D01*
X122809047Y139157620D01*
X122904285Y139110000D01*
X122951904Y139062381D01*
X122999523Y138967143D01*
X122999523Y138729048D01*
X122951904Y138633810D01*
X122904285Y138586191D01*
X122809047Y138538572D01*
X122618571Y138538572D01*
X122523333Y138586191D01*
X122475714Y138633810D01*
X122428095Y138729048D01*
%TO.C,D2*%
X16678095Y86187620D02*
X16678095Y87187620D01*
X16440000Y87187620D01*
X16297142Y87140000D01*
X16201904Y87044762D01*
X16154285Y86949524D01*
X16106666Y86759048D01*
X16106666Y86616191D01*
X16154285Y86425715D01*
X16201904Y86330477D01*
X16297142Y86235239D01*
X16440000Y86187620D01*
X16678095Y86187620D01*
X15725714Y87092381D02*
X15678095Y87140000D01*
X15582857Y87187620D01*
X15344761Y87187620D01*
X15249523Y87140000D01*
X15201904Y87092381D01*
X15154285Y86997143D01*
X15154285Y86901905D01*
X15201904Y86759048D01*
X15773333Y86187620D01*
X15154285Y86187620D01*
%TO.C,D17*%
X79684285Y47847620D02*
X79684285Y48847620D01*
X79446190Y48847620D01*
X79303333Y48800000D01*
X79208095Y48704762D01*
X79160476Y48609524D01*
X79112857Y48419048D01*
X79112857Y48276191D01*
X79160476Y48085715D01*
X79208095Y47990477D01*
X79303333Y47895239D01*
X79446190Y47847620D01*
X79684285Y47847620D01*
X78160476Y47847620D02*
X78731904Y47847620D01*
X78446190Y47847620D02*
X78446190Y48847620D01*
X78541428Y48704762D01*
X78636666Y48609524D01*
X78731904Y48561905D01*
X77827142Y48847620D02*
X77160476Y48847620D01*
X77589047Y47847620D01*
%TO.C,D37*%
X154054285Y85987620D02*
X154054285Y86987620D01*
X153816190Y86987620D01*
X153673333Y86940000D01*
X153578095Y86844762D01*
X153530476Y86749524D01*
X153482857Y86559048D01*
X153482857Y86416191D01*
X153530476Y86225715D01*
X153578095Y86130477D01*
X153673333Y86035239D01*
X153816190Y85987620D01*
X154054285Y85987620D01*
X153149523Y86987620D02*
X152530476Y86987620D01*
X152863809Y86606667D01*
X152720952Y86606667D01*
X152625714Y86559048D01*
X152578095Y86511429D01*
X152530476Y86416191D01*
X152530476Y86178096D01*
X152578095Y86082858D01*
X152625714Y86035239D01*
X152720952Y85987620D01*
X153006666Y85987620D01*
X153101904Y86035239D01*
X153149523Y86082858D01*
X152197142Y86987620D02*
X151530476Y86987620D01*
X151959047Y85987620D01*
%TO.C,C12*%
X226692857Y25022858D02*
X226740476Y24975239D01*
X226883333Y24927620D01*
X226978571Y24927620D01*
X227121428Y24975239D01*
X227216666Y25070477D01*
X227264285Y25165715D01*
X227311904Y25356191D01*
X227311904Y25499048D01*
X227264285Y25689524D01*
X227216666Y25784762D01*
X227121428Y25880000D01*
X226978571Y25927620D01*
X226883333Y25927620D01*
X226740476Y25880000D01*
X226692857Y25832381D01*
X225740476Y24927620D02*
X226311904Y24927620D01*
X226026190Y24927620D02*
X226026190Y25927620D01*
X226121428Y25784762D01*
X226216666Y25689524D01*
X226311904Y25641905D01*
X225359523Y25832381D02*
X225311904Y25880000D01*
X225216666Y25927620D01*
X224978571Y25927620D01*
X224883333Y25880000D01*
X224835714Y25832381D01*
X224788095Y25737143D01*
X224788095Y25641905D01*
X224835714Y25499048D01*
X225407142Y24927620D01*
X224788095Y24927620D01*
%TO.C,D84*%
X322504285Y105197620D02*
X322504285Y106197620D01*
X322266190Y106197620D01*
X322123333Y106150000D01*
X322028095Y106054762D01*
X321980476Y105959524D01*
X321932857Y105769048D01*
X321932857Y105626191D01*
X321980476Y105435715D01*
X322028095Y105340477D01*
X322123333Y105245239D01*
X322266190Y105197620D01*
X322504285Y105197620D01*
X321361428Y105769048D02*
X321456666Y105816667D01*
X321504285Y105864286D01*
X321551904Y105959524D01*
X321551904Y106007143D01*
X321504285Y106102381D01*
X321456666Y106150000D01*
X321361428Y106197620D01*
X321170952Y106197620D01*
X321075714Y106150000D01*
X321028095Y106102381D01*
X320980476Y106007143D01*
X320980476Y105959524D01*
X321028095Y105864286D01*
X321075714Y105816667D01*
X321170952Y105769048D01*
X321361428Y105769048D01*
X321456666Y105721429D01*
X321504285Y105673810D01*
X321551904Y105578572D01*
X321551904Y105388096D01*
X321504285Y105292858D01*
X321456666Y105245239D01*
X321361428Y105197620D01*
X321170952Y105197620D01*
X321075714Y105245239D01*
X321028095Y105292858D01*
X320980476Y105388096D01*
X320980476Y105578572D01*
X321028095Y105673810D01*
X321075714Y105721429D01*
X321170952Y105769048D01*
X320123333Y105864286D02*
X320123333Y105197620D01*
X320361428Y106245239D02*
X320599523Y105530953D01*
X319980476Y105530953D01*
%TO.C,D80*%
X304779285Y85902620D02*
X304779285Y86902620D01*
X304541190Y86902620D01*
X304398333Y86855000D01*
X304303095Y86759762D01*
X304255476Y86664524D01*
X304207857Y86474048D01*
X304207857Y86331191D01*
X304255476Y86140715D01*
X304303095Y86045477D01*
X304398333Y85950239D01*
X304541190Y85902620D01*
X304779285Y85902620D01*
X303636428Y86474048D02*
X303731666Y86521667D01*
X303779285Y86569286D01*
X303826904Y86664524D01*
X303826904Y86712143D01*
X303779285Y86807381D01*
X303731666Y86855000D01*
X303636428Y86902620D01*
X303445952Y86902620D01*
X303350714Y86855000D01*
X303303095Y86807381D01*
X303255476Y86712143D01*
X303255476Y86664524D01*
X303303095Y86569286D01*
X303350714Y86521667D01*
X303445952Y86474048D01*
X303636428Y86474048D01*
X303731666Y86426429D01*
X303779285Y86378810D01*
X303826904Y86283572D01*
X303826904Y86093096D01*
X303779285Y85997858D01*
X303731666Y85950239D01*
X303636428Y85902620D01*
X303445952Y85902620D01*
X303350714Y85950239D01*
X303303095Y85997858D01*
X303255476Y86093096D01*
X303255476Y86283572D01*
X303303095Y86378810D01*
X303350714Y86426429D01*
X303445952Y86474048D01*
X302636428Y86902620D02*
X302541190Y86902620D01*
X302445952Y86855000D01*
X302398333Y86807381D01*
X302350714Y86712143D01*
X302303095Y86521667D01*
X302303095Y86283572D01*
X302350714Y86093096D01*
X302398333Y85997858D01*
X302445952Y85950239D01*
X302541190Y85902620D01*
X302636428Y85902620D01*
X302731666Y85950239D01*
X302779285Y85997858D01*
X302826904Y86093096D01*
X302874523Y86283572D01*
X302874523Y86521667D01*
X302826904Y86712143D01*
X302779285Y86807381D01*
X302731666Y86855000D01*
X302636428Y86902620D01*
%TO.C,D20*%
X94574285Y28717620D02*
X94574285Y29717620D01*
X94336190Y29717620D01*
X94193333Y29670000D01*
X94098095Y29574762D01*
X94050476Y29479524D01*
X94002857Y29289048D01*
X94002857Y29146191D01*
X94050476Y28955715D01*
X94098095Y28860477D01*
X94193333Y28765239D01*
X94336190Y28717620D01*
X94574285Y28717620D01*
X93621904Y29622381D02*
X93574285Y29670000D01*
X93479047Y29717620D01*
X93240952Y29717620D01*
X93145714Y29670000D01*
X93098095Y29622381D01*
X93050476Y29527143D01*
X93050476Y29431905D01*
X93098095Y29289048D01*
X93669523Y28717620D01*
X93050476Y28717620D01*
X92431428Y29717620D02*
X92336190Y29717620D01*
X92240952Y29670000D01*
X92193333Y29622381D01*
X92145714Y29527143D01*
X92098095Y29336667D01*
X92098095Y29098572D01*
X92145714Y28908096D01*
X92193333Y28812858D01*
X92240952Y28765239D01*
X92336190Y28717620D01*
X92431428Y28717620D01*
X92526666Y28765239D01*
X92574285Y28812858D01*
X92621904Y28908096D01*
X92669523Y29098572D01*
X92669523Y29336667D01*
X92621904Y29527143D01*
X92574285Y29622381D01*
X92526666Y29670000D01*
X92431428Y29717620D01*
%TO.C,D32*%
X135154285Y85987620D02*
X135154285Y86987620D01*
X134916190Y86987620D01*
X134773333Y86940000D01*
X134678095Y86844762D01*
X134630476Y86749524D01*
X134582857Y86559048D01*
X134582857Y86416191D01*
X134630476Y86225715D01*
X134678095Y86130477D01*
X134773333Y86035239D01*
X134916190Y85987620D01*
X135154285Y85987620D01*
X134249523Y86987620D02*
X133630476Y86987620D01*
X133963809Y86606667D01*
X133820952Y86606667D01*
X133725714Y86559048D01*
X133678095Y86511429D01*
X133630476Y86416191D01*
X133630476Y86178096D01*
X133678095Y86082858D01*
X133725714Y86035239D01*
X133820952Y85987620D01*
X134106666Y85987620D01*
X134201904Y86035239D01*
X134249523Y86082858D01*
X133249523Y86892381D02*
X133201904Y86940000D01*
X133106666Y86987620D01*
X132868571Y86987620D01*
X132773333Y86940000D01*
X132725714Y86892381D01*
X132678095Y86797143D01*
X132678095Y86701905D01*
X132725714Y86559048D01*
X133297142Y85987620D01*
X132678095Y85987620D01*
%TO.C,D69*%
X267754285Y85887620D02*
X267754285Y86887620D01*
X267516190Y86887620D01*
X267373333Y86840000D01*
X267278095Y86744762D01*
X267230476Y86649524D01*
X267182857Y86459048D01*
X267182857Y86316191D01*
X267230476Y86125715D01*
X267278095Y86030477D01*
X267373333Y85935239D01*
X267516190Y85887620D01*
X267754285Y85887620D01*
X266325714Y86887620D02*
X266516190Y86887620D01*
X266611428Y86840000D01*
X266659047Y86792381D01*
X266754285Y86649524D01*
X266801904Y86459048D01*
X266801904Y86078096D01*
X266754285Y85982858D01*
X266706666Y85935239D01*
X266611428Y85887620D01*
X266420952Y85887620D01*
X266325714Y85935239D01*
X266278095Y85982858D01*
X266230476Y86078096D01*
X266230476Y86316191D01*
X266278095Y86411429D01*
X266325714Y86459048D01*
X266420952Y86506667D01*
X266611428Y86506667D01*
X266706666Y86459048D01*
X266754285Y86411429D01*
X266801904Y86316191D01*
X265754285Y85887620D02*
X265563809Y85887620D01*
X265468571Y85935239D01*
X265420952Y85982858D01*
X265325714Y86125715D01*
X265278095Y86316191D01*
X265278095Y86697143D01*
X265325714Y86792381D01*
X265373333Y86840000D01*
X265468571Y86887620D01*
X265659047Y86887620D01*
X265754285Y86840000D01*
X265801904Y86792381D01*
X265849523Y86697143D01*
X265849523Y86459048D01*
X265801904Y86363810D01*
X265754285Y86316191D01*
X265659047Y86268572D01*
X265468571Y86268572D01*
X265373333Y86316191D01*
X265325714Y86363810D01*
X265278095Y86459048D01*
%TO.C,R7*%
X210892380Y13036667D02*
X210416190Y13370000D01*
X210892380Y13608096D02*
X209892380Y13608096D01*
X209892380Y13227143D01*
X209940000Y13131905D01*
X209987619Y13084286D01*
X210082857Y13036667D01*
X210225714Y13036667D01*
X210320952Y13084286D01*
X210368571Y13131905D01*
X210416190Y13227143D01*
X210416190Y13608096D01*
X209892380Y12703334D02*
X209892380Y12036667D01*
X210892380Y12465239D01*
%TO.C,D18*%
X86404285Y138157620D02*
X86404285Y139157620D01*
X86166190Y139157620D01*
X86023333Y139110000D01*
X85928095Y139014762D01*
X85880476Y138919524D01*
X85832857Y138729048D01*
X85832857Y138586191D01*
X85880476Y138395715D01*
X85928095Y138300477D01*
X86023333Y138205239D01*
X86166190Y138157620D01*
X86404285Y138157620D01*
X84880476Y138157620D02*
X85451904Y138157620D01*
X85166190Y138157620D02*
X85166190Y139157620D01*
X85261428Y139014762D01*
X85356666Y138919524D01*
X85451904Y138871905D01*
X84309047Y138729048D02*
X84404285Y138776667D01*
X84451904Y138824286D01*
X84499523Y138919524D01*
X84499523Y138967143D01*
X84451904Y139062381D01*
X84404285Y139110000D01*
X84309047Y139157620D01*
X84118571Y139157620D01*
X84023333Y139110000D01*
X83975714Y139062381D01*
X83928095Y138967143D01*
X83928095Y138919524D01*
X83975714Y138824286D01*
X84023333Y138776667D01*
X84118571Y138729048D01*
X84309047Y138729048D01*
X84404285Y138681429D01*
X84451904Y138633810D01*
X84499523Y138538572D01*
X84499523Y138348096D01*
X84451904Y138252858D01*
X84404285Y138205239D01*
X84309047Y138157620D01*
X84118571Y138157620D01*
X84023333Y138205239D01*
X83975714Y138252858D01*
X83928095Y138348096D01*
X83928095Y138538572D01*
X83975714Y138633810D01*
X84023333Y138681429D01*
X84118571Y138729048D01*
%TO.C,D74*%
X282134285Y47847620D02*
X282134285Y48847620D01*
X281896190Y48847620D01*
X281753333Y48800000D01*
X281658095Y48704762D01*
X281610476Y48609524D01*
X281562857Y48419048D01*
X281562857Y48276191D01*
X281610476Y48085715D01*
X281658095Y47990477D01*
X281753333Y47895239D01*
X281896190Y47847620D01*
X282134285Y47847620D01*
X281229523Y48847620D02*
X280562857Y48847620D01*
X280991428Y47847620D01*
X279753333Y48514286D02*
X279753333Y47847620D01*
X279991428Y48895239D02*
X280229523Y48180953D01*
X279610476Y48180953D01*
%TO.C,D57*%
X224984285Y47747620D02*
X224984285Y48747620D01*
X224746190Y48747620D01*
X224603333Y48700000D01*
X224508095Y48604762D01*
X224460476Y48509524D01*
X224412857Y48319048D01*
X224412857Y48176191D01*
X224460476Y47985715D01*
X224508095Y47890477D01*
X224603333Y47795239D01*
X224746190Y47747620D01*
X224984285Y47747620D01*
X223508095Y48747620D02*
X223984285Y48747620D01*
X224031904Y48271429D01*
X223984285Y48319048D01*
X223889047Y48366667D01*
X223650952Y48366667D01*
X223555714Y48319048D01*
X223508095Y48271429D01*
X223460476Y48176191D01*
X223460476Y47938096D01*
X223508095Y47842858D01*
X223555714Y47795239D01*
X223650952Y47747620D01*
X223889047Y47747620D01*
X223984285Y47795239D01*
X224031904Y47842858D01*
X223127142Y48747620D02*
X222460476Y48747620D01*
X222889047Y47747620D01*
%TO.C,D70*%
X271524285Y66787620D02*
X271524285Y67787620D01*
X271286190Y67787620D01*
X271143333Y67740000D01*
X271048095Y67644762D01*
X271000476Y67549524D01*
X270952857Y67359048D01*
X270952857Y67216191D01*
X271000476Y67025715D01*
X271048095Y66930477D01*
X271143333Y66835239D01*
X271286190Y66787620D01*
X271524285Y66787620D01*
X270619523Y67787620D02*
X269952857Y67787620D01*
X270381428Y66787620D01*
X269381428Y67787620D02*
X269286190Y67787620D01*
X269190952Y67740000D01*
X269143333Y67692381D01*
X269095714Y67597143D01*
X269048095Y67406667D01*
X269048095Y67168572D01*
X269095714Y66978096D01*
X269143333Y66882858D01*
X269190952Y66835239D01*
X269286190Y66787620D01*
X269381428Y66787620D01*
X269476666Y66835239D01*
X269524285Y66882858D01*
X269571904Y66978096D01*
X269619523Y67168572D01*
X269619523Y67406667D01*
X269571904Y67597143D01*
X269524285Y67692381D01*
X269476666Y67740000D01*
X269381428Y67787620D01*
%TO.C,D85*%
X321524285Y66787620D02*
X321524285Y67787620D01*
X321286190Y67787620D01*
X321143333Y67740000D01*
X321048095Y67644762D01*
X321000476Y67549524D01*
X320952857Y67359048D01*
X320952857Y67216191D01*
X321000476Y67025715D01*
X321048095Y66930477D01*
X321143333Y66835239D01*
X321286190Y66787620D01*
X321524285Y66787620D01*
X320381428Y67359048D02*
X320476666Y67406667D01*
X320524285Y67454286D01*
X320571904Y67549524D01*
X320571904Y67597143D01*
X320524285Y67692381D01*
X320476666Y67740000D01*
X320381428Y67787620D01*
X320190952Y67787620D01*
X320095714Y67740000D01*
X320048095Y67692381D01*
X320000476Y67597143D01*
X320000476Y67549524D01*
X320048095Y67454286D01*
X320095714Y67406667D01*
X320190952Y67359048D01*
X320381428Y67359048D01*
X320476666Y67311429D01*
X320524285Y67263810D01*
X320571904Y67168572D01*
X320571904Y66978096D01*
X320524285Y66882858D01*
X320476666Y66835239D01*
X320381428Y66787620D01*
X320190952Y66787620D01*
X320095714Y66835239D01*
X320048095Y66882858D01*
X320000476Y66978096D01*
X320000476Y67168572D01*
X320048095Y67263810D01*
X320095714Y67311429D01*
X320190952Y67359048D01*
X319095714Y67787620D02*
X319571904Y67787620D01*
X319619523Y67311429D01*
X319571904Y67359048D01*
X319476666Y67406667D01*
X319238571Y67406667D01*
X319143333Y67359048D01*
X319095714Y67311429D01*
X319048095Y67216191D01*
X319048095Y66978096D01*
X319095714Y66882858D01*
X319143333Y66835239D01*
X319238571Y66787620D01*
X319476666Y66787620D01*
X319571904Y66835239D01*
X319619523Y66882858D01*
%TO.C,D1*%
X16328095Y105297620D02*
X16328095Y106297620D01*
X16090000Y106297620D01*
X15947142Y106250000D01*
X15851904Y106154762D01*
X15804285Y106059524D01*
X15756666Y105869048D01*
X15756666Y105726191D01*
X15804285Y105535715D01*
X15851904Y105440477D01*
X15947142Y105345239D01*
X16090000Y105297620D01*
X16328095Y105297620D01*
X14804285Y105297620D02*
X15375714Y105297620D01*
X15090000Y105297620D02*
X15090000Y106297620D01*
X15185238Y106154762D01*
X15280476Y106059524D01*
X15375714Y106011905D01*
%TO.C,D78*%
X293504285Y104997620D02*
X293504285Y105997620D01*
X293266190Y105997620D01*
X293123333Y105950000D01*
X293028095Y105854762D01*
X292980476Y105759524D01*
X292932857Y105569048D01*
X292932857Y105426191D01*
X292980476Y105235715D01*
X293028095Y105140477D01*
X293123333Y105045239D01*
X293266190Y104997620D01*
X293504285Y104997620D01*
X292599523Y105997620D02*
X291932857Y105997620D01*
X292361428Y104997620D01*
X291409047Y105569048D02*
X291504285Y105616667D01*
X291551904Y105664286D01*
X291599523Y105759524D01*
X291599523Y105807143D01*
X291551904Y105902381D01*
X291504285Y105950000D01*
X291409047Y105997620D01*
X291218571Y105997620D01*
X291123333Y105950000D01*
X291075714Y105902381D01*
X291028095Y105807143D01*
X291028095Y105759524D01*
X291075714Y105664286D01*
X291123333Y105616667D01*
X291218571Y105569048D01*
X291409047Y105569048D01*
X291504285Y105521429D01*
X291551904Y105473810D01*
X291599523Y105378572D01*
X291599523Y105188096D01*
X291551904Y105092858D01*
X291504285Y105045239D01*
X291409047Y104997620D01*
X291218571Y104997620D01*
X291123333Y105045239D01*
X291075714Y105092858D01*
X291028095Y105188096D01*
X291028095Y105378572D01*
X291075714Y105473810D01*
X291123333Y105521429D01*
X291218571Y105569048D01*
%TO.C,D60*%
X239204285Y138257620D02*
X239204285Y139257620D01*
X238966190Y139257620D01*
X238823333Y139210000D01*
X238728095Y139114762D01*
X238680476Y139019524D01*
X238632857Y138829048D01*
X238632857Y138686191D01*
X238680476Y138495715D01*
X238728095Y138400477D01*
X238823333Y138305239D01*
X238966190Y138257620D01*
X239204285Y138257620D01*
X237775714Y139257620D02*
X237966190Y139257620D01*
X238061428Y139210000D01*
X238109047Y139162381D01*
X238204285Y139019524D01*
X238251904Y138829048D01*
X238251904Y138448096D01*
X238204285Y138352858D01*
X238156666Y138305239D01*
X238061428Y138257620D01*
X237870952Y138257620D01*
X237775714Y138305239D01*
X237728095Y138352858D01*
X237680476Y138448096D01*
X237680476Y138686191D01*
X237728095Y138781429D01*
X237775714Y138829048D01*
X237870952Y138876667D01*
X238061428Y138876667D01*
X238156666Y138829048D01*
X238204285Y138781429D01*
X238251904Y138686191D01*
X237061428Y139257620D02*
X236966190Y139257620D01*
X236870952Y139210000D01*
X236823333Y139162381D01*
X236775714Y139067143D01*
X236728095Y138876667D01*
X236728095Y138638572D01*
X236775714Y138448096D01*
X236823333Y138352858D01*
X236870952Y138305239D01*
X236966190Y138257620D01*
X237061428Y138257620D01*
X237156666Y138305239D01*
X237204285Y138352858D01*
X237251904Y138448096D01*
X237299523Y138638572D01*
X237299523Y138876667D01*
X237251904Y139067143D01*
X237204285Y139162381D01*
X237156666Y139210000D01*
X237061428Y139257620D01*
%TO.C,D3*%
X14998095Y67062620D02*
X14998095Y68062620D01*
X14760000Y68062620D01*
X14617142Y68015000D01*
X14521904Y67919762D01*
X14474285Y67824524D01*
X14426666Y67634048D01*
X14426666Y67491191D01*
X14474285Y67300715D01*
X14521904Y67205477D01*
X14617142Y67110239D01*
X14760000Y67062620D01*
X14998095Y67062620D01*
X14093333Y68062620D02*
X13474285Y68062620D01*
X13807619Y67681667D01*
X13664761Y67681667D01*
X13569523Y67634048D01*
X13521904Y67586429D01*
X13474285Y67491191D01*
X13474285Y67253096D01*
X13521904Y67157858D01*
X13569523Y67110239D01*
X13664761Y67062620D01*
X13950476Y67062620D01*
X14045714Y67110239D01*
X14093333Y67157858D01*
%TO.C,D49*%
X195324285Y66837620D02*
X195324285Y67837620D01*
X195086190Y67837620D01*
X194943333Y67790000D01*
X194848095Y67694762D01*
X194800476Y67599524D01*
X194752857Y67409048D01*
X194752857Y67266191D01*
X194800476Y67075715D01*
X194848095Y66980477D01*
X194943333Y66885239D01*
X195086190Y66837620D01*
X195324285Y66837620D01*
X193895714Y67504286D02*
X193895714Y66837620D01*
X194133809Y67885239D02*
X194371904Y67170953D01*
X193752857Y67170953D01*
X193324285Y66837620D02*
X193133809Y66837620D01*
X193038571Y66885239D01*
X192990952Y66932858D01*
X192895714Y67075715D01*
X192848095Y67266191D01*
X192848095Y67647143D01*
X192895714Y67742381D01*
X192943333Y67790000D01*
X193038571Y67837620D01*
X193229047Y67837620D01*
X193324285Y67790000D01*
X193371904Y67742381D01*
X193419523Y67647143D01*
X193419523Y67409048D01*
X193371904Y67313810D01*
X193324285Y67266191D01*
X193229047Y67218572D01*
X193038571Y67218572D01*
X192943333Y67266191D01*
X192895714Y67313810D01*
X192848095Y67409048D01*
%TO.C,U1*%
X212417380Y15421905D02*
X213226904Y15421905D01*
X213322142Y15374286D01*
X213369761Y15326667D01*
X213417380Y15231429D01*
X213417380Y15040953D01*
X213369761Y14945715D01*
X213322142Y14898096D01*
X213226904Y14850477D01*
X212417380Y14850477D01*
X213417380Y13850477D02*
X213417380Y14421905D01*
X213417380Y14136191D02*
X212417380Y14136191D01*
X212560238Y14231429D01*
X212655476Y14326667D01*
X212703095Y14421905D01*
%TO.C,C8*%
X209577142Y22676667D02*
X209624761Y22724286D01*
X209672380Y22867143D01*
X209672380Y22962381D01*
X209624761Y23105239D01*
X209529523Y23200477D01*
X209434285Y23248096D01*
X209243809Y23295715D01*
X209100952Y23295715D01*
X208910476Y23248096D01*
X208815238Y23200477D01*
X208720000Y23105239D01*
X208672380Y22962381D01*
X208672380Y22867143D01*
X208720000Y22724286D01*
X208767619Y22676667D01*
X209100952Y22105239D02*
X209053333Y22200477D01*
X209005714Y22248096D01*
X208910476Y22295715D01*
X208862857Y22295715D01*
X208767619Y22248096D01*
X208720000Y22200477D01*
X208672380Y22105239D01*
X208672380Y21914762D01*
X208720000Y21819524D01*
X208767619Y21771905D01*
X208862857Y21724286D01*
X208910476Y21724286D01*
X209005714Y21771905D01*
X209053333Y21819524D01*
X209100952Y21914762D01*
X209100952Y22105239D01*
X209148571Y22200477D01*
X209196190Y22248096D01*
X209291428Y22295715D01*
X209481904Y22295715D01*
X209577142Y22248096D01*
X209624761Y22200477D01*
X209672380Y22105239D01*
X209672380Y21914762D01*
X209624761Y21819524D01*
X209577142Y21771905D01*
X209481904Y21724286D01*
X209291428Y21724286D01*
X209196190Y21771905D01*
X209148571Y21819524D01*
X209100952Y21914762D01*
%TO.C,D44*%
X180804285Y138257620D02*
X180804285Y139257620D01*
X180566190Y139257620D01*
X180423333Y139210000D01*
X180328095Y139114762D01*
X180280476Y139019524D01*
X180232857Y138829048D01*
X180232857Y138686191D01*
X180280476Y138495715D01*
X180328095Y138400477D01*
X180423333Y138305239D01*
X180566190Y138257620D01*
X180804285Y138257620D01*
X179375714Y138924286D02*
X179375714Y138257620D01*
X179613809Y139305239D02*
X179851904Y138590953D01*
X179232857Y138590953D01*
X178423333Y138924286D02*
X178423333Y138257620D01*
X178661428Y139305239D02*
X178899523Y138590953D01*
X178280476Y138590953D01*
%TO.C,R3*%
X164312380Y14776667D02*
X163836190Y15110000D01*
X164312380Y15348096D02*
X163312380Y15348096D01*
X163312380Y14967143D01*
X163360000Y14871905D01*
X163407619Y14824286D01*
X163502857Y14776667D01*
X163645714Y14776667D01*
X163740952Y14824286D01*
X163788571Y14871905D01*
X163836190Y14967143D01*
X163836190Y15348096D01*
X163312380Y14443334D02*
X163312380Y13824286D01*
X163693333Y14157620D01*
X163693333Y14014762D01*
X163740952Y13919524D01*
X163788571Y13871905D01*
X163883809Y13824286D01*
X164121904Y13824286D01*
X164217142Y13871905D01*
X164264761Y13919524D01*
X164312380Y14014762D01*
X164312380Y14300477D01*
X164264761Y14395715D01*
X164217142Y14443334D01*
%TO.C,D51*%
X201704285Y104997620D02*
X201704285Y105997620D01*
X201466190Y105997620D01*
X201323333Y105950000D01*
X201228095Y105854762D01*
X201180476Y105759524D01*
X201132857Y105569048D01*
X201132857Y105426191D01*
X201180476Y105235715D01*
X201228095Y105140477D01*
X201323333Y105045239D01*
X201466190Y104997620D01*
X201704285Y104997620D01*
X200228095Y105997620D02*
X200704285Y105997620D01*
X200751904Y105521429D01*
X200704285Y105569048D01*
X200609047Y105616667D01*
X200370952Y105616667D01*
X200275714Y105569048D01*
X200228095Y105521429D01*
X200180476Y105426191D01*
X200180476Y105188096D01*
X200228095Y105092858D01*
X200275714Y105045239D01*
X200370952Y104997620D01*
X200609047Y104997620D01*
X200704285Y105045239D01*
X200751904Y105092858D01*
X199228095Y104997620D02*
X199799523Y104997620D01*
X199513809Y104997620D02*
X199513809Y105997620D01*
X199609047Y105854762D01*
X199704285Y105759524D01*
X199799523Y105711905D01*
%TO.C,D58*%
X230354285Y85987620D02*
X230354285Y86987620D01*
X230116190Y86987620D01*
X229973333Y86940000D01*
X229878095Y86844762D01*
X229830476Y86749524D01*
X229782857Y86559048D01*
X229782857Y86416191D01*
X229830476Y86225715D01*
X229878095Y86130477D01*
X229973333Y86035239D01*
X230116190Y85987620D01*
X230354285Y85987620D01*
X228878095Y86987620D02*
X229354285Y86987620D01*
X229401904Y86511429D01*
X229354285Y86559048D01*
X229259047Y86606667D01*
X229020952Y86606667D01*
X228925714Y86559048D01*
X228878095Y86511429D01*
X228830476Y86416191D01*
X228830476Y86178096D01*
X228878095Y86082858D01*
X228925714Y86035239D01*
X229020952Y85987620D01*
X229259047Y85987620D01*
X229354285Y86035239D01*
X229401904Y86082858D01*
X228259047Y86559048D02*
X228354285Y86606667D01*
X228401904Y86654286D01*
X228449523Y86749524D01*
X228449523Y86797143D01*
X228401904Y86892381D01*
X228354285Y86940000D01*
X228259047Y86987620D01*
X228068571Y86987620D01*
X227973333Y86940000D01*
X227925714Y86892381D01*
X227878095Y86797143D01*
X227878095Y86749524D01*
X227925714Y86654286D01*
X227973333Y86606667D01*
X228068571Y86559048D01*
X228259047Y86559048D01*
X228354285Y86511429D01*
X228401904Y86463810D01*
X228449523Y86368572D01*
X228449523Y86178096D01*
X228401904Y86082858D01*
X228354285Y86035239D01*
X228259047Y85987620D01*
X228068571Y85987620D01*
X227973333Y86035239D01*
X227925714Y86082858D01*
X227878095Y86178096D01*
X227878095Y86368572D01*
X227925714Y86463810D01*
X227973333Y86511429D01*
X228068571Y86559048D01*
%TO.C,D38*%
X157224285Y66887620D02*
X157224285Y67887620D01*
X156986190Y67887620D01*
X156843333Y67840000D01*
X156748095Y67744762D01*
X156700476Y67649524D01*
X156652857Y67459048D01*
X156652857Y67316191D01*
X156700476Y67125715D01*
X156748095Y67030477D01*
X156843333Y66935239D01*
X156986190Y66887620D01*
X157224285Y66887620D01*
X156319523Y67887620D02*
X155700476Y67887620D01*
X156033809Y67506667D01*
X155890952Y67506667D01*
X155795714Y67459048D01*
X155748095Y67411429D01*
X155700476Y67316191D01*
X155700476Y67078096D01*
X155748095Y66982858D01*
X155795714Y66935239D01*
X155890952Y66887620D01*
X156176666Y66887620D01*
X156271904Y66935239D01*
X156319523Y66982858D01*
X155129047Y67459048D02*
X155224285Y67506667D01*
X155271904Y67554286D01*
X155319523Y67649524D01*
X155319523Y67697143D01*
X155271904Y67792381D01*
X155224285Y67840000D01*
X155129047Y67887620D01*
X154938571Y67887620D01*
X154843333Y67840000D01*
X154795714Y67792381D01*
X154748095Y67697143D01*
X154748095Y67649524D01*
X154795714Y67554286D01*
X154843333Y67506667D01*
X154938571Y67459048D01*
X155129047Y67459048D01*
X155224285Y67411429D01*
X155271904Y67363810D01*
X155319523Y67268572D01*
X155319523Y67078096D01*
X155271904Y66982858D01*
X155224285Y66935239D01*
X155129047Y66887620D01*
X154938571Y66887620D01*
X154843333Y66935239D01*
X154795714Y66982858D01*
X154748095Y67078096D01*
X154748095Y67268572D01*
X154795714Y67363810D01*
X154843333Y67411429D01*
X154938571Y67459048D01*
%TO.C,D65*%
X258104285Y138257620D02*
X258104285Y139257620D01*
X257866190Y139257620D01*
X257723333Y139210000D01*
X257628095Y139114762D01*
X257580476Y139019524D01*
X257532857Y138829048D01*
X257532857Y138686191D01*
X257580476Y138495715D01*
X257628095Y138400477D01*
X257723333Y138305239D01*
X257866190Y138257620D01*
X258104285Y138257620D01*
X256675714Y139257620D02*
X256866190Y139257620D01*
X256961428Y139210000D01*
X257009047Y139162381D01*
X257104285Y139019524D01*
X257151904Y138829048D01*
X257151904Y138448096D01*
X257104285Y138352858D01*
X257056666Y138305239D01*
X256961428Y138257620D01*
X256770952Y138257620D01*
X256675714Y138305239D01*
X256628095Y138352858D01*
X256580476Y138448096D01*
X256580476Y138686191D01*
X256628095Y138781429D01*
X256675714Y138829048D01*
X256770952Y138876667D01*
X256961428Y138876667D01*
X257056666Y138829048D01*
X257104285Y138781429D01*
X257151904Y138686191D01*
X255675714Y139257620D02*
X256151904Y139257620D01*
X256199523Y138781429D01*
X256151904Y138829048D01*
X256056666Y138876667D01*
X255818571Y138876667D01*
X255723333Y138829048D01*
X255675714Y138781429D01*
X255628095Y138686191D01*
X255628095Y138448096D01*
X255675714Y138352858D01*
X255723333Y138305239D01*
X255818571Y138257620D01*
X256056666Y138257620D01*
X256151904Y138305239D01*
X256199523Y138352858D01*
%TO.C,C3*%
X212997142Y8056667D02*
X213044761Y8104286D01*
X213092380Y8247143D01*
X213092380Y8342381D01*
X213044761Y8485239D01*
X212949523Y8580477D01*
X212854285Y8628096D01*
X212663809Y8675715D01*
X212520952Y8675715D01*
X212330476Y8628096D01*
X212235238Y8580477D01*
X212140000Y8485239D01*
X212092380Y8342381D01*
X212092380Y8247143D01*
X212140000Y8104286D01*
X212187619Y8056667D01*
X212092380Y7723334D02*
X212092380Y7104286D01*
X212473333Y7437620D01*
X212473333Y7294762D01*
X212520952Y7199524D01*
X212568571Y7151905D01*
X212663809Y7104286D01*
X212901904Y7104286D01*
X212997142Y7151905D01*
X213044761Y7199524D01*
X213092380Y7294762D01*
X213092380Y7580477D01*
X213044761Y7675715D01*
X212997142Y7723334D01*
%TO.C,D67*%
X258924285Y28767620D02*
X258924285Y29767620D01*
X258686190Y29767620D01*
X258543333Y29720000D01*
X258448095Y29624762D01*
X258400476Y29529524D01*
X258352857Y29339048D01*
X258352857Y29196191D01*
X258400476Y29005715D01*
X258448095Y28910477D01*
X258543333Y28815239D01*
X258686190Y28767620D01*
X258924285Y28767620D01*
X257495714Y29767620D02*
X257686190Y29767620D01*
X257781428Y29720000D01*
X257829047Y29672381D01*
X257924285Y29529524D01*
X257971904Y29339048D01*
X257971904Y28958096D01*
X257924285Y28862858D01*
X257876666Y28815239D01*
X257781428Y28767620D01*
X257590952Y28767620D01*
X257495714Y28815239D01*
X257448095Y28862858D01*
X257400476Y28958096D01*
X257400476Y29196191D01*
X257448095Y29291429D01*
X257495714Y29339048D01*
X257590952Y29386667D01*
X257781428Y29386667D01*
X257876666Y29339048D01*
X257924285Y29291429D01*
X257971904Y29196191D01*
X257067142Y29767620D02*
X256400476Y29767620D01*
X256829047Y28767620D01*
%TO.C,D81*%
X301289285Y47862620D02*
X301289285Y48862620D01*
X301051190Y48862620D01*
X300908333Y48815000D01*
X300813095Y48719762D01*
X300765476Y48624524D01*
X300717857Y48434048D01*
X300717857Y48291191D01*
X300765476Y48100715D01*
X300813095Y48005477D01*
X300908333Y47910239D01*
X301051190Y47862620D01*
X301289285Y47862620D01*
X300146428Y48434048D02*
X300241666Y48481667D01*
X300289285Y48529286D01*
X300336904Y48624524D01*
X300336904Y48672143D01*
X300289285Y48767381D01*
X300241666Y48815000D01*
X300146428Y48862620D01*
X299955952Y48862620D01*
X299860714Y48815000D01*
X299813095Y48767381D01*
X299765476Y48672143D01*
X299765476Y48624524D01*
X299813095Y48529286D01*
X299860714Y48481667D01*
X299955952Y48434048D01*
X300146428Y48434048D01*
X300241666Y48386429D01*
X300289285Y48338810D01*
X300336904Y48243572D01*
X300336904Y48053096D01*
X300289285Y47957858D01*
X300241666Y47910239D01*
X300146428Y47862620D01*
X299955952Y47862620D01*
X299860714Y47910239D01*
X299813095Y47957858D01*
X299765476Y48053096D01*
X299765476Y48243572D01*
X299813095Y48338810D01*
X299860714Y48386429D01*
X299955952Y48434048D01*
X298813095Y47862620D02*
X299384523Y47862620D01*
X299098809Y47862620D02*
X299098809Y48862620D01*
X299194047Y48719762D01*
X299289285Y48624524D01*
X299384523Y48576905D01*
%TO.C,D8*%
X35978095Y86287620D02*
X35978095Y87287620D01*
X35740000Y87287620D01*
X35597142Y87240000D01*
X35501904Y87144762D01*
X35454285Y87049524D01*
X35406666Y86859048D01*
X35406666Y86716191D01*
X35454285Y86525715D01*
X35501904Y86430477D01*
X35597142Y86335239D01*
X35740000Y86287620D01*
X35978095Y86287620D01*
X34835238Y86859048D02*
X34930476Y86906667D01*
X34978095Y86954286D01*
X35025714Y87049524D01*
X35025714Y87097143D01*
X34978095Y87192381D01*
X34930476Y87240000D01*
X34835238Y87287620D01*
X34644761Y87287620D01*
X34549523Y87240000D01*
X34501904Y87192381D01*
X34454285Y87097143D01*
X34454285Y87049524D01*
X34501904Y86954286D01*
X34549523Y86906667D01*
X34644761Y86859048D01*
X34835238Y86859048D01*
X34930476Y86811429D01*
X34978095Y86763810D01*
X35025714Y86668572D01*
X35025714Y86478096D01*
X34978095Y86382858D01*
X34930476Y86335239D01*
X34835238Y86287620D01*
X34644761Y86287620D01*
X34549523Y86335239D01*
X34501904Y86382858D01*
X34454285Y86478096D01*
X34454285Y86668572D01*
X34501904Y86763810D01*
X34549523Y86811429D01*
X34644761Y86859048D01*
%TO.C,D86*%
X328919285Y86012620D02*
X328919285Y87012620D01*
X328681190Y87012620D01*
X328538333Y86965000D01*
X328443095Y86869762D01*
X328395476Y86774524D01*
X328347857Y86584048D01*
X328347857Y86441191D01*
X328395476Y86250715D01*
X328443095Y86155477D01*
X328538333Y86060239D01*
X328681190Y86012620D01*
X328919285Y86012620D01*
X327776428Y86584048D02*
X327871666Y86631667D01*
X327919285Y86679286D01*
X327966904Y86774524D01*
X327966904Y86822143D01*
X327919285Y86917381D01*
X327871666Y86965000D01*
X327776428Y87012620D01*
X327585952Y87012620D01*
X327490714Y86965000D01*
X327443095Y86917381D01*
X327395476Y86822143D01*
X327395476Y86774524D01*
X327443095Y86679286D01*
X327490714Y86631667D01*
X327585952Y86584048D01*
X327776428Y86584048D01*
X327871666Y86536429D01*
X327919285Y86488810D01*
X327966904Y86393572D01*
X327966904Y86203096D01*
X327919285Y86107858D01*
X327871666Y86060239D01*
X327776428Y86012620D01*
X327585952Y86012620D01*
X327490714Y86060239D01*
X327443095Y86107858D01*
X327395476Y86203096D01*
X327395476Y86393572D01*
X327443095Y86488810D01*
X327490714Y86536429D01*
X327585952Y86584048D01*
X326538333Y87012620D02*
X326728809Y87012620D01*
X326824047Y86965000D01*
X326871666Y86917381D01*
X326966904Y86774524D01*
X327014523Y86584048D01*
X327014523Y86203096D01*
X326966904Y86107858D01*
X326919285Y86060239D01*
X326824047Y86012620D01*
X326633571Y86012620D01*
X326538333Y86060239D01*
X326490714Y86107858D01*
X326443095Y86203096D01*
X326443095Y86441191D01*
X326490714Y86536429D01*
X326538333Y86584048D01*
X326633571Y86631667D01*
X326824047Y86631667D01*
X326919285Y86584048D01*
X326966904Y86536429D01*
X327014523Y86441191D01*
%TO.C,D87*%
X336799285Y47752620D02*
X336799285Y48752620D01*
X336561190Y48752620D01*
X336418333Y48705000D01*
X336323095Y48609762D01*
X336275476Y48514524D01*
X336227857Y48324048D01*
X336227857Y48181191D01*
X336275476Y47990715D01*
X336323095Y47895477D01*
X336418333Y47800239D01*
X336561190Y47752620D01*
X336799285Y47752620D01*
X335656428Y48324048D02*
X335751666Y48371667D01*
X335799285Y48419286D01*
X335846904Y48514524D01*
X335846904Y48562143D01*
X335799285Y48657381D01*
X335751666Y48705000D01*
X335656428Y48752620D01*
X335465952Y48752620D01*
X335370714Y48705000D01*
X335323095Y48657381D01*
X335275476Y48562143D01*
X335275476Y48514524D01*
X335323095Y48419286D01*
X335370714Y48371667D01*
X335465952Y48324048D01*
X335656428Y48324048D01*
X335751666Y48276429D01*
X335799285Y48228810D01*
X335846904Y48133572D01*
X335846904Y47943096D01*
X335799285Y47847858D01*
X335751666Y47800239D01*
X335656428Y47752620D01*
X335465952Y47752620D01*
X335370714Y47800239D01*
X335323095Y47847858D01*
X335275476Y47943096D01*
X335275476Y48133572D01*
X335323095Y48228810D01*
X335370714Y48276429D01*
X335465952Y48324048D01*
X334942142Y48752620D02*
X334275476Y48752620D01*
X334704047Y47752620D01*
%TO.C,D68*%
X263084285Y47847620D02*
X263084285Y48847620D01*
X262846190Y48847620D01*
X262703333Y48800000D01*
X262608095Y48704762D01*
X262560476Y48609524D01*
X262512857Y48419048D01*
X262512857Y48276191D01*
X262560476Y48085715D01*
X262608095Y47990477D01*
X262703333Y47895239D01*
X262846190Y47847620D01*
X263084285Y47847620D01*
X261655714Y48847620D02*
X261846190Y48847620D01*
X261941428Y48800000D01*
X261989047Y48752381D01*
X262084285Y48609524D01*
X262131904Y48419048D01*
X262131904Y48038096D01*
X262084285Y47942858D01*
X262036666Y47895239D01*
X261941428Y47847620D01*
X261750952Y47847620D01*
X261655714Y47895239D01*
X261608095Y47942858D01*
X261560476Y48038096D01*
X261560476Y48276191D01*
X261608095Y48371429D01*
X261655714Y48419048D01*
X261750952Y48466667D01*
X261941428Y48466667D01*
X262036666Y48419048D01*
X262084285Y48371429D01*
X262131904Y48276191D01*
X260989047Y48419048D02*
X261084285Y48466667D01*
X261131904Y48514286D01*
X261179523Y48609524D01*
X261179523Y48657143D01*
X261131904Y48752381D01*
X261084285Y48800000D01*
X260989047Y48847620D01*
X260798571Y48847620D01*
X260703333Y48800000D01*
X260655714Y48752381D01*
X260608095Y48657143D01*
X260608095Y48609524D01*
X260655714Y48514286D01*
X260703333Y48466667D01*
X260798571Y48419048D01*
X260989047Y48419048D01*
X261084285Y48371429D01*
X261131904Y48323810D01*
X261179523Y48228572D01*
X261179523Y48038096D01*
X261131904Y47942858D01*
X261084285Y47895239D01*
X260989047Y47847620D01*
X260798571Y47847620D01*
X260703333Y47895239D01*
X260655714Y47942858D01*
X260608095Y48038096D01*
X260608095Y48228572D01*
X260655714Y48323810D01*
X260703333Y48371429D01*
X260798571Y48419048D01*
%TO.C,D4*%
X16458095Y47947620D02*
X16458095Y48947620D01*
X16220000Y48947620D01*
X16077142Y48900000D01*
X15981904Y48804762D01*
X15934285Y48709524D01*
X15886666Y48519048D01*
X15886666Y48376191D01*
X15934285Y48185715D01*
X15981904Y48090477D01*
X16077142Y47995239D01*
X16220000Y47947620D01*
X16458095Y47947620D01*
X15029523Y48614286D02*
X15029523Y47947620D01*
X15267619Y48995239D02*
X15505714Y48280953D01*
X14886666Y48280953D01*
%TO.C,D40*%
X163604285Y104797620D02*
X163604285Y105797620D01*
X163366190Y105797620D01*
X163223333Y105750000D01*
X163128095Y105654762D01*
X163080476Y105559524D01*
X163032857Y105369048D01*
X163032857Y105226191D01*
X163080476Y105035715D01*
X163128095Y104940477D01*
X163223333Y104845239D01*
X163366190Y104797620D01*
X163604285Y104797620D01*
X162175714Y105464286D02*
X162175714Y104797620D01*
X162413809Y105845239D02*
X162651904Y105130953D01*
X162032857Y105130953D01*
X161461428Y105797620D02*
X161366190Y105797620D01*
X161270952Y105750000D01*
X161223333Y105702381D01*
X161175714Y105607143D01*
X161128095Y105416667D01*
X161128095Y105178572D01*
X161175714Y104988096D01*
X161223333Y104892858D01*
X161270952Y104845239D01*
X161366190Y104797620D01*
X161461428Y104797620D01*
X161556666Y104845239D01*
X161604285Y104892858D01*
X161651904Y104988096D01*
X161699523Y105178572D01*
X161699523Y105416667D01*
X161651904Y105607143D01*
X161604285Y105702381D01*
X161556666Y105750000D01*
X161461428Y105797620D01*
%TO.C,D27*%
X118424285Y28767620D02*
X118424285Y29767620D01*
X118186190Y29767620D01*
X118043333Y29720000D01*
X117948095Y29624762D01*
X117900476Y29529524D01*
X117852857Y29339048D01*
X117852857Y29196191D01*
X117900476Y29005715D01*
X117948095Y28910477D01*
X118043333Y28815239D01*
X118186190Y28767620D01*
X118424285Y28767620D01*
X117471904Y29672381D02*
X117424285Y29720000D01*
X117329047Y29767620D01*
X117090952Y29767620D01*
X116995714Y29720000D01*
X116948095Y29672381D01*
X116900476Y29577143D01*
X116900476Y29481905D01*
X116948095Y29339048D01*
X117519523Y28767620D01*
X116900476Y28767620D01*
X116567142Y29767620D02*
X115900476Y29767620D01*
X116329047Y28767620D01*
%TO.C,D52*%
X205934285Y47797620D02*
X205934285Y48797620D01*
X205696190Y48797620D01*
X205553333Y48750000D01*
X205458095Y48654762D01*
X205410476Y48559524D01*
X205362857Y48369048D01*
X205362857Y48226191D01*
X205410476Y48035715D01*
X205458095Y47940477D01*
X205553333Y47845239D01*
X205696190Y47797620D01*
X205934285Y47797620D01*
X204458095Y48797620D02*
X204934285Y48797620D01*
X204981904Y48321429D01*
X204934285Y48369048D01*
X204839047Y48416667D01*
X204600952Y48416667D01*
X204505714Y48369048D01*
X204458095Y48321429D01*
X204410476Y48226191D01*
X204410476Y47988096D01*
X204458095Y47892858D01*
X204505714Y47845239D01*
X204600952Y47797620D01*
X204839047Y47797620D01*
X204934285Y47845239D01*
X204981904Y47892858D01*
X204029523Y48702381D02*
X203981904Y48750000D01*
X203886666Y48797620D01*
X203648571Y48797620D01*
X203553333Y48750000D01*
X203505714Y48702381D01*
X203458095Y48607143D01*
X203458095Y48511905D01*
X203505714Y48369048D01*
X204077142Y47797620D01*
X203458095Y47797620D01*
%TO.C,D59*%
X233424285Y66837620D02*
X233424285Y67837620D01*
X233186190Y67837620D01*
X233043333Y67790000D01*
X232948095Y67694762D01*
X232900476Y67599524D01*
X232852857Y67409048D01*
X232852857Y67266191D01*
X232900476Y67075715D01*
X232948095Y66980477D01*
X233043333Y66885239D01*
X233186190Y66837620D01*
X233424285Y66837620D01*
X231948095Y67837620D02*
X232424285Y67837620D01*
X232471904Y67361429D01*
X232424285Y67409048D01*
X232329047Y67456667D01*
X232090952Y67456667D01*
X231995714Y67409048D01*
X231948095Y67361429D01*
X231900476Y67266191D01*
X231900476Y67028096D01*
X231948095Y66932858D01*
X231995714Y66885239D01*
X232090952Y66837620D01*
X232329047Y66837620D01*
X232424285Y66885239D01*
X232471904Y66932858D01*
X231424285Y66837620D02*
X231233809Y66837620D01*
X231138571Y66885239D01*
X231090952Y66932858D01*
X230995714Y67075715D01*
X230948095Y67266191D01*
X230948095Y67647143D01*
X230995714Y67742381D01*
X231043333Y67790000D01*
X231138571Y67837620D01*
X231329047Y67837620D01*
X231424285Y67790000D01*
X231471904Y67742381D01*
X231519523Y67647143D01*
X231519523Y67409048D01*
X231471904Y67313810D01*
X231424285Y67266191D01*
X231329047Y67218572D01*
X231138571Y67218572D01*
X231043333Y67266191D01*
X230995714Y67313810D01*
X230948095Y67409048D01*
%TO.C,D46*%
X186834285Y47897620D02*
X186834285Y48897620D01*
X186596190Y48897620D01*
X186453333Y48850000D01*
X186358095Y48754762D01*
X186310476Y48659524D01*
X186262857Y48469048D01*
X186262857Y48326191D01*
X186310476Y48135715D01*
X186358095Y48040477D01*
X186453333Y47945239D01*
X186596190Y47897620D01*
X186834285Y47897620D01*
X185405714Y48564286D02*
X185405714Y47897620D01*
X185643809Y48945239D02*
X185881904Y48230953D01*
X185262857Y48230953D01*
X184453333Y48897620D02*
X184643809Y48897620D01*
X184739047Y48850000D01*
X184786666Y48802381D01*
X184881904Y48659524D01*
X184929523Y48469048D01*
X184929523Y48088096D01*
X184881904Y47992858D01*
X184834285Y47945239D01*
X184739047Y47897620D01*
X184548571Y47897620D01*
X184453333Y47945239D01*
X184405714Y47992858D01*
X184358095Y48088096D01*
X184358095Y48326191D01*
X184405714Y48421429D01*
X184453333Y48469048D01*
X184548571Y48516667D01*
X184739047Y48516667D01*
X184834285Y48469048D01*
X184881904Y48421429D01*
X184929523Y48326191D01*
%TO.C,D24*%
X106404285Y104797620D02*
X106404285Y105797620D01*
X106166190Y105797620D01*
X106023333Y105750000D01*
X105928095Y105654762D01*
X105880476Y105559524D01*
X105832857Y105369048D01*
X105832857Y105226191D01*
X105880476Y105035715D01*
X105928095Y104940477D01*
X106023333Y104845239D01*
X106166190Y104797620D01*
X106404285Y104797620D01*
X105451904Y105702381D02*
X105404285Y105750000D01*
X105309047Y105797620D01*
X105070952Y105797620D01*
X104975714Y105750000D01*
X104928095Y105702381D01*
X104880476Y105607143D01*
X104880476Y105511905D01*
X104928095Y105369048D01*
X105499523Y104797620D01*
X104880476Y104797620D01*
X104023333Y105464286D02*
X104023333Y104797620D01*
X104261428Y105845239D02*
X104499523Y105130953D01*
X103880476Y105130953D01*
%TO.C,EXTRA1*%
X14090000Y97935220D02*
G75*
G03*
X11795678Y96095220I-866J-2349332D01*
G01*
X10204824Y101985216D02*
G75*
G03*
X8204824Y99985220I-4J-1999996D01*
G01*
X18654824Y97935220D02*
G75*
G03*
X19154824Y98435220I-1J500001D01*
G01*
X19154824Y98905220D02*
X19154824Y98435220D01*
X17604824Y101985220D02*
X19154824Y101985220D01*
X8204824Y96335220D02*
X8204824Y96095220D01*
X10204824Y101985220D02*
X16104824Y101985220D01*
X8204824Y99185220D02*
X8204824Y99985220D01*
X18654824Y97935220D02*
X14090000Y97935220D01*
X19154824Y101985220D02*
X19154824Y101755220D01*
D11*
%TO.C,D7*%
X30715000Y102985000D02*
X34615000Y102985000D01*
X30715000Y104985000D02*
X34615000Y104985000D01*
X30715000Y102985000D02*
X30715000Y104985000D01*
%TO.C,D93*%
X349165000Y47535000D02*
X353065000Y47535000D01*
X349165000Y45535000D02*
X349165000Y47535000D01*
X349165000Y45535000D02*
X353065000Y45535000D01*
%TO.C,D61*%
X234815000Y102585000D02*
X238715000Y102585000D01*
X234815000Y104585000D02*
X238715000Y104585000D01*
X234815000Y102585000D02*
X234815000Y104585000D01*
%TO.C,D5*%
X12115000Y26785000D02*
X16015000Y26785000D01*
X12115000Y26785000D02*
X12115000Y28785000D01*
X12115000Y28785000D02*
X16015000Y28785000D01*
%TO.C,C13*%
X208880000Y19780580D02*
X208880000Y19499420D01*
X209900000Y19780580D02*
X209900000Y19499420D01*
%TO.C,D55*%
X215515000Y137785000D02*
X219415000Y137785000D01*
X215515000Y135785000D02*
X215515000Y137785000D01*
X215515000Y135785000D02*
X219415000Y135785000D01*
%TO.C,C14*%
X215800000Y22160580D02*
X215800000Y21879420D01*
X214780000Y22160580D02*
X214780000Y21879420D01*
%TO.C,C4*%
X228820000Y17639420D02*
X228820000Y17920580D01*
X227800000Y17639420D02*
X227800000Y17920580D01*
%TO.C,D56*%
X215815000Y102585000D02*
X219715000Y102585000D01*
X215815000Y102585000D02*
X215815000Y104585000D01*
X215815000Y104585000D02*
X219715000Y104585000D01*
%TO.C,D36*%
X144365000Y45485000D02*
X144365000Y47485000D01*
X144365000Y45485000D02*
X148265000Y45485000D01*
X144365000Y47485000D02*
X148265000Y47485000D01*
%TO.C,C11*%
X209100000Y10220580D02*
X209100000Y9939420D01*
X208080000Y10220580D02*
X208080000Y9939420D01*
%TO.C,D9*%
X30715000Y64785000D02*
X30715000Y66785000D01*
X30715000Y66785000D02*
X34615000Y66785000D01*
X30715000Y64785000D02*
X34615000Y64785000D01*
%TO.C,D64*%
X249115000Y64535000D02*
X253015000Y64535000D01*
X249115000Y64535000D02*
X249115000Y66535000D01*
X249115000Y66535000D02*
X253015000Y66535000D01*
%TO.C,D15*%
X64615000Y83685000D02*
X64615000Y85685000D01*
X64615000Y85685000D02*
X68515000Y85685000D01*
X64615000Y83685000D02*
X68515000Y83685000D01*
%TO.C,D30*%
X120515000Y104685000D02*
X124415000Y104685000D01*
X120515000Y102685000D02*
X124415000Y102685000D01*
X120515000Y102685000D02*
X120515000Y104685000D01*
%TO.C,R5*%
X39142500Y133322258D02*
X39142500Y132847742D01*
X40187500Y133322258D02*
X40187500Y132847742D01*
%TO.C,D39*%
X158415000Y137885000D02*
X162315000Y137885000D01*
X158415000Y135885000D02*
X158415000Y137885000D01*
X158415000Y135885000D02*
X162315000Y135885000D01*
%TO.C,C1*%
X164990000Y16849420D02*
X164990000Y17130580D01*
X166010000Y16849420D02*
X166010000Y17130580D01*
%TO.C,D12*%
X63115000Y137885000D02*
X67015000Y137885000D01*
X63115000Y135885000D02*
X67015000Y135885000D01*
X63115000Y135885000D02*
X63115000Y137885000D01*
%TO.C,D10*%
X31815000Y47685000D02*
X35715000Y47685000D01*
X31815000Y45685000D02*
X31815000Y47685000D01*
X31815000Y45685000D02*
X35715000Y45685000D01*
%TO.C,D33*%
X134865000Y64535000D02*
X138765000Y64535000D01*
X134865000Y64535000D02*
X134865000Y66535000D01*
X134865000Y66535000D02*
X138765000Y66535000D01*
%TO.C,J1*%
X45360000Y144880000D02*
X45360000Y146030000D01*
X36020000Y144880000D02*
X36020000Y146030000D01*
X45360000Y142780000D02*
X45360000Y140980000D01*
X36020000Y142780000D02*
X36020000Y140980000D01*
%TO.C,D35*%
X139615000Y102485000D02*
X143515000Y102485000D01*
X139615000Y102485000D02*
X139615000Y104485000D01*
X139615000Y104485000D02*
X143515000Y104485000D01*
%TO.C,D41*%
X163415000Y45485000D02*
X163415000Y47485000D01*
X163415000Y47485000D02*
X167315000Y47485000D01*
X163415000Y45485000D02*
X167315000Y45485000D01*
%TO.C,C2*%
X213410000Y24190580D02*
X213410000Y23909420D01*
X212390000Y24190580D02*
X212390000Y23909420D01*
%TO.C,D34*%
X139515000Y135885000D02*
X139515000Y137885000D01*
X139515000Y137885000D02*
X143415000Y137885000D01*
X139515000Y135885000D02*
X143415000Y135885000D01*
%TO.C,D79*%
X292015000Y28435000D02*
X295915000Y28435000D01*
X292015000Y26435000D02*
X292015000Y28435000D01*
X292015000Y26435000D02*
X295915000Y26435000D01*
%TO.C,C9*%
X227590000Y9559420D02*
X227590000Y9840580D01*
X228610000Y9559420D02*
X228610000Y9840580D01*
%TO.C,R6*%
X205617500Y11027258D02*
X205617500Y10552742D01*
X206662500Y11027258D02*
X206662500Y10552742D01*
%TO.C,D90*%
X346515000Y104885000D02*
X350415000Y104885000D01*
X346515000Y102885000D02*
X346515000Y104885000D01*
X346515000Y102885000D02*
X350415000Y102885000D01*
%TO.C,D48*%
X187215000Y83685000D02*
X187215000Y85685000D01*
X187215000Y83685000D02*
X191115000Y83685000D01*
X187215000Y85685000D02*
X191115000Y85685000D01*
%TO.C,D63*%
X244315000Y85385000D02*
X248215000Y85385000D01*
X244315000Y83385000D02*
X244315000Y85385000D01*
X244315000Y83385000D02*
X248215000Y83385000D01*
%TO.C,D25*%
X106215000Y47485000D02*
X110115000Y47485000D01*
X106215000Y45485000D02*
X106215000Y47485000D01*
X106215000Y45485000D02*
X110115000Y45485000D01*
%TO.C,D53*%
X206215000Y85585000D02*
X210115000Y85585000D01*
X206215000Y83585000D02*
X206215000Y85585000D01*
X206215000Y83585000D02*
X210115000Y83585000D01*
%TO.C,D14*%
X64615000Y28585000D02*
X68515000Y28585000D01*
X64615000Y26585000D02*
X68515000Y26585000D01*
X64615000Y26585000D02*
X64615000Y28585000D01*
%TO.C,D50*%
X196115000Y135985000D02*
X196115000Y137985000D01*
X196115000Y135985000D02*
X200015000Y135985000D01*
X196115000Y137985000D02*
X200015000Y137985000D01*
%TO.C,D47*%
X184815000Y28335000D02*
X188715000Y28335000D01*
X184815000Y26335000D02*
X188715000Y26335000D01*
X184815000Y26335000D02*
X184815000Y28335000D01*
%TO.C,D6*%
X37215000Y120285000D02*
X37215000Y118285000D01*
X37215000Y120285000D02*
X33315000Y120285000D01*
X37215000Y118285000D02*
X33315000Y118285000D01*
%TO.C,D45*%
X177715000Y102585000D02*
X177715000Y104585000D01*
X177715000Y104585000D02*
X181615000Y104585000D01*
X177715000Y102585000D02*
X181615000Y102585000D01*
%TO.C,D28*%
X115765000Y64585000D02*
X115765000Y66585000D01*
X115765000Y66585000D02*
X119665000Y66585000D01*
X115765000Y64585000D02*
X119665000Y64585000D01*
%TO.C,C5*%
X201140000Y23469420D02*
X201140000Y23750580D01*
X202160000Y23469420D02*
X202160000Y23750580D01*
%TO.C,D26*%
X110115000Y85485000D02*
X114015000Y85485000D01*
X110115000Y83485000D02*
X114015000Y83485000D01*
X110115000Y83485000D02*
X110115000Y85485000D01*
%TO.C,D42*%
X168215000Y83685000D02*
X168215000Y85685000D01*
X168215000Y85685000D02*
X172115000Y85685000D01*
X168215000Y83685000D02*
X172115000Y83685000D01*
%TO.C,D62*%
X239615000Y45585000D02*
X239615000Y47585000D01*
X239615000Y45585000D02*
X243515000Y45585000D01*
X239615000Y47585000D02*
X243515000Y47585000D01*
%TO.C,D94*%
X345415000Y138185000D02*
X349315000Y138185000D01*
X345415000Y136185000D02*
X349315000Y136185000D01*
X345415000Y136185000D02*
X345415000Y138185000D01*
%TO.C,D83*%
X311065000Y26385000D02*
X314965000Y26385000D01*
X311065000Y26385000D02*
X311065000Y28385000D01*
X311065000Y28385000D02*
X314965000Y28385000D01*
%TO.C,D92*%
X349115000Y64585000D02*
X349115000Y66585000D01*
X349115000Y66585000D02*
X353015000Y66585000D01*
X349115000Y64585000D02*
X353015000Y64585000D01*
%TO.C,D11*%
X32915000Y26585000D02*
X32915000Y28585000D01*
X32915000Y26585000D02*
X36815000Y26585000D01*
X32915000Y28585000D02*
X36815000Y28585000D01*
%TO.C,D22*%
X96765000Y64535000D02*
X96765000Y66535000D01*
X96765000Y64535000D02*
X100665000Y64535000D01*
X96765000Y66535000D02*
X100665000Y66535000D01*
%TO.C,C10*%
X203790000Y9550580D02*
X203790000Y9269420D01*
X204810000Y9550580D02*
X204810000Y9269420D01*
%TO.C,D19*%
X82415000Y104685000D02*
X86315000Y104685000D01*
X82415000Y102685000D02*
X82415000Y104685000D01*
X82415000Y102685000D02*
X86315000Y102685000D01*
%TO.C,D54*%
X211015000Y64535000D02*
X214915000Y64535000D01*
X211015000Y66535000D02*
X214915000Y66535000D01*
X211015000Y64535000D02*
X211015000Y66535000D01*
%TO.C,D91*%
X345815000Y83385000D02*
X349715000Y83385000D01*
X345815000Y85385000D02*
X349715000Y85385000D01*
X345815000Y83385000D02*
X345815000Y85385000D01*
%TO.C,D71*%
X272915000Y137785000D02*
X276815000Y137785000D01*
X272915000Y135785000D02*
X272915000Y137785000D01*
X272915000Y135785000D02*
X276815000Y135785000D01*
%TO.C,D76*%
X287265000Y64635000D02*
X291165000Y64635000D01*
X287265000Y66635000D02*
X291165000Y66635000D01*
X287265000Y64635000D02*
X287265000Y66635000D01*
%TO.C,D72*%
X272915000Y104585000D02*
X276815000Y104585000D01*
X272915000Y102585000D02*
X276815000Y102585000D01*
X272915000Y102585000D02*
X272915000Y104585000D01*
%TO.C,D73*%
X272965000Y28435000D02*
X276865000Y28435000D01*
X272965000Y26435000D02*
X276865000Y26435000D01*
X272965000Y26435000D02*
X272965000Y28435000D01*
%TO.C,C6*%
X212020000Y18570580D02*
X212020000Y18289420D01*
X213040000Y18570580D02*
X213040000Y18289420D01*
%TO.C,D13*%
X61415000Y102885000D02*
X61415000Y104885000D01*
X61415000Y102885000D02*
X65315000Y102885000D01*
X61415000Y104885000D02*
X65315000Y104885000D01*
%TO.C,D16*%
X69015000Y64485000D02*
X69015000Y66485000D01*
X69015000Y64485000D02*
X72915000Y64485000D01*
X69015000Y66485000D02*
X72915000Y66485000D01*
%TO.C,D31*%
X125315000Y45435000D02*
X125315000Y47435000D01*
X125315000Y47435000D02*
X129215000Y47435000D01*
X125315000Y45435000D02*
X129215000Y45435000D01*
%TO.C,D21*%
X91415000Y85285000D02*
X95315000Y85285000D01*
X91415000Y83285000D02*
X95315000Y83285000D01*
X91415000Y83285000D02*
X91415000Y85285000D01*
%TO.C,D95*%
X349165000Y26285000D02*
X353065000Y26285000D01*
X349165000Y28285000D02*
X353065000Y28285000D01*
X349165000Y26285000D02*
X349165000Y28285000D01*
%TO.C,C7*%
X223635580Y21760000D02*
X223354420Y21760000D01*
X223635580Y22780000D02*
X223354420Y22780000D01*
%TO.C,D82*%
X310615000Y135785000D02*
X314515000Y135785000D01*
X310615000Y135785000D02*
X310615000Y137785000D01*
X310615000Y137785000D02*
X314515000Y137785000D01*
%TO.C,D88*%
X330115000Y26385000D02*
X330115000Y28385000D01*
X330115000Y26385000D02*
X334015000Y26385000D01*
X330115000Y28385000D02*
X334015000Y28385000D01*
%TO.C,D66*%
X253915000Y102485000D02*
X253915000Y104485000D01*
X253915000Y104485000D02*
X257815000Y104485000D01*
X253915000Y102485000D02*
X257815000Y102485000D01*
%TO.C,D23*%
X101415000Y135885000D02*
X101415000Y137885000D01*
X101415000Y137885000D02*
X105315000Y137885000D01*
X101415000Y135885000D02*
X105315000Y135885000D01*
%TO.C,D75*%
X282515000Y85585000D02*
X286415000Y85585000D01*
X282515000Y83585000D02*
X282515000Y85585000D01*
X282515000Y83585000D02*
X286415000Y83585000D01*
%TO.C,D77*%
X291715000Y137785000D02*
X295615000Y137785000D01*
X291715000Y135785000D02*
X295615000Y135785000D01*
X291715000Y135785000D02*
X291715000Y137785000D01*
%TO.C,SW2*%
X159515000Y26305000D02*
X160005000Y25815000D01*
X159515000Y20865000D02*
X160005000Y21355000D01*
X156615000Y20865000D02*
X156125000Y21355000D01*
X159515000Y20865000D02*
X156615000Y20865000D01*
X156615000Y26305000D02*
X156125000Y25815000D01*
X160785000Y22545000D02*
X160785000Y24625000D01*
X155345000Y22545000D02*
X155345000Y24625000D01*
X159515000Y26305000D02*
X156615000Y26305000D01*
%TO.C,D43*%
X172915000Y64485000D02*
X172915000Y66485000D01*
X172915000Y66485000D02*
X176815000Y66485000D01*
X172915000Y64485000D02*
X176815000Y64485000D01*
%TO.C,SW1*%
X159515000Y19905000D02*
X160005000Y19415000D01*
X156615000Y14465000D02*
X156125000Y14955000D01*
X159515000Y14465000D02*
X160005000Y14955000D01*
X159515000Y14465000D02*
X156615000Y14465000D01*
X159515000Y19905000D02*
X156615000Y19905000D01*
X156615000Y19905000D02*
X156125000Y19415000D01*
X160785000Y16145000D02*
X160785000Y18225000D01*
X155345000Y16145000D02*
X155345000Y18225000D01*
%TO.C,U3*%
X204865000Y24445000D02*
X204215000Y24445000D01*
X204865000Y24445000D02*
X206540000Y24445000D01*
X204865000Y21325000D02*
X205515000Y21325000D01*
X204865000Y21325000D02*
X204215000Y21325000D01*
%TO.C,R4*%
X38402500Y131292258D02*
X38402500Y130817742D01*
X37357500Y131292258D02*
X37357500Y130817742D01*
%TO.C,D89*%
X329815000Y137885000D02*
X333715000Y137885000D01*
X329815000Y135885000D02*
X329815000Y137885000D01*
X329815000Y135885000D02*
X333715000Y135885000D01*
%TO.C,D29*%
X120515000Y135785000D02*
X120515000Y137785000D01*
X120515000Y135785000D02*
X124415000Y135785000D01*
X120515000Y137785000D02*
X124415000Y137785000D01*
%TO.C,D2*%
X12115000Y83785000D02*
X16015000Y83785000D01*
X12115000Y85785000D02*
X16015000Y85785000D01*
X12115000Y83785000D02*
X12115000Y85785000D01*
%TO.C,D17*%
X75265000Y45485000D02*
X79165000Y45485000D01*
X75265000Y47485000D02*
X79165000Y47485000D01*
X75265000Y45485000D02*
X75265000Y47485000D01*
%TO.C,D37*%
X149015000Y83585000D02*
X149015000Y85585000D01*
X149015000Y85585000D02*
X152915000Y85585000D01*
X149015000Y83585000D02*
X152915000Y83585000D01*
%TO.C,C12*%
X226190580Y23440000D02*
X225909420Y23440000D01*
X226190580Y24460000D02*
X225909420Y24460000D01*
%TO.C,D84*%
X317515000Y102885000D02*
X317515000Y104885000D01*
X317515000Y104885000D02*
X321415000Y104885000D01*
X317515000Y102885000D02*
X321415000Y102885000D01*
%TO.C,D80*%
X299740000Y83500000D02*
X299740000Y85500000D01*
X299740000Y83500000D02*
X303640000Y83500000D01*
X299740000Y85500000D02*
X303640000Y85500000D01*
%TO.C,D20*%
X89565000Y28385000D02*
X93465000Y28385000D01*
X89565000Y26385000D02*
X89565000Y28385000D01*
X89565000Y26385000D02*
X93465000Y26385000D01*
%TO.C,D32*%
X130115000Y83585000D02*
X130115000Y85585000D01*
X130115000Y85585000D02*
X134015000Y85585000D01*
X130115000Y83585000D02*
X134015000Y83585000D01*
%TO.C,D69*%
X262715000Y83485000D02*
X262715000Y85485000D01*
X262715000Y85485000D02*
X266615000Y85485000D01*
X262715000Y83485000D02*
X266615000Y83485000D01*
%TO.C,R7*%
X209882500Y10582258D02*
X209882500Y10107742D01*
X210927500Y10582258D02*
X210927500Y10107742D01*
%TO.C,D18*%
X82015000Y137785000D02*
X85915000Y137785000D01*
X82015000Y135785000D02*
X82015000Y137785000D01*
X82015000Y135785000D02*
X85915000Y135785000D01*
%TO.C,D74*%
X277715000Y45485000D02*
X277715000Y47485000D01*
X277715000Y47485000D02*
X281615000Y47485000D01*
X277715000Y45485000D02*
X281615000Y45485000D01*
%TO.C,D57*%
X220565000Y45385000D02*
X220565000Y47385000D01*
X220565000Y45385000D02*
X224465000Y45385000D01*
X220565000Y47385000D02*
X224465000Y47385000D01*
%TO.C,D70*%
X268165000Y64485000D02*
X268165000Y66485000D01*
X268165000Y66485000D02*
X272065000Y66485000D01*
X268165000Y64485000D02*
X272065000Y64485000D01*
%TO.C,D85*%
X318165000Y66485000D02*
X322065000Y66485000D01*
X318165000Y64485000D02*
X318165000Y66485000D01*
X318165000Y64485000D02*
X322065000Y64485000D01*
%TO.C,D1*%
X11815000Y102985000D02*
X11815000Y104985000D01*
X11815000Y104985000D02*
X15715000Y104985000D01*
X11815000Y102985000D02*
X15715000Y102985000D01*
%TO.C,D78*%
X288515000Y102685000D02*
X292415000Y102685000D01*
X288515000Y104685000D02*
X292415000Y104685000D01*
X288515000Y102685000D02*
X288515000Y104685000D01*
%TO.C,D60*%
X234815000Y135885000D02*
X234815000Y137885000D01*
X234815000Y135885000D02*
X238715000Y135885000D01*
X234815000Y137885000D02*
X238715000Y137885000D01*
%TO.C,D3*%
X12115000Y64760000D02*
X16015000Y64760000D01*
X12115000Y64760000D02*
X12115000Y66760000D01*
X12115000Y66760000D02*
X16015000Y66760000D01*
%TO.C,D49*%
X191965000Y64535000D02*
X191965000Y66535000D01*
X191965000Y64535000D02*
X195865000Y64535000D01*
X191965000Y66535000D02*
X195865000Y66535000D01*
%TO.C,U1*%
X225475000Y18820000D02*
X225475000Y19770000D01*
X215255000Y19770000D02*
X216205000Y19770000D01*
X225475000Y19770000D02*
X224525000Y19770000D01*
X215255000Y10500000D02*
X215255000Y9550000D01*
X215255000Y9550000D02*
X216205000Y9550000D01*
X225475000Y10500000D02*
X225475000Y9550000D01*
X225475000Y9550000D02*
X224525000Y9550000D01*
X216205000Y19770000D02*
X216205000Y21110000D01*
X215255000Y18820000D02*
X215255000Y19770000D01*
%TO.C,C8*%
X208300000Y22369420D02*
X208300000Y22650580D01*
X207280000Y22369420D02*
X207280000Y22650580D01*
%TO.C,D44*%
X176415000Y135885000D02*
X180315000Y135885000D01*
X176415000Y135885000D02*
X176415000Y137885000D01*
X176415000Y137885000D02*
X180315000Y137885000D01*
%TO.C,R3*%
X164387500Y16747742D02*
X164387500Y17222258D01*
X163342500Y16747742D02*
X163342500Y17222258D01*
%TO.C,D51*%
X196715000Y102685000D02*
X196715000Y104685000D01*
X196715000Y104685000D02*
X200615000Y104685000D01*
X196715000Y102685000D02*
X200615000Y102685000D01*
%TO.C,D58*%
X225315000Y83585000D02*
X225315000Y85585000D01*
X225315000Y85585000D02*
X229215000Y85585000D01*
X225315000Y83585000D02*
X229215000Y83585000D01*
%TO.C,D38*%
X153865000Y64585000D02*
X157765000Y64585000D01*
X153865000Y64585000D02*
X153865000Y66585000D01*
X153865000Y66585000D02*
X157765000Y66585000D01*
%TO.C,D65*%
X253715000Y137885000D02*
X257615000Y137885000D01*
X253715000Y135885000D02*
X257615000Y135885000D01*
X253715000Y135885000D02*
X253715000Y137885000D01*
%TO.C,C3*%
X213580000Y8740580D02*
X213580000Y8459420D01*
X214600000Y8740580D02*
X214600000Y8459420D01*
%TO.C,D67*%
X253915000Y26435000D02*
X253915000Y28435000D01*
X253915000Y26435000D02*
X257815000Y26435000D01*
X253915000Y28435000D02*
X257815000Y28435000D01*
%TO.C,D81*%
X296870000Y45500000D02*
X300770000Y45500000D01*
X296870000Y47500000D02*
X300770000Y47500000D01*
X296870000Y45500000D02*
X296870000Y47500000D01*
%TO.C,D8*%
X31415000Y83885000D02*
X31415000Y85885000D01*
X31415000Y83885000D02*
X35315000Y83885000D01*
X31415000Y85885000D02*
X35315000Y85885000D01*
%TO.C,D86*%
X323880000Y83610000D02*
X323880000Y85610000D01*
X323880000Y83610000D02*
X327780000Y83610000D01*
X323880000Y85610000D02*
X327780000Y85610000D01*
%TO.C,D87*%
X332380000Y47390000D02*
X336280000Y47390000D01*
X332380000Y45390000D02*
X336280000Y45390000D01*
X332380000Y45390000D02*
X332380000Y47390000D01*
%TO.C,D68*%
X258665000Y47485000D02*
X262565000Y47485000D01*
X258665000Y45485000D02*
X258665000Y47485000D01*
X258665000Y45485000D02*
X262565000Y45485000D01*
%TO.C,D4*%
X12515000Y45585000D02*
X16415000Y45585000D01*
X12515000Y45585000D02*
X12515000Y47585000D01*
X12515000Y47585000D02*
X16415000Y47585000D01*
%TO.C,D40*%
X158615000Y102485000D02*
X162515000Y102485000D01*
X158615000Y104485000D02*
X162515000Y104485000D01*
X158615000Y102485000D02*
X158615000Y104485000D01*
%TO.C,D27*%
X113415000Y26435000D02*
X117315000Y26435000D01*
X113415000Y28435000D02*
X117315000Y28435000D01*
X113415000Y26435000D02*
X113415000Y28435000D01*
%TO.C,D52*%
X201515000Y47435000D02*
X205415000Y47435000D01*
X201515000Y45435000D02*
X201515000Y47435000D01*
X201515000Y45435000D02*
X205415000Y45435000D01*
%TO.C,D59*%
X230065000Y66535000D02*
X233965000Y66535000D01*
X230065000Y64535000D02*
X230065000Y66535000D01*
X230065000Y64535000D02*
X233965000Y64535000D01*
%TO.C,D46*%
X182415000Y47535000D02*
X186315000Y47535000D01*
X182415000Y45535000D02*
X182415000Y47535000D01*
X182415000Y45535000D02*
X186315000Y45535000D01*
%TO.C,D24*%
X101415000Y102485000D02*
X105315000Y102485000D01*
X101415000Y104485000D02*
X105315000Y104485000D01*
X101415000Y102485000D02*
X101415000Y104485000D01*
%TD*%
%LPC*%
D12*
%TO.C,EXTRA1*%
X20380000Y100315000D03*
D13*
X16830000Y100315000D03*
X10480000Y97775000D03*
D12*
X6930000Y97775000D03*
D14*
X19370000Y95235000D03*
D15*
X14290000Y95235000D03*
D14*
X9210000Y95235000D03*
%TD*%
D16*
%TO.C,Num3*%
X115255000Y97775000D03*
D14*
X124145000Y95235000D03*
D16*
X121605000Y100315000D03*
D14*
X113985000Y95235000D03*
D15*
X119065000Y95235000D03*
D17*
X111980000Y97775000D03*
X124907000Y100315000D03*
%TD*%
D14*
%TO.C,FNKEY1*%
X276545000Y19035000D03*
D15*
X271465000Y19035000D03*
D16*
X274005000Y24115000D03*
X267655000Y21575000D03*
D14*
X266385000Y19035000D03*
D17*
X264380000Y21575000D03*
X277307000Y24115000D03*
%TD*%
D15*
%TO.C,F2*%
X100015000Y128572500D03*
D16*
X102555000Y133652500D03*
X96205000Y131112500D03*
D14*
X105095000Y128572500D03*
X94935000Y128572500D03*
D17*
X92930000Y131112500D03*
X105857000Y133652500D03*
%TD*%
D14*
%TO.C,F5*%
X162245000Y128572500D03*
D16*
X153355000Y131112500D03*
X159705000Y133652500D03*
D14*
X152085000Y128572500D03*
D15*
X157165000Y128572500D03*
D17*
X150080000Y131112500D03*
X163007000Y133652500D03*
%TD*%
D16*
%TO.C,G1*%
X173992500Y62215000D03*
X167642500Y59675000D03*
D15*
X171452500Y57135000D03*
D14*
X176532500Y57135000D03*
X166372500Y57135000D03*
D17*
X164367500Y59675000D03*
X177294500Y62215000D03*
%TD*%
D14*
%TO.C,EXTRA6*%
X28260000Y95235000D03*
X38420000Y95235000D03*
D16*
X29530000Y97775000D03*
X35880000Y100315000D03*
D15*
X33340000Y95235000D03*
D17*
X26255000Y97775000D03*
X39182000Y100315000D03*
%TD*%
D16*
%TO.C,L1*%
X243842500Y59675000D03*
D14*
X242572500Y57135000D03*
D15*
X247652500Y57135000D03*
D16*
X250192500Y62215000D03*
D14*
X252732500Y57135000D03*
D17*
X240567500Y59675000D03*
X253494500Y62215000D03*
%TD*%
D15*
%TO.C,Num7*%
X195265000Y95235000D03*
D14*
X190185000Y95235000D03*
D16*
X197805000Y100315000D03*
D14*
X200345000Y95235000D03*
D16*
X191455000Y97775000D03*
D17*
X188180000Y97775000D03*
X201107000Y100315000D03*
%TD*%
D16*
%TO.C,MinusSign1*%
X274005000Y100315000D03*
X267655000Y97775000D03*
D15*
X271465000Y95235000D03*
D14*
X276545000Y95235000D03*
X266385000Y95235000D03*
D17*
X264380000Y97775000D03*
X277307000Y100315000D03*
%TD*%
D14*
%TO.C,EXTRA8*%
X38420000Y57135000D03*
X28260000Y57135000D03*
D16*
X35880000Y62215000D03*
D15*
X33340000Y57135000D03*
D16*
X29530000Y59675000D03*
D17*
X26255000Y59675000D03*
X39182000Y62215000D03*
%TD*%
D14*
%TO.C,K1*%
X223522500Y57135000D03*
X233682500Y57135000D03*
D15*
X228602500Y57135000D03*
D16*
X231142500Y62215000D03*
X224792500Y59675000D03*
D17*
X221517500Y59675000D03*
X234444500Y62215000D03*
%TD*%
D14*
%TO.C,EXTRA9*%
X38420000Y38085000D03*
X28260000Y38085000D03*
D15*
X33340000Y38085000D03*
D16*
X35880000Y43165000D03*
X29530000Y40625000D03*
D17*
X26255000Y40625000D03*
X39182000Y43165000D03*
%TD*%
D14*
%TO.C,I1*%
X218760000Y76185000D03*
D16*
X226380000Y81265000D03*
D15*
X223840000Y76185000D03*
D16*
X220030000Y78725000D03*
D14*
X228920000Y76185000D03*
D17*
X216755000Y78725000D03*
X229682000Y81265000D03*
%TD*%
D14*
%TO.C,WINDOWSKEY1*%
X83010000Y19035000D03*
X93170000Y19035000D03*
D16*
X90630000Y24115000D03*
D15*
X88090000Y19035000D03*
D16*
X84280000Y21575000D03*
D17*
X81005000Y21575000D03*
X93932000Y24115000D03*
%TD*%
D16*
%TO.C,Num8*%
X216855000Y100315000D03*
X210505000Y97775000D03*
D14*
X209235000Y95235000D03*
X219395000Y95235000D03*
D15*
X214315000Y95235000D03*
D17*
X207230000Y97775000D03*
X220157000Y100315000D03*
%TD*%
D14*
%TO.C,E1*%
X123510000Y76185000D03*
D16*
X131130000Y81265000D03*
X124780000Y78725000D03*
D15*
X128590000Y76185000D03*
D14*
X133670000Y76185000D03*
D17*
X121505000Y78725000D03*
X134432000Y81265000D03*
%TD*%
D16*
%TO.C,Num2*%
X102555000Y100315000D03*
X96205000Y97775000D03*
D15*
X100015000Y95235000D03*
D14*
X94935000Y95235000D03*
X105095000Y95235000D03*
D17*
X92930000Y97775000D03*
X105857000Y100315000D03*
%TD*%
D14*
%TO.C,Q1*%
X85410000Y76185000D03*
D15*
X90490000Y76185000D03*
D14*
X95570000Y76185000D03*
D16*
X86680000Y78725000D03*
X93030000Y81265000D03*
D17*
X83405000Y78725000D03*
X96332000Y81265000D03*
%TD*%
D14*
%TO.C,Jkey1*%
X204472500Y57135000D03*
D16*
X212092500Y62215000D03*
D14*
X214632500Y57135000D03*
D16*
X205742500Y59675000D03*
D15*
X209552500Y57135000D03*
D17*
X202467500Y59675000D03*
X215394500Y62215000D03*
%TD*%
D16*
%TO.C,EXTRA5*%
X10480000Y21575000D03*
D14*
X9210000Y19035000D03*
D16*
X16830000Y24115000D03*
D14*
X19370000Y19035000D03*
D15*
X14290000Y19035000D03*
D17*
X7205000Y21575000D03*
X20132000Y24115000D03*
%TD*%
D14*
%TO.C,U2*%
X209870000Y76185000D03*
D16*
X200980000Y78725000D03*
D14*
X199710000Y76185000D03*
D16*
X207330000Y81265000D03*
D15*
X204790000Y76185000D03*
D17*
X197705000Y78725000D03*
X210632000Y81265000D03*
%TD*%
D14*
%TO.C,T1*%
X161610000Y76185000D03*
D16*
X169230000Y81265000D03*
D15*
X166690000Y76185000D03*
D16*
X162880000Y78725000D03*
D14*
X171770000Y76185000D03*
D17*
X159605000Y78725000D03*
X172532000Y81265000D03*
%TD*%
D14*
%TO.C,ESC1*%
X66995000Y128572500D03*
D16*
X58105000Y131112500D03*
D14*
X56835000Y128572500D03*
D16*
X64455000Y133652500D03*
D15*
X61915000Y128572500D03*
D17*
X54830000Y131112500D03*
X67757000Y133652500D03*
%TD*%
D16*
%TO.C,F4*%
X134305000Y131112500D03*
D14*
X133035000Y128572500D03*
X143195000Y128572500D03*
D16*
X140655000Y133652500D03*
D15*
X138115000Y128572500D03*
D17*
X131030000Y131112500D03*
X143957000Y133652500D03*
%TD*%
D15*
%TO.C,EXTRA3*%
X14290000Y57135000D03*
D16*
X16830000Y62215000D03*
D14*
X9210000Y57135000D03*
D16*
X10480000Y59675000D03*
D14*
X19370000Y57135000D03*
D17*
X7205000Y59675000D03*
X20132000Y62215000D03*
%TD*%
D16*
%TO.C,PRTSC1*%
X331155000Y133652500D03*
X324805000Y131112500D03*
D15*
X328615000Y128572500D03*
D14*
X333695000Y128572500D03*
X323535000Y128572500D03*
D17*
X321530000Y131112500D03*
X334457000Y133652500D03*
%TD*%
D16*
%TO.C,F6*%
X172405000Y131112500D03*
D14*
X171135000Y128572500D03*
D16*
X178755000Y133652500D03*
D15*
X176215000Y128572500D03*
D14*
X181295000Y128572500D03*
D17*
X169130000Y131112500D03*
X182057000Y133652500D03*
%TD*%
D15*
%TO.C,Num1*%
X80965000Y95235000D03*
D16*
X77155000Y97775000D03*
D14*
X75885000Y95235000D03*
D16*
X83505000Y100315000D03*
D14*
X86045000Y95235000D03*
D17*
X73880000Y97775000D03*
X86807000Y100315000D03*
%TD*%
D14*
%TO.C,F8*%
X209235000Y128572500D03*
D16*
X216855000Y133652500D03*
D14*
X219395000Y128572500D03*
D15*
X214315000Y128572500D03*
D16*
X210505000Y131112500D03*
D17*
X207230000Y131112500D03*
X220157000Y133652500D03*
%TD*%
D16*
%TO.C,RIGHTALT1*%
X248605000Y21575000D03*
D14*
X247335000Y19035000D03*
X257495000Y19035000D03*
D15*
X252415000Y19035000D03*
D16*
X254955000Y24115000D03*
D17*
X245330000Y21575000D03*
X258257000Y24115000D03*
%TD*%
D16*
%TO.C,EqualSign1*%
X293055000Y100315000D03*
X286705000Y97775000D03*
D14*
X295595000Y95235000D03*
X285435000Y95235000D03*
D15*
X290515000Y95235000D03*
D17*
X283430000Y97775000D03*
X296357000Y100315000D03*
%TD*%
D14*
%TO.C,M1*%
X213997500Y38085000D03*
D16*
X215267500Y40625000D03*
D14*
X224157500Y38085000D03*
D16*
X221617500Y43165000D03*
D15*
X219077500Y38085000D03*
D17*
X211992500Y40625000D03*
X224919500Y43165000D03*
%TD*%
D16*
%TO.C,Dkey1*%
X135892500Y62215000D03*
D15*
X133352500Y57135000D03*
D16*
X129542500Y59675000D03*
D14*
X128272500Y57135000D03*
X138432500Y57135000D03*
D17*
X126267500Y59675000D03*
X139194500Y62215000D03*
%TD*%
D14*
%TO.C,F7*%
X200345000Y128572500D03*
X190185000Y128572500D03*
D16*
X191455000Y131112500D03*
X197805000Y133652500D03*
D15*
X195265000Y128572500D03*
D17*
X188180000Y131112500D03*
X201107000Y133652500D03*
%TD*%
D14*
%TO.C,A1*%
X90172500Y57135000D03*
D16*
X91442500Y59675000D03*
D14*
X100332500Y57135000D03*
D15*
X95252500Y57135000D03*
D16*
X97792500Y62215000D03*
D17*
X88167500Y59675000D03*
X101094500Y62215000D03*
%TD*%
D16*
%TO.C,O1*%
X245430000Y81265000D03*
X239080000Y78725000D03*
D14*
X237810000Y76185000D03*
D15*
X242890000Y76185000D03*
D14*
X247970000Y76185000D03*
D17*
X235805000Y78725000D03*
X248732000Y81265000D03*
%TD*%
D16*
%TO.C,LEFTCTRL1*%
X66817500Y24115000D03*
D14*
X59197500Y19035000D03*
D16*
X60467500Y21575000D03*
D14*
X69357500Y19035000D03*
D15*
X64277500Y19035000D03*
D17*
X57192500Y21575000D03*
X70119500Y24115000D03*
%TD*%
D15*
%TO.C,SPACEBAR1*%
X183340000Y19035000D03*
X233339900Y10780000D03*
D16*
X179530000Y21575000D03*
D14*
X188420000Y19035000D03*
X178260000Y19035000D03*
D18*
X233339900Y26020000D03*
X133340100Y26020000D03*
D16*
X185880000Y24115000D03*
D15*
X133340100Y10780000D03*
D17*
X176255000Y21575000D03*
X189182000Y24115000D03*
%TD*%
D19*
%TO.C,H3*%
X55830000Y39720000D03*
%TD*%
D15*
%TO.C,P1*%
X261940000Y76185000D03*
D14*
X267020000Y76185000D03*
X256860000Y76185000D03*
D16*
X258130000Y78725000D03*
X264480000Y81265000D03*
D17*
X254855000Y78725000D03*
X267782000Y81265000D03*
%TD*%
D16*
%TO.C,Quote1*%
X281942500Y59675000D03*
D14*
X290832500Y57135000D03*
D16*
X288292500Y62215000D03*
D15*
X285752500Y57135000D03*
D14*
X280672500Y57135000D03*
D17*
X278667500Y59675000D03*
X291594500Y62215000D03*
%TD*%
D16*
%TO.C,Fkey1*%
X154942500Y62215000D03*
D14*
X147322500Y57135000D03*
X157482500Y57135000D03*
D15*
X152402500Y57135000D03*
D16*
X148592500Y59675000D03*
D17*
X145317500Y59675000D03*
X158244500Y62215000D03*
%TD*%
D16*
%TO.C,RIGHTCONTROL1*%
X286705000Y21575000D03*
D14*
X285435000Y19035000D03*
D16*
X293055000Y24115000D03*
D15*
X290515000Y19035000D03*
D14*
X295595000Y19035000D03*
D17*
X283430000Y21575000D03*
X296357000Y24115000D03*
%TD*%
D15*
%TO.C,F10*%
X252415000Y128572500D03*
D16*
X248605000Y131112500D03*
D14*
X257495000Y128572500D03*
D16*
X254955000Y133652500D03*
D14*
X247335000Y128572500D03*
D17*
X245330000Y131112500D03*
X258257000Y133652500D03*
%TD*%
D14*
%TO.C,Ckey1*%
X137797500Y38085000D03*
D15*
X142877500Y38085000D03*
D16*
X139067500Y40625000D03*
X145417500Y43165000D03*
D14*
X147957500Y38085000D03*
D17*
X135792500Y40625000D03*
X148719500Y43165000D03*
%TD*%
D16*
%TO.C,Ins1*%
X312105000Y133652500D03*
X305755000Y131112500D03*
D15*
X309565000Y128572500D03*
D14*
X304485000Y128572500D03*
X314645000Y128572500D03*
D17*
X302480000Y131112500D03*
X315407000Y133652500D03*
%TD*%
D16*
%TO.C,N1*%
X202567500Y43165000D03*
D15*
X200027500Y38085000D03*
D16*
X196217500Y40625000D03*
D14*
X194947500Y38085000D03*
X205107500Y38085000D03*
D17*
X192942500Y40625000D03*
X205869500Y43165000D03*
%TD*%
D14*
%TO.C,EXTRA2*%
X9210000Y76185000D03*
D15*
X14290000Y76185000D03*
D14*
X19370000Y76185000D03*
D16*
X16830000Y81265000D03*
X10480000Y78725000D03*
D17*
X7205000Y78725000D03*
X20132000Y81265000D03*
%TD*%
D16*
%TO.C,EXTRA4*%
X16830000Y43165000D03*
D15*
X14290000Y38085000D03*
D16*
X10480000Y40625000D03*
D14*
X9210000Y38085000D03*
X19370000Y38085000D03*
D17*
X7205000Y40625000D03*
X20132000Y43165000D03*
%TD*%
D15*
%TO.C,LEFTALT1*%
X111902500Y19035000D03*
D16*
X114442500Y24115000D03*
D14*
X106822500Y19035000D03*
D16*
X108092500Y21575000D03*
D14*
X116982500Y19035000D03*
D17*
X104817500Y21575000D03*
X117744500Y24115000D03*
%TD*%
D16*
%TO.C,LEFTARROW1*%
X312105000Y24115000D03*
D14*
X314645000Y19035000D03*
D15*
X309565000Y19035000D03*
D14*
X304485000Y19035000D03*
D16*
X305755000Y21575000D03*
D17*
X302480000Y21575000D03*
X315407000Y24115000D03*
%TD*%
D14*
%TO.C,CloseBracket1*%
X294960000Y76185000D03*
D16*
X296230000Y78725000D03*
D15*
X300040000Y76185000D03*
D16*
X302580000Y81265000D03*
D14*
X305120000Y76185000D03*
D17*
X292955000Y78725000D03*
X305882000Y81265000D03*
%TD*%
D16*
%TO.C,Num9*%
X235905000Y100315000D03*
D14*
X228285000Y95235000D03*
D16*
X229555000Y97775000D03*
D15*
X233365000Y95235000D03*
D14*
X238445000Y95235000D03*
D17*
X226280000Y97775000D03*
X239207000Y100315000D03*
%TD*%
D15*
%TO.C,F9*%
X233365000Y128572500D03*
D14*
X228285000Y128572500D03*
D16*
X235905000Y133652500D03*
X229555000Y131112500D03*
D14*
X238445000Y128572500D03*
D17*
X226280000Y131112500D03*
X239207000Y133652500D03*
%TD*%
D16*
%TO.C,X1*%
X126367500Y43165000D03*
D14*
X128907500Y38085000D03*
X118747500Y38085000D03*
D16*
X120017500Y40625000D03*
D15*
X123827500Y38085000D03*
D17*
X116742500Y40625000D03*
X129669500Y43165000D03*
%TD*%
D16*
%TO.C,Num6*%
X172405000Y97775000D03*
D15*
X176215000Y95235000D03*
D16*
X178755000Y100315000D03*
D14*
X171135000Y95235000D03*
X181295000Y95235000D03*
D17*
X169130000Y97775000D03*
X182057000Y100315000D03*
%TD*%
D14*
%TO.C,Num5*%
X152085000Y95235000D03*
D15*
X157165000Y95235000D03*
D14*
X162245000Y95235000D03*
D16*
X159705000Y100315000D03*
X153355000Y97775000D03*
D17*
X150080000Y97775000D03*
X163007000Y100315000D03*
%TD*%
D16*
%TO.C,Slash1*%
X326392500Y81265000D03*
D15*
X323852500Y76185000D03*
D14*
X318772500Y76185000D03*
D16*
X320042500Y78725000D03*
D14*
X328932500Y76185000D03*
D17*
X316767500Y78725000D03*
X329694500Y81265000D03*
%TD*%
D16*
%TO.C,Num0*%
X248605000Y97775000D03*
D14*
X257495000Y95235000D03*
D15*
X252415000Y95235000D03*
D14*
X247335000Y95235000D03*
D16*
X254955000Y100315000D03*
D17*
X245330000Y97775000D03*
X258257000Y100315000D03*
%TD*%
D19*
%TO.C,H2*%
X49540000Y111900000D03*
%TD*%
D15*
%TO.C,B1*%
X180977500Y38085000D03*
D16*
X177167500Y40625000D03*
D14*
X175897500Y38085000D03*
D16*
X183517500Y43165000D03*
D14*
X186057500Y38085000D03*
D17*
X173892500Y40625000D03*
X186819500Y43165000D03*
%TD*%
D16*
%TO.C,Z1*%
X100967500Y40625000D03*
D14*
X109857500Y38085000D03*
X99697500Y38085000D03*
D15*
X104777500Y38085000D03*
D16*
X107317500Y43165000D03*
D17*
X97692500Y40625000D03*
X110619500Y43165000D03*
%TD*%
D16*
%TO.C,DOWNARROW1*%
X324805000Y21575000D03*
X331155000Y24115000D03*
D14*
X323535000Y19035000D03*
D15*
X328615000Y19035000D03*
D14*
X333695000Y19035000D03*
D17*
X321530000Y21575000D03*
X334457000Y24115000D03*
%TD*%
D14*
%TO.C,PgUp1*%
X342585000Y57135000D03*
D16*
X343855000Y59675000D03*
D15*
X347665000Y57135000D03*
D14*
X352745000Y57135000D03*
D16*
X350205000Y62215000D03*
D17*
X340580000Y59675000D03*
X353507000Y62215000D03*
%TD*%
D14*
%TO.C,Backspace1*%
X314010000Y95235000D03*
D18*
X331028000Y102220000D03*
D16*
X315280000Y97775000D03*
D15*
X319090000Y95235000D03*
D16*
X321630000Y100315000D03*
D14*
X324170000Y95235000D03*
D15*
X331028000Y86980000D03*
X307152000Y86980000D03*
D18*
X307152000Y102220000D03*
D17*
X312005000Y97775000D03*
X324932000Y100315000D03*
%TD*%
D16*
%TO.C,QuestionMark1*%
X272417500Y40625000D03*
D15*
X276227500Y38085000D03*
D16*
X278767500Y43165000D03*
D14*
X271147500Y38085000D03*
X281307500Y38085000D03*
D17*
X269142500Y40625000D03*
X282069500Y43165000D03*
%TD*%
D14*
%TO.C,RIGHTARROW1*%
X342585000Y19035000D03*
X352745000Y19035000D03*
D16*
X343855000Y21575000D03*
X350205000Y24115000D03*
D15*
X347665000Y19035000D03*
D17*
X340580000Y21575000D03*
X353507000Y24115000D03*
%TD*%
D20*
%TO.C,SW3*%
X16565000Y126310000D03*
D21*
X16565000Y121310000D03*
X16565000Y123810000D03*
D22*
X24065000Y129410000D03*
X24065000Y118210000D03*
D21*
X31065000Y121310000D03*
X31065000Y126310000D03*
%TD*%
D15*
%TO.C,Tab1*%
X66677500Y76185000D03*
D16*
X69217500Y81265000D03*
X62867500Y78725000D03*
D14*
X71757500Y76185000D03*
X61597500Y76185000D03*
D17*
X59592500Y78725000D03*
X72519500Y81265000D03*
%TD*%
D15*
%TO.C,Semicolon1*%
X266702500Y57135000D03*
D14*
X261622500Y57135000D03*
D16*
X262892500Y59675000D03*
X269242500Y62215000D03*
D14*
X271782500Y57135000D03*
D17*
X259617500Y59675000D03*
X272544500Y62215000D03*
%TD*%
D14*
%TO.C,V1*%
X167007500Y38085000D03*
D16*
X158117500Y40625000D03*
D15*
X161927500Y38085000D03*
D16*
X164467500Y43165000D03*
D14*
X156847500Y38085000D03*
D17*
X154842500Y40625000D03*
X167769500Y43165000D03*
%TD*%
D15*
%TO.C,End1*%
X347665000Y76185000D03*
D14*
X342585000Y76185000D03*
D16*
X343855000Y78725000D03*
D14*
X352745000Y76185000D03*
D16*
X350205000Y81265000D03*
D17*
X340580000Y78725000D03*
X353507000Y81265000D03*
%TD*%
D14*
%TO.C,Matilda1*%
X66995000Y95235000D03*
D16*
X64455000Y100315000D03*
D14*
X56835000Y95235000D03*
D16*
X58105000Y97775000D03*
D15*
X61915000Y95235000D03*
D17*
X54830000Y97775000D03*
X67757000Y100315000D03*
%TD*%
D15*
%TO.C,PgDn1*%
X347665000Y38085000D03*
D16*
X350205000Y43165000D03*
D14*
X352745000Y38085000D03*
X342585000Y38085000D03*
D16*
X343855000Y40625000D03*
D17*
X340580000Y40625000D03*
X353507000Y43165000D03*
%TD*%
D16*
%TO.C,ENTER1*%
X319230000Y62215000D03*
X312880000Y59675000D03*
D14*
X311610000Y57135000D03*
X321770000Y57135000D03*
D15*
X328628000Y48880000D03*
D18*
X304752000Y64120000D03*
D15*
X304752000Y48880000D03*
D18*
X328628000Y64120000D03*
D15*
X316690000Y57135000D03*
D17*
X309605000Y59675000D03*
X322532000Y62215000D03*
%TD*%
D14*
%TO.C,F12*%
X295595000Y128572500D03*
D15*
X290515000Y128572500D03*
D16*
X286705000Y131112500D03*
D14*
X285435000Y128572500D03*
D16*
X293055000Y133652500D03*
D17*
X283430000Y131112500D03*
X296357000Y133652500D03*
%TD*%
D14*
%TO.C,OpenBracket1*%
X275910000Y76185000D03*
X286070000Y76185000D03*
D16*
X277180000Y78725000D03*
X283530000Y81265000D03*
D15*
X280990000Y76185000D03*
D17*
X273905000Y78725000D03*
X286832000Y81265000D03*
%TD*%
D16*
%TO.C,EXTRA7*%
X35929994Y81265000D03*
X29579994Y78725000D03*
D15*
X33389994Y76185000D03*
D14*
X38469994Y76185000D03*
X28309994Y76185000D03*
D17*
X26304994Y78725000D03*
X39231994Y81265000D03*
%TD*%
D18*
%TO.C,LEFTSHIFT1*%
X85740500Y45070000D03*
D16*
X76342500Y43165000D03*
D14*
X68722500Y38085000D03*
D15*
X73802500Y38085000D03*
D16*
X69992500Y40625000D03*
D14*
X78882500Y38085000D03*
D15*
X85740500Y29830000D03*
D18*
X61864500Y45070000D03*
D15*
X61864500Y29830000D03*
D17*
X66717500Y40625000D03*
X79644500Y43165000D03*
%TD*%
D16*
%TO.C,R1*%
X150180000Y81265000D03*
D14*
X152720000Y76185000D03*
D16*
X143830000Y78725000D03*
D15*
X147640000Y76185000D03*
D14*
X142560000Y76185000D03*
D17*
X140555000Y78725000D03*
X153482000Y81265000D03*
%TD*%
D15*
%TO.C,Hkey1*%
X190502500Y57135000D03*
D16*
X186692500Y59675000D03*
D14*
X185422500Y57135000D03*
D16*
X193042500Y62215000D03*
D14*
X195582500Y57135000D03*
D17*
X183417500Y59675000D03*
X196344500Y62215000D03*
%TD*%
D16*
%TO.C,CAPSLOCK1*%
X65230000Y59675000D03*
X71580000Y62215000D03*
D14*
X63960000Y57135000D03*
X74120000Y57135000D03*
D15*
X69040000Y57135000D03*
D17*
X61955000Y59675000D03*
X74882000Y62215000D03*
%TD*%
D14*
%TO.C,S1*%
X109222500Y57135000D03*
D16*
X110492500Y59675000D03*
X116842500Y62215000D03*
D15*
X114302500Y57135000D03*
D14*
X119382500Y57135000D03*
D17*
X107217500Y59675000D03*
X120144500Y62215000D03*
%TD*%
D14*
%TO.C,Y1*%
X190820000Y76185000D03*
D15*
X185740000Y76185000D03*
D16*
X181930000Y78725000D03*
X188280000Y81265000D03*
D14*
X180660000Y76185000D03*
D17*
X178655000Y78725000D03*
X191582000Y81265000D03*
%TD*%
D14*
%TO.C,F3*%
X113985000Y128572500D03*
D16*
X115255000Y131112500D03*
D15*
X119065000Y128572500D03*
D16*
X121605000Y133652500D03*
D14*
X124145000Y128572500D03*
D17*
X111980000Y131112500D03*
X124907000Y133652500D03*
%TD*%
D14*
%TO.C,CommaSign1*%
X243207500Y38085000D03*
D16*
X234317500Y40625000D03*
D14*
X233047500Y38085000D03*
D16*
X240667500Y43165000D03*
D15*
X238127500Y38085000D03*
D17*
X231042500Y40625000D03*
X243969500Y43165000D03*
%TD*%
D14*
%TO.C,W1*%
X104460000Y76185000D03*
D16*
X112080000Y81265000D03*
D15*
X109540000Y76185000D03*
D16*
X105730000Y78725000D03*
D14*
X114620000Y76185000D03*
D17*
X102455000Y78725000D03*
X115382000Y81265000D03*
%TD*%
D16*
%TO.C,DELETE1*%
X343855000Y131112500D03*
D14*
X352745000Y128572500D03*
X342585000Y128572500D03*
D16*
X350205000Y133652500D03*
D15*
X347665000Y128572500D03*
D17*
X340580000Y131112500D03*
X353507000Y133652500D03*
%TD*%
D16*
%TO.C,Num4*%
X140655000Y100315000D03*
D14*
X133035000Y95235000D03*
D16*
X134305000Y97775000D03*
D15*
X138115000Y95235000D03*
D14*
X143195000Y95235000D03*
D17*
X131030000Y97775000D03*
X143957000Y100315000D03*
%TD*%
D16*
%TO.C,UPARROW1*%
X331155000Y43165000D03*
D14*
X323535000Y38085000D03*
X333695000Y38085000D03*
D16*
X324805000Y40625000D03*
D15*
X328615000Y38085000D03*
D17*
X321530000Y40625000D03*
X334457000Y43165000D03*
%TD*%
D16*
%TO.C,EXTRA10*%
X35929994Y24115000D03*
X29579994Y21575000D03*
D15*
X33389994Y19035000D03*
D14*
X38469994Y19035000D03*
X28309994Y19035000D03*
D17*
X26304994Y21575000D03*
X39231994Y24115000D03*
%TD*%
D16*
%TO.C,DotSign1*%
X259717500Y43165000D03*
D14*
X252097500Y38085000D03*
X262257500Y38085000D03*
D16*
X253367500Y40625000D03*
D15*
X257177500Y38085000D03*
D17*
X250092500Y40625000D03*
X263019500Y43165000D03*
%TD*%
D15*
%TO.C,RIGHTSHIFT1*%
X302402500Y38085000D03*
D16*
X304942500Y43165000D03*
D14*
X307482500Y38085000D03*
X297322500Y38085000D03*
D16*
X298592500Y40625000D03*
D17*
X295317500Y40625000D03*
X308244500Y43165000D03*
%TD*%
D19*
%TO.C,H4*%
X297080000Y57620000D03*
%TD*%
%TO.C,H1*%
X323120000Y111900000D03*
%TD*%
D15*
%TO.C,F1*%
X80965000Y128572500D03*
D14*
X86045000Y128572500D03*
X75885000Y128572500D03*
D16*
X77155000Y131112500D03*
X83505000Y133652500D03*
D17*
X73880000Y131112500D03*
X86807000Y133652500D03*
%TD*%
D15*
%TO.C,F11*%
X271465000Y128572500D03*
D14*
X266385000Y128572500D03*
D16*
X267655000Y131112500D03*
D14*
X276545000Y128572500D03*
D16*
X274005000Y133652500D03*
D17*
X264380000Y131112500D03*
X277307000Y133652500D03*
%TD*%
D16*
%TO.C,Home1*%
X343855000Y97775000D03*
X350205000Y100315000D03*
D15*
X347665000Y95235000D03*
D14*
X342585000Y95235000D03*
X352745000Y95235000D03*
D17*
X340580000Y97775000D03*
X353507000Y100315000D03*
%TD*%
D23*
%TO.C,D7*%
X31315000Y103985000D03*
X34615000Y103985000D03*
%TD*%
%TO.C,D93*%
X349765000Y46535000D03*
X353065000Y46535000D03*
%TD*%
%TO.C,D61*%
X235415000Y103585000D03*
X238715000Y103585000D03*
%TD*%
%TO.C,D5*%
X12715000Y27785000D03*
X16015000Y27785000D03*
%TD*%
D24*
%TO.C,C13*%
X209390000Y20415000D03*
X209390000Y18865000D03*
%TD*%
D23*
%TO.C,D55*%
X216115000Y136785000D03*
X219415000Y136785000D03*
%TD*%
D24*
%TO.C,C14*%
X215290000Y22795000D03*
X215290000Y21245000D03*
%TD*%
D25*
%TO.C,C4*%
X228310000Y17005000D03*
X228310000Y18555000D03*
%TD*%
D23*
%TO.C,D56*%
X216415000Y103585000D03*
X219715000Y103585000D03*
%TD*%
%TO.C,D36*%
X144965000Y46485000D03*
X148265000Y46485000D03*
%TD*%
D24*
%TO.C,C11*%
X208590000Y10855000D03*
X208590000Y9305000D03*
%TD*%
D23*
%TO.C,D9*%
X31315000Y65785000D03*
X34615000Y65785000D03*
%TD*%
%TO.C,D64*%
X249715000Y65535000D03*
X253015000Y65535000D03*
%TD*%
%TO.C,D15*%
X65215000Y84685000D03*
X68515000Y84685000D03*
%TD*%
%TO.C,D30*%
X121115000Y103685000D03*
X124415000Y103685000D03*
%TD*%
D26*
%TO.C,R5*%
X39665000Y133910000D03*
X39665000Y132260000D03*
%TD*%
D23*
%TO.C,D39*%
X159015000Y136885000D03*
X162315000Y136885000D03*
%TD*%
D25*
%TO.C,C1*%
X165500000Y16215000D03*
X165500000Y17765000D03*
%TD*%
D23*
%TO.C,D12*%
X63715000Y136885000D03*
X67015000Y136885000D03*
%TD*%
%TO.C,D10*%
X32415000Y46685000D03*
X35715000Y46685000D03*
%TD*%
%TO.C,D33*%
X135465000Y65535000D03*
X138765000Y65535000D03*
%TD*%
D27*
%TO.C,J1*%
X37800000Y140175000D03*
X43580000Y140175000D03*
D28*
X37490000Y139100000D03*
X38290000Y139100000D03*
D29*
X39440000Y139100000D03*
X40440000Y139100000D03*
X40940000Y139100000D03*
X41940000Y139100000D03*
D28*
X43090000Y139100000D03*
X43890000Y139100000D03*
X43890000Y139100000D03*
X43090000Y139100000D03*
D29*
X42440000Y139100000D03*
X41440000Y139100000D03*
X39940000Y139100000D03*
X38940000Y139100000D03*
D28*
X38290000Y139100000D03*
X37490000Y139100000D03*
D30*
X45010000Y143855000D03*
D31*
X45010000Y139675000D03*
X36370000Y139675000D03*
D30*
X36370000Y143855000D03*
%TD*%
D23*
%TO.C,D35*%
X140215000Y103485000D03*
X143515000Y103485000D03*
%TD*%
%TO.C,D41*%
X164015000Y46485000D03*
X167315000Y46485000D03*
%TD*%
D24*
%TO.C,C2*%
X212900000Y24825000D03*
X212900000Y23275000D03*
%TD*%
D23*
%TO.C,D34*%
X140115000Y136885000D03*
X143415000Y136885000D03*
%TD*%
%TO.C,D79*%
X292615000Y27435000D03*
X295915000Y27435000D03*
%TD*%
D25*
%TO.C,C9*%
X228100000Y8925000D03*
X228100000Y10475000D03*
%TD*%
D26*
%TO.C,R6*%
X206140000Y11615000D03*
X206140000Y9965000D03*
%TD*%
D23*
%TO.C,D90*%
X347115000Y103885000D03*
X350415000Y103885000D03*
%TD*%
%TO.C,D48*%
X187815000Y84685000D03*
X191115000Y84685000D03*
%TD*%
%TO.C,D63*%
X244915000Y84385000D03*
X248215000Y84385000D03*
%TD*%
%TO.C,D25*%
X106815000Y46485000D03*
X110115000Y46485000D03*
%TD*%
%TO.C,D53*%
X206815000Y84585000D03*
X210115000Y84585000D03*
%TD*%
%TO.C,D14*%
X65215000Y27585000D03*
X68515000Y27585000D03*
%TD*%
%TO.C,D50*%
X196715000Y136985000D03*
X200015000Y136985000D03*
%TD*%
%TO.C,D47*%
X185415000Y27335000D03*
X188715000Y27335000D03*
%TD*%
%TO.C,D6*%
X36615000Y119285000D03*
X33315000Y119285000D03*
%TD*%
%TO.C,D45*%
X178315000Y103585000D03*
X181615000Y103585000D03*
%TD*%
%TO.C,D28*%
X116365000Y65585000D03*
X119665000Y65585000D03*
%TD*%
D25*
%TO.C,C5*%
X201650000Y22835000D03*
X201650000Y24385000D03*
%TD*%
D23*
%TO.C,D26*%
X110715000Y84485000D03*
X114015000Y84485000D03*
%TD*%
%TO.C,D42*%
X168815000Y84685000D03*
X172115000Y84685000D03*
%TD*%
%TO.C,D62*%
X240215000Y46585000D03*
X243515000Y46585000D03*
%TD*%
%TO.C,D94*%
X346015000Y137185000D03*
X349315000Y137185000D03*
%TD*%
%TO.C,D83*%
X311665000Y27385000D03*
X314965000Y27385000D03*
%TD*%
%TO.C,D92*%
X349715000Y65585000D03*
X353015000Y65585000D03*
%TD*%
%TO.C,D11*%
X33515000Y27585000D03*
X36815000Y27585000D03*
%TD*%
%TO.C,D22*%
X97365000Y65535000D03*
X100665000Y65535000D03*
%TD*%
D24*
%TO.C,C10*%
X204300000Y10185000D03*
X204300000Y8635000D03*
%TD*%
D23*
%TO.C,D19*%
X83015000Y103685000D03*
X86315000Y103685000D03*
%TD*%
%TO.C,D54*%
X211615000Y65535000D03*
X214915000Y65535000D03*
%TD*%
%TO.C,D91*%
X346415000Y84385000D03*
X349715000Y84385000D03*
%TD*%
%TO.C,D71*%
X273515000Y136785000D03*
X276815000Y136785000D03*
%TD*%
%TO.C,D76*%
X287865000Y65635000D03*
X291165000Y65635000D03*
%TD*%
%TO.C,D72*%
X273515000Y103585000D03*
X276815000Y103585000D03*
%TD*%
%TO.C,D73*%
X273565000Y27435000D03*
X276865000Y27435000D03*
%TD*%
D24*
%TO.C,C6*%
X212530000Y19205000D03*
X212530000Y17655000D03*
%TD*%
D23*
%TO.C,D13*%
X62015000Y103885000D03*
X65315000Y103885000D03*
%TD*%
%TO.C,D16*%
X69615000Y65485000D03*
X72915000Y65485000D03*
%TD*%
%TO.C,D31*%
X125915000Y46435000D03*
X129215000Y46435000D03*
%TD*%
%TO.C,D21*%
X92015000Y84285000D03*
X95315000Y84285000D03*
%TD*%
%TO.C,D95*%
X349765000Y27285000D03*
X353065000Y27285000D03*
%TD*%
D32*
%TO.C,C7*%
X224270000Y22270000D03*
X222720000Y22270000D03*
%TD*%
D23*
%TO.C,D82*%
X311215000Y136785000D03*
X314515000Y136785000D03*
%TD*%
%TO.C,D88*%
X330715000Y27385000D03*
X334015000Y27385000D03*
%TD*%
%TO.C,D66*%
X254515000Y103485000D03*
X257815000Y103485000D03*
%TD*%
%TO.C,D23*%
X102015000Y136885000D03*
X105315000Y136885000D03*
%TD*%
%TO.C,D75*%
X283115000Y84585000D03*
X286415000Y84585000D03*
%TD*%
%TO.C,D77*%
X292315000Y136785000D03*
X295615000Y136785000D03*
%TD*%
D33*
%TO.C,SW2*%
X161165000Y25435000D03*
X154965000Y25435000D03*
X154965000Y21735000D03*
X161165000Y21735000D03*
%TD*%
D23*
%TO.C,D43*%
X173515000Y65485000D03*
X176815000Y65485000D03*
%TD*%
D33*
%TO.C,SW1*%
X161165000Y19035000D03*
X154965000Y19035000D03*
X154965000Y15335000D03*
X161165000Y15335000D03*
%TD*%
D34*
%TO.C,U3*%
X205802500Y23835000D03*
X205802500Y21935000D03*
X203927500Y22885000D03*
%TD*%
D26*
%TO.C,R4*%
X37880000Y131880000D03*
X37880000Y130230000D03*
%TD*%
D23*
%TO.C,D89*%
X330415000Y136885000D03*
X333715000Y136885000D03*
%TD*%
%TO.C,D29*%
X121115000Y136785000D03*
X124415000Y136785000D03*
%TD*%
%TO.C,D2*%
X12715000Y84785000D03*
X16015000Y84785000D03*
%TD*%
%TO.C,D17*%
X75865000Y46485000D03*
X79165000Y46485000D03*
%TD*%
%TO.C,D37*%
X149615000Y84585000D03*
X152915000Y84585000D03*
%TD*%
D32*
%TO.C,C12*%
X226825000Y23950000D03*
X225275000Y23950000D03*
%TD*%
D23*
%TO.C,D84*%
X318115000Y103885000D03*
X321415000Y103885000D03*
%TD*%
%TO.C,D80*%
X300340000Y84500000D03*
X303640000Y84500000D03*
%TD*%
%TO.C,D20*%
X90165000Y27385000D03*
X93465000Y27385000D03*
%TD*%
%TO.C,D32*%
X130715000Y84585000D03*
X134015000Y84585000D03*
%TD*%
%TO.C,D69*%
X263315000Y84485000D03*
X266615000Y84485000D03*
%TD*%
D26*
%TO.C,R7*%
X210405000Y11170000D03*
X210405000Y9520000D03*
%TD*%
D23*
%TO.C,D18*%
X82615000Y136785000D03*
X85915000Y136785000D03*
%TD*%
%TO.C,D74*%
X278315000Y46485000D03*
X281615000Y46485000D03*
%TD*%
%TO.C,D57*%
X221165000Y46385000D03*
X224465000Y46385000D03*
%TD*%
%TO.C,D70*%
X268765000Y65485000D03*
X272065000Y65485000D03*
%TD*%
%TO.C,D85*%
X318765000Y65485000D03*
X322065000Y65485000D03*
%TD*%
%TO.C,D1*%
X12415000Y103985000D03*
X15715000Y103985000D03*
%TD*%
%TO.C,D78*%
X289115000Y103685000D03*
X292415000Y103685000D03*
%TD*%
%TO.C,D60*%
X235415000Y136885000D03*
X238715000Y136885000D03*
%TD*%
%TO.C,D3*%
X12715000Y65760000D03*
X16015000Y65760000D03*
%TD*%
%TO.C,D49*%
X192565000Y65535000D03*
X195865000Y65535000D03*
%TD*%
D35*
%TO.C,U1*%
X216615000Y20335000D03*
X217115000Y20335000D03*
X217615000Y20335000D03*
X218115000Y20335000D03*
X218615000Y20335000D03*
X219115000Y20335000D03*
X219615000Y20335000D03*
X220115000Y20335000D03*
X220615000Y20335000D03*
X221115000Y20335000D03*
X221615000Y20335000D03*
X222115000Y20335000D03*
X222615000Y20335000D03*
X223115000Y20335000D03*
X223615000Y20335000D03*
X224115000Y20335000D03*
D36*
X226040000Y18410000D03*
X226040000Y17910000D03*
X226040000Y17410000D03*
X226040000Y16910000D03*
X226040000Y16410000D03*
X226040000Y15910000D03*
X226040000Y15410000D03*
X226040000Y14910000D03*
X226040000Y14410000D03*
X226040000Y13910000D03*
X226040000Y13410000D03*
X226040000Y12910000D03*
X226040000Y12410000D03*
X226040000Y11910000D03*
X226040000Y11410000D03*
X226040000Y10910000D03*
D35*
X224115000Y8985000D03*
X223615000Y8985000D03*
X223115000Y8985000D03*
X222615000Y8985000D03*
X222115000Y8985000D03*
X221615000Y8985000D03*
X221115000Y8985000D03*
X220615000Y8985000D03*
X220115000Y8985000D03*
X219615000Y8985000D03*
X219115000Y8985000D03*
X218615000Y8985000D03*
X218115000Y8985000D03*
X217615000Y8985000D03*
X217115000Y8985000D03*
X216615000Y8985000D03*
D36*
X214690000Y10910000D03*
X214690000Y11410000D03*
X214690000Y11910000D03*
X214690000Y12410000D03*
X214690000Y12910000D03*
X214690000Y13410000D03*
X214690000Y13910000D03*
X214690000Y14410000D03*
X214690000Y14910000D03*
X214690000Y15410000D03*
X214690000Y15910000D03*
X214690000Y16410000D03*
X214690000Y16910000D03*
X214690000Y17410000D03*
X214690000Y17910000D03*
X214690000Y18410000D03*
%TD*%
D25*
%TO.C,C8*%
X207790000Y21735000D03*
X207790000Y23285000D03*
%TD*%
D23*
%TO.C,D44*%
X177015000Y136885000D03*
X180315000Y136885000D03*
%TD*%
D37*
%TO.C,R3*%
X163865000Y16160000D03*
X163865000Y17810000D03*
%TD*%
D23*
%TO.C,D51*%
X197315000Y103685000D03*
X200615000Y103685000D03*
%TD*%
%TO.C,D58*%
X225915000Y84585000D03*
X229215000Y84585000D03*
%TD*%
%TO.C,D38*%
X154465000Y65585000D03*
X157765000Y65585000D03*
%TD*%
%TO.C,D65*%
X254315000Y136885000D03*
X257615000Y136885000D03*
%TD*%
D24*
%TO.C,C3*%
X214090000Y9375000D03*
X214090000Y7825000D03*
%TD*%
D23*
%TO.C,D67*%
X254515000Y27435000D03*
X257815000Y27435000D03*
%TD*%
%TO.C,D81*%
X297470000Y46500000D03*
X300770000Y46500000D03*
%TD*%
%TO.C,D8*%
X32015000Y84885000D03*
X35315000Y84885000D03*
%TD*%
%TO.C,D86*%
X324480000Y84610000D03*
X327780000Y84610000D03*
%TD*%
%TO.C,D87*%
X332980000Y46390000D03*
X336280000Y46390000D03*
%TD*%
%TO.C,D68*%
X259265000Y46485000D03*
X262565000Y46485000D03*
%TD*%
%TO.C,D4*%
X13115000Y46585000D03*
X16415000Y46585000D03*
%TD*%
%TO.C,D40*%
X159215000Y103485000D03*
X162515000Y103485000D03*
%TD*%
%TO.C,D27*%
X114015000Y27435000D03*
X117315000Y27435000D03*
%TD*%
%TO.C,D52*%
X202115000Y46435000D03*
X205415000Y46435000D03*
%TD*%
%TO.C,D59*%
X230665000Y65535000D03*
X233965000Y65535000D03*
%TD*%
%TO.C,D46*%
X183015000Y46535000D03*
X186315000Y46535000D03*
%TD*%
%TO.C,D24*%
X102015000Y103485000D03*
X105315000Y103485000D03*
%TD*%
M02*
