%TF.GenerationSoftware,KiCad,Pcbnew,(6.0.11)*%
%TF.CreationDate,2023-03-01T01:08:00+07:00*%
%TF.ProjectId,Extero75,45787465-726f-4373-952e-6b696361645f,rev?*%
%TF.SameCoordinates,PX23b22f0PYc57ca40*%
%TF.FileFunction,Paste,Bot*%
%TF.FilePolarity,Positive*%
%FSLAX46Y46*%
G04 Gerber Fmt 4.6, Leading zero omitted, Abs format (unit mm)*
G04 Created by KiCad (PCBNEW (6.0.11)) date 2023-03-01 01:08:00*
%MOMM*%
%LPD*%
G01*
G04 APERTURE LIST*
G04 Aperture macros list*
%AMRoundRect*
0 Rectangle with rounded corners*
0 $1 Rounding radius*
0 $2 $3 $4 $5 $6 $7 $8 $9 X,Y pos of 4 corners*
0 Add a 4 corners polygon primitive as box body*
4,1,4,$2,$3,$4,$5,$6,$7,$8,$9,$2,$3,0*
0 Add four circle primitives for the rounded corners*
1,1,$1+$1,$2,$3*
1,1,$1+$1,$4,$5*
1,1,$1+$1,$6,$7*
1,1,$1+$1,$8,$9*
0 Add four rect primitives between the rounded corners*
20,1,$1+$1,$2,$3,$4,$5,0*
20,1,$1+$1,$4,$5,$6,$7,0*
20,1,$1+$1,$6,$7,$8,$9,0*
20,1,$1+$1,$8,$9,$2,$3,0*%
G04 Aperture macros list end*
%ADD10RoundRect,0.250000X1.025000X1.000000X-1.025000X1.000000X-1.025000X-1.000000X1.025000X-1.000000X0*%
%ADD11R,2.550000X2.500000*%
%ADD12R,0.900000X1.200000*%
%ADD13RoundRect,0.225000X-0.250000X0.225000X-0.250000X-0.225000X0.250000X-0.225000X0.250000X0.225000X0*%
%ADD14RoundRect,0.225000X0.250000X-0.225000X0.250000X0.225000X-0.250000X0.225000X-0.250000X-0.225000X0*%
%ADD15RoundRect,0.200000X-0.275000X0.200000X-0.275000X-0.200000X0.275000X-0.200000X0.275000X0.200000X0*%
%ADD16R,0.600000X1.150000*%
%ADD17R,0.300000X1.150000*%
%ADD18RoundRect,0.225000X0.225000X0.250000X-0.225000X0.250000X-0.225000X-0.250000X0.225000X-0.250000X0*%
%ADD19R,1.800000X1.100000*%
%ADD20RoundRect,0.150000X0.587500X0.150000X-0.587500X0.150000X-0.587500X-0.150000X0.587500X-0.150000X0*%
%ADD21RoundRect,0.075000X-0.075000X0.700000X-0.075000X-0.700000X0.075000X-0.700000X0.075000X0.700000X0*%
%ADD22RoundRect,0.075000X-0.700000X0.075000X-0.700000X-0.075000X0.700000X-0.075000X0.700000X0.075000X0*%
%ADD23RoundRect,0.200000X0.275000X-0.200000X0.275000X0.200000X-0.275000X0.200000X-0.275000X-0.200000X0*%
G04 APERTURE END LIST*
D10*
%TO.C,EXTRA1*%
X20380000Y100315000D03*
X6930000Y97775000D03*
%TD*%
D11*
%TO.C,Num3*%
X111980000Y97775000D03*
X124907000Y100315000D03*
%TD*%
%TO.C,FNKEY1*%
X264380000Y21575000D03*
X277307000Y24115000D03*
%TD*%
%TO.C,F2*%
X92930000Y131112500D03*
X105857000Y133652500D03*
%TD*%
%TO.C,F5*%
X150080000Y131112500D03*
X163007000Y133652500D03*
%TD*%
%TO.C,G1*%
X164367500Y59675000D03*
X177294500Y62215000D03*
%TD*%
%TO.C,EXTRA6*%
X26255000Y97775000D03*
X39182000Y100315000D03*
%TD*%
%TO.C,L1*%
X240567500Y59675000D03*
X253494500Y62215000D03*
%TD*%
%TO.C,Num7*%
X188180000Y97775000D03*
X201107000Y100315000D03*
%TD*%
%TO.C,MinusSign1*%
X264380000Y97775000D03*
X277307000Y100315000D03*
%TD*%
%TO.C,EXTRA8*%
X26255000Y59675000D03*
X39182000Y62215000D03*
%TD*%
%TO.C,K1*%
X221517500Y59675000D03*
X234444500Y62215000D03*
%TD*%
%TO.C,EXTRA9*%
X26255000Y40625000D03*
X39182000Y43165000D03*
%TD*%
%TO.C,I1*%
X216755000Y78725000D03*
X229682000Y81265000D03*
%TD*%
%TO.C,WINDOWSKEY1*%
X81005000Y21575000D03*
X93932000Y24115000D03*
%TD*%
%TO.C,Num8*%
X207230000Y97775000D03*
X220157000Y100315000D03*
%TD*%
%TO.C,E1*%
X121505000Y78725000D03*
X134432000Y81265000D03*
%TD*%
%TO.C,Num2*%
X92930000Y97775000D03*
X105857000Y100315000D03*
%TD*%
%TO.C,Q1*%
X83405000Y78725000D03*
X96332000Y81265000D03*
%TD*%
%TO.C,Jkey1*%
X202467500Y59675000D03*
X215394500Y62215000D03*
%TD*%
%TO.C,EXTRA5*%
X7205000Y21575000D03*
X20132000Y24115000D03*
%TD*%
%TO.C,U2*%
X197705000Y78725000D03*
X210632000Y81265000D03*
%TD*%
%TO.C,T1*%
X159605000Y78725000D03*
X172532000Y81265000D03*
%TD*%
%TO.C,ESC1*%
X54830000Y131112500D03*
X67757000Y133652500D03*
%TD*%
%TO.C,F4*%
X131030000Y131112500D03*
X143957000Y133652500D03*
%TD*%
%TO.C,EXTRA3*%
X7205000Y59675000D03*
X20132000Y62215000D03*
%TD*%
%TO.C,PRTSC1*%
X321530000Y131112500D03*
X334457000Y133652500D03*
%TD*%
%TO.C,F6*%
X169130000Y131112500D03*
X182057000Y133652500D03*
%TD*%
%TO.C,Num1*%
X73880000Y97775000D03*
X86807000Y100315000D03*
%TD*%
%TO.C,F8*%
X207230000Y131112500D03*
X220157000Y133652500D03*
%TD*%
%TO.C,RIGHTALT1*%
X245330000Y21575000D03*
X258257000Y24115000D03*
%TD*%
%TO.C,EqualSign1*%
X283430000Y97775000D03*
X296357000Y100315000D03*
%TD*%
%TO.C,M1*%
X211992500Y40625000D03*
X224919500Y43165000D03*
%TD*%
%TO.C,Dkey1*%
X126267500Y59675000D03*
X139194500Y62215000D03*
%TD*%
%TO.C,F7*%
X188180000Y131112500D03*
X201107000Y133652500D03*
%TD*%
%TO.C,A1*%
X88167500Y59675000D03*
X101094500Y62215000D03*
%TD*%
%TO.C,O1*%
X235805000Y78725000D03*
X248732000Y81265000D03*
%TD*%
%TO.C,LEFTCTRL1*%
X57192500Y21575000D03*
X70119500Y24115000D03*
%TD*%
%TO.C,SPACEBAR1*%
X176255000Y21575000D03*
X189182000Y24115000D03*
%TD*%
%TO.C,P1*%
X254855000Y78725000D03*
X267782000Y81265000D03*
%TD*%
%TO.C,Quote1*%
X278667500Y59675000D03*
X291594500Y62215000D03*
%TD*%
%TO.C,Fkey1*%
X145317500Y59675000D03*
X158244500Y62215000D03*
%TD*%
%TO.C,RIGHTCONTROL1*%
X283430000Y21575000D03*
X296357000Y24115000D03*
%TD*%
%TO.C,F10*%
X245330000Y131112500D03*
X258257000Y133652500D03*
%TD*%
%TO.C,Ckey1*%
X135792500Y40625000D03*
X148719500Y43165000D03*
%TD*%
%TO.C,Ins1*%
X302480000Y131112500D03*
X315407000Y133652500D03*
%TD*%
%TO.C,N1*%
X192942500Y40625000D03*
X205869500Y43165000D03*
%TD*%
%TO.C,EXTRA2*%
X7205000Y78725000D03*
X20132000Y81265000D03*
%TD*%
%TO.C,EXTRA4*%
X7205000Y40625000D03*
X20132000Y43165000D03*
%TD*%
%TO.C,LEFTALT1*%
X104817500Y21575000D03*
X117744500Y24115000D03*
%TD*%
%TO.C,LEFTARROW1*%
X302480000Y21575000D03*
X315407000Y24115000D03*
%TD*%
%TO.C,CloseBracket1*%
X292955000Y78725000D03*
X305882000Y81265000D03*
%TD*%
%TO.C,Num9*%
X226280000Y97775000D03*
X239207000Y100315000D03*
%TD*%
%TO.C,F9*%
X226280000Y131112500D03*
X239207000Y133652500D03*
%TD*%
%TO.C,X1*%
X116742500Y40625000D03*
X129669500Y43165000D03*
%TD*%
%TO.C,Num6*%
X169130000Y97775000D03*
X182057000Y100315000D03*
%TD*%
%TO.C,Num5*%
X150080000Y97775000D03*
X163007000Y100315000D03*
%TD*%
%TO.C,Slash1*%
X316767500Y78725000D03*
X329694500Y81265000D03*
%TD*%
%TO.C,Num0*%
X245330000Y97775000D03*
X258257000Y100315000D03*
%TD*%
%TO.C,B1*%
X173892500Y40625000D03*
X186819500Y43165000D03*
%TD*%
%TO.C,Z1*%
X97692500Y40625000D03*
X110619500Y43165000D03*
%TD*%
%TO.C,DOWNARROW1*%
X321530000Y21575000D03*
X334457000Y24115000D03*
%TD*%
%TO.C,PgUp1*%
X340580000Y59675000D03*
X353507000Y62215000D03*
%TD*%
%TO.C,Backspace1*%
X312005000Y97775000D03*
X324932000Y100315000D03*
%TD*%
%TO.C,QuestionMark1*%
X269142500Y40625000D03*
X282069500Y43165000D03*
%TD*%
%TO.C,RIGHTARROW1*%
X340580000Y21575000D03*
X353507000Y24115000D03*
%TD*%
%TO.C,Tab1*%
X59592500Y78725000D03*
X72519500Y81265000D03*
%TD*%
%TO.C,Semicolon1*%
X259617500Y59675000D03*
X272544500Y62215000D03*
%TD*%
%TO.C,V1*%
X154842500Y40625000D03*
X167769500Y43165000D03*
%TD*%
%TO.C,End1*%
X340580000Y78725000D03*
X353507000Y81265000D03*
%TD*%
%TO.C,Matilda1*%
X54830000Y97775000D03*
X67757000Y100315000D03*
%TD*%
%TO.C,PgDn1*%
X340580000Y40625000D03*
X353507000Y43165000D03*
%TD*%
%TO.C,ENTER1*%
X309605000Y59675000D03*
X322532000Y62215000D03*
%TD*%
%TO.C,F12*%
X283430000Y131112500D03*
X296357000Y133652500D03*
%TD*%
%TO.C,OpenBracket1*%
X273905000Y78725000D03*
X286832000Y81265000D03*
%TD*%
%TO.C,EXTRA7*%
X26304994Y78725000D03*
X39231994Y81265000D03*
%TD*%
%TO.C,LEFTSHIFT1*%
X66717500Y40625000D03*
X79644500Y43165000D03*
%TD*%
%TO.C,R1*%
X140555000Y78725000D03*
X153482000Y81265000D03*
%TD*%
%TO.C,Hkey1*%
X183417500Y59675000D03*
X196344500Y62215000D03*
%TD*%
%TO.C,CAPSLOCK1*%
X61955000Y59675000D03*
X74882000Y62215000D03*
%TD*%
%TO.C,S1*%
X107217500Y59675000D03*
X120144500Y62215000D03*
%TD*%
%TO.C,Y1*%
X178655000Y78725000D03*
X191582000Y81265000D03*
%TD*%
%TO.C,F3*%
X111980000Y131112500D03*
X124907000Y133652500D03*
%TD*%
%TO.C,CommaSign1*%
X231042500Y40625000D03*
X243969500Y43165000D03*
%TD*%
%TO.C,W1*%
X102455000Y78725000D03*
X115382000Y81265000D03*
%TD*%
%TO.C,DELETE1*%
X340580000Y131112500D03*
X353507000Y133652500D03*
%TD*%
%TO.C,Num4*%
X131030000Y97775000D03*
X143957000Y100315000D03*
%TD*%
%TO.C,UPARROW1*%
X321530000Y40625000D03*
X334457000Y43165000D03*
%TD*%
%TO.C,EXTRA10*%
X26304994Y21575000D03*
X39231994Y24115000D03*
%TD*%
%TO.C,DotSign1*%
X250092500Y40625000D03*
X263019500Y43165000D03*
%TD*%
%TO.C,RIGHTSHIFT1*%
X295317500Y40625000D03*
X308244500Y43165000D03*
%TD*%
%TO.C,F1*%
X73880000Y131112500D03*
X86807000Y133652500D03*
%TD*%
%TO.C,F11*%
X264380000Y131112500D03*
X277307000Y133652500D03*
%TD*%
%TO.C,Home1*%
X340580000Y97775000D03*
X353507000Y100315000D03*
%TD*%
D12*
%TO.C,D7*%
X31315000Y103985000D03*
X34615000Y103985000D03*
%TD*%
%TO.C,D93*%
X349765000Y46535000D03*
X353065000Y46535000D03*
%TD*%
%TO.C,D61*%
X235415000Y103585000D03*
X238715000Y103585000D03*
%TD*%
%TO.C,D5*%
X12715000Y27785000D03*
X16015000Y27785000D03*
%TD*%
D13*
%TO.C,C13*%
X209390000Y20415000D03*
X209390000Y18865000D03*
%TD*%
D12*
%TO.C,D55*%
X216115000Y136785000D03*
X219415000Y136785000D03*
%TD*%
D13*
%TO.C,C14*%
X215290000Y22795000D03*
X215290000Y21245000D03*
%TD*%
D14*
%TO.C,C4*%
X228310000Y17005000D03*
X228310000Y18555000D03*
%TD*%
D12*
%TO.C,D56*%
X216415000Y103585000D03*
X219715000Y103585000D03*
%TD*%
%TO.C,D36*%
X144965000Y46485000D03*
X148265000Y46485000D03*
%TD*%
D13*
%TO.C,C11*%
X208590000Y10855000D03*
X208590000Y9305000D03*
%TD*%
D12*
%TO.C,D9*%
X31315000Y65785000D03*
X34615000Y65785000D03*
%TD*%
%TO.C,D64*%
X249715000Y65535000D03*
X253015000Y65535000D03*
%TD*%
%TO.C,D15*%
X65215000Y84685000D03*
X68515000Y84685000D03*
%TD*%
%TO.C,D30*%
X121115000Y103685000D03*
X124415000Y103685000D03*
%TD*%
D15*
%TO.C,R5*%
X39665000Y133910000D03*
X39665000Y132260000D03*
%TD*%
D12*
%TO.C,D39*%
X159015000Y136885000D03*
X162315000Y136885000D03*
%TD*%
D14*
%TO.C,C1*%
X165500000Y16215000D03*
X165500000Y17765000D03*
%TD*%
D12*
%TO.C,D12*%
X63715000Y136885000D03*
X67015000Y136885000D03*
%TD*%
%TO.C,D10*%
X32415000Y46685000D03*
X35715000Y46685000D03*
%TD*%
%TO.C,D33*%
X135465000Y65535000D03*
X138765000Y65535000D03*
%TD*%
D16*
%TO.C,J1*%
X37490000Y139100000D03*
X38290000Y139100000D03*
D17*
X39440000Y139100000D03*
X40440000Y139100000D03*
X40940000Y139100000D03*
X41940000Y139100000D03*
D16*
X43090000Y139100000D03*
X43890000Y139100000D03*
X43890000Y139100000D03*
X43090000Y139100000D03*
D17*
X42440000Y139100000D03*
X41440000Y139100000D03*
X39940000Y139100000D03*
X38940000Y139100000D03*
D16*
X38290000Y139100000D03*
X37490000Y139100000D03*
%TD*%
D12*
%TO.C,D35*%
X140215000Y103485000D03*
X143515000Y103485000D03*
%TD*%
%TO.C,D41*%
X164015000Y46485000D03*
X167315000Y46485000D03*
%TD*%
D13*
%TO.C,C2*%
X212900000Y24825000D03*
X212900000Y23275000D03*
%TD*%
D12*
%TO.C,D34*%
X140115000Y136885000D03*
X143415000Y136885000D03*
%TD*%
%TO.C,D79*%
X292615000Y27435000D03*
X295915000Y27435000D03*
%TD*%
D14*
%TO.C,C9*%
X228100000Y8925000D03*
X228100000Y10475000D03*
%TD*%
D15*
%TO.C,R6*%
X206140000Y11615000D03*
X206140000Y9965000D03*
%TD*%
D12*
%TO.C,D90*%
X347115000Y103885000D03*
X350415000Y103885000D03*
%TD*%
%TO.C,D48*%
X187815000Y84685000D03*
X191115000Y84685000D03*
%TD*%
%TO.C,D63*%
X244915000Y84385000D03*
X248215000Y84385000D03*
%TD*%
%TO.C,D25*%
X106815000Y46485000D03*
X110115000Y46485000D03*
%TD*%
%TO.C,D53*%
X206815000Y84585000D03*
X210115000Y84585000D03*
%TD*%
%TO.C,D14*%
X65215000Y27585000D03*
X68515000Y27585000D03*
%TD*%
%TO.C,D50*%
X196715000Y136985000D03*
X200015000Y136985000D03*
%TD*%
%TO.C,D47*%
X185415000Y27335000D03*
X188715000Y27335000D03*
%TD*%
%TO.C,D6*%
X36615000Y119285000D03*
X33315000Y119285000D03*
%TD*%
%TO.C,D45*%
X178315000Y103585000D03*
X181615000Y103585000D03*
%TD*%
%TO.C,D28*%
X116365000Y65585000D03*
X119665000Y65585000D03*
%TD*%
D14*
%TO.C,C5*%
X201650000Y22835000D03*
X201650000Y24385000D03*
%TD*%
D12*
%TO.C,D26*%
X110715000Y84485000D03*
X114015000Y84485000D03*
%TD*%
%TO.C,D42*%
X168815000Y84685000D03*
X172115000Y84685000D03*
%TD*%
%TO.C,D62*%
X240215000Y46585000D03*
X243515000Y46585000D03*
%TD*%
%TO.C,D94*%
X346015000Y137185000D03*
X349315000Y137185000D03*
%TD*%
%TO.C,D83*%
X311665000Y27385000D03*
X314965000Y27385000D03*
%TD*%
%TO.C,D92*%
X349715000Y65585000D03*
X353015000Y65585000D03*
%TD*%
%TO.C,D11*%
X33515000Y27585000D03*
X36815000Y27585000D03*
%TD*%
%TO.C,D22*%
X97365000Y65535000D03*
X100665000Y65535000D03*
%TD*%
D13*
%TO.C,C10*%
X204300000Y10185000D03*
X204300000Y8635000D03*
%TD*%
D12*
%TO.C,D19*%
X83015000Y103685000D03*
X86315000Y103685000D03*
%TD*%
%TO.C,D54*%
X211615000Y65535000D03*
X214915000Y65535000D03*
%TD*%
%TO.C,D91*%
X346415000Y84385000D03*
X349715000Y84385000D03*
%TD*%
%TO.C,D71*%
X273515000Y136785000D03*
X276815000Y136785000D03*
%TD*%
%TO.C,D76*%
X287865000Y65635000D03*
X291165000Y65635000D03*
%TD*%
%TO.C,D72*%
X273515000Y103585000D03*
X276815000Y103585000D03*
%TD*%
%TO.C,D73*%
X273565000Y27435000D03*
X276865000Y27435000D03*
%TD*%
D13*
%TO.C,C6*%
X212530000Y19205000D03*
X212530000Y17655000D03*
%TD*%
D12*
%TO.C,D13*%
X62015000Y103885000D03*
X65315000Y103885000D03*
%TD*%
%TO.C,D16*%
X69615000Y65485000D03*
X72915000Y65485000D03*
%TD*%
%TO.C,D31*%
X125915000Y46435000D03*
X129215000Y46435000D03*
%TD*%
%TO.C,D21*%
X92015000Y84285000D03*
X95315000Y84285000D03*
%TD*%
%TO.C,D95*%
X349765000Y27285000D03*
X353065000Y27285000D03*
%TD*%
D18*
%TO.C,C7*%
X224270000Y22270000D03*
X222720000Y22270000D03*
%TD*%
D12*
%TO.C,D82*%
X311215000Y136785000D03*
X314515000Y136785000D03*
%TD*%
%TO.C,D88*%
X330715000Y27385000D03*
X334015000Y27385000D03*
%TD*%
%TO.C,D66*%
X254515000Y103485000D03*
X257815000Y103485000D03*
%TD*%
%TO.C,D23*%
X102015000Y136885000D03*
X105315000Y136885000D03*
%TD*%
%TO.C,D75*%
X283115000Y84585000D03*
X286415000Y84585000D03*
%TD*%
%TO.C,D77*%
X292315000Y136785000D03*
X295615000Y136785000D03*
%TD*%
D19*
%TO.C,SW2*%
X161165000Y25435000D03*
X154965000Y25435000D03*
X154965000Y21735000D03*
X161165000Y21735000D03*
%TD*%
D12*
%TO.C,D43*%
X173515000Y65485000D03*
X176815000Y65485000D03*
%TD*%
D19*
%TO.C,SW1*%
X161165000Y19035000D03*
X154965000Y19035000D03*
X154965000Y15335000D03*
X161165000Y15335000D03*
%TD*%
D20*
%TO.C,U3*%
X205802500Y23835000D03*
X205802500Y21935000D03*
X203927500Y22885000D03*
%TD*%
D15*
%TO.C,R4*%
X37880000Y131880000D03*
X37880000Y130230000D03*
%TD*%
D12*
%TO.C,D89*%
X330415000Y136885000D03*
X333715000Y136885000D03*
%TD*%
%TO.C,D29*%
X121115000Y136785000D03*
X124415000Y136785000D03*
%TD*%
%TO.C,D2*%
X12715000Y84785000D03*
X16015000Y84785000D03*
%TD*%
%TO.C,D17*%
X75865000Y46485000D03*
X79165000Y46485000D03*
%TD*%
%TO.C,D37*%
X149615000Y84585000D03*
X152915000Y84585000D03*
%TD*%
D18*
%TO.C,C12*%
X226825000Y23950000D03*
X225275000Y23950000D03*
%TD*%
D12*
%TO.C,D84*%
X318115000Y103885000D03*
X321415000Y103885000D03*
%TD*%
%TO.C,D80*%
X300340000Y84500000D03*
X303640000Y84500000D03*
%TD*%
%TO.C,D20*%
X90165000Y27385000D03*
X93465000Y27385000D03*
%TD*%
%TO.C,D32*%
X130715000Y84585000D03*
X134015000Y84585000D03*
%TD*%
%TO.C,D69*%
X263315000Y84485000D03*
X266615000Y84485000D03*
%TD*%
D15*
%TO.C,R7*%
X210405000Y11170000D03*
X210405000Y9520000D03*
%TD*%
D12*
%TO.C,D18*%
X82615000Y136785000D03*
X85915000Y136785000D03*
%TD*%
%TO.C,D74*%
X278315000Y46485000D03*
X281615000Y46485000D03*
%TD*%
%TO.C,D57*%
X221165000Y46385000D03*
X224465000Y46385000D03*
%TD*%
%TO.C,D70*%
X268765000Y65485000D03*
X272065000Y65485000D03*
%TD*%
%TO.C,D85*%
X318765000Y65485000D03*
X322065000Y65485000D03*
%TD*%
%TO.C,D1*%
X12415000Y103985000D03*
X15715000Y103985000D03*
%TD*%
%TO.C,D78*%
X289115000Y103685000D03*
X292415000Y103685000D03*
%TD*%
%TO.C,D60*%
X235415000Y136885000D03*
X238715000Y136885000D03*
%TD*%
%TO.C,D3*%
X12715000Y65760000D03*
X16015000Y65760000D03*
%TD*%
%TO.C,D49*%
X192565000Y65535000D03*
X195865000Y65535000D03*
%TD*%
D21*
%TO.C,U1*%
X216615000Y20335000D03*
X217115000Y20335000D03*
X217615000Y20335000D03*
X218115000Y20335000D03*
X218615000Y20335000D03*
X219115000Y20335000D03*
X219615000Y20335000D03*
X220115000Y20335000D03*
X220615000Y20335000D03*
X221115000Y20335000D03*
X221615000Y20335000D03*
X222115000Y20335000D03*
X222615000Y20335000D03*
X223115000Y20335000D03*
X223615000Y20335000D03*
X224115000Y20335000D03*
D22*
X226040000Y18410000D03*
X226040000Y17910000D03*
X226040000Y17410000D03*
X226040000Y16910000D03*
X226040000Y16410000D03*
X226040000Y15910000D03*
X226040000Y15410000D03*
X226040000Y14910000D03*
X226040000Y14410000D03*
X226040000Y13910000D03*
X226040000Y13410000D03*
X226040000Y12910000D03*
X226040000Y12410000D03*
X226040000Y11910000D03*
X226040000Y11410000D03*
X226040000Y10910000D03*
D21*
X224115000Y8985000D03*
X223615000Y8985000D03*
X223115000Y8985000D03*
X222615000Y8985000D03*
X222115000Y8985000D03*
X221615000Y8985000D03*
X221115000Y8985000D03*
X220615000Y8985000D03*
X220115000Y8985000D03*
X219615000Y8985000D03*
X219115000Y8985000D03*
X218615000Y8985000D03*
X218115000Y8985000D03*
X217615000Y8985000D03*
X217115000Y8985000D03*
X216615000Y8985000D03*
D22*
X214690000Y10910000D03*
X214690000Y11410000D03*
X214690000Y11910000D03*
X214690000Y12410000D03*
X214690000Y12910000D03*
X214690000Y13410000D03*
X214690000Y13910000D03*
X214690000Y14410000D03*
X214690000Y14910000D03*
X214690000Y15410000D03*
X214690000Y15910000D03*
X214690000Y16410000D03*
X214690000Y16910000D03*
X214690000Y17410000D03*
X214690000Y17910000D03*
X214690000Y18410000D03*
%TD*%
D14*
%TO.C,C8*%
X207790000Y21735000D03*
X207790000Y23285000D03*
%TD*%
D12*
%TO.C,D44*%
X177015000Y136885000D03*
X180315000Y136885000D03*
%TD*%
D23*
%TO.C,R3*%
X163865000Y16160000D03*
X163865000Y17810000D03*
%TD*%
D12*
%TO.C,D51*%
X197315000Y103685000D03*
X200615000Y103685000D03*
%TD*%
%TO.C,D58*%
X225915000Y84585000D03*
X229215000Y84585000D03*
%TD*%
%TO.C,D38*%
X154465000Y65585000D03*
X157765000Y65585000D03*
%TD*%
%TO.C,D65*%
X254315000Y136885000D03*
X257615000Y136885000D03*
%TD*%
D13*
%TO.C,C3*%
X214090000Y9375000D03*
X214090000Y7825000D03*
%TD*%
D12*
%TO.C,D67*%
X254515000Y27435000D03*
X257815000Y27435000D03*
%TD*%
%TO.C,D81*%
X297470000Y46500000D03*
X300770000Y46500000D03*
%TD*%
%TO.C,D8*%
X32015000Y84885000D03*
X35315000Y84885000D03*
%TD*%
%TO.C,D86*%
X324480000Y84610000D03*
X327780000Y84610000D03*
%TD*%
%TO.C,D87*%
X332980000Y46390000D03*
X336280000Y46390000D03*
%TD*%
%TO.C,D68*%
X259265000Y46485000D03*
X262565000Y46485000D03*
%TD*%
%TO.C,D4*%
X13115000Y46585000D03*
X16415000Y46585000D03*
%TD*%
%TO.C,D40*%
X159215000Y103485000D03*
X162515000Y103485000D03*
%TD*%
%TO.C,D27*%
X114015000Y27435000D03*
X117315000Y27435000D03*
%TD*%
%TO.C,D52*%
X202115000Y46435000D03*
X205415000Y46435000D03*
%TD*%
%TO.C,D59*%
X230665000Y65535000D03*
X233965000Y65535000D03*
%TD*%
%TO.C,D46*%
X183015000Y46535000D03*
X186315000Y46535000D03*
%TD*%
%TO.C,D24*%
X102015000Y103485000D03*
X105315000Y103485000D03*
%TD*%
M02*
