M48
; DRILL file {KiCad (6.0.11)} date Wed Mar  1 01:08:00 2023
; FORMAT={-:-/ absolute / inch / decimal}
; #@! TF.CreationDate,2023-03-01T01:08:00+07:00
; #@! TF.GenerationSoftware,Kicad,Pcbnew,(6.0.11)
; #@! TF.FileFunction,NonPlated,1,2,NPTH
FMAT,2
INCH
; #@! TA.AperFunction,NonPlated,NPTH,ComponentDrill
T1C0.0256
; #@! TA.AperFunction,NonPlated,NPTH,ComponentDrill
T2C0.0689
; #@! TA.AperFunction,NonPlated,NPTH,ComponentDrill
T3C0.0866
; #@! TA.AperFunction,NonPlated,NPTH,ComponentDrill
T4C0.1181
; #@! TA.AperFunction,NonPlated,NPTH,ComponentDrill
T5C0.1200
; #@! TA.AperFunction,NonPlated,NPTH,ComponentDrill
T6C0.1570
%
G90
G05
T1
X1.4882Y5.5187
X1.7157Y5.5187
T2
X0.3626Y3.7494
X0.3626Y2.9994
X0.3626Y2.2494
X0.3626Y1.4994
X0.3626Y0.7494
X0.7626Y3.7494
X0.7626Y2.9994
X0.7626Y2.2494
X0.7626Y1.4994
X0.7626Y0.7494
X1.1126Y3.7494
X1.1126Y2.2494
X1.1126Y1.4994
X1.1146Y2.9994
X1.1146Y0.7494
X1.5126Y3.7494
X1.5126Y2.2494
X1.5126Y1.4994
X1.5146Y2.9994
X1.5146Y0.7494
X2.2376Y5.0619
X2.2376Y3.7494
X2.3306Y0.7494
X2.4251Y2.9994
X2.5181Y2.2494
X2.6376Y5.0619
X2.6376Y3.7494
X2.7056Y1.4994
X2.7306Y0.7494
X2.8251Y2.9994
X2.9181Y2.2494
X2.9876Y5.0619
X2.9876Y3.7494
X3.1056Y1.4994
X3.2681Y0.7494
X3.3626Y2.9994
X3.3876Y5.0619
X3.3876Y3.7494
X3.5501Y2.2494
X3.6681Y0.7494
X3.7376Y5.0619
X3.7376Y3.7494
X3.7626Y2.9994
X3.9251Y1.4994
X3.9501Y2.2494
X4.1126Y2.9994
X4.1376Y5.0619
X4.1376Y3.7494
X4.2056Y0.7494
X4.3001Y2.2494
X4.3251Y1.4994
X4.4876Y5.0619
X4.4876Y3.7494
X4.5126Y2.9994
X4.6056Y0.7494
X4.6751Y1.4994
X4.7001Y2.2494
X4.8626Y2.9994
X4.8876Y5.0619
X4.8876Y3.7494
X5.0501Y2.2494
X5.0751Y1.4994
X5.2376Y5.0619
X5.2376Y3.7494
X5.2626Y2.9994
X5.4251Y1.4994
X5.4501Y2.2494
X5.6126Y2.9994
X5.6376Y5.0619
X5.6376Y3.7494
X5.8001Y2.2494
X5.8251Y1.4994
X5.9876Y5.0619
X5.9876Y3.7494
X6.0126Y2.9994
X6.1751Y1.4994
X6.2001Y2.2494
X6.3626Y2.9994
X6.3876Y5.0619
X6.3876Y3.7494
X6.5501Y2.2494
X6.5751Y1.4994
X6.7376Y5.0619
X6.7376Y3.7494
X6.7626Y2.9994
X6.9251Y1.4994
X6.9501Y2.2494
X7.0181Y0.7494
X7.1126Y2.9994
X7.1376Y5.0619
X7.1376Y3.7494
X7.3001Y2.2494
X7.3251Y1.4994
X7.4181Y0.7494
X7.4876Y5.0619
X7.4876Y3.7494
X7.5126Y2.9994
X7.6751Y1.4994
X7.7001Y2.2494
X7.8626Y2.9994
X7.8876Y5.0619
X7.8876Y3.7494
X8.0501Y2.2494
X8.0751Y1.4994
X8.2376Y5.0619
X8.2376Y3.7494
X8.2626Y2.9994
X8.4251Y1.4994
X8.4501Y2.2494
X8.6126Y2.9994
X8.6376Y5.0619
X8.6376Y3.7494
X8.8001Y2.2494
X8.8251Y1.4994
X8.9876Y5.0619
X8.9876Y3.7494
X9.0126Y2.9994
X9.1751Y1.4994
X9.2001Y2.2494
X9.3626Y2.9994
X9.3876Y5.0619
X9.3876Y3.7494
X9.5501Y2.2494
X9.5751Y1.4994
X9.7376Y5.0619
X9.7376Y3.7494
X9.7376Y0.7494
X9.7626Y2.9994
X9.9251Y1.4994
X9.9501Y2.2494
X10.1126Y2.9994
X10.1376Y5.0619
X10.1376Y3.7494
X10.1376Y0.7494
X10.3001Y2.2494
X10.3251Y1.4994
X10.4876Y5.0619
X10.4876Y3.7494
X10.4876Y0.7494
X10.5126Y2.9994
X10.6751Y1.4994
X10.7001Y2.2494
X10.8626Y2.9994
X10.8876Y5.0619
X10.8876Y3.7494
X10.8876Y0.7494
X11.0501Y2.2494
X11.0751Y1.4994
X11.2376Y5.0619
X11.2376Y3.7494
X11.2376Y0.7494
X11.2626Y2.9994
X11.4501Y2.2494
X11.6126Y2.9994
X11.6376Y5.0619
X11.6376Y3.7494
X11.6376Y0.7494
X11.7056Y1.4994
X11.9876Y5.0619
X11.9876Y0.7494
X12.0126Y2.9994
X12.1056Y1.4994
X12.2681Y2.2494
X12.3626Y3.7494
X12.3876Y5.0619
X12.3876Y0.7494
X12.5501Y2.9994
X12.6681Y2.2494
X12.7376Y5.0619
X12.7376Y1.4994
X12.7376Y0.7494
X12.7626Y3.7494
X12.9501Y2.9994
X13.1376Y5.0619
X13.1376Y1.4994
X13.1376Y0.7494
X13.4876Y5.0619
X13.4876Y3.7494
X13.4876Y2.9994
X13.4876Y2.2494
X13.4876Y1.4994
X13.4876Y0.7494
X13.8876Y5.0619
X13.8876Y3.7494
X13.8876Y2.9994
X13.8876Y2.2494
X13.8876Y1.4994
X13.8876Y0.7494
T3
X1.9504Y4.4055
X2.198Y1.5638
X11.6961Y2.2685
X12.7213Y4.4055
T4
X0.4126Y3.0994
X0.4126Y2.3494
X0.4126Y1.5994
X0.4126Y0.8494
X0.6626Y3.1994
X0.6626Y2.4494
X0.6626Y1.6994
X0.6626Y0.9494
X1.1626Y3.8494
X1.1626Y2.3494
X1.1626Y1.5994
X1.1646Y3.0994
X1.1646Y0.8494
X1.4126Y3.9494
X1.4126Y2.4494
X1.4126Y1.6994
X1.4146Y3.1994
X1.4146Y0.9494
X2.2876Y5.1619
X2.2876Y3.8494
X2.3806Y0.8494
X2.4751Y3.0994
X2.5376Y5.2619
X2.5376Y3.9494
X2.5681Y2.3494
X2.6306Y0.9494
X2.7251Y3.1994
X2.7556Y1.5994
X2.8181Y2.4494
X3.0056Y1.6994
X3.0376Y5.1619
X3.0376Y3.8494
X3.2876Y5.2619
X3.2876Y3.9494
X3.3181Y0.8494
X3.4126Y3.0994
X3.5681Y0.9494
X3.6001Y2.3494
X3.6626Y3.1994
X3.7876Y5.1619
X3.7876Y3.8494
X3.8501Y2.4494
X3.9751Y1.5994
X4.0376Y5.2619
X4.0376Y3.9494
X4.1626Y3.0994
X4.2251Y1.6994
X4.2556Y0.8494
X4.3501Y2.3494
X4.4126Y3.1994
X4.5056Y0.9494
X4.5376Y5.1619
X4.5376Y3.8494
X4.6001Y2.4494
X4.7251Y1.5994
X4.7876Y5.2619
X4.7876Y3.9494
X4.9126Y3.0994
X4.9751Y1.6994
X5.1001Y2.3494
X5.1626Y3.1994
X5.2876Y5.1619
X5.2876Y3.8494
X5.3501Y2.4494
X5.4751Y1.5994
X5.5376Y5.2619
X5.5376Y3.9494
X5.6626Y3.0994
X5.7251Y1.6994
X5.8501Y2.3494
X5.9126Y3.1994
X6.0376Y5.1619
X6.0376Y3.8494
X6.1001Y2.4494
X6.2251Y1.5994
X6.2876Y5.2619
X6.2876Y3.9494
X6.4126Y3.0994
X6.4751Y1.6994
X6.6001Y2.3494
X6.6626Y3.1994
X6.7876Y5.1619
X6.7876Y3.8494
X6.8501Y2.4494
X6.9751Y1.5994
X7.0376Y5.2619
X7.0376Y3.9494
X7.0681Y0.8494
X7.1626Y3.0994
X7.2251Y1.6994
X7.3181Y0.9494
X7.3501Y2.3494
X7.4126Y3.1994
X7.5376Y5.1619
X7.5376Y3.8494
X7.6001Y2.4494
X7.7251Y1.5994
X7.7876Y5.2619
X7.7876Y3.9494
X7.9126Y3.0994
X7.9751Y1.6994
X8.1001Y2.3494
X8.1626Y3.1994
X8.2876Y5.1619
X8.2876Y3.8494
X8.3501Y2.4494
X8.4751Y1.5994
X8.5376Y5.2619
X8.5376Y3.9494
X8.6626Y3.0994
X8.7251Y1.6994
X8.8501Y2.3494
X8.9126Y3.1994
X9.0376Y5.1619
X9.0376Y3.8494
X9.1001Y2.4494
X9.2251Y1.5994
X9.2876Y5.2619
X9.2876Y3.9494
X9.4126Y3.0994
X9.4751Y1.6994
X9.6001Y2.3494
X9.6626Y3.1994
X9.7876Y5.1619
X9.7876Y3.8494
X9.7876Y0.8494
X9.8501Y2.4494
X9.9751Y1.5994
X10.0376Y5.2619
X10.0376Y3.9494
X10.0376Y0.9494
X10.1626Y3.0994
X10.2251Y1.6994
X10.3501Y2.3494
X10.4126Y3.1994
X10.5376Y5.1619
X10.5376Y3.8494
X10.5376Y0.8494
X10.6001Y2.4494
X10.7251Y1.5994
X10.7876Y5.2619
X10.7876Y3.9494
X10.7876Y0.9494
X10.9126Y3.0994
X10.9751Y1.6994
X11.1001Y2.3494
X11.1626Y3.1994
X11.2876Y5.1619
X11.2876Y3.8494
X11.2876Y0.8494
X11.3501Y2.4494
X11.5376Y5.2619
X11.5376Y3.9494
X11.5376Y0.9494
X11.6626Y3.0994
X11.7556Y1.5994
X11.9126Y3.1994
X12.0056Y1.6994
X12.0376Y5.1619
X12.0376Y0.8494
X12.2876Y5.2619
X12.2876Y0.9494
X12.3181Y2.3494
X12.4126Y3.8494
X12.5681Y2.4494
X12.6001Y3.0994
X12.6626Y3.9494
X12.7876Y5.1619
X12.7876Y1.5994
X12.7876Y0.8494
X12.8501Y3.1994
X13.0376Y5.2619
X13.0376Y1.6994
X13.0376Y0.9494
X13.5376Y5.1619
X13.5376Y3.8494
X13.5376Y3.0994
X13.5376Y2.3494
X13.5376Y1.5994
X13.5376Y0.8494
X13.7876Y5.2619
X13.7876Y3.9494
X13.7876Y3.1994
X13.7876Y2.4494
X13.7876Y1.6994
X13.7876Y0.9494
T5
X2.4356Y1.7744
X3.3756Y1.7744
X5.2496Y1.0244
X9.1866Y1.0244
X11.9981Y2.5244
X12.0926Y4.0244
X12.9381Y2.5244
X13.0326Y4.0244
T6
X0.5626Y3.7494
X0.5626Y2.9994
X0.5626Y2.2494
X0.5626Y1.4994
X0.5626Y0.7494
X1.3126Y3.7494
X1.3126Y2.2494
X1.3126Y1.4994
X1.3146Y2.9994
X1.3146Y0.7494
X2.4356Y1.1744
X2.4376Y5.0619
X2.4376Y3.7494
X2.5306Y0.7494
X2.6251Y2.9994
X2.7181Y2.2494
X2.9056Y1.4994
X3.1876Y5.0619
X3.1876Y3.7494
X3.3756Y1.1744
X3.4681Y0.7494
X3.5626Y2.9994
X3.7501Y2.2494
X3.9376Y5.0619
X3.9376Y3.7494
X4.1251Y1.4994
X4.3126Y2.9994
X4.4056Y0.7494
X4.5001Y2.2494
X4.6876Y5.0619
X4.6876Y3.7494
X4.8751Y1.4994
X5.0626Y2.9994
X5.2496Y0.4244
X5.2501Y2.2494
X5.4376Y5.0619
X5.4376Y3.7494
X5.6251Y1.4994
X5.8126Y2.9994
X6.0001Y2.2494
X6.1876Y5.0619
X6.1876Y3.7494
X6.3751Y1.4994
X6.5626Y2.9994
X6.7501Y2.2494
X6.9376Y5.0619
X6.9376Y3.7494
X7.1251Y1.4994
X7.2181Y0.7494
X7.3126Y2.9994
X7.5001Y2.2494
X7.6876Y5.0619
X7.6876Y3.7494
X7.8751Y1.4994
X8.0626Y2.9994
X8.2501Y2.2494
X8.4376Y5.0619
X8.4376Y3.7494
X8.6251Y1.4994
X8.8126Y2.9994
X9.0001Y2.2494
X9.1866Y0.4244
X9.1876Y5.0619
X9.1876Y3.7494
X9.3751Y1.4994
X9.5626Y2.9994
X9.7501Y2.2494
X9.9376Y5.0619
X9.9376Y3.7494
X9.9376Y0.7494
X10.1251Y1.4994
X10.3126Y2.9994
X10.5001Y2.2494
X10.6876Y5.0619
X10.6876Y3.7494
X10.6876Y0.7494
X10.8751Y1.4994
X11.0626Y2.9994
X11.2501Y2.2494
X11.4376Y5.0619
X11.4376Y3.7494
X11.4376Y0.7494
X11.8126Y2.9994
X11.9056Y1.4994
X11.9981Y1.9244
X12.0926Y3.4244
X12.1876Y5.0619
X12.1876Y0.7494
X12.4681Y2.2494
X12.5626Y3.7494
X12.7501Y2.9994
X12.9376Y5.0619
X12.9376Y1.4994
X12.9376Y0.7494
X12.9381Y1.9244
X13.0326Y3.4244
X13.6876Y5.0619
X13.6876Y3.7494
X13.6876Y2.9994
X13.6876Y2.2494
X13.6876Y1.4994
X13.6876Y0.7494
T0
M30
