M48
; DRILL file {KiCad (6.0.11)} date Wed Mar  1 20:51:25 2023
; FORMAT={-:-/ absolute / inch / decimal}
; #@! TF.CreationDate,2023-03-01T20:51:25+07:00
; #@! TF.GenerationSoftware,Kicad,Pcbnew,(6.0.11)
; #@! TF.FileFunction,Plated,1,2,PTH
FMAT,2
INCH
; #@! TA.AperFunction,Plated,PTH,ViaDrill
T1C0.0157
; #@! TA.AperFunction,Plated,PTH,ComponentDrill
T2C0.0236
; #@! TA.AperFunction,Plated,PTH,ComponentDrill
T3C0.0394
; #@! TA.AperFunction,Plated,PTH,ComponentDrill
T4C0.0591
; #@! TA.AperFunction,Plated,PTH,ComponentDrill
T5C0.1181
; #@! TA.AperFunction,Plated,PTH,ComponentDrill
T6C0.1200
%
G90
G05
T1
X0.2745Y4.5209
X0.2824Y2.5319
X0.2844Y1.7839
X0.3021Y3.3154
X0.3021Y1.0378
X0.4353Y4.753
X0.4446Y4.6642
X0.621Y0.1539
X0.6974Y1.9476
X0.6997Y0.448
X0.7025Y1.1992
X0.7127Y2.7087
X0.7143Y3.4492
X0.7842Y0.5837
X0.9202Y3.9335
X0.9674Y0.1529
X1.0186Y2.5319
X1.054Y3.3154
X1.0855Y1.7839
X1.0895Y4.0398
X1.1131Y1.0378
X1.244Y5.4183
X1.2566Y5.3415
X1.3099Y4.8272
X1.3247Y5.1636
X1.3814Y5.1351
X1.442Y5.3026
X1.4477Y5.2169
X1.4485Y1.1965
X1.4564Y0.4319
X1.4662Y2.7079
X1.4753Y1.9532
X1.4871Y3.4571
X1.5511Y0.6041
X1.6958Y5.2169
X1.705Y4.916
X1.7193Y4.0751
X1.7464Y5.3711
X1.7816Y0.2772
X1.8121Y0.3073
X1.831Y0.0931
X1.9023Y0.1833
X2.0389Y0.3471
X2.243Y0.1864
X2.2666Y4.0437
X2.2863Y0.965
X2.3296Y5.3469
X2.3414Y3.3154
X2.5462Y2.5319
X2.5536Y3.4626
X2.5796Y4.7701
X2.6568Y0.4374
X2.7879Y2.6961
X2.7962Y1.7839
X2.8196Y0.5986
X2.8253Y1.0709
X2.8456Y0.1734
X2.9722Y1.9504
X3.058Y5.3469
X3.1407Y0.1894
X3.1446Y4.0437
X3.2974Y0.965
X3.3103Y3.465
X3.3344Y4.7571
X3.4005Y3.3154
X3.48Y1.2071
X3.5668Y0.1786
X3.6348Y2.5319
X3.6564Y0.448
X3.7261Y2.715
X3.792Y0.6097
X3.7942Y4.0437
X3.806Y5.3469
X3.8974Y1.9532
X4.0225Y1.7839
X4.0659Y0.2169
X4.0749Y3.4543
X4.0863Y4.7642
X4.0995Y0.3073
X4.1281Y0.2787
X4.1338Y0.1894
X4.1407Y3.3154
X4.2777Y1.2008
X4.3099Y1.026
X4.3887Y2.5319
X4.4773Y2.7043
X4.4907Y0.4532
X4.5619Y4.0437
X4.5816Y5.3469
X4.6277Y0.2587
X4.6357Y0.6451
X4.6379Y1.9583
X4.6637Y0.5026
X4.6879Y0.9925
X4.7863Y1.7839
X4.8261Y3.4571
X4.8281Y4.7642
X4.8407Y0.2315
X4.9123Y3.3154
X4.9789Y1.026
X5.1249Y2.5319
X5.1844Y0.6248
X5.2367Y2.7122
X5.2391Y1.3311
X5.3099Y5.3469
X5.3099Y4.0437
X5.3308Y0.6256
X5.3434Y0.417
X5.3438Y0.4563
X5.3769Y1.026
X5.3836Y0.2784
X5.3891Y1.9532
X5.5324Y1.7839
X5.5542Y0.3537
X5.5891Y4.7661
X5.5899Y3.4508
X5.6525Y3.3154
X5.8308Y0.3795
X5.8729Y1.2209
X5.8887Y2.5319
X5.9745Y2.7071
X6.0344Y5.3469
X6.0422Y4.0437
X6.1296Y1.9532
X6.2863Y1.7839
X6.3383Y3.4492
X6.3391Y4.7606
X6.3538Y0.6439
X6.3731Y0.877
X6.4011Y0.4565
X6.4359Y3.3154
X6.4692Y0.6317
X6.4714Y3.9492
X6.5107Y1.1847
X6.5452Y0.325
X6.557Y0.9967
X6.6306Y0.6321
X6.6466Y2.5319
X6.6722Y0.9532
X6.7363Y2.6961
X6.7503Y0.4711
X6.7509Y4.0437
X6.8058Y3.1789
X6.8178Y5.3469
X6.8832Y1.9555
X7.0304Y1.7839
X7.0753Y4.7677
X7.0816Y3.3154
X7.0974Y3.4492
X7.1033Y1.026
X7.2745Y1.1984
X7.3907Y2.5319
X7.4509Y0.3118
X7.4515Y0.4518
X7.4588Y0.8618
X7.4686Y2.715
X7.5344Y4.0437
X7.5422Y5.3469
X7.5739Y0.5746
X7.6426Y1.9504
X7.6434Y0.4567
X7.6855Y0.8591
X7.7785Y1.7839
X7.8326Y0.2813
X7.8328Y4.7626
X7.8328Y0.242
X7.8393Y0.71
X7.8584Y3.4386
X7.8727Y0.3494
X7.9162Y3.3154
X7.946Y0.3667
X8.0208Y-0.0289
X8.0294Y1.2711
X8.0645Y0.6089
X8.0855Y0.4837
X8.0914Y2.5319
X8.1775Y0.1805
X8.1873Y0.5514
X8.1877Y0.9089
X8.1909Y0.6577
X8.2076Y1.3587
X8.218Y0.7707
X8.2336Y0.2528
X8.234Y0.3028
X8.2387Y2.6961
X8.2464Y0.3789
X8.2558Y0.7368
X8.2745Y0.9975
X8.2799Y0.3995
X8.2903Y4.0437
X8.2942Y5.3469
X8.2958Y0.1441
X8.2987Y0.7041
X8.3749Y0.0919
X8.3848Y-0.0842
X8.3848Y0.0348
X8.3895Y-0.0236
X8.3938Y1.9555
X8.4119Y0.0634
X8.4126Y-0.0557
X8.4162Y0.0063
X8.4264Y0.8911
X8.4298Y0.5597
X8.4305Y0.8323
X8.4415Y0.1142
X8.4556Y0.8626
X8.4755Y0.475
X8.4891Y1.7839
X8.523Y2.4281
X8.5328Y1.0654
X8.5335Y0.0683
X8.5452Y0.8274
X8.5749Y3.4421
X8.5761Y4.7642
X8.5816Y0.8449
X8.6111Y0.8744
X8.6504Y0.8717
X8.684Y3.3154
X8.6893Y0.8657
X8.7666Y0.9975
X8.7769Y1.1902
X8.8096Y0.2106
X8.8498Y0.996
X8.8668Y0.9128
X8.869Y2.5319
X8.8692Y0.7313
X8.871Y1.6441
X8.9275Y0.3081
X8.9497Y2.6988
X8.9601Y0.5911
X9.054Y4.0437
X9.0974Y5.3469
X9.1556Y1.9665
X9.2745Y0.2563
X9.2804Y1.7839
X9.3149Y0.2523
X9.3224Y0.291
X9.3225Y4.7642
X9.3572Y3.4473
X9.3656Y0.2883
X9.3792Y1.0634
X9.3918Y0.2563
X9.4005Y3.3154
X9.4312Y0.2563
X9.5029Y0.1982
X9.5253Y1.1984
X9.5816Y2.5319
X9.6745Y2.691
X9.8178Y4.0437
X9.8296Y5.3469
X9.8336Y1.026
X9.8911Y1.961
X10.0344Y1.7839
X10.0729Y4.7661
X10.0773Y3.4457
X10.1446Y3.3154
X10.2233Y0.1805
X10.2769Y1.2036
X10.306Y2.5319
X10.4442Y2.7016
X10.558Y4.0437
X10.5737Y5.3469
X10.5993Y1.026
X10.6474Y1.9555
X10.7824Y1.7839
X10.8288Y4.7661
X10.8383Y3.4508
X10.9162Y3.3154
X10.9438Y0.1628
X11.1151Y2.5319
X11.1615Y1.1957
X11.2009Y2.6988
X11.2233Y4.0437
X11.3099Y5.3469
X11.4064Y1.026
X11.5354Y1.7219
X11.6056Y4.7748
X11.6367Y3.3154
X11.6643Y0.1451
X11.6954Y1.9555
X11.7989Y3.4559
X11.9387Y2.7095
X11.995Y5.3469
X12.1131Y1.2036
X12.1564Y1.026
X12.3257Y4.0437
X12.3391Y4.7736
X12.4044Y0.1274
X12.4359Y2.5319
X12.6143Y3.3075
X12.687Y1.7219
X12.8021Y5.3469
X12.8454Y1.026
X13.1564Y0.0988
X13.4596Y5.3469
X13.4674Y3.2839
X13.4702Y4.3445
X13.5265Y4.0437
X13.5619Y2.5319
X13.5777Y1.7228
X13.5816Y1.026
X13.8135Y3.3618
X13.8438Y2.0323
X13.8458Y1.2784
X13.8651Y0.7099
T3
X0.5422Y4.8636
X0.5422Y4.7652
X0.5422Y4.6667
X1.1131Y4.8636
X1.1131Y4.6667
T5
X0.3027Y3.7402
X0.3027Y2.9902
X0.3027Y2.2402
X0.3027Y1.4902
X0.3027Y0.7402
X0.5527Y3.8402
X0.5527Y3.0902
X0.5527Y2.3402
X0.5527Y1.5902
X0.5527Y0.8402
X1.0527Y3.7402
X1.0527Y2.2402
X1.0527Y1.4902
X1.0546Y2.9902
X1.0546Y0.7402
X1.3027Y3.8402
X1.3027Y2.3402
X1.3027Y1.5902
X1.3046Y3.0902
X1.3046Y0.8402
X2.1777Y5.0527
X2.1777Y3.7402
X2.2707Y0.7402
X2.3652Y2.9902
X2.4277Y5.1527
X2.4277Y3.8402
X2.4582Y2.2402
X2.5207Y0.8402
X2.6152Y3.0902
X2.6457Y1.4902
X2.7082Y2.3402
X2.8957Y1.5902
X2.9277Y5.0527
X2.9277Y3.7402
X3.1777Y5.1527
X3.1777Y3.8402
X3.2082Y0.7402
X3.3027Y2.9902
X3.4582Y0.8402
X3.4902Y2.2402
X3.5527Y3.0902
X3.6777Y5.0527
X3.6777Y3.7402
X3.7402Y2.3402
X3.8652Y1.4902
X3.9277Y5.1527
X3.9277Y3.8402
X4.0527Y2.9902
X4.1152Y1.5902
X4.1457Y0.7402
X4.2402Y2.2402
X4.3027Y3.0902
X4.3957Y0.8402
X4.4277Y5.0527
X4.4277Y3.7402
X4.4902Y2.3402
X4.6152Y1.4902
X4.6777Y5.1527
X4.6777Y3.8402
X4.8027Y2.9902
X4.8652Y1.5902
X4.9902Y2.2402
X5.0527Y3.0902
X5.1777Y5.0527
X5.1777Y3.7402
X5.2402Y2.3402
X5.3652Y1.4902
X5.4277Y5.1527
X5.4277Y3.8402
X5.5527Y2.9902
X5.6152Y1.5902
X5.7402Y2.2402
X5.8027Y3.0902
X5.9277Y5.0527
X5.9277Y3.7402
X5.9902Y2.3402
X6.1152Y1.4902
X6.1777Y5.1527
X6.1777Y3.8402
X6.3027Y2.9902
X6.3652Y1.5902
X6.4902Y2.2402
X6.5527Y3.0902
X6.6777Y5.0527
X6.6777Y3.7402
X6.7402Y2.3402
X6.8652Y1.4902
X6.9277Y5.1527
X6.9277Y3.8402
X6.9582Y0.7402
X7.0527Y2.9902
X7.1152Y1.5902
X7.2082Y0.8402
X7.2402Y2.2402
X7.3027Y3.0902
X7.4277Y5.0527
X7.4277Y3.7402
X7.4902Y2.3402
X7.6152Y1.4902
X7.6777Y5.1527
X7.6777Y3.8402
X7.8027Y2.9902
X7.8652Y1.5902
X7.9902Y2.2402
X8.0527Y3.0902
X8.1777Y5.0527
X8.1777Y3.7402
X8.2402Y2.3402
X8.3652Y1.4902
X8.4277Y5.1527
X8.4277Y3.8402
X8.5527Y2.9902
X8.6152Y1.5902
X8.7402Y2.2402
X8.8027Y3.0902
X8.9277Y5.0527
X8.9277Y3.7402
X8.9902Y2.3402
X9.1152Y1.4902
X9.1777Y5.1527
X9.1777Y3.8402
X9.3027Y2.9902
X9.3652Y1.5902
X9.4902Y2.2402
X9.5527Y3.0902
X9.6777Y5.0527
X9.6777Y3.7402
X9.6777Y0.7402
X9.7402Y2.3402
X9.8652Y1.4902
X9.9277Y5.1527
X9.9277Y3.8402
X9.9277Y0.8402
X10.0527Y2.9902
X10.1152Y1.5902
X10.2402Y2.2402
X10.3027Y3.0902
X10.4277Y5.0527
X10.4277Y3.7402
X10.4277Y0.7402
X10.4902Y2.3402
X10.6152Y1.4902
X10.6777Y5.1527
X10.6777Y3.8402
X10.6777Y0.8402
X10.8027Y2.9902
X10.8652Y1.5902
X10.9902Y2.2402
X11.0527Y3.0902
X11.1777Y5.0527
X11.1777Y3.7402
X11.1777Y0.7402
X11.2402Y2.3402
X11.4277Y5.1527
X11.4277Y3.8402
X11.4277Y0.8402
X11.5527Y2.9902
X11.6457Y1.4902
X11.8027Y3.0902
X11.8957Y1.5902
X11.9277Y5.0527
X11.9277Y0.7402
X12.1777Y5.1527
X12.1777Y0.8402
X12.2082Y2.2402
X12.3027Y3.7402
X12.4582Y2.3402
X12.4902Y2.9902
X12.5527Y3.8402
X12.6777Y5.0527
X12.6777Y1.4902
X12.6777Y0.7402
X12.7402Y3.0902
X12.9277Y5.1527
X12.9277Y1.5902
X12.9277Y0.8402
X13.4277Y5.0527
X13.4277Y3.7402
X13.4277Y2.9902
X13.4277Y2.2402
X13.4277Y1.4902
X13.4277Y0.7402
X13.6777Y5.1527
X13.6777Y3.8402
X13.6777Y3.0902
X13.6777Y2.3402
X13.6777Y1.5902
X13.6777Y0.8402
T6
X2.3269Y1.6652
X3.2644Y1.6652
X5.1394Y0.9152
X9.0769Y0.9152
X11.8894Y2.4152
X11.9839Y3.9152
X12.8269Y2.4152
X12.9214Y3.9152
T2
G00X1.322Y5.5701
M15
G01X1.322Y5.5386
M16
G05
G00X1.322Y5.4114
M15
G01X1.322Y5.3681
M16
G05
G00X1.6621Y5.5701
M15
G01X1.6621Y5.5386
M16
G05
G00X1.6621Y5.4114
M15
G01X1.6621Y5.3681
M16
G05
T4
G00X0.8119Y4.9856
M15
G01X0.8631Y4.9856
M16
G05
G00X0.8119Y4.5447
M15
G01X0.8631Y4.5447
M16
G05
T0
M30
