M48
; DRILL file {KiCad (6.0.11)} date Mon Mar 27 15:54:23 2023
; FORMAT={-:-/ absolute / inch / decimal}
; #@! TF.CreationDate,2023-03-27T15:54:23+07:00
; #@! TF.GenerationSoftware,Kicad,Pcbnew,(6.0.11)
; #@! TF.FileFunction,Plated,1,2,PTH
FMAT,2
INCH
; #@! TA.AperFunction,Plated,PTH,ViaDrill
T1C0.0157
; #@! TA.AperFunction,Plated,PTH,ComponentDrill
T2C0.0236
; #@! TA.AperFunction,Plated,PTH,ComponentDrill
T3C0.0394
; #@! TA.AperFunction,Plated,PTH,ComponentDrill
T4C0.0591
; #@! TA.AperFunction,Plated,PTH,ComponentDrill
T5C0.1181
; #@! TA.AperFunction,Plated,PTH,ComponentDrill
T6C0.1200
%
G90
G05
T1
X0.1752Y4.5687
X0.1831Y2.5797
X0.185Y1.8317
X0.2027Y3.3632
X0.2027Y1.0856
X0.336Y4.8008
X0.3453Y4.712
X0.5216Y0.2018
X0.598Y1.9955
X0.6004Y0.4959
X0.6031Y1.247
X0.6134Y2.7565
X0.615Y3.497
X0.6848Y0.6315
X0.8209Y3.9813
X0.8681Y0.2008
X0.9193Y2.5797
X0.9547Y3.3632
X0.9862Y1.8317
X0.9901Y4.0876
X1.0138Y1.0856
X1.1447Y5.4661
X1.1573Y5.3894
X1.2106Y4.875
X1.2254Y5.2114
X1.2821Y5.1829
X1.3427Y5.3504
X1.3484Y5.2648
X1.3492Y1.2443
X1.3571Y0.4797
X1.3669Y2.7557
X1.376Y2.001
X1.3878Y3.5049
X1.4518Y0.652
X1.5964Y5.2648
X1.6057Y4.9638
X1.6199Y4.1229
X1.647Y5.4189
X1.674Y1.3527
X1.6768Y0.5629
X1.6823Y0.325
X1.6846Y3.6515
X1.6854Y2.9885
X1.6882Y2.0928
X1.7128Y0.3551
X1.7317Y0.1409
X1.7697Y0.2889
X1.9396Y0.3949
X2.1437Y0.2342
X2.1673Y4.0915
X2.187Y1.0128
X2.2303Y5.3947
X2.2421Y3.3632
X2.4468Y2.5797
X2.4543Y3.5104
X2.4803Y4.8179
X2.5575Y0.4852
X2.6886Y2.7439
X2.6968Y1.8317
X2.7203Y0.6465
X2.726Y1.1187
X2.7462Y0.2213
X2.8728Y1.9982
X2.9587Y5.3947
X3.0413Y0.2372
X3.0453Y4.0915
X3.198Y1.0128
X3.211Y3.5128
X3.235Y4.8049
X3.3012Y3.3632
X3.3807Y1.2549
X3.4675Y0.2264
X3.5354Y2.5797
X3.5571Y0.4959
X3.6268Y2.7628
X3.6927Y0.6575
X3.6949Y4.0915
X3.7067Y5.3947
X3.798Y2.001
X3.9232Y1.8317
X3.9665Y0.2648
X3.9756Y3.5022
X3.987Y4.812
X4.0002Y0.3551
X4.0287Y0.3266
X4.0344Y0.2372
X4.0413Y3.3632
X4.1783Y1.2486
X4.2106Y1.0738
X4.2894Y2.5797
X4.3779Y2.7522
X4.3913Y0.501
X4.4626Y4.0915
X4.4823Y5.3947
X4.5283Y0.3065
X4.5364Y0.6929
X4.5386Y2.0061
X4.5644Y0.5504
X4.5886Y1.0404
X4.687Y1.8317
X4.7268Y3.5049
X4.7287Y4.812
X4.7413Y0.2793
X4.813Y3.3632
X4.8796Y1.0738
X5.0256Y2.5797
X5.085Y0.6726
X5.1374Y2.76
X5.1398Y1.3789
X5.2106Y5.3947
X5.2106Y4.0915
X5.2315Y0.6734
X5.2441Y0.4648
X5.2445Y0.5041
X5.2775Y1.0738
X5.2842Y0.3262
X5.2898Y2.001
X5.4331Y1.8317
X5.4549Y0.4016
X5.4898Y4.814
X5.4905Y3.4986
X5.5531Y3.3632
X5.7315Y0.4274
X5.7736Y1.2687
X5.7894Y2.5797
X5.8752Y2.7549
X5.935Y5.3947
X5.9429Y4.0915
X6.0303Y2.001
X6.187Y1.8317
X6.239Y3.497
X6.2398Y4.8085
X6.2545Y0.6917
X6.2738Y0.9248
X6.3018Y0.5043
X6.3366Y3.3632
X6.3699Y0.6795
X6.372Y3.997
X6.4114Y1.2325
X6.4459Y0.3728
X6.4577Y1.0445
X6.5313Y0.6799
X6.5472Y2.5797
X6.5728Y1.001
X6.637Y2.7439
X6.651Y0.5189
X6.6516Y4.0915
X6.7065Y3.2268
X6.7185Y5.3947
X6.7838Y2.0033
X6.9311Y1.8317
X6.976Y4.8156
X6.9823Y3.3632
X6.998Y3.497
X7.0039Y1.0738
X7.1752Y1.2463
X7.2913Y2.5797
X7.3516Y0.3596
X7.3522Y0.4996
X7.3594Y0.9096
X7.3693Y2.7628
X7.435Y4.0915
X7.4429Y5.3947
X7.4746Y0.6224
X7.5433Y1.9982
X7.5441Y0.5045
X7.5862Y0.9069
X7.6791Y1.8317
X7.7333Y0.3291
X7.7335Y4.8104
X7.7335Y0.2898
X7.74Y0.7579
X7.759Y3.4864
X7.7734Y0.3972
X7.8169Y3.3632
X7.8466Y0.4146
X7.9214Y0.0189
X7.9301Y1.3189
X7.9651Y0.6567
X7.9862Y0.5315
X7.9921Y2.5797
X8.0781Y0.2283
X8.088Y0.5992
X8.0884Y0.9567
X8.0915Y0.7055
X8.1083Y1.4065
X8.1187Y0.8185
X8.1342Y0.3006
X8.1346Y0.3506
X8.1394Y2.7439
X8.147Y0.4268
X8.1565Y0.7846
X8.1752Y1.0453
X8.1806Y0.4473
X8.1909Y4.0915
X8.1949Y5.3947
X8.1965Y0.1919
X8.1994Y0.752
X8.2756Y0.1397
X8.2854Y-0.0364
X8.2854Y0.0827
X8.2902Y0.0242
X8.2945Y2.0033
X8.3126Y0.1112
X8.3132Y-0.0079
X8.3169Y0.0541
X8.327Y0.939
X8.3305Y0.6075
X8.3312Y0.8801
X8.3421Y0.1621
X8.3563Y0.9104
X8.3762Y0.5228
X8.3898Y1.8317
X8.4237Y2.4759
X8.4335Y1.1132
X8.4342Y0.1161
X8.4458Y0.8752
X8.4583Y1.0054
X8.4756Y3.49
X8.4768Y4.812
X8.4823Y0.8927
X8.5118Y0.9222
X8.5511Y0.9195
X8.5846Y3.3632
X8.59Y0.9136
X8.6673Y1.0453
X8.6775Y1.238
X8.7102Y0.2585
X8.7505Y1.0438
X8.7675Y0.9606
X8.7697Y2.5797
X8.7699Y0.7791
X8.7716Y1.6919
X8.8281Y0.3559
X8.8504Y2.7467
X8.8608Y0.639
X8.9547Y4.0915
X8.998Y5.3947
X9.0563Y2.0144
X9.1752Y0.3041
X9.1811Y1.8317
X9.2156Y0.3002
X9.223Y0.3388
X9.2232Y4.812
X9.2579Y3.4951
X9.2662Y0.3361
X9.2799Y1.1112
X9.2925Y0.3041
X9.3012Y3.3632
X9.3318Y0.3041
X9.4035Y0.246
X9.426Y1.2463
X9.4823Y2.5797
X9.5752Y2.7388
X9.7185Y4.0915
X9.7303Y5.3947
X9.7342Y1.0738
X9.7917Y2.0089
X9.935Y1.8317
X9.9736Y4.814
X9.9779Y3.4935
X10.0453Y3.3632
X10.124Y0.2283
X10.1775Y1.2514
X10.2067Y2.5797
X10.3449Y2.7494
X10.4587Y4.0915
X10.4744Y5.3947
X10.5Y1.0738
X10.548Y2.0033
X10.6831Y1.8317
X10.7295Y4.814
X10.739Y3.4986
X10.8169Y3.3632
X10.8445Y0.2106
X11.0157Y2.5797
X11.0622Y1.2435
X11.1016Y2.7467
X11.124Y4.0915
X11.2106Y5.3947
X11.3071Y1.0738
X11.4361Y1.7697
X11.5063Y4.8226
X11.5374Y3.3632
X11.565Y0.1929
X11.5961Y2.0033
X11.6996Y3.5037
X11.8394Y2.7573
X11.8957Y5.3947
X12.0138Y1.2514
X12.0571Y1.0738
X12.2264Y4.0915
X12.2398Y4.8215
X12.3051Y0.1752
X12.3366Y2.5797
X12.515Y3.3553
X12.5876Y1.7697
X12.7027Y5.3947
X12.7461Y1.0738
X13.0571Y0.1467
X13.3602Y5.3947
X13.3681Y3.3317
X13.3709Y4.3923
X13.4272Y4.0915
X13.4626Y2.5797
X13.4783Y1.7707
X13.4823Y1.0738
X13.7142Y3.4096
X13.7445Y2.0801
X13.7464Y1.3262
X13.7657Y0.7577
T3
X0.4429Y4.9114
X0.4429Y4.813
X0.4429Y4.7146
X1.0138Y4.9114
X1.0138Y4.7146
T5
X0.2033Y3.788
X0.2033Y3.038
X0.2033Y2.288
X0.2033Y1.538
X0.2033Y0.788
X0.4533Y3.888
X0.4533Y3.138
X0.4533Y2.388
X0.4533Y1.638
X0.4533Y0.888
X0.9533Y3.788
X0.9533Y2.288
X0.9533Y1.538
X0.9553Y3.038
X0.9553Y0.788
X1.2033Y3.888
X1.2033Y2.388
X1.2033Y1.638
X1.2053Y3.138
X1.2053Y0.888
X2.0783Y5.1005
X2.0783Y3.788
X2.1713Y0.788
X2.2658Y3.038
X2.3283Y5.2005
X2.3283Y3.888
X2.3588Y2.288
X2.4213Y0.888
X2.5158Y3.138
X2.5463Y1.538
X2.6088Y2.388
X2.7963Y1.638
X2.8283Y5.1005
X2.8283Y3.788
X3.0783Y5.2005
X3.0783Y3.888
X3.1088Y0.788
X3.2033Y3.038
X3.3588Y0.888
X3.3908Y2.288
X3.4533Y3.138
X3.5783Y5.1005
X3.5783Y3.788
X3.6408Y2.388
X3.7658Y1.538
X3.8283Y5.2005
X3.8283Y3.888
X3.9533Y3.038
X4.0158Y1.638
X4.0463Y0.788
X4.1408Y2.288
X4.2033Y3.138
X4.2963Y0.888
X4.3283Y5.1005
X4.3283Y3.788
X4.3908Y2.388
X4.5158Y1.538
X4.5783Y5.2005
X4.5783Y3.888
X4.7033Y3.038
X4.7658Y1.638
X4.8908Y2.288
X4.9533Y3.138
X5.0783Y5.1005
X5.0783Y3.788
X5.1408Y2.388
X5.2658Y1.538
X5.3283Y5.2005
X5.3283Y3.888
X5.4533Y3.038
X5.5158Y1.638
X5.6408Y2.288
X5.7033Y3.138
X5.8283Y5.1005
X5.8283Y3.788
X5.8908Y2.388
X6.0158Y1.538
X6.0783Y5.2005
X6.0783Y3.888
X6.2033Y3.038
X6.2658Y1.638
X6.3908Y2.288
X6.4533Y3.138
X6.5783Y5.1005
X6.5783Y3.788
X6.6408Y2.388
X6.7658Y1.538
X6.8283Y5.2005
X6.8283Y3.888
X6.8588Y0.788
X6.9533Y3.038
X7.0158Y1.638
X7.1088Y0.888
X7.1408Y2.288
X7.2033Y3.138
X7.3283Y5.1005
X7.3283Y3.788
X7.3908Y2.388
X7.5158Y1.538
X7.5783Y5.2005
X7.5783Y3.888
X7.7033Y3.038
X7.7658Y1.638
X7.8908Y2.288
X7.9533Y3.138
X8.0783Y5.1005
X8.0783Y3.788
X8.1408Y2.388
X8.2658Y1.538
X8.3283Y5.2005
X8.3283Y3.888
X8.4533Y3.038
X8.5158Y1.638
X8.6408Y2.288
X8.7033Y3.138
X8.8283Y5.1005
X8.8283Y3.788
X8.8908Y2.388
X9.0158Y1.538
X9.0783Y5.2005
X9.0783Y3.888
X9.2033Y3.038
X9.2658Y1.638
X9.3908Y2.288
X9.4533Y3.138
X9.5783Y5.1005
X9.5783Y3.788
X9.5783Y0.788
X9.6408Y2.388
X9.7658Y1.538
X9.8283Y5.2005
X9.8283Y3.888
X9.8283Y0.888
X9.9533Y3.038
X10.0158Y1.638
X10.1408Y2.288
X10.2033Y3.138
X10.3283Y5.1005
X10.3283Y3.788
X10.3283Y0.788
X10.3908Y2.388
X10.5158Y1.538
X10.5783Y5.2005
X10.5783Y3.888
X10.5783Y0.888
X10.7033Y3.038
X10.7658Y1.638
X10.8908Y2.288
X10.9533Y3.138
X11.0783Y5.1005
X11.0783Y3.788
X11.0783Y0.788
X11.1408Y2.388
X11.3283Y5.2005
X11.3283Y3.888
X11.3283Y0.888
X11.4533Y3.038
X11.5463Y1.538
X11.7033Y3.138
X11.7963Y1.638
X11.8283Y5.1005
X11.8283Y0.788
X12.0783Y5.2005
X12.0783Y0.888
X12.1088Y2.288
X12.2033Y3.788
X12.3588Y2.388
X12.3908Y3.038
X12.4533Y3.888
X12.5783Y5.1005
X12.5783Y1.538
X12.5783Y0.788
X12.6408Y3.138
X12.8283Y5.2005
X12.8283Y1.638
X12.8283Y0.888
X13.3283Y5.1005
X13.3283Y3.788
X13.3283Y3.038
X13.3283Y2.288
X13.3283Y1.538
X13.3283Y0.788
X13.5783Y5.2005
X13.5783Y3.888
X13.5783Y3.138
X13.5783Y2.388
X13.5783Y1.638
X13.5783Y0.888
T6
X2.2276Y1.713
X3.1651Y1.713
X5.0401Y0.963
X8.9776Y0.963
X11.7901Y2.463
X11.8846Y3.963
X12.7276Y2.463
X12.8221Y3.963
T2
G00X1.2226Y5.6179
M15
G01X1.2226Y5.5864
M16
G05
G00X1.2226Y5.4593
M15
G01X1.2226Y5.4159
M16
G05
G00X1.5628Y5.6179
M15
G01X1.5628Y5.5864
M16
G05
G00X1.5628Y5.4593
M15
G01X1.5628Y5.4159
M16
G05
T4
G00X0.7126Y5.0335
M15
G01X0.7638Y5.0335
M16
G05
G00X0.7126Y4.5925
M15
G01X0.7638Y4.5925
M16
G05
T0
M30
