M48
; DRILL file {KiCad (6.0.11)} date Wed Mar  1 20:51:25 2023
; FORMAT={-:-/ absolute / inch / decimal}
; #@! TF.CreationDate,2023-03-01T20:51:25+07:00
; #@! TF.GenerationSoftware,Kicad,Pcbnew,(6.0.11)
; #@! TF.FileFunction,NonPlated,1,2,NPTH
FMAT,2
INCH
; #@! TA.AperFunction,NonPlated,NPTH,ComponentDrill
T1C0.0256
; #@! TA.AperFunction,NonPlated,NPTH,ComponentDrill
T2C0.0689
; #@! TA.AperFunction,NonPlated,NPTH,ComponentDrill
T3C0.0866
; #@! TA.AperFunction,NonPlated,NPTH,ComponentDrill
T4C0.1570
%
G90
G05
T1
X1.3783Y5.4095
X1.6058Y5.4095
T2
X0.2527Y3.6402
X0.2527Y2.8902
X0.2527Y2.1402
X0.2527Y1.3902
X0.2527Y0.6402
X0.6527Y3.6402
X0.6527Y2.8902
X0.6527Y2.1402
X0.6527Y1.3902
X0.6527Y0.6402
X1.0027Y3.6402
X1.0027Y2.1402
X1.0027Y1.3902
X1.0046Y2.8902
X1.0046Y0.6402
X1.4027Y3.6402
X1.4027Y2.1402
X1.4027Y1.3902
X1.4046Y2.8902
X1.4046Y0.6402
X2.1277Y4.9527
X2.1277Y3.6402
X2.2207Y0.6402
X2.3152Y2.8902
X2.4082Y2.1402
X2.5277Y4.9527
X2.5277Y3.6402
X2.5957Y1.3902
X2.6207Y0.6402
X2.7152Y2.8902
X2.8082Y2.1402
X2.8777Y4.9527
X2.8777Y3.6402
X2.9957Y1.3902
X3.1582Y0.6402
X3.2527Y2.8902
X3.2777Y4.9527
X3.2777Y3.6402
X3.4402Y2.1402
X3.5582Y0.6402
X3.6277Y4.9527
X3.6277Y3.6402
X3.6527Y2.8902
X3.8152Y1.3902
X3.8402Y2.1402
X4.0027Y2.8902
X4.0277Y4.9527
X4.0277Y3.6402
X4.0957Y0.6402
X4.1902Y2.1402
X4.2152Y1.3902
X4.3777Y4.9527
X4.3777Y3.6402
X4.4027Y2.8902
X4.4957Y0.6402
X4.5652Y1.3902
X4.5902Y2.1402
X4.7527Y2.8902
X4.7777Y4.9527
X4.7777Y3.6402
X4.9402Y2.1402
X4.9652Y1.3902
X5.1277Y4.9527
X5.1277Y3.6402
X5.1527Y2.8902
X5.3152Y1.3902
X5.3402Y2.1402
X5.5027Y2.8902
X5.5277Y4.9527
X5.5277Y3.6402
X5.6902Y2.1402
X5.7152Y1.3902
X5.8777Y4.9527
X5.8777Y3.6402
X5.9027Y2.8902
X6.0652Y1.3902
X6.0902Y2.1402
X6.2527Y2.8902
X6.2777Y4.9527
X6.2777Y3.6402
X6.4402Y2.1402
X6.4652Y1.3902
X6.6277Y4.9527
X6.6277Y3.6402
X6.6527Y2.8902
X6.8152Y1.3902
X6.8402Y2.1402
X6.9082Y0.6402
X7.0027Y2.8902
X7.0277Y4.9527
X7.0277Y3.6402
X7.1902Y2.1402
X7.2152Y1.3902
X7.3082Y0.6402
X7.3777Y4.9527
X7.3777Y3.6402
X7.4027Y2.8902
X7.5652Y1.3902
X7.5902Y2.1402
X7.7527Y2.8902
X7.7777Y4.9527
X7.7777Y3.6402
X7.9402Y2.1402
X7.9652Y1.3902
X8.1277Y4.9527
X8.1277Y3.6402
X8.1527Y2.8902
X8.3152Y1.3902
X8.3402Y2.1402
X8.5027Y2.8902
X8.5277Y4.9527
X8.5277Y3.6402
X8.6902Y2.1402
X8.7152Y1.3902
X8.8777Y4.9527
X8.8777Y3.6402
X8.9027Y2.8902
X9.0652Y1.3902
X9.0902Y2.1402
X9.2527Y2.8902
X9.2777Y4.9527
X9.2777Y3.6402
X9.4402Y2.1402
X9.4652Y1.3902
X9.6277Y4.9527
X9.6277Y3.6402
X9.6277Y0.6402
X9.6527Y2.8902
X9.8152Y1.3902
X9.8402Y2.1402
X10.0027Y2.8902
X10.0277Y4.9527
X10.0277Y3.6402
X10.0277Y0.6402
X10.1902Y2.1402
X10.2152Y1.3902
X10.3777Y4.9527
X10.3777Y3.6402
X10.3777Y0.6402
X10.4027Y2.8902
X10.5652Y1.3902
X10.5902Y2.1402
X10.7527Y2.8902
X10.7777Y4.9527
X10.7777Y3.6402
X10.7777Y0.6402
X10.9402Y2.1402
X10.9652Y1.3902
X11.1277Y4.9527
X11.1277Y3.6402
X11.1277Y0.6402
X11.1527Y2.8902
X11.3402Y2.1402
X11.5027Y2.8902
X11.5277Y4.9527
X11.5277Y3.6402
X11.5277Y0.6402
X11.5957Y1.3902
X11.8777Y4.9527
X11.8777Y0.6402
X11.9027Y2.8902
X11.9957Y1.3902
X12.1582Y2.1402
X12.2527Y3.6402
X12.2777Y4.9527
X12.2777Y0.6402
X12.4402Y2.8902
X12.5582Y2.1402
X12.6277Y4.9527
X12.6277Y1.3902
X12.6277Y0.6402
X12.6527Y3.6402
X12.8402Y2.8902
X13.0277Y4.9527
X13.0277Y1.3902
X13.0277Y0.6402
X13.3777Y4.9527
X13.3777Y3.6402
X13.3777Y2.8902
X13.3777Y2.1402
X13.3777Y1.3902
X13.3777Y0.6402
X13.7777Y4.9527
X13.7777Y3.6402
X13.7777Y2.8902
X13.7777Y2.1402
X13.7777Y1.3902
X13.7777Y0.6402
T3
X1.8405Y4.2963
X2.0881Y1.4545
X11.5861Y2.1593
X12.6113Y4.2963
T4
X0.4527Y3.6402
X0.4527Y2.8902
X0.4527Y2.1402
X0.4527Y1.3902
X0.4527Y0.6402
X1.2027Y3.6402
X1.2027Y2.1402
X1.2027Y1.3902
X1.2046Y2.8902
X1.2046Y0.6402
X2.3269Y1.0652
X2.3277Y4.9527
X2.3277Y3.6402
X2.4207Y0.6402
X2.5152Y2.8902
X2.6082Y2.1402
X2.7957Y1.3902
X3.0777Y4.9527
X3.0777Y3.6402
X3.2644Y1.0652
X3.3582Y0.6402
X3.4527Y2.8902
X3.6402Y2.1402
X3.8277Y4.9527
X3.8277Y3.6402
X4.0152Y1.3902
X4.2027Y2.8902
X4.2957Y0.6402
X4.3902Y2.1402
X4.5777Y4.9527
X4.5777Y3.6402
X4.7652Y1.3902
X4.9527Y2.8902
X5.1394Y0.3152
X5.1402Y2.1402
X5.3277Y4.9527
X5.3277Y3.6402
X5.5152Y1.3902
X5.7027Y2.8902
X5.8902Y2.1402
X6.0777Y4.9527
X6.0777Y3.6402
X6.2652Y1.3902
X6.4527Y2.8902
X6.6402Y2.1402
X6.8277Y4.9527
X6.8277Y3.6402
X7.0152Y1.3902
X7.1082Y0.6402
X7.2027Y2.8902
X7.3902Y2.1402
X7.5777Y4.9527
X7.5777Y3.6402
X7.7652Y1.3902
X7.9527Y2.8902
X8.1402Y2.1402
X8.3277Y4.9527
X8.3277Y3.6402
X8.5152Y1.3902
X8.7027Y2.8902
X8.8902Y2.1402
X9.0769Y0.3152
X9.0777Y4.9527
X9.0777Y3.6402
X9.2652Y1.3902
X9.4527Y2.8902
X9.6402Y2.1402
X9.8277Y4.9527
X9.8277Y3.6402
X9.8277Y0.6402
X10.0152Y1.3902
X10.2027Y2.8902
X10.3902Y2.1402
X10.5777Y4.9527
X10.5777Y3.6402
X10.5777Y0.6402
X10.7652Y1.3902
X10.9527Y2.8902
X11.1402Y2.1402
X11.3277Y4.9527
X11.3277Y3.6402
X11.3277Y0.6402
X11.7027Y2.8902
X11.7957Y1.3902
X11.8894Y1.8152
X11.9839Y3.3152
X12.0777Y4.9527
X12.0777Y0.6402
X12.3582Y2.1402
X12.4527Y3.6402
X12.6402Y2.8902
X12.8269Y1.8152
X12.8277Y4.9527
X12.8277Y1.3902
X12.8277Y0.6402
X12.9214Y3.3152
X13.5777Y4.9527
X13.5777Y3.6402
X13.5777Y2.8902
X13.5777Y2.1402
X13.5777Y1.3902
X13.5777Y0.6402
T0
M30
