%TF.GenerationSoftware,KiCad,Pcbnew,(6.0.11)*%
%TF.CreationDate,2023-03-01T20:51:25+07:00*%
%TF.ProjectId,Extero75,45787465-726f-4373-952e-6b696361645f,rev?*%
%TF.SameCoordinates,PX265be64PYc2d7328*%
%TF.FileFunction,Other,Comment*%
%FSLAX46Y46*%
G04 Gerber Fmt 4.6, Leading zero omitted, Abs format (unit mm)*
G04 Created by KiCad (PCBNEW (6.0.11)) date 2023-03-01 20:51:25*
%MOMM*%
%LPD*%
G01*
G04 APERTURE LIST*
%ADD10C,0.030000*%
%ADD11C,0.150000*%
G04 APERTURE END LIST*
D10*
%TO.C,SW2*%
X156558406Y20919716D02*
X156558406Y21119716D01*
X156672692Y20919716D02*
X156586977Y21034002D01*
X156672692Y21119716D02*
X156558406Y21005431D01*
X156758406Y21024478D02*
X156825072Y21024478D01*
X156853644Y20919716D02*
X156758406Y20919716D01*
X156758406Y21119716D01*
X156853644Y21119716D01*
X156939358Y21024478D02*
X157006025Y21024478D01*
X157034596Y20919716D02*
X156939358Y20919716D01*
X156939358Y21119716D01*
X157034596Y21119716D01*
X157120311Y20919716D02*
X157120311Y21119716D01*
X157196501Y21119716D01*
X157215549Y21110192D01*
X157225072Y21100669D01*
X157234596Y21081621D01*
X157234596Y21053050D01*
X157225072Y21034002D01*
X157215549Y21024478D01*
X157196501Y21014954D01*
X157120311Y21014954D01*
X157320311Y20995907D02*
X157472692Y20995907D01*
X157606025Y21119716D02*
X157644120Y21119716D01*
X157663168Y21110192D01*
X157682215Y21091145D01*
X157691739Y21053050D01*
X157691739Y20986383D01*
X157682215Y20948288D01*
X157663168Y20929240D01*
X157644120Y20919716D01*
X157606025Y20919716D01*
X157586977Y20929240D01*
X157567930Y20948288D01*
X157558406Y20986383D01*
X157558406Y21053050D01*
X157567930Y21091145D01*
X157586977Y21110192D01*
X157606025Y21119716D01*
X157777453Y21119716D02*
X157777453Y20957812D01*
X157786977Y20938764D01*
X157796501Y20929240D01*
X157815549Y20919716D01*
X157853644Y20919716D01*
X157872692Y20929240D01*
X157882215Y20938764D01*
X157891739Y20957812D01*
X157891739Y21119716D01*
X157958406Y21119716D02*
X158072692Y21119716D01*
X158015549Y20919716D02*
X158015549Y21119716D01*
X158272692Y21119716D02*
X158406025Y21119716D01*
X158272692Y20919716D01*
X158406025Y20919716D01*
X158520311Y21119716D02*
X158558406Y21119716D01*
X158577453Y21110192D01*
X158596501Y21091145D01*
X158606025Y21053050D01*
X158606025Y20986383D01*
X158596501Y20948288D01*
X158577453Y20929240D01*
X158558406Y20919716D01*
X158520311Y20919716D01*
X158501263Y20929240D01*
X158482215Y20948288D01*
X158472692Y20986383D01*
X158472692Y21053050D01*
X158482215Y21091145D01*
X158501263Y21110192D01*
X158520311Y21119716D01*
X158691739Y20919716D02*
X158691739Y21119716D01*
X158806025Y20919716D01*
X158806025Y21119716D01*
X158901263Y21024478D02*
X158967930Y21024478D01*
X158996501Y20919716D02*
X158901263Y20919716D01*
X158901263Y21119716D01*
X158996501Y21119716D01*
X156691739Y20519716D02*
X156691739Y20719716D01*
X156806025Y20519716D01*
X156806025Y20719716D01*
X156929834Y20519716D02*
X156910787Y20529240D01*
X156901263Y20538764D01*
X156891739Y20557812D01*
X156891739Y20614954D01*
X156901263Y20634002D01*
X156910787Y20643526D01*
X156929834Y20653050D01*
X156958406Y20653050D01*
X156977453Y20643526D01*
X156986977Y20634002D01*
X156996501Y20614954D01*
X156996501Y20557812D01*
X156986977Y20538764D01*
X156977453Y20529240D01*
X156958406Y20519716D01*
X156929834Y20519716D01*
X157301263Y20624478D02*
X157234596Y20624478D01*
X157234596Y20519716D02*
X157234596Y20719716D01*
X157329834Y20719716D01*
X157406025Y20538764D02*
X157415549Y20529240D01*
X157406025Y20519716D01*
X157396501Y20529240D01*
X157406025Y20538764D01*
X157406025Y20519716D01*
X157615549Y20538764D02*
X157606025Y20529240D01*
X157577453Y20519716D01*
X157558406Y20519716D01*
X157529834Y20529240D01*
X157510787Y20548288D01*
X157501263Y20567335D01*
X157491739Y20605431D01*
X157491739Y20634002D01*
X157501263Y20672097D01*
X157510787Y20691145D01*
X157529834Y20710192D01*
X157558406Y20719716D01*
X157577453Y20719716D01*
X157606025Y20710192D01*
X157615549Y20700669D01*
X157786977Y20653050D02*
X157786977Y20519716D01*
X157701263Y20653050D02*
X157701263Y20548288D01*
X157710787Y20529240D01*
X157729834Y20519716D01*
X157758406Y20519716D01*
X157777453Y20529240D01*
X157786977Y20538764D01*
X158006025Y20653050D02*
X158082215Y20653050D01*
X158034596Y20719716D02*
X158034596Y20548288D01*
X158044120Y20529240D01*
X158063168Y20519716D01*
X158082215Y20519716D01*
X158148882Y20519716D02*
X158148882Y20653050D01*
X158148882Y20614954D02*
X158158406Y20634002D01*
X158167930Y20643526D01*
X158186977Y20653050D01*
X158206025Y20653050D01*
X158358406Y20519716D02*
X158358406Y20624478D01*
X158348882Y20643526D01*
X158329834Y20653050D01*
X158291739Y20653050D01*
X158272692Y20643526D01*
X158358406Y20529240D02*
X158339358Y20519716D01*
X158291739Y20519716D01*
X158272692Y20529240D01*
X158263168Y20548288D01*
X158263168Y20567335D01*
X158272692Y20586383D01*
X158291739Y20595907D01*
X158339358Y20595907D01*
X158358406Y20605431D01*
X158539358Y20529240D02*
X158520311Y20519716D01*
X158482215Y20519716D01*
X158463168Y20529240D01*
X158453644Y20538764D01*
X158444120Y20557812D01*
X158444120Y20614954D01*
X158453644Y20634002D01*
X158463168Y20643526D01*
X158482215Y20653050D01*
X158520311Y20653050D01*
X158539358Y20643526D01*
X158625072Y20519716D02*
X158625072Y20719716D01*
X158644120Y20595907D02*
X158701263Y20519716D01*
X158701263Y20653050D02*
X158625072Y20576859D01*
X158777453Y20529240D02*
X158796501Y20519716D01*
X158834596Y20519716D01*
X158853644Y20529240D01*
X158863168Y20548288D01*
X158863168Y20557812D01*
X158853644Y20576859D01*
X158834596Y20586383D01*
X158806025Y20586383D01*
X158786977Y20595907D01*
X158777453Y20614954D01*
X158777453Y20624478D01*
X158786977Y20643526D01*
X158806025Y20653050D01*
X158834596Y20653050D01*
X158853644Y20643526D01*
X151691739Y20519716D02*
X151691739Y20719716D01*
X151806025Y20519716D01*
X151806025Y20719716D01*
X151929834Y20519716D02*
X151910787Y20529240D01*
X151901263Y20538764D01*
X151891739Y20557812D01*
X151891739Y20614954D01*
X151901263Y20634002D01*
X151910787Y20643526D01*
X151929834Y20653050D01*
X151958406Y20653050D01*
X151977453Y20643526D01*
X151986977Y20634002D01*
X151996501Y20614954D01*
X151996501Y20557812D01*
X151986977Y20538764D01*
X151977453Y20529240D01*
X151958406Y20519716D01*
X151929834Y20519716D01*
X152301263Y20624478D02*
X152234596Y20624478D01*
X152234596Y20519716D02*
X152234596Y20719716D01*
X152329834Y20719716D01*
X152406025Y20538764D02*
X152415549Y20529240D01*
X152406025Y20519716D01*
X152396501Y20529240D01*
X152406025Y20538764D01*
X152406025Y20519716D01*
X152615549Y20538764D02*
X152606025Y20529240D01*
X152577453Y20519716D01*
X152558406Y20519716D01*
X152529834Y20529240D01*
X152510787Y20548288D01*
X152501263Y20567335D01*
X152491739Y20605431D01*
X152491739Y20634002D01*
X152501263Y20672097D01*
X152510787Y20691145D01*
X152529834Y20710192D01*
X152558406Y20719716D01*
X152577453Y20719716D01*
X152606025Y20710192D01*
X152615549Y20700669D01*
X152786977Y20653050D02*
X152786977Y20519716D01*
X152701263Y20653050D02*
X152701263Y20548288D01*
X152710787Y20529240D01*
X152729834Y20519716D01*
X152758406Y20519716D01*
X152777453Y20529240D01*
X152786977Y20538764D01*
X153006025Y20653050D02*
X153082215Y20653050D01*
X153034596Y20719716D02*
X153034596Y20548288D01*
X153044120Y20529240D01*
X153063168Y20519716D01*
X153082215Y20519716D01*
X153148882Y20519716D02*
X153148882Y20653050D01*
X153148882Y20614954D02*
X153158406Y20634002D01*
X153167930Y20643526D01*
X153186977Y20653050D01*
X153206025Y20653050D01*
X153358406Y20519716D02*
X153358406Y20624478D01*
X153348882Y20643526D01*
X153329834Y20653050D01*
X153291739Y20653050D01*
X153272692Y20643526D01*
X153358406Y20529240D02*
X153339358Y20519716D01*
X153291739Y20519716D01*
X153272692Y20529240D01*
X153263168Y20548288D01*
X153263168Y20567335D01*
X153272692Y20586383D01*
X153291739Y20595907D01*
X153339358Y20595907D01*
X153358406Y20605431D01*
X153539358Y20529240D02*
X153520311Y20519716D01*
X153482215Y20519716D01*
X153463168Y20529240D01*
X153453644Y20538764D01*
X153444120Y20557812D01*
X153444120Y20614954D01*
X153453644Y20634002D01*
X153463168Y20643526D01*
X153482215Y20653050D01*
X153520311Y20653050D01*
X153539358Y20643526D01*
X153625072Y20519716D02*
X153625072Y20719716D01*
X153644120Y20595907D02*
X153701263Y20519716D01*
X153701263Y20653050D02*
X153625072Y20576859D01*
X153777453Y20529240D02*
X153796501Y20519716D01*
X153834596Y20519716D01*
X153853644Y20529240D01*
X153863168Y20548288D01*
X153863168Y20557812D01*
X153853644Y20576859D01*
X153834596Y20586383D01*
X153806025Y20586383D01*
X153786977Y20595907D01*
X153777453Y20614954D01*
X153777453Y20624478D01*
X153786977Y20643526D01*
X153806025Y20653050D01*
X153834596Y20653050D01*
X153853644Y20643526D01*
X151558406Y20919716D02*
X151558406Y21119716D01*
X151672692Y20919716D02*
X151586977Y21034002D01*
X151672692Y21119716D02*
X151558406Y21005431D01*
X151758406Y21024478D02*
X151825072Y21024478D01*
X151853644Y20919716D02*
X151758406Y20919716D01*
X151758406Y21119716D01*
X151853644Y21119716D01*
X151939358Y21024478D02*
X152006025Y21024478D01*
X152034596Y20919716D02*
X151939358Y20919716D01*
X151939358Y21119716D01*
X152034596Y21119716D01*
X152120311Y20919716D02*
X152120311Y21119716D01*
X152196501Y21119716D01*
X152215549Y21110192D01*
X152225072Y21100669D01*
X152234596Y21081621D01*
X152234596Y21053050D01*
X152225072Y21034002D01*
X152215549Y21024478D01*
X152196501Y21014954D01*
X152120311Y21014954D01*
X152320311Y20995907D02*
X152472692Y20995907D01*
X152606025Y21119716D02*
X152644120Y21119716D01*
X152663168Y21110192D01*
X152682215Y21091145D01*
X152691739Y21053050D01*
X152691739Y20986383D01*
X152682215Y20948288D01*
X152663168Y20929240D01*
X152644120Y20919716D01*
X152606025Y20919716D01*
X152586977Y20929240D01*
X152567930Y20948288D01*
X152558406Y20986383D01*
X152558406Y21053050D01*
X152567930Y21091145D01*
X152586977Y21110192D01*
X152606025Y21119716D01*
X152777453Y21119716D02*
X152777453Y20957812D01*
X152786977Y20938764D01*
X152796501Y20929240D01*
X152815549Y20919716D01*
X152853644Y20919716D01*
X152872692Y20929240D01*
X152882215Y20938764D01*
X152891739Y20957812D01*
X152891739Y21119716D01*
X152958406Y21119716D02*
X153072692Y21119716D01*
X153015549Y20919716D02*
X153015549Y21119716D01*
X153272692Y21119716D02*
X153406025Y21119716D01*
X153272692Y20919716D01*
X153406025Y20919716D01*
X153520311Y21119716D02*
X153558406Y21119716D01*
X153577453Y21110192D01*
X153596501Y21091145D01*
X153606025Y21053050D01*
X153606025Y20986383D01*
X153596501Y20948288D01*
X153577453Y20929240D01*
X153558406Y20919716D01*
X153520311Y20919716D01*
X153501263Y20929240D01*
X153482215Y20948288D01*
X153472692Y20986383D01*
X153472692Y21053050D01*
X153482215Y21091145D01*
X153501263Y21110192D01*
X153520311Y21119716D01*
X153691739Y20919716D02*
X153691739Y21119716D01*
X153806025Y20919716D01*
X153806025Y21119716D01*
X153901263Y21024478D02*
X153967930Y21024478D01*
X153996501Y20919716D02*
X153901263Y20919716D01*
X153901263Y21119716D01*
X153996501Y21119716D01*
%TO.C,SW1*%
X156558406Y14519716D02*
X156558406Y14719716D01*
X156672692Y14519716D02*
X156586977Y14634002D01*
X156672692Y14719716D02*
X156558406Y14605431D01*
X156758406Y14624478D02*
X156825072Y14624478D01*
X156853644Y14519716D02*
X156758406Y14519716D01*
X156758406Y14719716D01*
X156853644Y14719716D01*
X156939358Y14624478D02*
X157006025Y14624478D01*
X157034596Y14519716D02*
X156939358Y14519716D01*
X156939358Y14719716D01*
X157034596Y14719716D01*
X157120311Y14519716D02*
X157120311Y14719716D01*
X157196501Y14719716D01*
X157215549Y14710192D01*
X157225072Y14700669D01*
X157234596Y14681621D01*
X157234596Y14653050D01*
X157225072Y14634002D01*
X157215549Y14624478D01*
X157196501Y14614954D01*
X157120311Y14614954D01*
X157320311Y14595907D02*
X157472692Y14595907D01*
X157606025Y14719716D02*
X157644120Y14719716D01*
X157663168Y14710192D01*
X157682215Y14691145D01*
X157691739Y14653050D01*
X157691739Y14586383D01*
X157682215Y14548288D01*
X157663168Y14529240D01*
X157644120Y14519716D01*
X157606025Y14519716D01*
X157586977Y14529240D01*
X157567930Y14548288D01*
X157558406Y14586383D01*
X157558406Y14653050D01*
X157567930Y14691145D01*
X157586977Y14710192D01*
X157606025Y14719716D01*
X157777453Y14719716D02*
X157777453Y14557812D01*
X157786977Y14538764D01*
X157796501Y14529240D01*
X157815549Y14519716D01*
X157853644Y14519716D01*
X157872692Y14529240D01*
X157882215Y14538764D01*
X157891739Y14557812D01*
X157891739Y14719716D01*
X157958406Y14719716D02*
X158072692Y14719716D01*
X158015549Y14519716D02*
X158015549Y14719716D01*
X158272692Y14719716D02*
X158406025Y14719716D01*
X158272692Y14519716D01*
X158406025Y14519716D01*
X158520311Y14719716D02*
X158558406Y14719716D01*
X158577453Y14710192D01*
X158596501Y14691145D01*
X158606025Y14653050D01*
X158606025Y14586383D01*
X158596501Y14548288D01*
X158577453Y14529240D01*
X158558406Y14519716D01*
X158520311Y14519716D01*
X158501263Y14529240D01*
X158482215Y14548288D01*
X158472692Y14586383D01*
X158472692Y14653050D01*
X158482215Y14691145D01*
X158501263Y14710192D01*
X158520311Y14719716D01*
X158691739Y14519716D02*
X158691739Y14719716D01*
X158806025Y14519716D01*
X158806025Y14719716D01*
X158901263Y14624478D02*
X158967930Y14624478D01*
X158996501Y14519716D02*
X158901263Y14519716D01*
X158901263Y14719716D01*
X158996501Y14719716D01*
X151691739Y14119716D02*
X151691739Y14319716D01*
X151806025Y14119716D01*
X151806025Y14319716D01*
X151929834Y14119716D02*
X151910787Y14129240D01*
X151901263Y14138764D01*
X151891739Y14157812D01*
X151891739Y14214954D01*
X151901263Y14234002D01*
X151910787Y14243526D01*
X151929834Y14253050D01*
X151958406Y14253050D01*
X151977453Y14243526D01*
X151986977Y14234002D01*
X151996501Y14214954D01*
X151996501Y14157812D01*
X151986977Y14138764D01*
X151977453Y14129240D01*
X151958406Y14119716D01*
X151929834Y14119716D01*
X152301263Y14224478D02*
X152234596Y14224478D01*
X152234596Y14119716D02*
X152234596Y14319716D01*
X152329834Y14319716D01*
X152406025Y14138764D02*
X152415549Y14129240D01*
X152406025Y14119716D01*
X152396501Y14129240D01*
X152406025Y14138764D01*
X152406025Y14119716D01*
X152615549Y14138764D02*
X152606025Y14129240D01*
X152577453Y14119716D01*
X152558406Y14119716D01*
X152529834Y14129240D01*
X152510787Y14148288D01*
X152501263Y14167335D01*
X152491739Y14205431D01*
X152491739Y14234002D01*
X152501263Y14272097D01*
X152510787Y14291145D01*
X152529834Y14310192D01*
X152558406Y14319716D01*
X152577453Y14319716D01*
X152606025Y14310192D01*
X152615549Y14300669D01*
X152786977Y14253050D02*
X152786977Y14119716D01*
X152701263Y14253050D02*
X152701263Y14148288D01*
X152710787Y14129240D01*
X152729834Y14119716D01*
X152758406Y14119716D01*
X152777453Y14129240D01*
X152786977Y14138764D01*
X153006025Y14253050D02*
X153082215Y14253050D01*
X153034596Y14319716D02*
X153034596Y14148288D01*
X153044120Y14129240D01*
X153063168Y14119716D01*
X153082215Y14119716D01*
X153148882Y14119716D02*
X153148882Y14253050D01*
X153148882Y14214954D02*
X153158406Y14234002D01*
X153167930Y14243526D01*
X153186977Y14253050D01*
X153206025Y14253050D01*
X153358406Y14119716D02*
X153358406Y14224478D01*
X153348882Y14243526D01*
X153329834Y14253050D01*
X153291739Y14253050D01*
X153272692Y14243526D01*
X153358406Y14129240D02*
X153339358Y14119716D01*
X153291739Y14119716D01*
X153272692Y14129240D01*
X153263168Y14148288D01*
X153263168Y14167335D01*
X153272692Y14186383D01*
X153291739Y14195907D01*
X153339358Y14195907D01*
X153358406Y14205431D01*
X153539358Y14129240D02*
X153520311Y14119716D01*
X153482215Y14119716D01*
X153463168Y14129240D01*
X153453644Y14138764D01*
X153444120Y14157812D01*
X153444120Y14214954D01*
X153453644Y14234002D01*
X153463168Y14243526D01*
X153482215Y14253050D01*
X153520311Y14253050D01*
X153539358Y14243526D01*
X153625072Y14119716D02*
X153625072Y14319716D01*
X153644120Y14195907D02*
X153701263Y14119716D01*
X153701263Y14253050D02*
X153625072Y14176859D01*
X153777453Y14129240D02*
X153796501Y14119716D01*
X153834596Y14119716D01*
X153853644Y14129240D01*
X153863168Y14148288D01*
X153863168Y14157812D01*
X153853644Y14176859D01*
X153834596Y14186383D01*
X153806025Y14186383D01*
X153786977Y14195907D01*
X153777453Y14214954D01*
X153777453Y14224478D01*
X153786977Y14243526D01*
X153806025Y14253050D01*
X153834596Y14253050D01*
X153853644Y14243526D01*
X151558406Y14519716D02*
X151558406Y14719716D01*
X151672692Y14519716D02*
X151586977Y14634002D01*
X151672692Y14719716D02*
X151558406Y14605431D01*
X151758406Y14624478D02*
X151825072Y14624478D01*
X151853644Y14519716D02*
X151758406Y14519716D01*
X151758406Y14719716D01*
X151853644Y14719716D01*
X151939358Y14624478D02*
X152006025Y14624478D01*
X152034596Y14519716D02*
X151939358Y14519716D01*
X151939358Y14719716D01*
X152034596Y14719716D01*
X152120311Y14519716D02*
X152120311Y14719716D01*
X152196501Y14719716D01*
X152215549Y14710192D01*
X152225072Y14700669D01*
X152234596Y14681621D01*
X152234596Y14653050D01*
X152225072Y14634002D01*
X152215549Y14624478D01*
X152196501Y14614954D01*
X152120311Y14614954D01*
X152320311Y14595907D02*
X152472692Y14595907D01*
X152606025Y14719716D02*
X152644120Y14719716D01*
X152663168Y14710192D01*
X152682215Y14691145D01*
X152691739Y14653050D01*
X152691739Y14586383D01*
X152682215Y14548288D01*
X152663168Y14529240D01*
X152644120Y14519716D01*
X152606025Y14519716D01*
X152586977Y14529240D01*
X152567930Y14548288D01*
X152558406Y14586383D01*
X152558406Y14653050D01*
X152567930Y14691145D01*
X152586977Y14710192D01*
X152606025Y14719716D01*
X152777453Y14719716D02*
X152777453Y14557812D01*
X152786977Y14538764D01*
X152796501Y14529240D01*
X152815549Y14519716D01*
X152853644Y14519716D01*
X152872692Y14529240D01*
X152882215Y14538764D01*
X152891739Y14557812D01*
X152891739Y14719716D01*
X152958406Y14719716D02*
X153072692Y14719716D01*
X153015549Y14519716D02*
X153015549Y14719716D01*
X153272692Y14719716D02*
X153406025Y14719716D01*
X153272692Y14519716D01*
X153406025Y14519716D01*
X153520311Y14719716D02*
X153558406Y14719716D01*
X153577453Y14710192D01*
X153596501Y14691145D01*
X153606025Y14653050D01*
X153606025Y14586383D01*
X153596501Y14548288D01*
X153577453Y14529240D01*
X153558406Y14519716D01*
X153520311Y14519716D01*
X153501263Y14529240D01*
X153482215Y14548288D01*
X153472692Y14586383D01*
X153472692Y14653050D01*
X153482215Y14691145D01*
X153501263Y14710192D01*
X153520311Y14719716D01*
X153691739Y14519716D02*
X153691739Y14719716D01*
X153806025Y14519716D01*
X153806025Y14719716D01*
X153901263Y14624478D02*
X153967930Y14624478D01*
X153996501Y14519716D02*
X153901263Y14519716D01*
X153901263Y14719716D01*
X153996501Y14719716D01*
X156691739Y14119716D02*
X156691739Y14319716D01*
X156806025Y14119716D01*
X156806025Y14319716D01*
X156929834Y14119716D02*
X156910787Y14129240D01*
X156901263Y14138764D01*
X156891739Y14157812D01*
X156891739Y14214954D01*
X156901263Y14234002D01*
X156910787Y14243526D01*
X156929834Y14253050D01*
X156958406Y14253050D01*
X156977453Y14243526D01*
X156986977Y14234002D01*
X156996501Y14214954D01*
X156996501Y14157812D01*
X156986977Y14138764D01*
X156977453Y14129240D01*
X156958406Y14119716D01*
X156929834Y14119716D01*
X157301263Y14224478D02*
X157234596Y14224478D01*
X157234596Y14119716D02*
X157234596Y14319716D01*
X157329834Y14319716D01*
X157406025Y14138764D02*
X157415549Y14129240D01*
X157406025Y14119716D01*
X157396501Y14129240D01*
X157406025Y14138764D01*
X157406025Y14119716D01*
X157615549Y14138764D02*
X157606025Y14129240D01*
X157577453Y14119716D01*
X157558406Y14119716D01*
X157529834Y14129240D01*
X157510787Y14148288D01*
X157501263Y14167335D01*
X157491739Y14205431D01*
X157491739Y14234002D01*
X157501263Y14272097D01*
X157510787Y14291145D01*
X157529834Y14310192D01*
X157558406Y14319716D01*
X157577453Y14319716D01*
X157606025Y14310192D01*
X157615549Y14300669D01*
X157786977Y14253050D02*
X157786977Y14119716D01*
X157701263Y14253050D02*
X157701263Y14148288D01*
X157710787Y14129240D01*
X157729834Y14119716D01*
X157758406Y14119716D01*
X157777453Y14129240D01*
X157786977Y14138764D01*
X158006025Y14253050D02*
X158082215Y14253050D01*
X158034596Y14319716D02*
X158034596Y14148288D01*
X158044120Y14129240D01*
X158063168Y14119716D01*
X158082215Y14119716D01*
X158148882Y14119716D02*
X158148882Y14253050D01*
X158148882Y14214954D02*
X158158406Y14234002D01*
X158167930Y14243526D01*
X158186977Y14253050D01*
X158206025Y14253050D01*
X158358406Y14119716D02*
X158358406Y14224478D01*
X158348882Y14243526D01*
X158329834Y14253050D01*
X158291739Y14253050D01*
X158272692Y14243526D01*
X158358406Y14129240D02*
X158339358Y14119716D01*
X158291739Y14119716D01*
X158272692Y14129240D01*
X158263168Y14148288D01*
X158263168Y14167335D01*
X158272692Y14186383D01*
X158291739Y14195907D01*
X158339358Y14195907D01*
X158358406Y14205431D01*
X158539358Y14129240D02*
X158520311Y14119716D01*
X158482215Y14119716D01*
X158463168Y14129240D01*
X158453644Y14138764D01*
X158444120Y14157812D01*
X158444120Y14214954D01*
X158453644Y14234002D01*
X158463168Y14243526D01*
X158482215Y14253050D01*
X158520311Y14253050D01*
X158539358Y14243526D01*
X158625072Y14119716D02*
X158625072Y14319716D01*
X158644120Y14195907D02*
X158701263Y14119716D01*
X158701263Y14253050D02*
X158625072Y14176859D01*
X158777453Y14129240D02*
X158796501Y14119716D01*
X158834596Y14119716D01*
X158853644Y14129240D01*
X158863168Y14148288D01*
X158863168Y14157812D01*
X158853644Y14176859D01*
X158834596Y14186383D01*
X158806025Y14186383D01*
X158786977Y14195907D01*
X158777453Y14214954D01*
X158777453Y14224478D01*
X158786977Y14243526D01*
X158806025Y14253050D01*
X158834596Y14253050D01*
X158853644Y14243526D01*
D11*
%TO.C,H3*%
X55237692Y36945192D02*
G75*
G03*
X55237692Y36945192I-2200000J0D01*
G01*
%TO.C,H2*%
X48947692Y109125192D02*
G75*
G03*
X48947692Y109125192I-2200000J0D01*
G01*
%TO.C,H4*%
X296487692Y54845192D02*
G75*
G03*
X296487692Y54845192I-2200000J0D01*
G01*
%TO.C,H1*%
X322527692Y109125192D02*
G75*
G03*
X322527692Y109125192I-2200000J0D01*
G01*
%TD*%
M02*
