M48
; DRILL file {KiCad (6.0.11)} date Mon Mar 27 15:54:23 2023
; FORMAT={-:-/ absolute / inch / decimal}
; #@! TF.CreationDate,2023-03-27T15:54:23+07:00
; #@! TF.GenerationSoftware,Kicad,Pcbnew,(6.0.11)
; #@! TF.FileFunction,NonPlated,1,2,NPTH
FMAT,2
INCH
; #@! TA.AperFunction,NonPlated,NPTH,ComponentDrill
T1C0.0256
; #@! TA.AperFunction,NonPlated,NPTH,ComponentDrill
T2C0.0689
; #@! TA.AperFunction,NonPlated,NPTH,ComponentDrill
T3C0.0866
; #@! TA.AperFunction,NonPlated,NPTH,ComponentDrill
T4C0.1570
%
G90
G05
T1
X1.2789Y5.4573
X1.5065Y5.4573
T2
X0.1533Y3.688
X0.1533Y2.938
X0.1533Y2.188
X0.1533Y1.438
X0.1533Y0.688
X0.5533Y3.688
X0.5533Y2.938
X0.5533Y2.188
X0.5533Y1.438
X0.5533Y0.688
X0.9033Y3.688
X0.9033Y2.188
X0.9033Y1.438
X0.9053Y2.938
X0.9053Y0.688
X1.3033Y3.688
X1.3033Y2.188
X1.3033Y1.438
X1.3053Y2.938
X1.3053Y0.688
X2.0283Y5.0005
X2.0283Y3.688
X2.1213Y0.688
X2.2158Y2.938
X2.3088Y2.188
X2.4283Y5.0005
X2.4283Y3.688
X2.4963Y1.438
X2.5213Y0.688
X2.6158Y2.938
X2.7088Y2.188
X2.7783Y5.0005
X2.7783Y3.688
X2.8963Y1.438
X3.0588Y0.688
X3.1533Y2.938
X3.1783Y5.0005
X3.1783Y3.688
X3.3408Y2.188
X3.4588Y0.688
X3.5283Y5.0005
X3.5283Y3.688
X3.5533Y2.938
X3.7158Y1.438
X3.7408Y2.188
X3.9033Y2.938
X3.9283Y5.0005
X3.9283Y3.688
X3.9963Y0.688
X4.0908Y2.188
X4.1158Y1.438
X4.2783Y5.0005
X4.2783Y3.688
X4.3033Y2.938
X4.3963Y0.688
X4.4658Y1.438
X4.4908Y2.188
X4.6533Y2.938
X4.6783Y5.0005
X4.6783Y3.688
X4.8408Y2.188
X4.8658Y1.438
X5.0283Y5.0005
X5.0283Y3.688
X5.0533Y2.938
X5.2158Y1.438
X5.2408Y2.188
X5.4033Y2.938
X5.4283Y5.0005
X5.4283Y3.688
X5.5908Y2.188
X5.6158Y1.438
X5.7783Y5.0005
X5.7783Y3.688
X5.8033Y2.938
X5.9658Y1.438
X5.9908Y2.188
X6.1533Y2.938
X6.1783Y5.0005
X6.1783Y3.688
X6.3408Y2.188
X6.3658Y1.438
X6.5283Y5.0005
X6.5283Y3.688
X6.5533Y2.938
X6.7158Y1.438
X6.7408Y2.188
X6.8088Y0.688
X6.9033Y2.938
X6.9283Y5.0005
X6.9283Y3.688
X7.0908Y2.188
X7.1158Y1.438
X7.2088Y0.688
X7.2783Y5.0005
X7.2783Y3.688
X7.3033Y2.938
X7.4658Y1.438
X7.4908Y2.188
X7.6533Y2.938
X7.6783Y5.0005
X7.6783Y3.688
X7.8408Y2.188
X7.8658Y1.438
X8.0283Y5.0005
X8.0283Y3.688
X8.0533Y2.938
X8.2158Y1.438
X8.2408Y2.188
X8.4033Y2.938
X8.4283Y5.0005
X8.4283Y3.688
X8.5908Y2.188
X8.6158Y1.438
X8.7783Y5.0005
X8.7783Y3.688
X8.8033Y2.938
X8.9658Y1.438
X8.9908Y2.188
X9.1533Y2.938
X9.1783Y5.0005
X9.1783Y3.688
X9.3408Y2.188
X9.3658Y1.438
X9.5283Y5.0005
X9.5283Y3.688
X9.5283Y0.688
X9.5533Y2.938
X9.7158Y1.438
X9.7408Y2.188
X9.9033Y2.938
X9.9283Y5.0005
X9.9283Y3.688
X9.9283Y0.688
X10.0908Y2.188
X10.1158Y1.438
X10.2783Y5.0005
X10.2783Y3.688
X10.2783Y0.688
X10.3033Y2.938
X10.4658Y1.438
X10.4908Y2.188
X10.6533Y2.938
X10.6783Y5.0005
X10.6783Y3.688
X10.6783Y0.688
X10.8408Y2.188
X10.8658Y1.438
X11.0283Y5.0005
X11.0283Y3.688
X11.0283Y0.688
X11.0533Y2.938
X11.2408Y2.188
X11.4033Y2.938
X11.4283Y5.0005
X11.4283Y3.688
X11.4283Y0.688
X11.4963Y1.438
X11.7783Y5.0005
X11.7783Y0.688
X11.8033Y2.938
X11.8963Y1.438
X12.0588Y2.188
X12.1533Y3.688
X12.1783Y5.0005
X12.1783Y0.688
X12.3408Y2.938
X12.4588Y2.188
X12.5283Y5.0005
X12.5283Y1.438
X12.5283Y0.688
X12.5533Y3.688
X12.7408Y2.938
X12.9283Y5.0005
X12.9283Y1.438
X12.9283Y0.688
X13.2783Y5.0005
X13.2783Y3.688
X13.2783Y2.938
X13.2783Y2.188
X13.2783Y1.438
X13.2783Y0.688
X13.6783Y5.0005
X13.6783Y3.688
X13.6783Y2.938
X13.6783Y2.188
X13.6783Y1.438
X13.6783Y0.688
T3
X1.7411Y4.3441
X1.9888Y1.5024
X11.4868Y2.2071
X12.512Y4.3441
T4
X0.3533Y3.688
X0.3533Y2.938
X0.3533Y2.188
X0.3533Y1.438
X0.3533Y0.688
X1.1033Y3.688
X1.1033Y2.188
X1.1033Y1.438
X1.1053Y2.938
X1.1053Y0.688
X2.2276Y1.113
X2.2283Y5.0005
X2.2283Y3.688
X2.3213Y0.688
X2.4158Y2.938
X2.5088Y2.188
X2.6963Y1.438
X2.9783Y5.0005
X2.9783Y3.688
X3.1651Y1.113
X3.2588Y0.688
X3.3533Y2.938
X3.5408Y2.188
X3.7283Y5.0005
X3.7283Y3.688
X3.9158Y1.438
X4.1033Y2.938
X4.1963Y0.688
X4.2908Y2.188
X4.4783Y5.0005
X4.4783Y3.688
X4.6658Y1.438
X4.8533Y2.938
X5.0401Y0.363
X5.0408Y2.188
X5.2283Y5.0005
X5.2283Y3.688
X5.4158Y1.438
X5.6033Y2.938
X5.7908Y2.188
X5.9783Y5.0005
X5.9783Y3.688
X6.1658Y1.438
X6.3533Y2.938
X6.5408Y2.188
X6.7283Y5.0005
X6.7283Y3.688
X6.9158Y1.438
X7.0088Y0.688
X7.1033Y2.938
X7.2908Y2.188
X7.4783Y5.0005
X7.4783Y3.688
X7.6658Y1.438
X7.8533Y2.938
X8.0408Y2.188
X8.2283Y5.0005
X8.2283Y3.688
X8.4158Y1.438
X8.6033Y2.938
X8.7908Y2.188
X8.9776Y0.363
X8.9783Y5.0005
X8.9783Y3.688
X9.1658Y1.438
X9.3533Y2.938
X9.5408Y2.188
X9.7283Y5.0005
X9.7283Y3.688
X9.7283Y0.688
X9.9158Y1.438
X10.1033Y2.938
X10.2908Y2.188
X10.4783Y5.0005
X10.4783Y3.688
X10.4783Y0.688
X10.6658Y1.438
X10.8533Y2.938
X11.0408Y2.188
X11.2283Y5.0005
X11.2283Y3.688
X11.2283Y0.688
X11.6033Y2.938
X11.6963Y1.438
X11.7901Y1.863
X11.8846Y3.363
X11.9783Y5.0005
X11.9783Y0.688
X12.2588Y2.188
X12.3533Y3.688
X12.5408Y2.938
X12.7276Y1.863
X12.7283Y5.0005
X12.7283Y1.438
X12.7283Y0.688
X12.8221Y3.363
X13.4783Y5.0005
X13.4783Y3.688
X13.4783Y2.938
X13.4783Y2.188
X13.4783Y1.438
X13.4783Y0.688
T0
M30
